# MagicaVoxel @ Ephtracy

# group
o 

# material
mtllib Isla-Del-Verano-5.mtl
usemtl palette

# normals
vn -1 0 0
vn 1 0 0
vn 0 0 1
vn 0 0 -1
vn 0 -1 0
vn 0 1 0

# texcoords
vt 0.0644531 0.5
vt 0.0957031 0.5
vt 0.220703 0.5

# verts
v 15.1 7.5 9.6
v 15.1 7.5 8.7
v 15.1 7.6 10
v 15.1 7.6 9.6
v 15.1 8.9 10
v 15.1 8.9 9.8
v 15.1 8.9 9.2
v 15.1 8.9 8.8
v 15.1 9 8.8
v 15.1 9 8.7
v 15.1 9.3 9.8
v 15.1 9.3 9.6
v 15.1 9.4 9.6
v 15.1 9.4 9.2
v 15.2 7.2 9.9
v 15.2 7.2 8.9
v 15.2 7.3 10
v 15.2 7.3 9.9
v 15.2 7.4 8.9
v 15.2 7.4 8.7
v 15.2 7.5 9.6
v 15.2 7.5 8.7
v 15.2 7.6 10
v 15.2 7.6 9.6
v 15.2 8.9 9.2
v 15.2 8.9 8.8
v 15.2 9 8.8
v 15.2 9.3 9.7
v 15.2 9.3 9.6
v 15.2 9.3 9.2
v 15.2 9.3 8.8
v 15.2 9.4 9.7
v 15.2 9.4 9.6
v 15.3 7.2 8.9
v 15.3 7.2 8.7
v 15.3 7.4 8.9
v 15.3 7.4 8.7
v 15.3 8.9 10
v 15.3 8.9 9.8
v 15.3 9 8.8
v 15.3 9 8.7
v 15.3 9.2 10
v 15.3 9.2 9.9
v 15.3 9.3 9.9
v 15.3 9.3 9.8
v 15.3 9.3 9.7
v 15.3 9.3 8.8
v 15.3 9.3 8.7
v 15.3 9.4 9.8
v 15.3 9.4 9.7
v 15.4 7.2 10
v 15.4 7.2 9.9
v 15.4 7.3 10
v 15.4 7.3 9.9
v 15.4 9.2 10
v 15.4 9.2 9.9
v 15.4 9.3 9.9
v 15.4 9.3 9.8
v 15.4 9.3 9.2
v 15.4 9.3 8.7
v 15.4 9.4 10
v 15.4 9.4 9.8
v 15.4 9.4 9.2
v 15.4 9.4 8.7
v 15.6 6.4 9.6
v 15.6 6.4 9.2
v 15.6 6.6 9.6
v 15.6 6.6 9.2
v 15.6 6.8 9.6
v 15.6 6.8 9.2
v 15.6 7 9.6
v 15.6 7 9.2
v 15.6 7.2 9.6
v 15.6 7.2 9.2
v 16.4 7.5 8.8
v 16.4 7.5 8.7
v 16.4 7.8 8.8
v 16.4 7.8 8.7
v 15.8 7.3 8.8
v 15.8 7.3 8.7
v 15.8 7.8 8.8
v 15.8 7.8 8.7
v 16 6.4 9.6
v 16 6.4 9.2
v 16 6.6 9.6
v 16 6.6 9.2
v 16 6.8 9.6
v 16 6.8 9.2
v 16 7 9.6
v 16 7 9.2
v 16 7.2 9.6
v 16 7.2 9.2
v 16.1 9.3 9
v 16.1 9.3 8.7
v 16.1 9.4 9
v 16.1 9.4 8.7
v 16.2 7.2 8.8
v 16.2 7.2 8.7
v 16.2 7.3 8.8
v 16.2 7.3 8.7
v 16.2 9.3 10
v 16.2 9.3 9.9
v 16.2 9.4 10
v 16.2 9.4 9.9
v 16.3 7.3 10
v 16.3 7.3 9.8
v 16.3 7.4 10
v 16.3 7.4 9.8
v 16.3 9 10
v 16.3 9 9.9
v 16.3 9.1 8.8
v 16.3 9.1 8.7
v 16.3 9.3 10
v 16.3 9.3 9.9
v 16.3 9.3 8.8
v 16.3 9.3 8.7
v 16.4 7.2 10
v 16.4 7.2 9.9
v 16.4 7.2 8.9
v 16.4 7.2 8.8
v 16.4 7.3 10
v 16.4 7.3 9.9
v 16.4 7.4 10
v 16.4 7.4 9.9
v 16.4 7.5 8.9
v 16.4 7.5 8.8
v 16.4 7.6 10
v 16.4 7.6 9.9
v 16.4 9 9.9
v 16.4 9 9.8
v 16.4 9.1 8.9
v 16.4 9.1 8.8
v 16.4 9.3 8.9
v 16.4 9.3 8.8
v 16.4 9.4 9.9
v 16.4 9.4 9.8
v 16.5 7.2 9.9
v 16.5 7.2 8.9
v 16.5 7.3 9.9
v 16.5 7.3 9.8
v 16.5 7.4 9.9
v 16.5 7.4 9.8
v 16.5 7.5 8.9
v 16.5 7.5 8.7
v 16.5 7.6 10
v 16.5 7.6 9.9
v 16.5 9 10
v 16.5 9 9.8
v 16.5 9.1 8.9
v 16.5 9.1 8.7
v 16.5 9.3 9
v 16.5 9.3 8.9
v 16.5 9.4 9.8
v 16.5 9.4 9
v 15.1 7.6 10
v 15.1 8.9 10
v 15.2 7.3 10
v 15.2 7.6 10
v 15.3 8.9 10
v 15.3 9.2 10
v 15.4 7.2 10
v 15.4 7.3 10
v 15.4 9.2 10
v 15.4 9.4 10
v 16.2 9.3 10
v 16.2 9.4 10
v 16.3 7.3 10
v 16.3 7.4 10
v 16.3 9 10
v 16.3 9.3 10
v 16.4 7.2 10
v 16.4 7.3 10
v 16.4 7.4 10
v 16.4 7.6 10
v 16.5 7.6 10
v 16.5 9 10
v 15.2 7.2 9.9
v 15.2 7.3 9.9
v 15.3 9.2 9.9
v 15.3 9.3 9.9
v 15.4 7.2 9.9
v 15.4 7.3 9.9
v 15.4 9.2 9.9
v 15.4 9.3 9.9
v 16.2 9.3 9.9
v 16.2 9.4 9.9
v 16.3 9 9.9
v 16.3 9.3 9.9
v 16.4 7.2 9.9
v 16.4 7.3 9.9
v 16.4 7.4 9.9
v 16.4 7.6 9.9
v 16.4 9 9.9
v 16.4 9.4 9.9
v 16.5 7.2 9.9
v 16.5 7.3 9.9
v 16.5 7.4 9.9
v 16.5 7.6 9.9
v 15.1 8.9 9.8
v 15.1 9.3 9.8
v 15.3 8.9 9.8
v 15.3 9.3 9.8
v 15.3 9.4 9.8
v 15.4 9.3 9.8
v 15.4 9.4 9.8
v 16.3 7.3 9.8
v 16.3 7.4 9.8
v 16.4 9 9.8
v 16.4 9.4 9.8
v 16.5 7.3 9.8
v 16.5 7.4 9.8
v 16.5 9 9.8
v 16.5 9.4 9.8
v 15.2 9.3 9.7
v 15.2 9.4 9.7
v 15.3 9.3 9.7
v 15.3 9.4 9.7
v 15.1 7.5 9.6
v 15.1 7.6 9.6
v 15.1 9.3 9.6
v 15.1 9.4 9.6
v 15.2 7.5 9.6
v 15.2 7.6 9.6
v 15.2 9.3 9.6
v 15.2 9.4 9.6
v 15.6 6.4 9.6
v 15.6 6.6 9.6
v 15.6 6.8 9.6
v 15.6 7 9.6
v 15.6 7.2 9.6
v 16 6.4 9.6
v 16 6.6 9.6
v 16 6.8 9.6
v 16 7 9.6
v 16 7.2 9.6
v 15.1 8.9 8.8
v 15.1 9 8.8
v 15.2 8.9 8.8
v 15.2 9 8.8
v 15.1 8.9 9.2
v 15.1 9.4 9.2
v 15.2 8.9 9.2
v 15.2 9.3 9.2
v 15.4 9.3 9.2
v 15.4 9.4 9.2
v 15.6 6.4 9.2
v 15.6 6.6 9.2
v 15.6 6.8 9.2
v 15.6 7 9.2
v 15.6 7.2 9.2
v 16 6.4 9.2
v 16 6.6 9.2
v 16 6.8 9.2
v 16 7 9.2
v 16 7.2 9.2
v 16.1 9.3 9
v 16.1 9.4 9
v 16.5 9.3 9
v 16.5 9.4 9
v 15.2 7.2 8.9
v 15.2 7.4 8.9
v 15.3 7.2 8.9
v 15.3 7.4 8.9
v 16.4 7.2 8.9
v 16.4 7.5 8.9
v 16.4 9.1 8.9
v 16.4 9.3 8.9
v 16.5 7.2 8.9
v 16.5 7.5 8.9
v 16.5 9.1 8.9
v 16.5 9.3 8.9
v 15.2 9 8.8
v 15.2 9.3 8.8
v 15.3 9 8.8
v 15.3 9.3 8.8
v 15.8 7.3 8.8
v 15.8 7.8 8.8
v 16.2 7.2 8.8
v 16.2 7.3 8.8
v 16.3 9.1 8.8
v 16.3 9.3 8.8
v 16.4 7.2 8.8
v 16.4 7.5 8.8
v 16.4 7.8 8.8
v 16.4 9.1 8.8
v 16.4 9.3 8.8
v 15.1 7.5 8.7
v 15.1 9 8.7
v 15.2 7.4 8.7
v 15.2 7.5 8.7
v 15.3 7.2 8.7
v 15.3 7.4 8.7
v 15.3 9 8.7
v 15.3 9.3 8.7
v 15.4 9.3 8.7
v 15.4 9.4 8.7
v 15.8 7.3 8.7
v 15.8 7.8 8.7
v 16.1 9.3 8.7
v 16.1 9.4 8.7
v 16.2 7.2 8.7
v 16.2 7.3 8.7
v 16.3 9.1 8.7
v 16.3 9.3 8.7
v 16.4 7.5 8.7
v 16.4 7.8 8.7
v 16.5 7.5 8.7
v 16.5 9.1 8.7
v 15.6 6.4 9.6
v 16 6.4 9.6
v 15.6 6.4 9.2
v 16 6.4 9.2
v 15.4 7.2 10
v 16.4 7.2 10
v 15.2 7.2 9.9
v 15.4 7.2 9.9
v 16.4 7.2 9.9
v 16.5 7.2 9.9
v 15.6 7.2 9.6
v 16 7.2 9.6
v 15.6 7.2 9.2
v 16 7.2 9.2
v 15.2 7.2 8.9
v 15.3 7.2 8.9
v 16.4 7.2 8.9
v 16.5 7.2 8.9
v 16.2 7.2 8.8
v 16.4 7.2 8.8
v 15.3 7.2 8.7
v 16.2 7.2 8.7
v 15.2 7.3 10
v 15.4 7.3 10
v 15.2 7.3 9.9
v 15.4 7.3 9.9
v 16.3 7.4 10
v 16.4 7.4 10
v 16.4 7.4 9.9
v 16.5 7.4 9.9
v 16.3 7.4 9.8
v 16.5 7.4 9.8
v 15.2 7.4 8.9
v 15.3 7.4 8.9
v 15.2 7.4 8.7
v 15.3 7.4 8.7
v 15.1 7.5 9.6
v 15.2 7.5 9.6
v 16.4 7.5 8.9
v 16.5 7.5 8.9
v 16.4 7.5 8.8
v 15.1 7.5 8.7
v 15.2 7.5 8.7
v 16.4 7.5 8.7
v 16.5 7.5 8.7
v 15.1 7.6 10
v 15.2 7.6 10
v 16.4 7.6 10
v 16.5 7.6 10
v 16.4 7.6 9.9
v 16.5 7.6 9.9
v 15.1 7.6 9.6
v 15.2 7.6 9.6
v 15.8 7.8 8.8
v 16.4 7.8 8.8
v 15.8 7.8 8.7
v 16.4 7.8 8.7
v 16.3 7.3 10
v 16.4 7.3 10
v 16.4 7.3 9.9
v 16.5 7.3 9.9
v 16.3 7.3 9.8
v 16.5 7.3 9.8
v 15.8 7.3 8.8
v 16.2 7.3 8.8
v 15.8 7.3 8.7
v 16.2 7.3 8.7
v 15.1 8.9 10
v 15.3 8.9 10
v 15.1 8.9 9.8
v 15.3 8.9 9.8
v 15.1 8.9 9.2
v 15.2 8.9 9.2
v 15.1 8.9 8.8
v 15.2 8.9 8.8
v 16.3 9 10
v 16.5 9 10
v 16.3 9 9.9
v 16.4 9 9.9
v 16.4 9 9.8
v 16.5 9 9.8
v 15.1 9 8.8
v 15.2 9 8.8
v 15.3 9 8.8
v 15.1 9 8.7
v 15.3 9 8.7
v 16.4 9.1 8.9
v 16.5 9.1 8.9
v 16.3 9.1 8.8
v 16.4 9.1 8.8
v 16.3 9.1 8.7
v 16.5 9.1 8.7
v 15.3 9.2 10
v 15.4 9.2 10
v 15.3 9.2 9.9
v 15.4 9.2 9.9
v 16.2 9.3 10
v 16.3 9.3 10
v 15.3 9.3 9.9
v 15.4 9.3 9.9
v 16.2 9.3 9.9
v 16.3 9.3 9.9
v 15.1 9.3 9.8
v 15.3 9.3 9.8
v 15.4 9.3 9.8
v 15.2 9.3 9.7
v 15.3 9.3 9.7
v 15.1 9.3 9.6
v 15.2 9.3 9.6
v 15.2 9.3 9.2
v 15.4 9.3 9.2
v 16.1 9.3 9
v 16.5 9.3 9
v 16.4 9.3 8.9
v 16.5 9.3 8.9
v 15.2 9.3 8.8
v 15.3 9.3 8.8
v 16.3 9.3 8.8
v 16.4 9.3 8.8
v 15.3 9.3 8.7
v 15.4 9.3 8.7
v 16.1 9.3 8.7
v 16.3 9.3 8.7
v 15.4 9.4 10
v 16.2 9.4 10
v 16.2 9.4 9.9
v 16.4 9.4 9.9
v 15.3 9.4 9.8
v 15.4 9.4 9.8
v 16.4 9.4 9.8
v 16.5 9.4 9.8
v 15.2 9.4 9.7
v 15.3 9.4 9.7
v 15.1 9.4 9.6
v 15.2 9.4 9.6
v 15.1 9.4 9.2
v 15.4 9.4 9.2
v 16.1 9.4 9
v 16.5 9.4 9
v 15.4 9.4 8.7
v 16.1 9.4 8.7

# faces
f 4/3/1 2/3/1 1/3/1
f 5/3/1 4/3/1 3/3/1
f 6/3/1 4/3/1 5/3/1
f 7/3/1 2/3/1 4/3/1
f 7/3/1 4/3/1 6/3/1
f 8/3/1 2/3/1 7/3/1
f 9/3/1 2/3/1 8/3/1
f 10/3/1 2/3/1 9/3/1
f 11/3/1 7/3/1 6/3/1
f 12/3/1 7/3/1 11/3/1
f 13/3/1 7/3/1 12/3/1
f 14/3/1 7/3/1 13/3/1
f 18/3/1 16/3/1 15/3/1
f 19/3/1 16/3/1 18/3/1
f 19/3/1 18/3/1 17/3/1
f 21/3/1 19/3/1 17/3/1
f 21/3/1 20/3/1 19/3/1
f 22/3/1 20/3/1 21/3/1
f 23/3/1 21/3/1 17/3/1
f 24/3/1 21/3/1 23/3/1
f 27/3/1 26/3/1 25/3/1
f 30/3/1 27/3/1 25/3/1
f 31/3/1 27/3/1 30/3/1
f 32/3/1 29/3/1 28/3/1
f 33/3/1 29/3/1 32/3/1
f 36/3/1 35/3/1 34/3/1
f 37/3/1 35/3/1 36/3/1
f 42/3/1 39/3/1 38/3/1
f 43/3/1 39/3/1 42/3/1
f 44/3/1 39/3/1 43/3/1
f 45/3/1 39/3/1 44/3/1
f 47/3/1 41/3/1 40/3/1
f 48/3/1 41/3/1 47/3/1
f 49/3/1 46/3/1 45/3/1
f 50/3/1 46/3/1 49/3/1
f 53/3/1 52/3/1 51/3/1
f 54/3/1 52/3/1 53/3/1
f 57/3/1 56/3/1 55/3/1
f 61/3/1 57/3/1 55/3/1
f 61/3/1 58/3/1 57/3/1
f 62/3/1 58/3/1 61/3/1
f 63/3/1 60/3/1 59/3/1
f 64/3/1 60/3/1 63/3/1
f 67/1/1 66/1/1 65/1/1
f 68/1/1 66/1/1 67/1/1
f 69/2/1 68/2/1 67/2/1
f 70/2/1 68/2/1 69/2/1
f 71/1/1 70/1/1 69/1/1
f 72/1/1 70/1/1 71/1/1
f 73/2/1 72/2/1 71/2/1
f 74/2/1 72/2/1 73/2/1
f 77/3/1 76/3/1 75/3/1
f 78/3/1 76/3/1 77/3/1
f 79/3/2 80/3/2 81/3/2
f 81/3/2 80/3/2 82/3/2
f 83/1/2 84/1/2 85/1/2
f 85/1/2 84/1/2 86/1/2
f 85/2/2 86/2/2 87/2/2
f 87/2/2 86/2/2 88/2/2
f 87/1/2 88/1/2 89/1/2
f 89/1/2 88/1/2 90/1/2
f 89/2/2 90/2/2 91/2/2
f 91/2/2 90/2/2 92/2/2
f 93/3/2 94/3/2 95/3/2
f 95/3/2 94/3/2 96/3/2
f 97/3/2 98/3/2 99/3/2
f 99/3/2 98/3/2 100/3/2
f 101/3/2 102/3/2 103/3/2
f 103/3/2 102/3/2 104/3/2
f 105/3/2 106/3/2 107/3/2
f 107/3/2 106/3/2 108/3/2
f 109/3/2 110/3/2 113/3/2
f 113/3/2 110/3/2 114/3/2
f 111/3/2 112/3/2 115/3/2
f 115/3/2 112/3/2 116/3/2
f 117/3/2 118/3/2 121/3/2
f 121/3/2 118/3/2 122/3/2
f 119/3/2 120/3/2 125/3/2
f 125/3/2 120/3/2 126/3/2
f 123/3/2 124/3/2 127/3/2
f 127/3/2 124/3/2 128/3/2
f 131/3/2 132/3/2 133/3/2
f 133/3/2 132/3/2 134/3/2
f 129/3/2 130/3/2 135/3/2
f 135/3/2 130/3/2 136/3/2
f 137/3/2 138/3/2 139/3/2
f 139/3/2 138/3/2 140/3/2
f 140/3/2 138/3/2 142/3/2
f 142/3/2 138/3/2 143/3/2
f 141/3/2 142/3/2 143/3/2
f 141/3/2 143/3/2 146/3/2
f 143/3/2 144/3/2 146/3/2
f 145/3/2 146/3/2 147/3/2
f 146/3/2 144/3/2 148/3/2
f 147/3/2 146/3/2 148/3/2
f 148/3/2 144/3/2 149/3/2
f 149/3/2 144/3/2 150/3/2
f 148/3/2 149/3/2 151/3/2
f 151/3/2 149/3/2 152/3/2
f 148/3/2 151/3/2 153/3/2
f 153/3/2 151/3/2 154/3/2
f 158/3/3 156/3/3 155/3/3
f 159/3/3 156/3/3 158/3/3
f 159/3/3 158/3/3 157/3/3
f 162/3/3 159/3/3 157/3/3
f 162/3/3 160/3/3 159/3/3
f 163/3/3 160/3/3 162/3/3
f 165/3/3 162/3/3 161/3/3
f 165/3/3 164/3/3 163/3/3
f 165/3/3 163/3/3 162/3/3
f 166/3/3 164/3/3 165/3/3
f 167/3/3 165/3/3 161/3/3
f 168/3/3 165/3/3 167/3/3
f 169/3/3 165/3/3 168/3/3
f 170/3/3 165/3/3 169/3/3
f 171/3/3 167/3/3 161/3/3
f 172/3/3 167/3/3 171/3/3
f 173/3/3 169/3/3 168/3/3
f 174/3/3 169/3/3 173/3/3
f 175/3/3 169/3/3 174/3/3
f 176/3/3 169/3/3 175/3/3
f 181/3/3 178/3/3 177/3/3
f 182/3/3 178/3/3 181/3/3
f 183/3/3 180/3/3 179/3/3
f 184/3/3 180/3/3 183/3/3
f 188/3/3 186/3/3 185/3/3
f 193/3/3 188/3/3 187/3/3
f 194/3/3 186/3/3 188/3/3
f 194/3/3 188/3/3 193/3/3
f 195/3/3 190/3/3 189/3/3
f 196/3/3 190/3/3 195/3/3
f 197/3/3 192/3/3 191/3/3
f 198/3/3 192/3/3 197/3/3
f 201/3/3 200/3/3 199/3/3
f 202/3/3 200/3/3 201/3/3
f 204/3/3 203/3/3 202/3/3
f 205/3/3 203/3/3 204/3/3
f 210/3/3 207/3/3 206/3/3
f 211/3/3 207/3/3 210/3/3
f 212/3/3 209/3/3 208/3/3
f 213/3/3 209/3/3 212/3/3
f 216/3/3 215/3/3 214/3/3
f 217/3/3 215/3/3 216/3/3
f 222/3/3 219/3/3 218/3/3
f 223/3/3 219/3/3 222/3/3
f 224/3/3 221/3/3 220/3/3
f 225/3/3 221/3/3 224/3/3
f 231/1/3 227/1/3 226/1/3
f 232/2/3 228/2/3 227/2/3
f 232/1/3 227/1/3 231/1/3
f 233/1/3 229/1/3 228/1/3
f 233/2/3 228/2/3 232/2/3
f 234/2/3 230/2/3 229/2/3
f 234/1/3 229/1/3 233/1/3
f 235/2/3 230/2/3 234/2/3
f 238/3/3 237/3/3 236/3/3
f 239/3/3 237/3/3 238/3/3
f 240/3/4 241/3/4 242/3/4
f 242/3/4 241/3/4 243/3/4
f 243/3/4 241/3/4 244/3/4
f 244/3/4 241/3/4 245/3/4
f 246/1/4 247/1/4 251/1/4
f 247/2/4 248/2/4 252/2/4
f 251/1/4 247/1/4 252/1/4
f 248/1/4 249/1/4 253/1/4
f 252/2/4 248/2/4 253/2/4
f 249/2/4 250/2/4 254/2/4
f 253/1/4 249/1/4 254/1/4
f 254/2/4 250/2/4 255/2/4
f 256/3/4 257/3/4 258/3/4
f 258/3/4 257/3/4 259/3/4
f 260/3/4 261/3/4 262/3/4
f 262/3/4 261/3/4 263/3/4
f 264/3/4 265/3/4 268/3/4
f 268/3/4 265/3/4 269/3/4
f 266/3/4 267/3/4 270/3/4
f 270/3/4 267/3/4 271/3/4
f 272/3/4 273/3/4 274/3/4
f 274/3/4 273/3/4 275/3/4
f 276/3/4 277/3/4 279/3/4
f 278/3/4 279/3/4 282/3/4
f 279/3/4 277/3/4 283/3/4
f 282/3/4 279/3/4 283/3/4
f 283/3/4 277/3/4 284/3/4
f 280/3/4 281/3/4 285/3/4
f 285/3/4 281/3/4 286/3/4
f 287/3/4 288/3/4 290/3/4
f 289/3/4 290/3/4 292/3/4
f 290/3/4 288/3/4 293/3/4
f 292/3/4 290/3/4 293/3/4
f 291/3/4 292/3/4 295/3/4
f 293/3/4 294/3/4 295/3/4
f 292/3/4 293/3/4 295/3/4
f 291/3/4 295/3/4 297/3/4
f 295/3/4 296/3/4 297/3/4
f 297/3/4 296/3/4 298/3/4
f 298/3/4 296/3/4 299/3/4
f 299/3/4 296/3/4 300/3/4
f 291/3/4 297/3/4 301/3/4
f 301/3/4 297/3/4 302/3/4
f 298/3/4 299/3/4 303/3/4
f 303/3/4 299/3/4 304/3/4
f 298/3/4 303/3/4 306/3/4
f 305/3/4 306/3/4 307/3/4
f 306/3/4 303/3/4 308/3/4
f 307/3/4 306/3/4 308/3/4
f 311/1/5 310/1/5 309/1/5
f 312/1/5 310/1/5 311/1/5
f 316/3/5 314/3/5 313/3/5
f 317/3/5 314/3/5 316/3/5
f 319/3/5 316/3/5 315/3/5
f 319/3/5 318/3/5 317/3/5
f 319/3/5 317/3/5 316/3/5
f 320/3/5 318/3/5 319/3/5
f 321/3/5 319/3/5 315/3/5
f 322/3/5 318/3/5 320/3/5
f 323/3/5 321/3/5 315/3/5
f 323/3/5 322/3/5 321/3/5
f 324/3/5 322/3/5 323/3/5
f 325/3/5 318/3/5 322/3/5
f 325/3/5 322/3/5 324/3/5
f 326/3/5 318/3/5 325/3/5
f 327/3/5 325/3/5 324/3/5
f 328/3/5 325/3/5 327/3/5
f 329/3/5 327/3/5 324/3/5
f 330/3/5 327/3/5 329/3/5
f 333/3/5 332/3/5 331/3/5
f 334/3/5 332/3/5 333/3/5
f 337/3/5 336/3/5 335/3/5
f 339/3/5 337/3/5 335/3/5
f 339/3/5 338/3/5 337/3/5
f 340/3/5 338/3/5 339/3/5
f 343/3/5 342/3/5 341/3/5
f 344/3/5 342/3/5 343/3/5
f 349/3/5 348/3/5 347/3/5
f 350/3/5 346/3/5 345/3/5
f 351/3/5 346/3/5 350/3/5
f 352/3/5 348/3/5 349/3/5
f 353/3/5 348/3/5 352/3/5
f 358/3/5 357/3/5 356/3/5
f 359/3/5 357/3/5 358/3/5
f 360/3/5 355/3/5 354/3/5
f 361/3/5 355/3/5 360/3/5
f 364/3/5 363/3/5 362/3/5
f 365/3/5 363/3/5 364/3/5
f 366/3/6 367/3/6 368/3/6
f 366/3/6 368/3/6 370/3/6
f 368/3/6 369/3/6 370/3/6
f 370/3/6 369/3/6 371/3/6
f 372/3/6 373/3/6 374/3/6
f 374/3/6 373/3/6 375/3/6
f 376/3/6 377/3/6 378/3/6
f 378/3/6 377/3/6 379/3/6
f 380/3/6 381/3/6 382/3/6
f 382/3/6 381/3/6 383/3/6
f 384/3/6 385/3/6 386/3/6
f 386/3/6 385/3/6 387/3/6
f 387/3/6 385/3/6 388/3/6
f 388/3/6 385/3/6 389/3/6
f 390/3/6 391/3/6 393/3/6
f 391/3/6 392/3/6 393/3/6
f 393/3/6 392/3/6 394/3/6
f 395/3/6 396/3/6 398/3/6
f 397/3/6 398/3/6 399/3/6
f 398/3/6 396/3/6 400/3/6
f 399/3/6 398/3/6 400/3/6
f 401/3/6 402/3/6 403/3/6
f 403/3/6 402/3/6 404/3/6
f 405/3/6 406/3/6 409/3/6
f 409/3/6 406/3/6 410/3/6
f 407/3/6 408/3/6 412/3/6
f 412/3/6 408/3/6 413/3/6
f 411/3/6 412/3/6 414/3/6
f 414/3/6 412/3/6 415/3/6
f 411/3/6 414/3/6 416/3/6
f 416/3/6 414/3/6 417/3/6
f 420/3/6 421/3/6 422/3/6
f 422/3/6 421/3/6 423/3/6
f 418/3/6 419/3/6 424/3/6
f 424/3/6 419/3/6 425/3/6
f 420/3/6 422/3/6 426/3/6
f 426/3/6 422/3/6 427/3/6
f 425/3/6 419/3/6 428/3/6
f 428/3/6 419/3/6 429/3/6
f 420/3/6 426/3/6 430/3/6
f 430/3/6 426/3/6 431/3/6
f 432/3/6 433/3/6 434/3/6
f 432/3/6 434/3/6 437/3/6
f 434/3/6 435/3/6 437/3/6
f 437/3/6 435/3/6 438/3/6
f 436/3/6 437/3/6 441/3/6
f 438/3/6 439/3/6 441/3/6
f 437/3/6 438/3/6 441/3/6
f 440/3/6 441/3/6 443/3/6
f 442/3/6 443/3/6 444/3/6
f 441/3/6 439/3/6 445/3/6
f 444/3/6 443/3/6 445/3/6
f 443/3/6 441/3/6 445/3/6
f 445/3/6 439/3/6 446/3/6
f 446/3/6 439/3/6 447/3/6
f 445/3/6 446/3/6 448/3/6
f 448/3/6 446/3/6 449/3/6
