# MagicaVoxel @ Ephtracy

# group
o 

# material
mtllib Isla-Del-Verano-4.mtl
usemtl palette

# normals
vn -1 0 0
vn 1 0 0
vn 0 0 1
vn 0 0 -1
vn 0 -1 0
vn 0 1 0

# texcoords
vt 0.00195312 0.5
vt 0.0410156 0.5

# verts
v 15.4 6.3 10.9
v 15.4 6.3 10.8
v 15.4 6.3 10.7
v 15.4 6.8 10.9
v 15.4 6.8 10.8
v 15.4 6.9 10.9
v 15.4 6.9 10.7
v 15.6 6.3 11.2
v 15.6 6.3 11.1
v 15.6 6.9 11.2
v 15.6 6.9 11.1
v 15.7 6.3 10.9
v 15.7 6.3 10.7
v 15.7 7.1 10.9
v 15.7 7.1 10.7
v 16 6.3 10.7
v 16 6.3 10.5
v 16 6.6 10.7
v 16 6.6 10.5
v 15.5 6.3 10.9
v 15.5 6.3 10.8
v 15.5 6.3 10.7
v 15.5 6.8 10.9
v 15.5 6.8 10.8
v 15.5 6.9 10.9
v 15.5 6.9 10.7
v 15.8 6.3 10.9
v 15.8 6.3 10.7
v 15.8 7.1 10.9
v 15.8 7.1 10.7
v 15.9 6.3 11.2
v 15.9 6.3 11.1
v 15.9 6.9 11.2
v 15.9 6.9 11.1
v 16.1 6.3 10.7
v 16.1 6.3 10.5
v 16.1 6.6 10.7
v 16.1 6.6 10.5
v 15.6 6.3 11.2
v 15.6 6.9 11.2
v 15.9 6.3 11.2
v 15.9 6.9 11.2
v 15.4 6.3 10.9
v 15.4 6.8 10.9
v 15.4 6.9 10.9
v 15.5 6.3 10.9
v 15.5 6.8 10.9
v 15.5 6.9 10.9
v 15.7 6.3 10.9
v 15.7 7.1 10.9
v 15.8 6.3 10.9
v 15.8 7.1 10.9
v 16 6.3 10.7
v 16 6.6 10.7
v 16.1 6.3 10.7
v 16.1 6.6 10.7
v 15.6 6.3 11.1
v 15.6 6.9 11.1
v 15.9 6.3 11.1
v 15.9 6.9 11.1
v 15.4 6.3 10.7
v 15.4 6.9 10.7
v 15.5 6.3 10.7
v 15.5 6.9 10.7
v 15.7 6.3 10.7
v 15.7 7.1 10.7
v 15.8 6.3 10.7
v 15.8 7.1 10.7
v 16 6.3 10.5
v 16 6.6 10.5
v 16.1 6.3 10.5
v 16.1 6.6 10.5
v 15.6 6.3 11.2
v 15.9 6.3 11.2
v 15.6 6.3 11.1
v 15.9 6.3 11.1
v 15.4 6.3 10.9
v 15.5 6.3 10.9
v 15.7 6.3 10.9
v 15.8 6.3 10.9
v 15.4 6.3 10.8
v 15.5 6.3 10.8
v 15.4 6.3 10.7
v 15.5 6.3 10.7
v 15.7 6.3 10.7
v 15.8 6.3 10.7
v 16 6.3 10.7
v 16.1 6.3 10.7
v 16 6.3 10.5
v 16.1 6.3 10.5
v 16 6.6 10.7
v 16.1 6.6 10.7
v 16 6.6 10.5
v 16.1 6.6 10.5
v 15.6 6.9 11.2
v 15.9 6.9 11.2
v 15.6 6.9 11.1
v 15.9 6.9 11.1
v 15.4 6.9 10.9
v 15.5 6.9 10.9
v 15.4 6.9 10.7
v 15.5 6.9 10.7
v 15.7 7.1 10.9
v 15.8 7.1 10.9
v 15.7 7.1 10.7
v 15.8 7.1 10.7

# faces
f 4/1/1 2/1/1 1/1/1
f 5/2/1 3/2/1 2/2/1
f 5/1/1 2/1/1 4/1/1
f 6/2/1 5/2/1 4/2/1
f 7/2/1 3/2/1 5/2/1
f 7/2/1 5/2/1 6/2/1
f 10/2/1 9/2/1 8/2/1
f 11/2/1 9/2/1 10/2/1
f 14/2/1 13/2/1 12/2/1
f 15/2/1 13/2/1 14/2/1
f 18/2/1 17/2/1 16/2/1
f 19/2/1 17/2/1 18/2/1
f 20/1/2 21/1/2 23/1/2
f 21/2/2 22/2/2 24/2/2
f 23/1/2 21/1/2 24/1/2
f 23/2/2 24/2/2 25/2/2
f 24/2/2 22/2/2 26/2/2
f 25/2/2 24/2/2 26/2/2
f 27/2/2 28/2/2 29/2/2
f 29/2/2 28/2/2 30/2/2
f 31/2/2 32/2/2 33/2/2
f 33/2/2 32/2/2 34/2/2
f 35/2/2 36/2/2 37/2/2
f 37/2/2 36/2/2 38/2/2
f 41/2/3 40/2/3 39/2/3
f 42/2/3 40/2/3 41/2/3
f 46/1/3 44/1/3 43/1/3
f 47/2/3 45/2/3 44/2/3
f 47/1/3 44/1/3 46/1/3
f 48/2/3 45/2/3 47/2/3
f 51/2/3 50/2/3 49/2/3
f 52/2/3 50/2/3 51/2/3
f 55/2/3 54/2/3 53/2/3
f 56/2/3 54/2/3 55/2/3
f 57/2/4 58/2/4 59/2/4
f 59/2/4 58/2/4 60/2/4
f 61/2/4 62/2/4 63/2/4
f 63/2/4 62/2/4 64/2/4
f 65/2/4 66/2/4 67/2/4
f 67/2/4 66/2/4 68/2/4
f 69/2/4 70/2/4 71/2/4
f 71/2/4 70/2/4 72/2/4
f 75/2/5 74/2/5 73/2/5
f 76/2/5 74/2/5 75/2/5
f 81/1/5 78/1/5 77/1/5
f 82/1/5 78/1/5 81/1/5
f 83/2/5 82/2/5 81/2/5
f 84/2/5 82/2/5 83/2/5
f 85/2/5 80/2/5 79/2/5
f 86/2/5 80/2/5 85/2/5
f 89/2/5 88/2/5 87/2/5
f 90/2/5 88/2/5 89/2/5
f 91/2/6 92/2/6 93/2/6
f 93/2/6 92/2/6 94/2/6
f 95/2/6 96/2/6 97/2/6
f 97/2/6 96/2/6 98/2/6
f 99/2/6 100/2/6 101/2/6
f 101/2/6 100/2/6 102/2/6
f 103/2/6 104/2/6 105/2/6
f 105/2/6 104/2/6 106/2/6
