# MagicaVoxel @ Ephtracy

# group
o 

# material
mtllib Mini-Oasis-Del-Desierto-5.mtl
usemtl palette

# normals
vn 0 0 -1
vn 0 0 1
vn -1 0 0
vn 1 0 0
vn 0 -1 0
vn 0 1 0

# texcoords
vt 0.126953 0.5
vt 0.130859 0.5
vt 0.134766 0.5
vt 0.138672 0.5

# verts
v 3.1 1.5 -2.2
v 3.2 1.5 -2.2
v 3.1 1.7 -2.2
v 3.2 1.7 -2.2
v 3.1 1.4 -2.1
v 3.2 1.4 -2.1
v 2.9 1.5 -2.1
v 3 1.5 -2.1
v 3.1 1.5 -2.1
v 3.2 1.5 -2.1
v 2.9 1.7 -2.1
v 3 1.7 -2.1
v 3.1 1.3 -2
v 3.2 1.3 -2
v 2.9 1.4 -2
v 3 1.4 -2
v 3.1 1.4 -2
v 3.2 1.4 -2
v 2.9 1.5 -2
v 3 1.5 -2
v 2.9 1.1 -1.9
v 3 1.1 -1.9
v 3.1 1.1 -1.9
v 3.2 1.1 -1.9
v 3.5 1.1 -1.9
v 3.6 1.1 -1.9
v 2.9 1.2 -1.9
v 3 1.2 -1.9
v 2.9 1.3 -1.9
v 3 1.3 -1.9
v 3.1 1.3 -1.9
v 3.2 1.3 -1.9
v 3.5 1.3 -1.9
v 3.6 1.3 -1.9
v 2.9 1.4 -1.9
v 3 1.4 -1.9
v 3.2 1.4 -1.9
v 3.3 1.4 -1.9
v 3.4 1.4 -1.9
v 3.5 1.4 -1.9
v 3.6 1.4 -1.9
v 3.8 1.4 -1.9
v 2.8 1.5 -1.9
v 2.9 1.5 -1.9
v 3 1.5 -1.9
v 3.2 1.5 -1.9
v 3.3 1.5 -1.9
v 3.4 1.5 -1.9
v 3.5 1.5 -1.9
v 3.6 1.5 -1.9
v 3.8 1.5 -1.9
v 3.9 1.5 -1.9
v 2.8 1.6 -1.9
v 2.9 1.6 -1.9
v 3 1.6 -1.9
v 3.3 1.6 -1.9
v 3.4 1.6 -1.9
v 3.5 1.6 -1.9
v 3.6 1.6 -1.9
v 3.8 1.6 -1.9
v 3.9 1.6 -1.9
v 2.8 1.7 -1.9
v 2.9 1.7 -1.9
v 3.2 1.7 -1.9
v 3.3 1.7 -1.9
v 3.5 1.7 -1.9
v 3.6 1.7 -1.9
v 3.8 1.7 -1.9
v 3.9 1.7 -1.9
v 3.2 1.8 -1.9
v 3.3 1.8 -1.9
v 3.1 1.3 -1.7
v 3.2 1.3 -1.7
v 3.1 1.4 -1.7
v 3.2 1.4 -1.7
v 3.1 1.5 -1.7
v 3.2 1.5 -1.7
v 3.1 1.6 -1.7
v 3.2 1.6 -1.7
v 3.1 1.6 -2.1
v 3.2 1.6 -2.1
v 3.1 1.7 -2.1
v 3.2 1.7 -2.1
v 2.9 1.5 -2
v 3 1.5 -2
v 3.1 1.5 -2
v 3.2 1.5 -2
v 3.1 1.6 -2
v 3.2 1.6 -2
v 2.9 1.7 -2
v 3 1.7 -2
v 3.1 1.4 -1.9
v 3.2 1.4 -1.9
v 3.1 1.5 -1.9
v 3.2 1.5 -1.9
v 2.9 1.1 -1.8
v 3 1.1 -1.8
v 3.1 1.1 -1.8
v 3.2 1.1 -1.8
v 3.5 1.1 -1.8
v 3.6 1.1 -1.8
v 2.9 1.2 -1.8
v 3 1.2 -1.8
v 3.1 1.2 -1.8
v 3.2 1.2 -1.8
v 2.9 1.3 -1.8
v 3 1.3 -1.8
v 3.1 1.3 -1.8
v 3.2 1.3 -1.8
v 3.5 1.3 -1.8
v 3.6 1.3 -1.8
v 3.1 1.4 -1.8
v 3.2 1.4 -1.8
v 3.3 1.4 -1.8
v 3.4 1.4 -1.8
v 3.5 1.4 -1.8
v 3.6 1.4 -1.8
v 3.8 1.4 -1.8
v 2.8 1.5 -1.8
v 2.9 1.5 -1.8
v 3.2 1.5 -1.8
v 3.3 1.5 -1.8
v 3.4 1.5 -1.8
v 3.5 1.5 -1.8
v 3.6 1.5 -1.8
v 3.8 1.5 -1.8
v 3.9 1.5 -1.8
v 2.8 1.6 -1.8
v 2.9 1.6 -1.8
v 3 1.6 -1.8
v 3.3 1.6 -1.8
v 3.4 1.6 -1.8
v 3.5 1.6 -1.8
v 3.6 1.6 -1.8
v 3.8 1.6 -1.8
v 3.9 1.6 -1.8
v 2.8 1.7 -1.8
v 2.9 1.7 -1.8
v 3.2 1.7 -1.8
v 3.3 1.7 -1.8
v 3.5 1.7 -1.8
v 3.6 1.7 -1.8
v 3.8 1.7 -1.8
v 3.9 1.7 -1.8
v 3.2 1.8 -1.8
v 3.3 1.8 -1.8
v 3.1 1.2 -1.6
v 3.2 1.2 -1.6
v 3.1 1.4 -1.6
v 3.2 1.4 -1.6
v 3.1 1.5 -1.6
v 3.2 1.5 -1.6
v 3.1 1.6 -1.6
v 3.2 1.6 -1.6
v 3.1 1.4 -1.5
v 3.2 1.4 -1.5
v 3.1 1.5 -1.5
v 3.2 1.5 -1.5
v 2.8 1.5 -1.9
v 2.8 1.6 -1.9
v 2.8 1.7 -1.9
v 2.8 1.5 -1.8
v 2.8 1.6 -1.8
v 2.8 1.7 -1.8
v 2.9 1.5 -2.1
v 2.9 1.7 -2.1
v 2.9 1.4 -2
v 2.9 1.5 -2
v 2.9 1.7 -2
v 2.9 1.1 -1.9
v 2.9 1.2 -1.9
v 2.9 1.3 -1.9
v 2.9 1.4 -1.9
v 2.9 1.5 -1.9
v 2.9 1.1 -1.8
v 2.9 1.2 -1.8
v 2.9 1.3 -1.8
v 2.9 1.5 -1.8
v 3.1 1.5 -2.2
v 3.1 1.7 -2.2
v 3.1 1.4 -2.1
v 3.1 1.5 -2.1
v 3.1 1.6 -2.1
v 3.1 1.7 -2.1
v 3.1 1.3 -2
v 3.1 1.4 -2
v 3.1 1.5 -2
v 3.1 1.6 -2
v 3.1 1.1 -1.9
v 3.1 1.3 -1.9
v 3.1 1.4 -1.9
v 3.1 1.5 -1.9
v 3.1 1.1 -1.8
v 3.1 1.2 -1.8
v 3.1 1.3 -1.8
v 3.1 1.4 -1.8
v 3.1 1.2 -1.7
v 3.1 1.3 -1.7
v 3.1 1.4 -1.7
v 3.1 1.5 -1.7
v 3.1 1.6 -1.7
v 3.1 1.2 -1.6
v 3.1 1.4 -1.6
v 3.1 1.5 -1.6
v 3.1 1.6 -1.6
v 3.1 1.4 -1.5
v 3.1 1.5 -1.5
v 3.2 1.4 -1.9
v 3.2 1.5 -1.9
v 3.2 1.7 -1.9
v 3.2 1.8 -1.9
v 3.2 1.4 -1.8
v 3.2 1.5 -1.8
v 3.2 1.7 -1.8
v 3.2 1.8 -1.8
v 3.4 1.4 -1.9
v 3.4 1.5 -1.9
v 3.4 1.4 -1.8
v 3.4 1.5 -1.8
v 3.5 1.1 -1.9
v 3.5 1.3 -1.9
v 3.5 1.4 -1.9
v 3.5 1.5 -1.9
v 3.5 1.6 -1.9
v 3.5 1.7 -1.9
v 3.5 1.1 -1.8
v 3.5 1.3 -1.8
v 3.5 1.4 -1.8
v 3.5 1.5 -1.8
v 3.5 1.6 -1.8
v 3.5 1.7 -1.8
v 3.8 1.5 -1.9
v 3.8 1.6 -1.9
v 3.8 1.7 -1.9
v 3.8 1.5 -1.8
v 3.8 1.6 -1.8
v 3.8 1.7 -1.8
v 2.9 1.6 -1.9
v 2.9 1.7 -1.9
v 2.9 1.6 -1.8
v 2.9 1.7 -1.8
v 3 1.5 -2.1
v 3 1.7 -2.1
v 3 1.4 -2
v 3 1.5 -2
v 3 1.7 -2
v 3 1.1 -1.9
v 3 1.2 -1.9
v 3 1.3 -1.9
v 3 1.4 -1.9
v 3 1.5 -1.9
v 3 1.6 -1.9
v 3 1.1 -1.8
v 3 1.2 -1.8
v 3 1.3 -1.8
v 3 1.6 -1.8
v 3.2 1.5 -2.2
v 3.2 1.7 -2.2
v 3.2 1.4 -2.1
v 3.2 1.5 -2.1
v 3.2 1.6 -2.1
v 3.2 1.7 -2.1
v 3.2 1.3 -2
v 3.2 1.4 -2
v 3.2 1.5 -2
v 3.2 1.6 -2
v 3.2 1.1 -1.9
v 3.2 1.3 -1.9
v 3.2 1.4 -1.9
v 3.2 1.5 -1.9
v 3.2 1.1 -1.8
v 3.2 1.2 -1.8
v 3.2 1.3 -1.8
v 3.2 1.4 -1.8
v 3.2 1.2 -1.7
v 3.2 1.3 -1.7
v 3.2 1.4 -1.7
v 3.2 1.5 -1.7
v 3.2 1.6 -1.7
v 3.2 1.2 -1.6
v 3.2 1.4 -1.6
v 3.2 1.5 -1.6
v 3.2 1.6 -1.6
v 3.2 1.4 -1.5
v 3.2 1.5 -1.5
v 3.3 1.4 -1.9
v 3.3 1.5 -1.9
v 3.3 1.6 -1.9
v 3.3 1.7 -1.9
v 3.3 1.8 -1.9
v 3.3 1.4 -1.8
v 3.3 1.5 -1.8
v 3.3 1.6 -1.8
v 3.3 1.7 -1.8
v 3.3 1.8 -1.8
v 3.4 1.5 -1.9
v 3.4 1.6 -1.9
v 3.4 1.5 -1.8
v 3.4 1.6 -1.8
v 3.6 1.1 -1.9
v 3.6 1.3 -1.9
v 3.6 1.4 -1.9
v 3.6 1.5 -1.9
v 3.6 1.6 -1.9
v 3.6 1.7 -1.9
v 3.6 1.1 -1.8
v 3.6 1.3 -1.8
v 3.6 1.4 -1.8
v 3.6 1.5 -1.8
v 3.6 1.6 -1.8
v 3.6 1.7 -1.8
v 3.8 1.4 -1.9
v 3.8 1.5 -1.9
v 3.8 1.4 -1.8
v 3.8 1.5 -1.8
v 3.9 1.5 -1.9
v 3.9 1.6 -1.9
v 3.9 1.7 -1.9
v 3.9 1.5 -1.8
v 3.9 1.6 -1.8
v 3.9 1.7 -1.8
v 2.9 1.1 -1.9
v 2.9 1.1 -1.8
v 3 1.1 -1.9
v 3 1.1 -1.8
v 3.1 1.1 -1.9
v 3.1 1.1 -1.8
v 3.2 1.1 -1.9
v 3.2 1.1 -1.8
v 3.5 1.1 -1.9
v 3.5 1.1 -1.8
v 3.6 1.1 -1.9
v 3.6 1.1 -1.8
v 3.1 1.2 -1.8
v 3.1 1.2 -1.7
v 3.1 1.2 -1.6
v 3.2 1.2 -1.8
v 3.2 1.2 -1.7
v 3.2 1.2 -1.6
v 3.1 1.3 -2
v 3.1 1.3 -1.9
v 3.2 1.3 -2
v 3.2 1.3 -1.9
v 2.9 1.4 -2
v 2.9 1.4 -1.9
v 3 1.4 -2
v 3 1.4 -1.9
v 3.1 1.4 -2.1
v 3.1 1.4 -2
v 3.1 1.4 -1.6
v 3.1 1.4 -1.5
v 3.2 1.4 -2.1
v 3.2 1.4 -2
v 3.2 1.4 -1.9
v 3.2 1.4 -1.8
v 3.2 1.4 -1.6
v 3.2 1.4 -1.5
v 3.3 1.4 -1.9
v 3.3 1.4 -1.8
v 3.4 1.4 -1.9
v 3.4 1.4 -1.8
v 3.5 1.4 -1.9
v 3.5 1.4 -1.8
v 3.6 1.4 -1.9
v 3.6 1.4 -1.8
v 3.8 1.4 -1.9
v 3.8 1.4 -1.8
v 2.8 1.5 -1.9
v 2.8 1.5 -1.8
v 2.9 1.5 -2.1
v 2.9 1.5 -2
v 2.9 1.5 -1.9
v 2.9 1.5 -1.8
v 3 1.5 -2.1
v 3 1.5 -2
v 3.1 1.5 -2.2
v 3.1 1.5 -2.1
v 3.2 1.5 -2.2
v 3.2 1.5 -2.1
v 3.3 1.5 -1.9
v 3.3 1.5 -1.8
v 3.4 1.5 -1.9
v 3.4 1.5 -1.8
v 3.8 1.5 -1.9
v 3.8 1.5 -1.8
v 3.9 1.5 -1.9
v 3.9 1.5 -1.8
v 3.1 1.3 -1.8
v 3.1 1.3 -1.7
v 3.2 1.3 -1.8
v 3.2 1.3 -1.7
v 3.1 1.4 -1.9
v 3.1 1.4 -1.8
v 3.2 1.4 -1.9
v 3.2 1.4 -1.8
v 2.9 1.5 -2
v 2.9 1.5 -1.9
v 3 1.5 -2
v 3 1.5 -1.9
v 3.1 1.5 -2
v 3.1 1.5 -1.9
v 3.1 1.5 -1.6
v 3.1 1.5 -1.5
v 3.2 1.5 -2
v 3.2 1.5 -1.9
v 3.2 1.5 -1.6
v 3.2 1.5 -1.5
v 3.4 1.5 -1.9
v 3.4 1.5 -1.8
v 3.5 1.5 -1.9
v 3.5 1.5 -1.8
v 3.6 1.5 -1.9
v 3.6 1.5 -1.8
v 3.8 1.5 -1.9
v 3.8 1.5 -1.8
v 2.9 1.6 -1.9
v 2.9 1.6 -1.8
v 3 1.6 -1.9
v 3 1.6 -1.8
v 3.1 1.6 -2.1
v 3.1 1.6 -2
v 3.1 1.6 -1.7
v 3.1 1.6 -1.6
v 3.2 1.6 -2.1
v 3.2 1.6 -2
v 3.2 1.6 -1.7
v 3.2 1.6 -1.6
v 3.3 1.6 -1.9
v 3.3 1.6 -1.8
v 3.4 1.6 -1.9
v 3.4 1.6 -1.8
v 2.8 1.7 -1.9
v 2.8 1.7 -1.8
v 2.9 1.7 -2.1
v 2.9 1.7 -2
v 2.9 1.7 -1.9
v 2.9 1.7 -1.8
v 3 1.7 -2.1
v 3 1.7 -2
v 3.1 1.7 -2.2
v 3.1 1.7 -2.1
v 3.2 1.7 -2.2
v 3.2 1.7 -2.1
v 3.5 1.7 -1.9
v 3.5 1.7 -1.8
v 3.6 1.7 -1.9
v 3.6 1.7 -1.8
v 3.8 1.7 -1.9
v 3.8 1.7 -1.8
v 3.9 1.7 -1.9
v 3.9 1.7 -1.8
v 3.2 1.8 -1.9
v 3.2 1.8 -1.8
v 3.3 1.8 -1.9
v 3.3 1.8 -1.8

# faces
f 3/1/1 2/1/1 1/1/1
f 4/1/1 2/1/1 3/1/1
f 9/3/1 6/3/1 5/3/1
f 10/3/1 6/3/1 9/3/1
f 11/4/1 8/4/1 7/4/1
f 12/4/1 8/4/1 11/4/1
f 17/3/1 14/3/1 13/3/1
f 18/3/1 14/3/1 17/3/1
f 19/3/1 16/3/1 15/3/1
f 20/3/1 16/3/1 19/3/1
f 27/4/1 22/4/1 21/4/1
f 28/4/1 22/4/1 27/4/1
f 29/3/1 28/3/1 27/3/1
f 30/3/1 28/3/1 29/3/1
f 31/4/1 24/4/1 23/4/1
f 32/4/1 24/4/1 31/4/1
f 33/4/1 26/4/1 25/4/1
f 34/4/1 26/4/1 33/4/1
f 35/1/1 30/1/1 29/1/1
f 36/1/1 30/1/1 35/1/1
f 40/1/1 34/1/1 33/1/1
f 41/1/1 34/1/1 40/1/1
f 46/3/1 38/3/1 37/3/1
f 47/3/1 38/3/1 46/3/1
f 48/1/1 40/1/1 39/1/1
f 49/3/1 41/3/1 40/3/1
f 49/1/1 40/1/1 48/1/1
f 50/1/1 42/1/1 41/1/1
f 50/3/1 41/3/1 49/3/1
f 51/1/1 42/1/1 50/1/1
f 53/3/1 44/3/1 43/3/1
f 54/1/1 45/1/1 44/1/1
f 54/3/1 44/3/1 53/3/1
f 55/1/1 45/1/1 54/1/1
f 56/1/1 48/1/1 47/1/1
f 56/1/1 47/1/1 46/1/1
f 57/1/1 48/1/1 56/1/1
f 58/1/1 50/1/1 49/1/1
f 59/1/1 50/1/1 58/1/1
f 60/4/1 52/4/1 51/4/1
f 61/4/1 52/4/1 60/4/1
f 62/2/1 54/2/1 53/2/1
f 63/2/1 54/2/1 62/2/1
f 64/1/1 56/1/1 46/1/1
f 65/1/1 56/1/1 64/1/1
f 66/3/1 59/3/1 58/3/1
f 67/3/1 59/3/1 66/3/1
f 68/3/1 61/3/1 60/3/1
f 69/3/1 61/3/1 68/3/1
f 70/4/1 65/4/1 64/4/1
f 71/4/1 65/4/1 70/4/1
f 74/1/1 73/1/1 72/1/1
f 75/1/1 73/1/1 74/1/1
f 76/3/1 75/3/1 74/3/1
f 77/3/1 75/3/1 76/3/1
f 78/1/1 77/1/1 76/1/1
f 79/1/1 77/1/1 78/1/1
f 80/1/2 81/1/2 82/1/2
f 82/1/2 81/1/2 83/1/2
f 86/1/2 87/1/2 88/1/2
f 88/1/2 87/1/2 89/1/2
f 84/4/2 85/4/2 90/4/2
f 90/4/2 85/4/2 91/4/2
f 92/3/2 93/3/2 94/3/2
f 94/3/2 93/3/2 95/3/2
f 96/4/2 97/4/2 102/4/2
f 102/4/2 97/4/2 103/4/2
f 98/4/2 99/4/2 104/4/2
f 104/4/2 99/4/2 105/4/2
f 102/3/2 103/3/2 106/3/2
f 106/3/2 103/3/2 107/3/2
f 100/4/2 101/4/2 110/4/2
f 110/4/2 101/4/2 111/4/2
f 108/3/2 109/3/2 112/3/2
f 112/3/2 109/3/2 113/3/2
f 110/1/2 111/1/2 116/1/2
f 116/1/2 111/1/2 117/1/2
f 106/1/2 107/1/2 120/1/2
f 113/3/2 114/3/2 121/3/2
f 121/3/2 114/3/2 122/3/2
f 115/1/2 116/1/2 123/1/2
f 116/3/2 117/3/2 124/3/2
f 123/1/2 116/1/2 124/1/2
f 117/1/2 118/1/2 125/1/2
f 124/3/2 117/3/2 125/3/2
f 125/1/2 118/1/2 126/1/2
f 119/3/2 120/3/2 128/3/2
f 120/1/2 107/1/2 129/1/2
f 128/3/2 120/3/2 129/3/2
f 129/1/2 107/1/2 130/1/2
f 122/1/2 123/1/2 131/1/2
f 121/1/2 122/1/2 131/1/2
f 131/1/2 123/1/2 132/1/2
f 124/1/2 125/1/2 133/1/2
f 133/1/2 125/1/2 134/1/2
f 126/4/2 127/4/2 135/4/2
f 135/4/2 127/4/2 136/4/2
f 128/2/2 129/2/2 137/2/2
f 137/2/2 129/2/2 138/2/2
f 121/1/2 131/1/2 139/1/2
f 139/1/2 131/1/2 140/1/2
f 133/3/2 134/3/2 141/3/2
f 141/3/2 134/3/2 142/3/2
f 135/3/2 136/3/2 143/3/2
f 143/3/2 136/3/2 144/3/2
f 139/4/2 140/4/2 145/4/2
f 145/4/2 140/4/2 146/4/2
f 147/1/2 148/1/2 149/1/2
f 149/1/2 148/1/2 150/1/2
f 151/1/2 152/1/2 153/1/2
f 153/1/2 152/1/2 154/1/2
f 155/1/2 156/1/2 157/1/2
f 157/1/2 156/1/2 158/1/2
f 162/3/3 160/3/3 159/3/3
f 163/2/3 161/2/3 160/2/3
f 163/3/3 160/3/3 162/3/3
f 164/2/3 161/2/3 163/2/3
f 168/4/3 166/4/3 165/4/3
f 169/4/3 166/4/3 168/4/3
f 173/3/3 168/3/3 167/3/3
f 174/3/3 168/3/3 173/3/3
f 175/4/3 171/4/3 170/4/3
f 176/3/3 172/3/3 171/3/3
f 176/4/3 171/4/3 175/4/3
f 177/1/3 173/1/3 172/1/3
f 177/3/3 172/3/3 176/3/3
f 177/1/3 174/1/3 173/1/3
f 178/1/3 174/1/3 177/1/3
f 182/1/3 180/1/3 179/1/3
f 183/1/3 180/1/3 182/1/3
f 184/1/3 180/1/3 183/1/3
f 186/3/3 182/3/3 181/3/3
f 187/1/3 183/1/3 182/1/3
f 187/3/3 182/3/3 186/3/3
f 188/1/3 183/1/3 187/1/3
f 190/3/3 186/3/3 185/3/3
f 190/3/3 187/3/3 186/3/3
f 191/3/3 187/3/3 190/3/3
f 192/3/3 187/3/3 191/3/3
f 193/4/3 190/4/3 189/4/3
f 194/4/3 190/4/3 193/4/3
f 195/3/3 191/3/3 190/3/3
f 195/4/3 190/4/3 194/4/3
f 196/3/3 191/3/3 195/3/3
f 197/4/3 195/4/3 194/4/3
f 198/4/3 195/4/3 197/4/3
f 202/1/3 199/1/3 198/1/3
f 202/1/3 198/1/3 197/1/3
f 203/3/3 200/3/3 199/3/3
f 203/1/3 199/1/3 202/1/3
f 204/1/3 201/1/3 200/1/3
f 204/3/3 200/3/3 203/3/3
f 205/1/3 201/1/3 204/1/3
f 206/1/3 204/1/3 203/1/3
f 207/1/3 204/1/3 206/1/3
f 212/3/3 209/3/3 208/3/3
f 213/1/3 210/1/3 209/1/3
f 213/3/3 209/3/3 212/3/3
f 214/4/3 211/4/3 210/4/3
f 214/1/3 210/1/3 213/1/3
f 215/4/3 211/4/3 214/4/3
f 218/1/3 217/1/3 216/1/3
f 219/1/3 217/1/3 218/1/3
f 226/4/3 221/4/3 220/4/3
f 227/1/3 222/1/3 221/1/3
f 227/4/3 221/4/3 226/4/3
f 228/1/3 222/1/3 227/1/3
f 229/1/3 224/1/3 223/1/3
f 230/3/3 225/3/3 224/3/3
f 230/1/3 224/1/3 229/1/3
f 231/3/3 225/3/3 230/3/3
f 235/4/3 233/4/3 232/4/3
f 236/3/3 234/3/3 233/3/3
f 236/4/3 233/4/3 235/4/3
f 237/3/3 234/3/3 236/3/3
f 238/2/4 239/2/4 240/2/4
f 240/2/4 239/2/4 241/2/4
f 242/4/4 243/4/4 245/4/4
f 245/4/4 243/4/4 246/4/4
f 244/3/4 245/3/4 250/3/4
f 250/3/4 245/3/4 251/3/4
f 247/4/4 248/4/4 253/4/4
f 248/3/4 249/3/4 254/3/4
f 253/4/4 248/4/4 254/4/4
f 251/1/4 252/1/4 255/1/4
f 254/3/4 249/3/4 255/3/4
f 249/1/4 250/1/4 255/1/4
f 250/1/4 251/1/4 255/1/4
f 255/1/4 252/1/4 256/1/4
f 257/1/4 258/1/4 260/1/4
f 260/1/4 258/1/4 261/1/4
f 261/1/4 258/1/4 262/1/4
f 259/3/4 260/3/4 264/3/4
f 260/1/4 261/1/4 265/1/4
f 264/3/4 260/3/4 265/3/4
f 265/1/4 261/1/4 266/1/4
f 263/3/4 264/3/4 268/3/4
f 264/3/4 265/3/4 268/3/4
f 268/3/4 265/3/4 269/3/4
f 269/3/4 265/3/4 270/3/4
f 267/4/4 268/4/4 271/4/4
f 271/4/4 268/4/4 272/4/4
f 268/3/4 269/3/4 273/3/4
f 272/4/4 268/4/4 273/4/4
f 273/3/4 269/3/4 274/3/4
f 272/4/4 273/4/4 275/4/4
f 275/4/4 273/4/4 276/4/4
f 276/1/4 277/1/4 280/1/4
f 275/1/4 276/1/4 280/1/4
f 277/3/4 278/3/4 281/3/4
f 280/1/4 277/1/4 281/1/4
f 278/1/4 279/1/4 282/1/4
f 281/3/4 278/3/4 282/3/4
f 282/1/4 279/1/4 283/1/4
f 281/1/4 282/1/4 284/1/4
f 284/1/4 282/1/4 285/1/4
f 286/3/4 287/3/4 291/3/4
f 291/3/4 287/3/4 292/3/4
f 288/1/4 289/1/4 293/1/4
f 289/4/4 290/4/4 294/4/4
f 293/1/4 289/1/4 294/1/4
f 294/4/4 290/4/4 295/4/4
f 296/1/4 297/1/4 298/1/4
f 298/1/4 297/1/4 299/1/4
f 300/4/4 301/4/4 306/4/4
f 301/1/4 302/1/4 307/1/4
f 306/4/4 301/4/4 307/4/4
f 307/1/4 302/1/4 308/1/4
f 303/1/4 304/1/4 309/1/4
f 304/3/4 305/3/4 310/3/4
f 309/1/4 304/1/4 310/1/4
f 310/3/4 305/3/4 311/3/4
f 312/1/4 313/1/4 314/1/4
f 314/1/4 313/1/4 315/1/4
f 316/4/4 317/4/4 319/4/4
f 317/3/4 318/3/4 320/3/4
f 319/4/4 317/4/4 320/4/4
f 320/3/4 318/3/4 321/3/4
f 324/4/5 323/4/5 322/4/5
f 325/4/5 323/4/5 324/4/5
f 328/4/5 327/4/5 326/4/5
f 329/4/5 327/4/5 328/4/5
f 332/4/5 331/4/5 330/4/5
f 333/4/5 331/4/5 332/4/5
f 337/4/5 335/4/5 334/4/5
f 338/1/5 336/1/5 335/1/5
f 338/4/5 335/4/5 337/4/5
f 339/1/5 336/1/5 338/1/5
f 342/3/5 341/3/5 340/3/5
f 343/3/5 341/3/5 342/3/5
f 346/3/5 345/3/5 344/3/5
f 347/3/5 345/3/5 346/3/5
f 352/3/5 349/3/5 348/3/5
f 353/3/5 349/3/5 352/3/5
f 356/1/5 351/1/5 350/1/5
f 357/1/5 351/1/5 356/1/5
f 358/3/5 355/3/5 354/3/5
f 359/3/5 355/3/5 358/3/5
f 362/1/5 361/1/5 360/1/5
f 363/1/5 361/1/5 362/1/5
f 366/1/5 365/1/5 364/1/5
f 367/1/5 365/1/5 366/1/5
f 372/3/5 369/3/5 368/3/5
f 373/3/5 369/3/5 372/3/5
f 374/4/5 371/4/5 370/4/5
f 375/4/5 371/4/5 374/4/5
f 378/1/5 377/1/5 376/1/5
f 379/1/5 377/1/5 378/1/5
f 382/1/5 381/1/5 380/1/5
f 383/1/5 381/1/5 382/1/5
f 386/4/5 385/4/5 384/4/5
f 387/4/5 385/4/5 386/4/5
f 388/4/6 389/4/6 390/4/6
f 390/4/6 389/4/6 391/4/6
f 392/3/6 393/3/6 394/3/6
f 394/3/6 393/3/6 395/3/6
f 396/3/6 397/3/6 398/3/6
f 398/3/6 397/3/6 399/3/6
f 400/3/6 401/3/6 404/3/6
f 404/3/6 401/3/6 405/3/6
f 402/1/6 403/1/6 406/1/6
f 406/1/6 403/1/6 407/1/6
f 408/1/6 409/1/6 410/1/6
f 410/1/6 409/1/6 411/1/6
f 412/1/6 413/1/6 414/1/6
f 414/1/6 413/1/6 415/1/6
f 416/1/6 417/1/6 418/1/6
f 418/1/6 417/1/6 419/1/6
f 420/1/6 421/1/6 424/1/6
f 424/1/6 421/1/6 425/1/6
f 422/1/6 423/1/6 426/1/6
f 426/1/6 423/1/6 427/1/6
f 428/1/6 429/1/6 430/1/6
f 430/1/6 429/1/6 431/1/6
f 432/2/6 433/2/6 436/2/6
f 436/2/6 433/2/6 437/2/6
f 434/4/6 435/4/6 438/4/6
f 438/4/6 435/4/6 439/4/6
f 440/1/6 441/1/6 442/1/6
f 442/1/6 441/1/6 443/1/6
f 444/3/6 445/3/6 446/3/6
f 446/3/6 445/3/6 447/3/6
f 448/3/6 449/3/6 450/3/6
f 450/3/6 449/3/6 451/3/6
f 452/4/6 453/4/6 454/4/6
f 454/4/6 453/4/6 455/4/6
