# MagicaVoxel @ Ephtracy

# group
o 

# material
mtllib Mini-Oasis-Del-Desierto-3.mtl
usemtl palette

# normals
vn -1 0 0
vn 1 0 0
vn 0 0 1
vn 0 0 -1
vn 0 -1 0
vn 0 1 0

# texcoords
vt 0.119141 0.5
vt 0.138672 0.5
vt 0.232422 0.5

# verts
v -1.4 0.6 0.8
v -1.4 0.6 0.4
v -1.4 0.7 0.8
v -1.4 0.7 0.4
v -1.3 0.6 0.9
v -1.3 0.6 0.8
v -1.3 0.6 0.4
v -1.3 0.6 0.3
v -1.3 0.7 0.9
v -1.3 0.7 0.8
v -1.3 0.7 0.4
v -1.3 0.7 0.3
v -1.2 0.7 0.8
v -1.2 0.7 0.6
v -1.2 0.7 0.5
v -1.2 0.7 0.4
v -1.2 0.8 0.8
v -1.2 0.8 0.7
v -1.2 0.8 0.6
v -1.2 0.8 0.5
v -1.2 0.8 0.4
v -1.2 0.9 0.8
v -1.2 0.9 0.7
v -1.1 0.7 0.7
v -1.1 0.7 0.6
v -1.1 0.7 0.5
v -1.1 0.7 0.4
v -1.1 0.8 0.8
v -1.1 0.8 0.7
v -1.1 0.8 0.6
v -1.1 0.8 0.5
v -1.1 0.8 0.4
v -1.1 0.9 0.8
v -1.1 0.9 0.7
v -1 0.6 0.9
v -1 0.6 0.8
v -1 0.6 0.4
v -1 0.6 0.3
v -1 0.7 0.9
v -1 0.7 0.8
v -1 0.7 0.7
v -1 0.7 0.4
v -1 0.7 0.3
v -1 0.8 0.8
v -1 0.8 0.7
v -0.9 0.6 0.8
v -0.9 0.6 0.4
v -0.9 0.7 0.8
v -0.9 0.7 0.4
v -1.3 0.6 0.9
v -1.3 0.7 0.9
v -1 0.6 0.9
v -1 0.7 0.9
v -1.4 0.6 0.8
v -1.4 0.7 0.8
v -1.3 0.6 0.8
v -1.3 0.7 0.8
v -1.2 0.7 0.8
v -1.2 0.8 0.8
v -1.2 0.9 0.8
v -1.1 0.8 0.8
v -1.1 0.9 0.8
v -1 0.6 0.8
v -1 0.7 0.8
v -1 0.8 0.8
v -0.9 0.6 0.8
v -0.9 0.7 0.8
v -1.2 0.7 0.5
v -1.2 0.8 0.5
v -1.1 0.7 0.5
v -1.1 0.8 0.5
v -1.2 0.8 0.7
v -1.2 0.9 0.7
v -1.1 0.7 0.7
v -1.1 0.8 0.7
v -1.1 0.9 0.7
v -1 0.7 0.7
v -1 0.8 0.7
v -1.2 0.7 0.6
v -1.2 0.8 0.6
v -1.1 0.7 0.6
v -1.1 0.8 0.6
v -1.4 0.6 0.4
v -1.4 0.7 0.4
v -1.3 0.6 0.4
v -1.3 0.7 0.4
v -1.2 0.7 0.4
v -1.2 0.8 0.4
v -1.1 0.7 0.4
v -1.1 0.8 0.4
v -1 0.6 0.4
v -1 0.7 0.4
v -0.9 0.6 0.4
v -0.9 0.7 0.4
v -1.3 0.6 0.3
v -1.3 0.7 0.3
v -1 0.6 0.3
v -1 0.7 0.3
v -1.3 0.6 0.9
v -1 0.6 0.9
v -1.4 0.6 0.8
v -1.3 0.6 0.8
v -1 0.6 0.8
v -0.9 0.6 0.8
v -1.4 0.6 0.4
v -1.3 0.6 0.4
v -1 0.6 0.4
v -0.9 0.6 0.4
v -1.3 0.6 0.3
v -1 0.6 0.3
v -1.3 0.7 0.9
v -1 0.7 0.9
v -1.4 0.7 0.8
v -1.3 0.7 0.8
v -1.2 0.7 0.8
v -1 0.7 0.8
v -0.9 0.7 0.8
v -1.1 0.7 0.7
v -1 0.7 0.7
v -1.2 0.7 0.6
v -1.1 0.7 0.6
v -1.2 0.7 0.5
v -1.1 0.7 0.5
v -1.4 0.7 0.4
v -1.3 0.7 0.4
v -1.2 0.7 0.4
v -1.1 0.7 0.4
v -1 0.7 0.4
v -0.9 0.7 0.4
v -1.3 0.7 0.3
v -1 0.7 0.3
v -1.1 0.8 0.8
v -1 0.8 0.8
v -1.2 0.8 0.7
v -1.1 0.8 0.7
v -1 0.8 0.7
v -1.2 0.8 0.6
v -1.1 0.8 0.6
v -1.2 0.8 0.5
v -1.1 0.8 0.5
v -1.2 0.8 0.4
v -1.1 0.8 0.4
v -1.2 0.9 0.8
v -1.1 0.9 0.8
v -1.2 0.9 0.7
v -1.1 0.9 0.7

# faces
f 3/2/1 2/2/1 1/2/1
f 4/2/1 2/2/1 3/2/1
f 9/2/1 6/2/1 5/2/1
f 10/2/1 6/2/1 9/2/1
f 11/2/1 8/2/1 7/2/1
f 12/2/1 8/2/1 11/2/1
f 17/3/1 14/3/1 13/3/1
f 18/3/1 14/3/1 17/3/1
f 19/3/1 14/3/1 18/3/1
f 20/1/1 16/1/1 15/1/1
f 21/1/1 16/1/1 20/1/1
f 22/1/1 18/1/1 17/1/1
f 23/1/1 18/1/1 22/1/1
f 24/3/2 25/3/2 29/3/2
f 29/3/2 25/3/2 30/3/2
f 26/1/2 27/1/2 31/1/2
f 31/1/2 27/1/2 32/1/2
f 28/1/2 29/1/2 33/1/2
f 33/1/2 29/1/2 34/1/2
f 35/2/2 36/2/2 39/2/2
f 39/2/2 36/2/2 40/2/2
f 37/2/2 38/2/2 42/2/2
f 42/2/2 38/2/2 43/2/2
f 40/3/2 41/3/2 44/3/2
f 44/3/2 41/3/2 45/3/2
f 46/2/2 47/2/2 48/2/2
f 48/2/2 47/2/2 49/2/2
f 52/2/3 51/2/3 50/2/3
f 53/2/3 51/2/3 52/2/3
f 56/2/3 55/2/3 54/2/3
f 57/2/3 55/2/3 56/2/3
f 61/3/3 59/3/3 58/3/3
f 61/1/3 60/1/3 59/1/3
f 62/1/3 60/1/3 61/1/3
f 64/3/3 61/3/3 58/3/3
f 65/3/3 61/3/3 64/3/3
f 66/2/3 64/2/3 63/2/3
f 67/2/3 64/2/3 66/2/3
f 70/1/3 69/1/3 68/1/3
f 71/1/3 69/1/3 70/1/3
f 72/1/4 73/1/4 75/1/4
f 75/1/4 73/1/4 76/1/4
f 74/3/4 75/3/4 77/3/4
f 77/3/4 75/3/4 78/3/4
f 79/3/4 80/3/4 81/3/4
f 81/3/4 80/3/4 82/3/4
f 83/2/4 84/2/4 85/2/4
f 85/2/4 84/2/4 86/2/4
f 87/1/4 88/1/4 89/1/4
f 89/1/4 88/1/4 90/1/4
f 91/2/4 92/2/4 93/2/4
f 93/2/4 92/2/4 94/2/4
f 95/2/4 96/2/4 97/2/4
f 97/2/4 96/2/4 98/2/4
f 102/2/5 100/2/5 99/2/5
f 103/2/5 100/2/5 102/2/5
f 105/2/5 102/2/5 101/2/5
f 105/2/5 104/2/5 103/2/5
f 105/2/5 103/2/5 102/2/5
f 106/2/5 104/2/5 105/2/5
f 107/2/5 104/2/5 106/2/5
f 108/2/5 104/2/5 107/2/5
f 109/2/5 107/2/5 106/2/5
f 110/2/5 107/2/5 109/2/5
f 111/2/6 112/2/6 114/2/6
f 114/2/6 112/2/6 115/2/6
f 115/2/6 112/2/6 116/2/6
f 116/2/6 117/2/6 119/2/6
f 113/2/6 114/2/6 120/2/6
f 114/2/6 115/2/6 120/2/6
f 118/2/6 119/2/6 121/2/6
f 113/2/6 120/2/6 122/2/6
f 120/2/6 121/2/6 122/2/6
f 121/2/6 119/2/6 123/2/6
f 122/2/6 121/2/6 123/2/6
f 113/2/6 122/2/6 124/2/6
f 124/2/6 122/2/6 125/2/6
f 125/2/6 122/2/6 126/2/6
f 123/2/6 119/2/6 127/2/6
f 119/2/6 117/2/6 128/2/6
f 127/2/6 119/2/6 128/2/6
f 128/2/6 117/2/6 129/2/6
f 125/2/6 126/2/6 130/2/6
f 126/2/6 127/2/6 130/2/6
f 127/2/6 128/2/6 130/2/6
f 130/2/6 128/2/6 131/2/6
f 132/3/6 133/3/6 135/3/6
f 135/3/6 133/3/6 136/3/6
f 134/3/6 135/3/6 137/3/6
f 137/3/6 135/3/6 138/3/6
f 139/1/6 140/1/6 141/1/6
f 141/1/6 140/1/6 142/1/6
f 143/1/6 144/1/6 145/1/6
f 145/1/6 144/1/6 146/1/6
