# MagicaVoxel @ Ephtracy

# group
o 

# material
mtllib Mini-Oasis-Del-Desierto-2.mtl
usemtl palette

# normals
vn -1 0 0
vn 1 0 0
vn 0 0 1
vn 0 0 -1
vn 0 -1 0
vn 0 1 0

# texcoords
vt 0.119141 0.5
vt 0.138672 0.5
vt 0.232422 0.5

# verts
v 0.9 0.6 -0.4
v 0.9 0.6 -0.8
v 0.9 0.7 -0.4
v 0.9 0.7 -0.8
v 1 0.6 -0.3
v 1 0.6 -0.4
v 1 0.6 -0.8
v 1 0.6 -0.9
v 1 0.7 -0.3
v 1 0.7 -0.4
v 1 0.7 -0.6
v 1 0.7 -0.8
v 1 0.7 -0.9
v 1 0.8 -0.4
v 1 0.8 -0.5
v 1 0.8 -0.6
v 1 0.9 -0.5
v 1 0.9 -0.6
v 1.1 0.7 -0.8
v 1.1 0.7 -0.9
v 1.1 0.8 -0.8
v 1.1 0.8 -0.9
v 1.1 0.9 -0.8
v 1.1 0.9 -0.9
v 1.3 0.7 -0.4
v 1.3 0.7 -0.6
v 1.3 0.8 -0.4
v 1.3 0.8 -0.5
v 1.3 0.8 -0.6
v 1.3 0.9 -0.5
v 1.3 0.9 -0.6
v 1.1 0.7 -0.4
v 1.1 0.7 -0.5
v 1.1 0.8 -0.4
v 1.1 0.8 -0.5
v 1.1 0.8 -0.6
v 1.1 0.9 -0.5
v 1.1 0.9 -0.6
v 1.2 0.7 -0.5
v 1.2 0.7 -0.6
v 1.2 0.7 -0.8
v 1.2 0.7 -0.9
v 1.2 0.8 -0.5
v 1.2 0.8 -0.6
v 1.2 0.8 -0.8
v 1.2 0.8 -0.9
v 1.2 0.9 -0.8
v 1.2 0.9 -0.9
v 1.3 0.6 -0.3
v 1.3 0.6 -0.4
v 1.3 0.6 -0.8
v 1.3 0.6 -0.9
v 1.3 0.7 -0.3
v 1.3 0.7 -0.4
v 1.3 0.7 -0.8
v 1.3 0.7 -0.9
v 1.4 0.6 -0.4
v 1.4 0.6 -0.8
v 1.4 0.7 -0.4
v 1.4 0.7 -0.6
v 1.4 0.7 -0.8
v 1.4 0.8 -0.4
v 1.4 0.8 -0.5
v 1.4 0.8 -0.6
v 1.4 0.9 -0.5
v 1.4 0.9 -0.6
v 1 0.6 -0.3
v 1 0.7 -0.3
v 1.3 0.6 -0.3
v 1.3 0.7 -0.3
v 0.9 0.6 -0.4
v 0.9 0.7 -0.4
v 1 0.6 -0.4
v 1 0.7 -0.4
v 1 0.8 -0.4
v 1.1 0.7 -0.4
v 1.1 0.8 -0.4
v 1.3 0.6 -0.4
v 1.3 0.7 -0.4
v 1.3 0.8 -0.4
v 1.4 0.6 -0.4
v 1.4 0.7 -0.4
v 1.4 0.8 -0.4
v 1 0.8 -0.5
v 1 0.9 -0.5
v 1.1 0.7 -0.5
v 1.1 0.8 -0.5
v 1.1 0.9 -0.5
v 1.2 0.7 -0.5
v 1.2 0.8 -0.5
v 1.3 0.8 -0.5
v 1.3 0.9 -0.5
v 1.4 0.8 -0.5
v 1.4 0.9 -0.5
v 1.1 0.7 -0.8
v 1.1 0.8 -0.8
v 1.1 0.9 -0.8
v 1.2 0.7 -0.8
v 1.2 0.8 -0.8
v 1.2 0.9 -0.8
v 1 0.7 -0.6
v 1 0.8 -0.6
v 1 0.9 -0.6
v 1.1 0.8 -0.6
v 1.1 0.9 -0.6
v 1.2 0.7 -0.6
v 1.2 0.8 -0.6
v 1.3 0.7 -0.6
v 1.3 0.8 -0.6
v 1.3 0.9 -0.6
v 1.4 0.7 -0.6
v 1.4 0.8 -0.6
v 1.4 0.9 -0.6
v 0.9 0.6 -0.8
v 0.9 0.7 -0.8
v 1 0.6 -0.8
v 1 0.7 -0.8
v 1.3 0.6 -0.8
v 1.3 0.7 -0.8
v 1.4 0.6 -0.8
v 1.4 0.7 -0.8
v 1 0.6 -0.9
v 1 0.7 -0.9
v 1.1 0.7 -0.9
v 1.1 0.8 -0.9
v 1.1 0.9 -0.9
v 1.2 0.7 -0.9
v 1.2 0.8 -0.9
v 1.2 0.9 -0.9
v 1.3 0.6 -0.9
v 1.3 0.7 -0.9
v 1 0.6 -0.3
v 1.3 0.6 -0.3
v 0.9 0.6 -0.4
v 1 0.6 -0.4
v 1.3 0.6 -0.4
v 1.4 0.6 -0.4
v 0.9 0.6 -0.8
v 1 0.6 -0.8
v 1.3 0.6 -0.8
v 1.4 0.6 -0.8
v 1 0.6 -0.9
v 1.3 0.6 -0.9
v 1 0.7 -0.3
v 1.3 0.7 -0.3
v 0.9 0.7 -0.4
v 1 0.7 -0.4
v 1.1 0.7 -0.4
v 1.3 0.7 -0.4
v 1.1 0.7 -0.5
v 1.2 0.7 -0.5
v 1 0.7 -0.6
v 1.2 0.7 -0.6
v 1.3 0.7 -0.6
v 1.4 0.7 -0.6
v 0.9 0.7 -0.8
v 1 0.7 -0.8
v 1.1 0.7 -0.8
v 1.2 0.7 -0.8
v 1.3 0.7 -0.8
v 1.4 0.7 -0.8
v 1 0.7 -0.9
v 1.1 0.7 -0.9
v 1.2 0.7 -0.9
v 1.3 0.7 -0.9
v 1 0.8 -0.4
v 1.1 0.8 -0.4
v 1.3 0.8 -0.4
v 1.4 0.8 -0.4
v 1 0.8 -0.5
v 1.1 0.8 -0.5
v 1.2 0.8 -0.5
v 1.3 0.8 -0.5
v 1.4 0.8 -0.5
v 1.1 0.8 -0.6
v 1.2 0.8 -0.6
v 1 0.9 -0.5
v 1.1 0.9 -0.5
v 1.3 0.9 -0.5
v 1.4 0.9 -0.5
v 1 0.9 -0.6
v 1.1 0.9 -0.6
v 1.3 0.9 -0.6
v 1.4 0.9 -0.6
v 1.1 0.9 -0.8
v 1.2 0.9 -0.8
v 1.1 0.9 -0.9
v 1.2 0.9 -0.9

# faces
f 3/2/1 2/2/1 1/2/1
f 4/2/1 2/2/1 3/2/1
f 9/2/1 6/2/1 5/2/1
f 10/2/1 6/2/1 9/2/1
f 12/2/1 8/2/1 7/2/1
f 13/2/1 8/2/1 12/2/1
f 14/3/1 11/3/1 10/3/1
f 15/3/1 11/3/1 14/3/1
f 16/3/1 11/3/1 15/3/1
f 17/1/1 16/1/1 15/1/1
f 18/1/1 16/1/1 17/1/1
f 21/3/1 20/3/1 19/3/1
f 22/3/1 20/3/1 21/3/1
f 23/1/1 22/1/1 21/1/1
f 24/1/1 22/1/1 23/1/1
f 27/3/1 26/3/1 25/3/1
f 28/3/1 26/3/1 27/3/1
f 29/3/1 26/3/1 28/3/1
f 30/1/1 29/1/1 28/1/1
f 31/1/1 29/1/1 30/1/1
f 32/3/2 33/3/2 34/3/2
f 34/3/2 33/3/2 35/3/2
f 35/1/2 36/1/2 37/1/2
f 37/1/2 36/1/2 38/1/2
f 39/3/2 40/3/2 43/3/2
f 43/3/2 40/3/2 44/3/2
f 41/3/2 42/3/2 45/3/2
f 45/3/2 42/3/2 46/3/2
f 45/1/2 46/1/2 47/1/2
f 47/1/2 46/1/2 48/1/2
f 49/2/2 50/2/2 53/2/2
f 53/2/2 50/2/2 54/2/2
f 51/2/2 52/2/2 55/2/2
f 55/2/2 52/2/2 56/2/2
f 57/2/2 58/2/2 59/2/2
f 59/2/2 58/2/2 60/2/2
f 60/2/2 58/2/2 61/2/2
f 59/3/2 60/3/2 62/3/2
f 62/3/2 60/3/2 63/3/2
f 63/3/2 60/3/2 64/3/2
f 63/1/2 64/1/2 65/1/2
f 65/1/2 64/1/2 66/1/2
f 69/2/3 68/2/3 67/2/3
f 70/2/3 68/2/3 69/2/3
f 73/2/3 72/2/3 71/2/3
f 74/2/3 72/2/3 73/2/3
f 76/3/3 75/3/3 74/3/3
f 77/3/3 75/3/3 76/3/3
f 81/2/3 79/2/3 78/2/3
f 82/3/3 80/3/3 79/3/3
f 82/2/3 79/2/3 81/2/3
f 83/3/3 80/3/3 82/3/3
f 87/1/3 85/1/3 84/1/3
f 88/1/3 85/1/3 87/1/3
f 89/3/3 87/3/3 86/3/3
f 90/3/3 87/3/3 89/3/3
f 93/1/3 92/1/3 91/1/3
f 94/1/3 92/1/3 93/1/3
f 98/3/3 96/3/3 95/3/3
f 99/1/3 97/1/3 96/1/3
f 99/3/3 96/3/3 98/3/3
f 100/1/3 97/1/3 99/1/3
f 101/3/4 102/3/4 104/3/4
f 102/1/4 103/1/4 104/1/4
f 104/1/4 103/1/4 105/1/4
f 101/3/4 104/3/4 106/3/4
f 106/3/4 104/3/4 107/3/4
f 108/3/4 109/3/4 111/3/4
f 109/1/4 110/1/4 112/1/4
f 111/3/4 109/3/4 112/3/4
f 112/1/4 110/1/4 113/1/4
f 114/2/4 115/2/4 116/2/4
f 116/2/4 115/2/4 117/2/4
f 118/2/4 119/2/4 120/2/4
f 120/2/4 119/2/4 121/2/4
f 122/2/4 123/2/4 124/2/4
f 122/2/4 124/2/4 127/2/4
f 124/3/4 125/3/4 127/3/4
f 125/1/4 126/1/4 128/1/4
f 127/3/4 125/3/4 128/3/4
f 128/1/4 126/1/4 129/1/4
f 122/2/4 127/2/4 130/2/4
f 130/2/4 127/2/4 131/2/4
f 135/2/5 133/2/5 132/2/5
f 136/2/5 133/2/5 135/2/5
f 138/2/5 135/2/5 134/2/5
f 138/2/5 137/2/5 136/2/5
f 138/2/5 136/2/5 135/2/5
f 139/2/5 137/2/5 138/2/5
f 140/2/5 137/2/5 139/2/5
f 141/2/5 137/2/5 140/2/5
f 142/2/5 140/2/5 139/2/5
f 143/2/5 140/2/5 142/2/5
f 144/2/6 145/2/6 147/2/6
f 147/2/6 145/2/6 148/2/6
f 148/2/6 145/2/6 149/2/6
f 148/2/6 149/2/6 150/2/6
f 150/2/6 149/2/6 151/2/6
f 146/2/6 147/2/6 152/2/6
f 151/2/6 149/2/6 153/2/6
f 153/2/6 149/2/6 154/2/6
f 146/2/6 152/2/6 156/2/6
f 154/2/6 155/2/6 156/2/6
f 152/2/6 153/2/6 156/2/6
f 153/2/6 154/2/6 156/2/6
f 156/2/6 155/2/6 157/2/6
f 157/2/6 155/2/6 158/2/6
f 158/2/6 155/2/6 159/2/6
f 159/2/6 155/2/6 160/2/6
f 160/2/6 155/2/6 161/2/6
f 157/2/6 158/2/6 162/2/6
f 162/2/6 158/2/6 163/2/6
f 159/2/6 160/2/6 164/2/6
f 164/2/6 160/2/6 165/2/6
f 166/3/6 167/3/6 170/3/6
f 170/3/6 167/3/6 171/3/6
f 168/3/6 169/3/6 173/3/6
f 173/3/6 169/3/6 174/3/6
f 171/3/6 172/3/6 175/3/6
f 175/3/6 172/3/6 176/3/6
f 177/1/6 178/1/6 181/1/6
f 181/1/6 178/1/6 182/1/6
f 179/1/6 180/1/6 183/1/6
f 183/1/6 180/1/6 184/1/6
f 185/1/6 186/1/6 187/1/6
f 187/1/6 186/1/6 188/1/6
