# MagicaVoxel @ Ephtracy

# group
o 

# material
mtllib Playa-Alterna-0.mtl
usemtl palette

# normals
vn -1 0 0
vn 1 0 0
vn 0 0 1
vn 0 0 -1
vn 0 -1 0
vn 0 1 0

# texcoords
vt 0.0566406 0.5
vt 0.0605469 0.5
vt 0.126953 0.5
vt 0.130859 0.5
vt 0.134766 0.5

# verts
v -6.9 5.6 -1.2
v -6.9 5.6 -1.3
v -6.9 5.7 -1.2
v -6.9 5.7 -1.3
v -6.8 5.7 -1.2
v -6.8 5.7 -1.3
v -6.8 5.8 -1.2
v -6.8 5.8 -1.3
v -6.8 6.6 -1.2
v -6.8 6.6 -1.3
v -6.8 6.7 -1.2
v -6.8 6.7 -1.3
v -6.7 5.8 -1.2
v -6.7 5.8 -1.3
v -6.7 5.9 -1.2
v -6.7 5.9 -1.3
v -6.7 6.2 -1.2
v -6.7 6.2 -1.3
v -6.7 6.3 -1.2
v -6.7 6.3 -1.3
v -6.6 5.6 -1.7
v -6.6 5.6 -1.8
v -6.6 5.7 -1.7
v -6.6 5.7 -1.8
v -6.6 5.9 -1.2
v -6.6 5.9 -1.3
v -6.6 6 -1.2
v -6.6 6 -1.3
v -6.6 6.4 -1.7
v -6.6 6.4 -1.9
v -6.6 6.5 -1.2
v -6.6 6.5 -1.3
v -6.6 6.5 -1.7
v -6.6 6.5 -1.9
v -6.6 6.6 -1.2
v -6.6 6.6 -1.3
v -6.5 5.7 -1.6
v -6.5 5.7 -1.7
v -6.5 5.9 -1.6
v -6.5 5.9 -1.7
v -6.5 6 -1.2
v -6.5 6 -1.3
v -6.5 6.1 -1.2
v -6.5 6.1 -1.3
v -6.5 6.3 -1.2
v -6.5 6.3 -1.3
v -6.5 6.3 -1.6
v -6.5 6.3 -1.7
v -6.5 6.4 -1.6
v -6.5 6.4 -1.7
v -6.5 6.4 -1.9
v -6.5 6.4 -2
v -6.5 6.5 -1.2
v -6.5 6.5 -1.3
v -6.5 6.5 -1.9
v -6.5 6.5 -2
v -6.4 5.7 -1.7
v -6.4 5.7 -1.8
v -6.4 5.9 -1.7
v -6.4 5.9 -1.8
v -6.4 6.3 -1.7
v -6.4 6.3 -1.8
v -6.4 6.4 -1.7
v -6.4 6.4 -1.8
v -6.3 5.9 -1.6
v -6.3 5.9 -1.7
v -6.3 6 -1.6
v -6.3 6 -1.7
v -6.3 6.1 -1.2
v -6.3 6.1 -1.3
v -6.3 6.2 -1.2
v -6.3 6.2 -1.3
v -6.3 6.2 -1.6
v -6.3 6.2 -1.7
v -6.3 6.3 -1.2
v -6.3 6.3 -1.3
v -6.3 6.3 -1.6
v -6.3 6.3 -1.7
v -6.2 4.3 -1.2
v -6.2 4.3 -1.3
v -6.2 4.4 -1.2
v -6.2 4.4 -1.3
v -6.2 4.8 -1.2
v -6.2 4.8 -1.3
v -6.2 5 -1.2
v -6.2 5 -1.3
v -6.2 5.9 -1.2
v -6.2 5.9 -1.3
v -6.2 6 -1.2
v -6.2 6 -1.3
v -6.2 6 -1.5
v -6.2 6.1 -1.3
v -6.2 6.2 -1.3
v -6.2 6.2 -1.5
v -6.2 6.3 -1.2
v -6.2 6.3 -1.3
v -6.2 6.7 -1.2
v -6.2 6.7 -1.3
v -6.1 5 -1.2
v -6.1 5 -1.3
v -6.1 5.2 -1.2
v -6.1 5.2 -1.3
v -6.1 5.5 -1.2
v -6.1 5.5 -1.3
v -6.1 5.5 -1.9
v -6.1 5.5 -2
v -6.1 5.6 -0.6
v -6.1 5.6 -0.7
v -6.1 5.6 -1.8
v -6.1 5.6 -1.9
v -6.1 5.7 -0.6
v -6.1 5.7 -0.7
v -6.1 5.7 -0.8
v -6.1 5.7 -1.2
v -6.1 5.7 -1.3
v -6.1 5.7 -1.7
v -6.1 5.7 -1.8
v -6.1 5.7 -2
v -6.1 5.8 -1.5
v -6.1 5.8 -1.7
v -6.1 5.8 -1.8
v -6.1 5.9 -0.7
v -6.1 5.9 -0.8
v -6.1 5.9 -1.1
v -6.1 5.9 -1.2
v -6.1 5.9 -1.3
v -6.1 5.9 -1.4
v -6.1 5.9 -1.5
v -6.1 5.9 -1.6
v -6.1 5.9 -1.7
v -6.1 5.9 -2
v -6.1 5.9 -2.1
v -6.1 6 -0.8
v -6.1 6 -1.1
v -6.1 6 -1.2
v -6.1 6 -1.3
v -6.1 6 -1.4
v -6.1 6 -1.5
v -6.1 6 -1.9
v -6.1 6 -2
v -6.1 6 -2.1
v -6.1 6.1 -0.9
v -6.1 6.1 -1.1
v -6.1 6.1 -1.2
v -6.1 6.1 -1.3
v -6.1 6.1 -1.8
v -6.1 6.1 -1.9
v -6.1 6.1 -2
v -6.1 6.2 -0.8
v -6.1 6.2 -0.9
v -6.1 6.2 -1.1
v -6.1 6.2 -1.2
v -6.1 6.2 -1.4
v -6.1 6.2 -1.5
v -6.1 6.2 -1.7
v -6.1 6.2 -1.8
v -6.1 6.2 -1.9
v -6.1 6.3 -0.7
v -6.1 6.3 -0.8
v -6.1 6.3 -0.9
v -6.1 6.3 -1.4
v -6.1 6.3 -1.5
v -6.1 6.3 -1.6
v -6.1 6.3 -1.7
v -6.1 6.3 -1.8
v -6.1 6.4 -0.4
v -6.1 6.4 -0.7
v -6.1 6.4 -0.8
v -6.1 6.4 -1.5
v -6.1 6.4 -1.6
v -6.1 6.4 -1.9
v -6.1 6.5 -0.4
v -6.1 6.5 -0.7
v -6.1 6.5 -1.6
v -6.1 6.5 -1.9
v -6.1 6.5 -2.2
v -6.1 6.6 -1.9
v -6.1 6.6 -2.2
v -6.1 6.7 -1.2
v -6.1 6.7 -1.3
v -6.1 6.8 -1.2
v -6.1 6.8 -1.3
v -6 5.7 -0.9
v -6 5.7 -1
v -6 5.8 -0.9
v -6 5.8 -1
v -6 5.9 -1.1
v -6 5.9 -1.2
v -6 6 -1.1
v -6 6 -1.2
v -6 6.2 -0.9
v -6 6.2 -1
v -6 6.2 -1.1
v -6 6.2 -1.2
v -6 6.2 -1.3
v -6 6.3 -0.9
v -6 6.3 -1
v -6 6.3 -1.1
v -6 6.3 -1.3
v -6 6.4 -0.9
v -6 6.4 -1
v -6 6.5 -0.9
v -6 6.5 -1
v -5.8 5.6 -0.8
v -5.8 5.6 -0.9
v -5.8 5.7 -0.8
v -5.8 5.7 -0.9
v -5.8 6.1 -0.8
v -5.8 6.1 -0.9
v -5.8 6.1 -1.2
v -5.8 6.1 -1.3
v -5.8 6.2 -0.8
v -5.8 6.2 -0.9
v -5.8 6.2 -1.2
v -5.8 6.2 -1.3
v -5.8 6.3 -1.2
v -5.8 6.3 -1.3
v -5.8 6.4 -0.8
v -5.8 6.4 -0.9
v -5.8 6.4 -1.2
v -5.8 6.4 -1.3
v -5.8 6.5 -0.8
v -5.8 6.5 -0.9
v -5.7 5.6 -0.9
v -5.7 5.6 -1
v -5.7 5.7 -0.9
v -5.7 5.7 -1
v -5.7 5.9 -0.6
v -5.7 5.9 -0.9
v -5.7 6 -0.6
v -5.7 6 -0.9
v -5.7 6.1 -0.9
v -5.7 6.1 -1
v -5.7 6.2 -0.9
v -5.7 6.2 -1
v -5.7 6.4 -0.9
v -5.7 6.4 -1
v -5.7 6.5 -0.6
v -5.7 6.5 -0.8
v -5.7 6.5 -0.9
v -5.7 6.5 -1
v -5.7 6.6 -0.6
v -5.7 6.6 -0.8
v -5.7 6.6 -0.9
v -5.6 5.5 -0.8
v -5.6 5.5 -0.9
v -5.6 5.6 -0.9
v -5.6 5.7 -0.8
v -5.6 5.7 -0.9
v -5.6 6 -0.8
v -5.6 6 -0.9
v -5.6 6.1 -0.8
v -5.6 6.1 -0.9
v -5.6 6.4 -1.2
v -5.6 6.4 -1.3
v -5.6 6.5 -1.2
v -5.6 6.5 -1.3
v -5.5 6 -1.2
v -5.5 6 -1.3
v -5.5 6.1 -1.2
v -5.5 6.1 -1.3
v -5.4 5.9 -1.2
v -5.4 5.9 -1.3
v -5.4 6 -1.2
v -5.4 6 -1.3
v -5.4 6.5 -1.2
v -5.4 6.5 -1.3
v -5.4 6.6 -1.2
v -5.4 6.6 -1.3
v -5.2 5.8 -1.2
v -5.2 5.8 -1.3
v -5.2 5.9 -1.2
v -5.2 5.9 -1.3
v -5.1 6.6 -1.2
v -5.1 6.6 -1.3
v -5.1 6.7 -1.2
v -5.1 6.7 -1.3
v -6.8 5.6 -1.2
v -6.8 5.6 -1.3
v -6.8 5.7 -1.2
v -6.8 5.7 -1.3
v -6.7 5.7 -1.2
v -6.7 5.7 -1.3
v -6.7 5.8 -1.2
v -6.7 5.8 -1.3
v -6.6 5.8 -1.2
v -6.6 5.8 -1.3
v -6.6 5.9 -1.2
v -6.6 5.9 -1.3
v -6.6 6.6 -1.2
v -6.6 6.6 -1.3
v -6.6 6.7 -1.2
v -6.6 6.7 -1.3
v -6.5 5.6 -1.7
v -6.5 5.6 -1.8
v -6.5 5.7 -1.7
v -6.5 5.7 -1.8
v -6.5 6.2 -1.2
v -6.5 6.2 -1.3
v -6.5 6.3 -1.2
v -6.5 6.3 -1.3
v -6.5 6.5 -1.2
v -6.5 6.5 -1.3
v -6.5 6.6 -1.2
v -6.5 6.6 -1.3
v -6.4 5.7 -1.6
v -6.4 5.7 -1.7
v -6.4 5.9 -1.2
v -6.4 5.9 -1.3
v -6.4 5.9 -1.6
v -6.4 5.9 -1.7
v -6.4 6 -1.2
v -6.4 6 -1.3
v -6.4 6.3 -1.6
v -6.4 6.3 -1.7
v -6.4 6.4 -1.2
v -6.4 6.4 -1.3
v -6.4 6.4 -1.6
v -6.4 6.4 -1.7
v -6.4 6.4 -1.8
v -6.4 6.4 -2
v -6.4 6.5 -1.2
v -6.4 6.5 -1.3
v -6.4 6.5 -1.7
v -6.4 6.5 -2
v -6.3 5.7 -1.7
v -6.3 5.7 -1.8
v -6.3 5.9 -1.7
v -6.3 5.9 -1.8
v -6.3 6.3 -1.2
v -6.3 6.3 -1.3
v -6.3 6.3 -1.7
v -6.3 6.3 -1.8
v -6.3 6.4 -1.2
v -6.3 6.4 -1.3
v -6.3 6.4 -1.7
v -6.3 6.4 -1.8
v -6.2 6 -1.2
v -6.2 6 -1.3
v -6.2 6.1 -1.2
v -6.2 6.1 -1.3
v -6.1 5.9 -1.6
v -6.1 5.9 -1.7
v -6.1 6 -1.4
v -6.1 6 -1.5
v -6.1 6 -1.6
v -6.1 6 -1.7
v -6.1 6.2 -1.2
v -6.1 6.2 -1.3
v -6.1 6.2 -1.4
v -6.1 6.2 -1.5
v -6.1 6.3 -1.2
v -6.1 6.3 -1.3
v -6.1 6.6 -1.2
v -6.1 6.6 -1.3
v -6 4.3 -1.2
v -6 4.3 -1.3
v -6 4.5 -1.2
v -6 4.5 -1.3
v -6 4.7 -1.2
v -6 4.7 -1.3
v -6 4.8 -1.2
v -6 4.8 -1.3
v -6 5.5 -1.9
v -6 5.5 -2
v -6 5.6 -0.6
v -6 5.6 -0.7
v -6 5.6 -1.8
v -6 5.6 -1.9
v -6 5.7 -0.6
v -6 5.7 -0.7
v -6 5.7 -0.8
v -6 5.7 -1.2
v -6 5.7 -1.3
v -6 5.7 -1.7
v -6 5.7 -1.8
v -6 5.7 -2
v -6 5.8 -1.5
v -6 5.8 -1.7
v -6 5.8 -1.8
v -6 5.9 -0.7
v -6 5.9 -0.8
v -6 5.9 -1.1
v -6 5.9 -1.2
v -6 5.9 -1.3
v -6 5.9 -1.4
v -6 5.9 -1.5
v -6 5.9 -1.7
v -6 5.9 -2
v -6 5.9 -2.1
v -6 6 -0.8
v -6 6 -1.1
v -6 6 -1.2
v -6 6 -1.3
v -6 6 -1.4
v -6 6 -1.5
v -6 6 -1.9
v -6 6 -2
v -6 6 -2.1
v -6 6.1 -0.9
v -6 6.1 -1.1
v -6 6.1 -1.2
v -6 6.1 -1.3
v -6 6.1 -1.8
v -6 6.1 -1.9
v -6 6.1 -2
v -6 6.2 -0.8
v -6 6.2 -0.9
v -6 6.2 -1
v -6 6.2 -1.1
v -6 6.2 -1.2
v -6 6.2 -1.3
v -6 6.2 -1.4
v -6 6.2 -1.5
v -6 6.2 -1.6
v -6 6.2 -1.8
v -6 6.2 -1.9
v -6 6.3 -0.7
v -6 6.3 -0.8
v -6 6.3 -0.9
v -6 6.3 -1.4
v -6 6.3 -1.5
v -6 6.3 -1.6
v -6 6.3 -1.8
v -6 6.4 -0.4
v -6 6.4 -0.7
v -6 6.4 -0.8
v -6 6.4 -1.5
v -6 6.4 -1.6
v -6 6.4 -1.9
v -6 6.5 -0.4
v -6 6.5 -0.7
v -6 6.5 -1.6
v -6 6.5 -1.9
v -6 6.5 -2.2
v -6 6.6 -1.2
v -6 6.6 -1.3
v -6 6.6 -1.9
v -6 6.6 -2.2
v -6 6.8 -1.2
v -6 6.8 -1.3
v -5.9 4.8 -1.2
v -5.9 4.8 -1.3
v -5.9 5 -1.2
v -5.9 5 -1.3
v -5.9 5.1 -1.2
v -5.9 5.1 -1.3
v -5.9 5.4 -1.2
v -5.9 5.4 -1.3
v -5.9 5.6 -1.2
v -5.9 5.6 -1.3
v -5.9 5.7 -1.2
v -5.9 5.7 -1.3
v -5.9 5.9 -1.1
v -5.9 5.9 -1.3
v -5.9 6 -1.1
v -5.9 6 -1.2
v -5.9 6 -1.3
v -5.9 6.2 -1.1
v -5.9 6.2 -1.2
v -5.9 6.3 -1.1
v -5.9 6.3 -1.2
v -5.8 5.7 -0.9
v -5.8 5.7 -1
v -5.8 5.8 -0.9
v -5.8 5.8 -1
v -5.8 6 -1.2
v -5.8 6 -1.3
v -5.8 6.1 -1.2
v -5.8 6.1 -1.3
v -5.8 6.2 -0.9
v -5.8 6.2 -1
v -5.8 6.3 -0.9
v -5.8 6.3 -1
v -5.8 6.4 -0.9
v -5.8 6.4 -1
v -5.8 6.5 -0.9
v -5.8 6.5 -1
v -5.7 5.6 -0.8
v -5.7 5.6 -0.9
v -5.7 5.7 -0.8
v -5.7 5.7 -0.9
v -5.7 6.1 -0.8
v -5.7 6.1 -0.9
v -5.7 6.2 -0.8
v -5.7 6.2 -0.9
v -5.7 6.2 -1.2
v -5.7 6.2 -1.3
v -5.7 6.3 -1.2
v -5.7 6.3 -1.3
v -5.7 6.4 -0.8
v -5.7 6.4 -0.9
v -5.7 6.5 -0.8
v -5.7 6.5 -0.9
v -5.6 5.6 -0.9
v -5.6 5.6 -1
v -5.6 5.7 -0.9
v -5.6 5.7 -1
v -5.6 5.9 -0.6
v -5.6 5.9 -0.7
v -5.6 5.9 -0.8
v -5.6 5.9 -0.9
v -5.6 6 -0.6
v -5.6 6 -0.7
v -5.6 6 -0.8
v -5.6 6 -0.9
v -5.6 6.1 -0.9
v -5.6 6.1 -1
v -5.6 6.2 -0.9
v -5.6 6.2 -1
v -5.6 6.4 -0.9
v -5.6 6.4 -1
v -5.6 6.5 -0.6
v -5.6 6.5 -0.7
v -5.6 6.5 -0.9
v -5.6 6.5 -1
v -5.6 6.6 -0.6
v -5.6 6.6 -0.7
v -5.5 5.5 -0.8
v -5.5 5.5 -0.9
v -5.5 5.7 -0.8
v -5.5 5.7 -0.9
v -5.5 5.9 -0.7
v -5.5 5.9 -0.8
v -5.5 6 -0.7
v -5.5 6 -0.8
v -5.5 6 -0.9
v -5.5 6.1 -0.8
v -5.5 6.1 -0.9
v -5.5 6.1 -1.2
v -5.5 6.1 -1.3
v -5.5 6.2 -1.2
v -5.5 6.2 -1.3
v -5.5 6.3 -1.2
v -5.5 6.3 -1.3
v -5.5 6.4 -1.2
v -5.5 6.4 -1.3
v -5.5 6.5 -0.7
v -5.5 6.5 -0.9
v -5.5 6.6 -0.7
v -5.5 6.6 -0.9
v -5.4 6 -1.2
v -5.4 6 -1.3
v -5.4 6.1 -1.2
v -5.4 6.1 -1.3
v -5.4 6.4 -1.2
v -5.4 6.4 -1.3
v -5.4 6.5 -1.2
v -5.4 6.5 -1.3
v -5.2 5.9 -1.2
v -5.2 5.9 -1.3
v -5.2 6 -1.2
v -5.2 6 -1.3
v -5.1 5.8 -1.2
v -5.1 5.8 -1.3
v -5.1 5.9 -1.2
v -5.1 5.9 -1.3
v -5.1 6.5 -1.2
v -5.1 6.5 -1.3
v -5.1 6.6 -1.2
v -5.1 6.6 -1.3
v -5 6.6 -1.2
v -5 6.6 -1.3
v -5 6.7 -1.2
v -5 6.7 -1.3
v -6.1 6.4 -0.4
v -6.1 6.5 -0.4
v -6 6.4 -0.4
v -6 6.5 -0.4
v -6.1 5.6 -0.6
v -6.1 5.7 -0.6
v -6 5.6 -0.6
v -6 5.7 -0.6
v -5.7 5.9 -0.6
v -5.7 6 -0.6
v -5.7 6.5 -0.6
v -5.7 6.6 -0.6
v -5.6 5.9 -0.6
v -5.6 6 -0.6
v -5.6 6.5 -0.6
v -5.6 6.6 -0.6
v -6.1 5.7 -0.7
v -6.1 5.9 -0.7
v -6.1 6.3 -0.7
v -6.1 6.4 -0.7
v -6 5.7 -0.7
v -6 5.9 -0.7
v -6 6.3 -0.7
v -6 6.4 -0.7
v -5.6 5.9 -0.7
v -5.6 6 -0.7
v -5.6 6.5 -0.7
v -5.6 6.6 -0.7
v -5.5 5.9 -0.7
v -5.5 6 -0.7
v -5.5 6.5 -0.7
v -5.5 6.6 -0.7
v -6.1 5.9 -0.8
v -6.1 6 -0.8
v -6.1 6.2 -0.8
v -6.1 6.3 -0.8
v -6 5.9 -0.8
v -6 6 -0.8
v -6 6.2 -0.8
v -6 6.3 -0.8
v -5.8 5.6 -0.8
v -5.8 5.7 -0.8
v -5.8 6.1 -0.8
v -5.8 6.2 -0.8
v -5.8 6.4 -0.8
v -5.8 6.5 -0.8
v -5.7 5.6 -0.8
v -5.7 5.7 -0.8
v -5.7 6.1 -0.8
v -5.7 6.2 -0.8
v -5.7 6.4 -0.8
v -5.7 6.5 -0.8
v -5.6 5.5 -0.8
v -5.6 5.7 -0.8
v -5.6 6 -0.8
v -5.6 6.1 -0.8
v -5.5 5.5 -0.8
v -5.5 5.7 -0.8
v -5.5 6 -0.8
v -5.5 6.1 -0.8
v -6.1 6.1 -0.9
v -6.1 6.2 -0.9
v -6 5.7 -0.9
v -6 5.8 -0.9
v -6 6.1 -0.9
v -6 6.2 -0.9
v -6 6.3 -0.9
v -6 6.4 -0.9
v -6 6.5 -0.9
v -5.8 5.7 -0.9
v -5.8 5.8 -0.9
v -5.8 6.2 -0.9
v -5.8 6.3 -0.9
v -5.8 6.4 -0.9
v -5.8 6.5 -0.9
v -5.7 5.6 -0.9
v -5.7 5.7 -0.9
v -5.7 6.1 -0.9
v -5.7 6.2 -0.9
v -5.7 6.4 -0.9
v -5.7 6.5 -0.9
v -5.6 5.6 -0.9
v -5.6 5.7 -0.9
v -5.6 6.1 -0.9
v -5.6 6.2 -0.9
v -5.6 6.4 -0.9
v -5.6 6.5 -0.9
v -6.1 6 -1.1
v -6.1 6.1 -1.1
v -6 5.9 -1.1
v -6 6 -1.1
v -6 6.1 -1.1
v -6 6.2 -1.1
v -6 6.3 -1.1
v -5.9 5.9 -1.1
v -5.9 6 -1.1
v -5.9 6.2 -1.1
v -5.9 6.3 -1.1
v -6.9 5.6 -1.2
v -6.9 5.7 -1.2
v -6.8 5.6 -1.2
v -6.8 5.7 -1.2
v -6.8 5.8 -1.2
v -6.8 6.6 -1.2
v -6.8 6.7 -1.2
v -6.7 5.7 -1.2
v -6.7 5.8 -1.2
v -6.7 5.9 -1.2
v -6.7 6.2 -1.2
v -6.7 6.3 -1.2
v -6.6 5.8 -1.2
v -6.6 5.9 -1.2
v -6.6 6 -1.2
v -6.6 6.5 -1.2
v -6.6 6.6 -1.2
v -6.6 6.7 -1.2
v -6.5 6 -1.2
v -6.5 6.1 -1.2
v -6.5 6.2 -1.2
v -6.5 6.3 -1.2
v -6.5 6.5 -1.2
v -6.5 6.6 -1.2
v -6.4 5.9 -1.2
v -6.4 6 -1.2
v -6.4 6.4 -1.2
v -6.4 6.5 -1.2
v -6.3 6 -1.2
v -6.3 6.1 -1.2
v -6.3 6.2 -1.2
v -6.3 6.3 -1.2
v -6.3 6.4 -1.2
v -6.2 4.3 -1.2
v -6.2 4.4 -1.2
v -6.2 4.8 -1.2
v -6.2 5 -1.2
v -6.2 5.9 -1.2
v -6.2 6 -1.2
v -6.2 6.1 -1.2
v -6.2 6.2 -1.2
v -6.2 6.3 -1.2
v -6.2 6.7 -1.2
v -6.1 4.4 -1.2
v -6.1 4.5 -1.2
v -6.1 4.7 -1.2
v -6.1 4.8 -1.2
v -6.1 5 -1.2
v -6.1 5.2 -1.2
v -6.1 5.5 -1.2
v -6.1 5.7 -1.2
v -6.1 5.9 -1.2
v -6.1 6 -1.2
v -6.1 6.1 -1.2
v -6.1 6.2 -1.2
v -6.1 6.3 -1.2
v -6.1 6.6 -1.2
v -6.1 6.7 -1.2
v -6.1 6.8 -1.2
v -6 4.3 -1.2
v -6 4.5 -1.2
v -6 4.7 -1.2
v -6 4.8 -1.2
v -6 5.1 -1.2
v -6 5.2 -1.2
v -6 5.4 -1.2
v -6 5.5 -1.2
v -6 5.6 -1.2
v -6 5.7 -1.2
v -6 5.9 -1.2
v -6 6 -1.2
v -6 6.1 -1.2
v -6 6.6 -1.2
v -6 6.8 -1.2
v -5.9 4.8 -1.2
v -5.9 5 -1.2
v -5.9 5.1 -1.2
v -5.9 5.4 -1.2
v -5.9 5.6 -1.2
v -5.9 5.7 -1.2
v -5.9 6 -1.2
v -5.9 6.2 -1.2
v -5.9 6.3 -1.2
v -5.8 6 -1.2
v -5.8 6.1 -1.2
v -5.8 6.2 -1.2
v -5.8 6.3 -1.2
v -5.8 6.4 -1.2
v -5.7 6.2 -1.2
v -5.7 6.3 -1.2
v -5.7 6.4 -1.2
v -5.6 6.4 -1.2
v -5.6 6.5 -1.2
v -5.5 6 -1.2
v -5.5 6.1 -1.2
v -5.5 6.2 -1.2
v -5.5 6.3 -1.2
v -5.5 6.4 -1.2
v -5.4 5.9 -1.2
v -5.4 6 -1.2
v -5.4 6.1 -1.2
v -5.4 6.4 -1.2
v -5.4 6.5 -1.2
v -5.4 6.6 -1.2
v -5.3 5.9 -1.2
v -5.3 6 -1.2
v -5.2 5.8 -1.2
v -5.2 5.9 -1.2
v -5.2 6 -1.2
v -5.1 5.8 -1.2
v -5.1 5.9 -1.2
v -5.1 6.5 -1.2
v -5.1 6.6 -1.2
v -5.1 6.7 -1.2
v -5 6.6 -1.2
v -5 6.7 -1.2
v -6.2 6 -1.3
v -6.2 6.1 -1.3
v -6.1 6 -1.3
v -6.1 6.1 -1.3
v -6.1 5.9 -1.4
v -6.1 6 -1.4
v -6.1 6.2 -1.4
v -6.1 6.3 -1.4
v -6 5.9 -1.4
v -6 6 -1.4
v -6 6.2 -1.4
v -6 6.3 -1.4
v -6.1 5.8 -1.5
v -6.1 5.9 -1.5
v -6.1 6.3 -1.5
v -6.1 6.4 -1.5
v -6 5.8 -1.5
v -6 5.9 -1.5
v -6 6.3 -1.5
v -6 6.4 -1.5
v -6.5 5.7 -1.6
v -6.5 5.9 -1.6
v -6.5 6.3 -1.6
v -6.5 6.4 -1.6
v -6.4 5.7 -1.6
v -6.4 5.9 -1.6
v -6.4 6.3 -1.6
v -6.4 6.4 -1.6
v -6.3 5.9 -1.6
v -6.3 6 -1.6
v -6.3 6.2 -1.6
v -6.3 6.3 -1.6
v -6.2 6.2 -1.6
v -6.2 6.3 -1.6
v -6.1 5.9 -1.6
v -6.1 6 -1.6
v -6.1 6.3 -1.6
v -6.1 6.4 -1.6
v -6.1 6.5 -1.6
v -6 6.2 -1.6
v -6 6.3 -1.6
v -6 6.4 -1.6
v -6 6.5 -1.6
v -6.6 5.6 -1.7
v -6.6 5.7 -1.7
v -6.6 6.4 -1.7
v -6.6 6.5 -1.7
v -6.5 5.6 -1.7
v -6.5 5.7 -1.7
v -6.5 6.4 -1.7
v -6.4 5.7 -1.7
v -6.4 5.9 -1.7
v -6.4 6.3 -1.7
v -6.4 6.4 -1.7
v -6.4 6.5 -1.7
v -6.3 5.7 -1.7
v -6.3 5.9 -1.7
v -6.3 6.3 -1.7
v -6.3 6.4 -1.7
v -6.1 5.7 -1.7
v -6.1 5.8 -1.7
v -6 5.7 -1.7
v -6 5.8 -1.7
v -6.1 5.6 -1.8
v -6.1 5.7 -1.8
v -6.1 6.1 -1.8
v -6.1 6.2 -1.8
v -6 5.6 -1.8
v -6 5.7 -1.8
v -6 6.1 -1.8
v -6 6.2 -1.8
v -6.1 5.5 -1.9
v -6.1 5.6 -1.9
v -6.1 6 -1.9
v -6.1 6.1 -1.9
v -6.1 6.5 -1.9
v -6.1 6.6 -1.9
v -6 5.5 -1.9
v -6 5.6 -1.9
v -6 6 -1.9
v -6 6.1 -1.9
v -6 6.5 -1.9
v -6 6.6 -1.9
v -6.1 5.9 -2
v -6.1 6 -2
v -6 5.9 -2
v -6 6 -2
v -6.1 5.6 -0.7
v -6.1 5.7 -0.7
v -6.1 6.4 -0.7
v -6.1 6.5 -0.7
v -6 5.6 -0.7
v -6 5.7 -0.7
v -6 6.4 -0.7
v -6 6.5 -0.7
v -6.1 5.7 -0.8
v -6.1 5.9 -0.8
v -6.1 6.3 -0.8
v -6.1 6.4 -0.8
v -6 5.7 -0.8
v -6 5.9 -0.8
v -6 6.3 -0.8
v -6 6.4 -0.8
v -5.6 5.9 -0.8
v -5.6 6 -0.8
v -5.5 5.9 -0.8
v -5.5 6 -0.8
v -6.1 6.2 -0.9
v -6.1 6.3 -0.9
v -6 6.2 -0.9
v -6 6.3 -0.9
v -5.8 5.6 -0.9
v -5.8 5.7 -0.9
v -5.8 6.1 -0.9
v -5.8 6.2 -0.9
v -5.8 6.4 -0.9
v -5.8 6.5 -0.9
v -5.7 5.6 -0.9
v -5.7 5.7 -0.9
v -5.7 5.9 -0.9
v -5.7 6 -0.9
v -5.7 6.1 -0.9
v -5.7 6.2 -0.9
v -5.7 6.4 -0.9
v -5.7 6.5 -0.9
v -5.7 6.6 -0.9
v -5.6 5.5 -0.9
v -5.6 5.6 -0.9
v -5.6 5.7 -0.9
v -5.6 5.9 -0.9
v -5.6 6 -0.9
v -5.6 6.1 -0.9
v -5.6 6.5 -0.9
v -5.5 5.5 -0.9
v -5.5 5.7 -0.9
v -5.5 6 -0.9
v -5.5 6.1 -0.9
v -5.5 6.5 -0.9
v -5.5 6.6 -0.9
v -6 5.7 -1
v -6 5.8 -1
v -6 6.2 -1
v -6 6.3 -1
v -6 6.4 -1
v -6 6.5 -1
v -5.8 5.7 -1
v -5.8 5.8 -1
v -5.8 6.2 -1
v -5.8 6.3 -1
v -5.8 6.4 -1
v -5.8 6.5 -1
v -5.7 5.6 -1
v -5.7 5.7 -1
v -5.7 6.1 -1
v -5.7 6.2 -1
v -5.7 6.4 -1
v -5.7 6.5 -1
v -5.6 5.6 -1
v -5.6 5.7 -1
v -5.6 6.1 -1
v -5.6 6.2 -1
v -5.6 6.4 -1
v -5.6 6.5 -1
v -6.1 5.9 -1.1
v -6.1 6 -1.1
v -6 5.9 -1.1
v -6 6 -1.1
v -6.9 5.6 -1.3
v -6.9 5.7 -1.3
v -6.8 5.6 -1.3
v -6.8 5.7 -1.3
v -6.8 5.8 -1.3
v -6.8 6.6 -1.3
v -6.8 6.7 -1.3
v -6.7 5.7 -1.3
v -6.7 5.8 -1.3
v -6.7 5.9 -1.3
v -6.7 6.2 -1.3
v -6.7 6.3 -1.3
v -6.6 5.8 -1.3
v -6.6 5.9 -1.3
v -6.6 6 -1.3
v -6.6 6.5 -1.3
v -6.6 6.6 -1.3
v -6.6 6.7 -1.3
v -6.5 6 -1.3
v -6.5 6.1 -1.3
v -6.5 6.2 -1.3
v -6.5 6.3 -1.3
v -6.5 6.5 -1.3
v -6.5 6.6 -1.3
v -6.4 5.9 -1.3
v -6.4 6 -1.3
v -6.4 6.4 -1.3
v -6.4 6.5 -1.3
v -6.3 6 -1.3
v -6.3 6.1 -1.3
v -6.3 6.2 -1.3
v -6.3 6.3 -1.3
v -6.3 6.4 -1.3
v -6.2 4.3 -1.3
v -6.2 4.4 -1.3
v -6.2 4.8 -1.3
v -6.2 5 -1.3
v -6.2 5.9 -1.3
v -6.2 6 -1.3
v -6.2 6.1 -1.3
v -6.2 6.2 -1.3
v -6.2 6.3 -1.3
v -6.2 6.7 -1.3
v -6.1 4.4 -1.3
v -6.1 4.5 -1.3
v -6.1 4.7 -1.3
v -6.1 4.8 -1.3
v -6.1 5 -1.3
v -6.1 5.2 -1.3
v -6.1 5.5 -1.3
v -6.1 5.7 -1.3
v -6.1 5.9 -1.3
v -6.1 6 -1.3
v -6.1 6.2 -1.3
v -6.1 6.3 -1.3
v -6.1 6.6 -1.3
v -6.1 6.7 -1.3
v -6.1 6.8 -1.3
v -6 4.3 -1.3
v -6 4.5 -1.3
v -6 4.7 -1.3
v -6 4.8 -1.3
v -6 5.1 -1.3
v -6 5.2 -1.3
v -6 5.4 -1.3
v -6 5.5 -1.3
v -6 5.6 -1.3
v -6 5.7 -1.3
v -6 5.9 -1.3
v -6 6 -1.3
v -6 6.1 -1.3
v -6 6.2 -1.3
v -6 6.3 -1.3
v -6 6.6 -1.3
v -6 6.8 -1.3
v -5.9 4.8 -1.3
v -5.9 5 -1.3
v -5.9 5.1 -1.3
v -5.9 5.4 -1.3
v -5.9 5.6 -1.3
v -5.9 5.7 -1.3
v -5.9 5.9 -1.3
v -5.9 6 -1.3
v -5.8 6 -1.3
v -5.8 6.1 -1.3
v -5.8 6.2 -1.3
v -5.8 6.3 -1.3
v -5.8 6.4 -1.3
v -5.7 6.2 -1.3
v -5.7 6.3 -1.3
v -5.7 6.4 -1.3
v -5.6 6.4 -1.3
v -5.6 6.5 -1.3
v -5.5 6 -1.3
v -5.5 6.1 -1.3
v -5.5 6.2 -1.3
v -5.5 6.3 -1.3
v -5.5 6.4 -1.3
v -5.4 5.9 -1.3
v -5.4 6 -1.3
v -5.4 6.1 -1.3
v -5.4 6.4 -1.3
v -5.4 6.5 -1.3
v -5.4 6.6 -1.3
v -5.3 5.9 -1.3
v -5.3 6 -1.3
v -5.2 5.8 -1.3
v -5.2 5.9 -1.3
v -5.2 6 -1.3
v -5.1 5.8 -1.3
v -5.1 5.9 -1.3
v -5.1 6.5 -1.3
v -5.1 6.6 -1.3
v -5.1 6.7 -1.3
v -5 6.6 -1.3
v -5 6.7 -1.3
v -6.1 6 -1.4
v -6.1 6.2 -1.4
v -6 6 -1.4
v -6 6.2 -1.4
v -6.2 6 -1.5
v -6.2 6.2 -1.5
v -6.1 5.9 -1.5
v -6.1 6 -1.5
v -6.1 6.2 -1.5
v -6.1 6.3 -1.5
v -6 5.9 -1.5
v -6 6 -1.5
v -6 6.2 -1.5
v -6 6.3 -1.5
v -6.1 6.3 -1.6
v -6.1 6.4 -1.6
v -6 6.3 -1.6
v -6 6.4 -1.6
v -6.5 5.7 -1.7
v -6.5 5.9 -1.7
v -6.5 6.3 -1.7
v -6.5 6.4 -1.7
v -6.4 5.7 -1.7
v -6.4 5.9 -1.7
v -6.4 6.3 -1.7
v -6.4 6.4 -1.7
v -6.3 5.9 -1.7
v -6.3 6 -1.7
v -6.3 6.2 -1.7
v -6.3 6.3 -1.7
v -6.2 6.2 -1.7
v -6.2 6.3 -1.7
v -6.1 5.8 -1.7
v -6.1 5.9 -1.7
v -6.1 6 -1.7
v -6.1 6.2 -1.7
v -6.1 6.3 -1.7
v -6 5.8 -1.7
v -6 5.9 -1.7
v -6.6 5.6 -1.8
v -6.6 5.7 -1.8
v -6.5 5.6 -1.8
v -6.5 5.7 -1.8
v -6.4 5.7 -1.8
v -6.4 5.9 -1.8
v -6.4 6.3 -1.8
v -6.4 6.4 -1.8
v -6.3 5.7 -1.8
v -6.3 5.9 -1.8
v -6.3 6.3 -1.8
v -6.3 6.4 -1.8
v -6.1 5.7 -1.8
v -6.1 5.8 -1.8
v -6.1 6.2 -1.8
v -6.1 6.3 -1.8
v -6 5.7 -1.8
v -6 5.8 -1.8
v -6 6.2 -1.8
v -6 6.3 -1.8
v -6.6 6.4 -1.9
v -6.6 6.5 -1.9
v -6.5 6.4 -1.9
v -6.5 6.5 -1.9
v -6.1 6.1 -1.9
v -6.1 6.2 -1.9
v -6.1 6.4 -1.9
v -6.1 6.5 -1.9
v -6 6.1 -1.9
v -6 6.2 -1.9
v -6 6.4 -1.9
v -6 6.5 -1.9
v -6.5 6.4 -2
v -6.5 6.5 -2
v -6.4 6.4 -2
v -6.4 6.5 -2
v -6.1 5.5 -2
v -6.1 5.7 -2
v -6.1 6 -2
v -6.1 6.1 -2
v -6 5.5 -2
v -6 5.7 -2
v -6 6 -2
v -6 6.1 -2
v -6.1 5.9 -2.1
v -6.1 6 -2.1
v -6 5.9 -2.1
v -6 6 -2.1
v -6.1 6.5 -2.2
v -6.1 6.6 -2.2
v -6 6.5 -2.2
v -6 6.6 -2.2
v -6.2 4.3 -1.2
v -6 4.3 -1.2
v -6.2 4.3 -1.3
v -6 4.3 -1.3
v -6 4.8 -1.2
v -5.9 4.8 -1.2
v -6 4.8 -1.3
v -5.9 4.8 -1.3
v -5.6 5.5 -0.8
v -5.5 5.5 -0.8
v -5.6 5.5 -0.9
v -5.5 5.5 -0.9
v -6.1 5.5 -1.9
v -6 5.5 -1.9
v -6.1 5.5 -2
v -6 5.5 -2
v -6.1 5.6 -0.6
v -6 5.6 -0.6
v -6.1 5.6 -0.7
v -6 5.6 -0.7
v -5.8 5.6 -0.8
v -5.7 5.6 -0.8
v -5.8 5.6 -0.9
v -5.7 5.6 -0.9
v -5.6 5.6 -0.9
v -5.7 5.6 -1
v -5.6 5.6 -1
v -6.9 5.6 -1.2
v -6.8 5.6 -1.2
v -6.9 5.6 -1.3
v -6.8 5.6 -1.3
v -6.6 5.6 -1.7
v -6.5 5.6 -1.7
v -6.6 5.6 -1.8
v -6.5 5.6 -1.8
v -6.1 5.6 -1.8
v -6 5.6 -1.8
v -6.1 5.6 -1.9
v -6 5.6 -1.9
v -6.1 5.7 -0.7
v -6 5.7 -0.7
v -6.1 5.7 -0.8
v -6 5.7 -0.8
v -6 5.7 -0.9
v -5.8 5.7 -0.9
v -6 5.7 -1
v -5.8 5.7 -1
v -6.8 5.7 -1.2
v -6.7 5.7 -1.2
v -6.8 5.7 -1.3
v -6.7 5.7 -1.3
v -6.5 5.7 -1.6
v -6.4 5.7 -1.6
v -6.5 5.7 -1.7
v -6.4 5.7 -1.7
v -6.3 5.7 -1.7
v -6.1 5.7 -1.7
v -6 5.7 -1.7
v -6.4 5.7 -1.8
v -6.3 5.7 -1.8
v -6.1 5.7 -1.8
v -6 5.7 -1.8
v -6.7 5.8 -1.2
v -6.6 5.8 -1.2
v -5.2 5.8 -1.2
v -5.1 5.8 -1.2
v -6.7 5.8 -1.3
v -6.6 5.8 -1.3
v -5.2 5.8 -1.3
v -5.1 5.8 -1.3
v -6.1 5.8 -1.5
v -6 5.8 -1.5
v -6.1 5.8 -1.7
v -6 5.8 -1.7
v -5.7 5.9 -0.6
v -5.6 5.9 -0.6
v -5.6 5.9 -0.7
v -5.5 5.9 -0.7
v -6.1 5.9 -0.8
v -6 5.9 -0.8
v -5.6 5.9 -0.8
v -5.5 5.9 -0.8
v -5.7 5.9 -0.9
v -5.6 5.9 -0.9
v -6.1 5.9 -1.1
v -6 5.9 -1.1
v -5.9 5.9 -1.1
v -6.6 5.9 -1.2
v -6.4 5.9 -1.2
v -6.2 5.9 -1.2
v -6.1 5.9 -1.2
v -6 5.9 -1.2
v -5.4 5.9 -1.2
v -5.3 5.9 -1.2
v -5.2 5.9 -1.2
v -6.6 5.9 -1.3
v -6.4 5.9 -1.3
v -6.2 5.9 -1.3
v -6.1 5.9 -1.3
v -6 5.9 -1.3
v -5.9 5.9 -1.3
v -5.4 5.9 -1.3
v -5.3 5.9 -1.3
v -5.2 5.9 -1.3
v -6.1 5.9 -1.4
v -6 5.9 -1.4
v -6.1 5.9 -1.5
v -6 5.9 -1.5
v -6.3 5.9 -1.6
v -6.1 5.9 -1.6
v -6.3 5.9 -1.7
v -6.1 5.9 -1.7
v -6.1 5.9 -2
v -6 5.9 -2
v -6.1 5.9 -2.1
v -6 5.9 -2.1
v -5.6 6 -0.8
v -5.5 6 -0.8
v -5.6 6 -0.9
v -5.5 6 -0.9
v -6.1 6 -1.1
v -6 6 -1.1
v -6.4 6 -1.2
v -6.3 6 -1.2
v -6.2 6 -1.2
v -6.1 6 -1.2
v -6 6 -1.2
v -5.9 6 -1.2
v -5.8 6 -1.2
v -5.5 6 -1.2
v -5.4 6 -1.2
v -6.4 6 -1.3
v -6.3 6 -1.3
v -6.2 6 -1.3
v -6.1 6 -1.3
v -6 6 -1.3
v -5.9 6 -1.3
v -5.8 6 -1.3
v -5.5 6 -1.3
v -5.4 6 -1.3
v -6.1 6 -1.4
v -6 6 -1.4
v -6.2 6 -1.5
v -6.1 6 -1.5
v -6.1 6 -1.9
v -6 6 -1.9
v -6.1 6 -2
v -6 6 -2
v -5.8 6.1 -0.8
v -5.7 6.1 -0.8
v -6.1 6.1 -0.9
v -6 6.1 -0.9
v -5.8 6.1 -0.9
v -5.7 6.1 -0.9
v -5.6 6.1 -0.9
v -5.7 6.1 -1
v -5.6 6.1 -1
v -6.1 6.1 -1.1
v -6 6.1 -1.1
v -6.2 6.1 -1.2
v -6.1 6.1 -1.2
v -5.8 6.1 -1.2
v -5.5 6.1 -1.2
v -6.2 6.1 -1.3
v -6.1 6.1 -1.3
v -5.8 6.1 -1.3
v -5.5 6.1 -1.3
v -6.1 6.1 -1.8
v -6 6.1 -1.8
v -6.1 6.1 -1.9
v -6 6.1 -1.9
v -6.1 6.2 -0.8
v -6 6.2 -0.8
v -6.1 6.2 -0.9
v -6 6.2 -0.9
v -5.8 6.2 -0.9
v -6 6.2 -1
v -5.8 6.2 -1
v -6 6.2 -1.1
v -5.9 6.2 -1.1
v -6.7 6.2 -1.2
v -6.5 6.2 -1.2
v -6 6.2 -1.2
v -5.9 6.2 -1.2
v -5.8 6.2 -1.2
v -6.7 6.2 -1.3
v -6.5 6.2 -1.3
v -6 6.2 -1.3
v -5.8 6.2 -1.3
v -6.1 6.2 -1.4
v -6 6.2 -1.4
v -6.1 6.2 -1.5
v -6 6.2 -1.5
v -6.3 6.2 -1.6
v -6.2 6.2 -1.6
v -6 6.2 -1.6
v -6.3 6.2 -1.7
v -6.2 6.2 -1.7
v -6.1 6.2 -1.7
v -6.1 6.2 -1.8
v -6 6.2 -1.8
v -6.1 6.3 -0.7
v -6 6.3 -0.7
v -6.1 6.3 -0.8
v -6 6.3 -0.8
v -6.5 6.3 -1.2
v -6.3 6.3 -1.2
v -5.7 6.3 -1.2
v -5.5 6.3 -1.2
v -6.5 6.3 -1.3
v -6.3 6.3 -1.3
v -5.7 6.3 -1.3
v -5.5 6.3 -1.3
v -6.1 6.3 -1.5
v -6 6.3 -1.5
v -6.5 6.3 -1.6
v -6.4 6.3 -1.6
v -6.1 6.3 -1.6
v -6 6.3 -1.6
v -6.5 6.3 -1.7
v -6.4 6.3 -1.7
v -6.3 6.3 -1.7
v -6.4 6.3 -1.8
v -6.3 6.3 -1.8
v -6.1 6.4 -0.4
v -6 6.4 -0.4
v -6.1 6.4 -0.7
v -6 6.4 -0.7
v -5.8 6.4 -0.8
v -5.7 6.4 -0.8
v -6 6.4 -0.9
v -5.8 6.4 -0.9
v -5.7 6.4 -0.9
v -5.6 6.4 -0.9
v -6 6.4 -1
v -5.8 6.4 -1
v -5.7 6.4 -1
v -5.6 6.4 -1
v -5.5 6.4 -1.2
v -5.4 6.4 -1.2
v -5.5 6.4 -1.3
v -5.4 6.4 -1.3
v -6.1 6.4 -1.6
v -6 6.4 -1.6
v -6.6 6.4 -1.7
v -6.5 6.4 -1.7
v -6.4 6.4 -1.7
v -6.4 6.4 -1.8
v -6.6 6.4 -1.9
v -6.5 6.4 -1.9
v -6.1 6.4 -1.9
v -6 6.4 -1.9
v -6.5 6.4 -2
v -6.4 6.4 -2
v -5.7 6.5 -0.6
v -5.6 6.5 -0.6
v -5.6 6.5 -0.7
v -5.5 6.5 -0.7
v -5.7 6.5 -0.8
v -5.6 6.5 -0.8
v -5.7 6.5 -0.9
v -5.6 6.5 -0.9
v -5.5 6.5 -0.9
v -6.6 6.5 -1.2
v -6.5 6.5 -1.2
v -5.4 6.5 -1.2
v -5.1 6.5 -1.2
v -6.6 6.5 -1.3
v -6.5 6.5 -1.3
v -5.4 6.5 -1.3
v -5.1 6.5 -1.3
v -6.1 6.5 -1.9
v -6 6.5 -1.9
v -6.1 6.5 -2.2
v -6 6.5 -2.2
v -6.8 6.6 -1.2
v -6.6 6.6 -1.2
v -6.1 6.6 -1.2
v -6 6.6 -1.2
v -5.1 6.6 -1.2
v -5 6.6 -1.2
v -6.8 6.6 -1.3
v -6.6 6.6 -1.3
v -6.1 6.6 -1.3
v -6 6.6 -1.3
v -5.1 6.6 -1.3
v -5 6.6 -1.3
v -6.2 5 -1.2
v -6.1 5 -1.2
v -6.2 5 -1.3
v -6.1 5 -1.3
v -6.1 5.7 -0.6
v -6 5.7 -0.6
v -6.1 5.7 -0.7
v -6 5.7 -0.7
v -5.8 5.7 -0.8
v -5.7 5.7 -0.8
v -5.6 5.7 -0.8
v -5.5 5.7 -0.8
v -5.8 5.7 -0.9
v -5.7 5.7 -0.9
v -5.6 5.7 -0.9
v -5.5 5.7 -0.9
v -5.7 5.7 -1
v -5.6 5.7 -1
v -6.9 5.7 -1.2
v -6.8 5.7 -1.2
v -6 5.7 -1.2
v -5.9 5.7 -1.2
v -6.9 5.7 -1.3
v -6.8 5.7 -1.3
v -6 5.7 -1.3
v -5.9 5.7 -1.3
v -6.6 5.7 -1.7
v -6.5 5.7 -1.7
v -6.6 5.7 -1.8
v -6.5 5.7 -1.8
v -6.1 5.7 -1.8
v -6 5.7 -1.8
v -6.1 5.7 -2
v -6 5.7 -2
v -6 5.8 -0.9
v -5.8 5.8 -0.9
v -6 5.8 -1
v -5.8 5.8 -1
v -6.8 5.8 -1.2
v -6.7 5.8 -1.2
v -6.8 5.8 -1.3
v -6.7 5.8 -1.3
v -6.1 5.8 -1.7
v -6 5.8 -1.7
v -6.1 5.8 -1.8
v -6 5.8 -1.8
v -6.1 5.9 -0.7
v -6 5.9 -0.7
v -6.1 5.9 -0.8
v -6 5.9 -0.8
v -6.7 5.9 -1.2
v -6.6 5.9 -1.2
v -5.2 5.9 -1.2
v -5.1 5.9 -1.2
v -6.7 5.9 -1.3
v -6.6 5.9 -1.3
v -5.2 5.9 -1.3
v -5.1 5.9 -1.3
v -6.1 5.9 -1.5
v -6 5.9 -1.5
v -6.5 5.9 -1.6
v -6.4 5.9 -1.6
v -6.1 5.9 -1.6
v -6.5 5.9 -1.7
v -6.4 5.9 -1.7
v -6.3 5.9 -1.7
v -6.1 5.9 -1.7
v -6 5.9 -1.7
v -6.4 5.9 -1.8
v -6.3 5.9 -1.8
v -5.7 6 -0.6
v -5.6 6 -0.6
v -5.6 6 -0.7
v -5.5 6 -0.7
v -6.1 6 -0.8
v -6 6 -0.8
v -5.6 6 -0.8
v -5.5 6 -0.8
v -5.7 6 -0.9
v -5.6 6 -0.9
v -6.1 6 -1.1
v -6 6 -1.1
v -5.9 6 -1.1
v -6.6 6 -1.2
v -6.5 6 -1.2
v -6.2 6 -1.2
v -6.1 6 -1.2
v -6 6 -1.2
v -5.9 6 -1.2
v -5.4 6 -1.2
v -5.3 6 -1.2
v -5.2 6 -1.2
v -6.6 6 -1.3
v -6.5 6 -1.3
v -6.2 6 -1.3
v -6.1 6 -1.3
v -5.4 6 -1.3
v -5.3 6 -1.3
v -5.2 6 -1.3
v -6.1 6 -1.4
v -6 6 -1.4
v -6.1 6 -1.5
v -6 6 -1.5
v -6.3 6 -1.6
v -6.1 6 -1.6
v -6.3 6 -1.7
v -6.1 6 -1.7
v -6.1 6 -2
v -6 6 -2
v -6.1 6 -2.1
v -6 6 -2.1
v -5.6 6.1 -0.8
v -5.5 6.1 -0.8
v -5.6 6.1 -0.9
v -5.5 6.1 -0.9
v -6.5 6.1 -1.2
v -6.3 6.1 -1.2
v -6 6.1 -1.2
v -5.8 6.1 -1.2
v -5.5 6.1 -1.2
v -5.4 6.1 -1.2
v -6.5 6.1 -1.3
v -6.3 6.1 -1.3
v -6 6.1 -1.3
v -5.8 6.1 -1.3
v -5.5 6.1 -1.3
v -5.4 6.1 -1.3
v -6.1 6.1 -1.9
v -6 6.1 -1.9
v -6.1 6.1 -2
v -6 6.1 -2
v -5.8 6.2 -0.8
v -5.7 6.2 -0.8
v -6.1 6.2 -0.9
v -6 6.2 -0.9
v -5.8 6.2 -0.9
v -5.7 6.2 -0.9
v -5.6 6.2 -0.9
v -6 6.2 -1
v -5.7 6.2 -1
v -5.6 6.2 -1
v -6.1 6.2 -1.1
v -6 6.2 -1.1
v -6.1 6.2 -1.2
v -6 6.2 -1.2
v -5.7 6.2 -1.2
v -5.5 6.2 -1.2
v -6.2 6.2 -1.3
v -6.1 6.2 -1.3
v -6 6.2 -1.3
v -5.7 6.2 -1.3
v -5.5 6.2 -1.3
v -6.1 6.2 -1.4
v -6 6.2 -1.4
v -6.2 6.2 -1.5
v -6.1 6.2 -1.5
v -6.1 6.2 -1.8
v -6 6.2 -1.8
v -6.1 6.2 -1.9
v -6 6.2 -1.9
v -6.1 6.3 -0.8
v -6 6.3 -0.8
v -6.1 6.3 -0.9
v -6 6.3 -0.9
v -5.8 6.3 -0.9
v -6 6.3 -1
v -5.8 6.3 -1
v -6 6.3 -1.1
v -5.9 6.3 -1.1
v -6.7 6.3 -1.2
v -6.5 6.3 -1.2
v -6.3 6.3 -1.2
v -6.2 6.3 -1.2
v -5.9 6.3 -1.2
v -5.8 6.3 -1.2
v -6.7 6.3 -1.3
v -6.5 6.3 -1.3
v -6.3 6.3 -1.3
v -6.2 6.3 -1.3
v -6 6.3 -1.3
v -5.8 6.3 -1.3
v -6.1 6.3 -1.4
v -6 6.3 -1.4
v -6.1 6.3 -1.5
v -6 6.3 -1.5
v -6.3 6.3 -1.6
v -6.2 6.3 -1.6
v -6.1 6.3 -1.6
v -6 6.3 -1.6
v -6.3 6.3 -1.7
v -6.2 6.3 -1.7
v -6.1 6.3 -1.7
v -6.1 6.3 -1.8
v -6 6.3 -1.8
v -6.1 6.4 -0.7
v -6 6.4 -0.7
v -6.1 6.4 -0.8
v -6 6.4 -0.8
v -6.4 6.4 -1.2
v -6.3 6.4 -1.2
v -5.8 6.4 -1.2
v -5.7 6.4 -1.2
v -5.6 6.4 -1.2
v -6.4 6.4 -1.3
v -6.3 6.4 -1.3
v -5.8 6.4 -1.3
v -5.7 6.4 -1.3
v -5.6 6.4 -1.3
v -6.1 6.4 -1.5
v -6 6.4 -1.5
v -6.5 6.4 -1.6
v -6.4 6.4 -1.6
v -6.1 6.4 -1.6
v -6 6.4 -1.6
v -6.5 6.4 -1.7
v -6.4 6.4 -1.7
v -6.3 6.4 -1.7
v -6.4 6.4 -1.8
v -6.3 6.4 -1.8
v -6.1 6.5 -0.4
v -6 6.5 -0.4
v -6.1 6.5 -0.7
v -6 6.5 -0.7
v -5.8 6.5 -0.8
v -5.7 6.5 -0.8
v -6 6.5 -0.9
v -5.8 6.5 -0.9
v -5.7 6.5 -0.9
v -5.6 6.5 -0.9
v -6 6.5 -1
v -5.8 6.5 -1
v -5.7 6.5 -1
v -5.6 6.5 -1
v -6.5 6.5 -1.2
v -6.4 6.5 -1.2
v -5.6 6.5 -1.2
v -5.4 6.5 -1.2
v -6.5 6.5 -1.3
v -6.4 6.5 -1.3
v -5.6 6.5 -1.3
v -5.4 6.5 -1.3
v -6.1 6.5 -1.6
v -6 6.5 -1.6
v -6.6 6.5 -1.7
v -6.4 6.5 -1.7
v -6.6 6.5 -1.9
v -6.5 6.5 -1.9
v -6.1 6.5 -1.9
v -6 6.5 -1.9
v -6.5 6.5 -2
v -6.4 6.5 -2
v -5.7 6.6 -0.6
v -5.6 6.6 -0.6
v -5.6 6.6 -0.7
v -5.5 6.6 -0.7
v -5.7 6.6 -0.8
v -5.6 6.6 -0.8
v -5.7 6.6 -0.9
v -5.5 6.6 -0.9
v -6.6 6.6 -1.2
v -6.5 6.6 -1.2
v -5.4 6.6 -1.2
v -5.1 6.6 -1.2
v -6.6 6.6 -1.3
v -6.5 6.6 -1.3
v -5.4 6.6 -1.3
v -5.1 6.6 -1.3
v -6.1 6.6 -1.9
v -6 6.6 -1.9
v -6.1 6.6 -2.2
v -6 6.6 -2.2
v -6.8 6.7 -1.2
v -6.6 6.7 -1.2
v -6.2 6.7 -1.2
v -6.1 6.7 -1.2
v -5.1 6.7 -1.2
v -5 6.7 -1.2
v -6.8 6.7 -1.3
v -6.6 6.7 -1.3
v -6.2 6.7 -1.3
v -6.1 6.7 -1.3
v -5.1 6.7 -1.3
v -5 6.7 -1.3
v -6.1 6.8 -1.2
v -6 6.8 -1.2
v -6.1 6.8 -1.3
v -6 6.8 -1.3

# faces
f 3/3/1 2/3/1 1/3/1
f 4/3/1 2/3/1 3/3/1
f 7/4/1 6/4/1 5/4/1
f 8/4/1 6/4/1 7/4/1
f 11/3/1 10/3/1 9/3/1
f 12/3/1 10/3/1 11/3/1
f 15/4/1 14/4/1 13/4/1
f 16/4/1 14/4/1 15/4/1
f 19/3/1 18/3/1 17/3/1
f 20/3/1 18/3/1 19/3/1
f 23/4/1 22/4/1 21/4/1
f 24/4/1 22/4/1 23/4/1
f 27/4/1 26/4/1 25/4/1
f 28/4/1 26/4/1 27/4/1
f 33/3/1 30/3/1 29/3/1
f 34/3/1 30/3/1 33/3/1
f 35/3/1 32/3/1 31/3/1
f 36/3/1 32/3/1 35/3/1
f 39/4/1 38/4/1 37/4/1
f 40/4/1 38/4/1 39/4/1
f 43/3/1 42/3/1 41/3/1
f 44/3/1 42/3/1 43/3/1
f 49/3/1 48/3/1 47/3/1
f 50/3/1 48/3/1 49/3/1
f 53/3/1 46/3/1 45/3/1
f 54/3/1 46/3/1 53/3/1
f 55/3/1 52/3/1 51/3/1
f 56/3/1 52/3/1 55/3/1
f 59/4/1 58/4/1 57/4/1
f 60/4/1 58/4/1 59/4/1
f 63/3/1 62/3/1 61/3/1
f 64/3/1 62/3/1 63/3/1
f 67/4/1 66/4/1 65/4/1
f 68/4/1 66/4/1 67/4/1
f 71/5/1 70/5/1 69/5/1
f 72/5/1 70/5/1 71/5/1
f 75/3/1 72/3/1 71/3/1
f 76/3/1 72/3/1 75/3/1
f 77/4/1 74/4/1 73/4/1
f 78/4/1 74/4/1 77/4/1
f 81/2/1 80/2/1 79/2/1
f 82/2/1 80/2/1 81/2/1
f 83/1/1 82/1/1 81/1/1
f 84/1/1 82/1/1 83/1/1
f 85/2/1 84/2/1 83/2/1
f 86/2/1 84/2/1 85/2/1
f 89/4/1 88/4/1 87/4/1
f 90/4/1 88/4/1 89/4/1
f 92/4/1 91/4/1 90/4/1
f 93/4/1 91/4/1 92/4/1
f 94/4/1 91/4/1 93/4/1
f 97/3/1 96/3/1 95/3/1
f 98/3/1 96/3/1 97/3/1
f 101/1/1 100/1/1 99/1/1
f 102/1/1 100/1/1 101/1/1
f 103/2/1 102/2/1 101/2/1
f 104/2/1 102/2/1 103/2/1
f 110/4/1 106/4/1 105/4/1
f 111/4/1 108/4/1 107/4/1
f 112/4/1 108/4/1 111/4/1
f 114/1/1 104/1/1 103/1/1
f 115/1/1 104/1/1 114/1/1
f 117/4/1 110/4/1 109/4/1
f 118/4/1 106/4/1 110/4/1
f 118/4/1 110/4/1 117/4/1
f 120/4/1 117/4/1 116/4/1
f 121/4/1 117/4/1 120/4/1
f 122/4/1 113/4/1 112/4/1
f 123/4/1 113/4/1 122/4/1
f 125/4/1 115/4/1 114/4/1
f 126/4/1 115/4/1 125/4/1
f 128/4/1 120/4/1 119/4/1
f 129/4/1 120/4/1 128/4/1
f 130/4/1 120/4/1 129/4/1
f 133/4/1 124/4/1 123/4/1
f 134/4/1 124/4/1 133/4/1
f 137/4/1 128/4/1 127/4/1
f 138/4/1 128/4/1 137/4/1
f 140/4/1 132/4/1 131/4/1
f 141/4/1 132/4/1 140/4/1
f 143/4/1 136/4/1 135/4/1
f 143/4/1 135/4/1 134/4/1
f 144/4/1 136/4/1 143/4/1
f 145/4/1 136/4/1 144/4/1
f 147/4/1 140/4/1 139/4/1
f 148/4/1 140/4/1 147/4/1
f 150/4/1 143/4/1 142/4/1
f 151/3/1 144/3/1 143/3/1
f 151/4/1 143/4/1 150/4/1
f 152/3/1 144/3/1 151/3/1
f 156/3/1 147/3/1 146/3/1
f 157/3/1 147/3/1 156/3/1
f 159/4/1 150/4/1 149/4/1
f 160/4/1 150/4/1 159/4/1
f 161/4/1 154/4/1 153/4/1
f 162/4/1 154/4/1 161/4/1
f 164/3/1 156/3/1 155/3/1
f 165/3/1 156/3/1 164/3/1
f 167/4/1 159/4/1 158/4/1
f 168/4/1 159/4/1 167/4/1
f 169/3/1 163/3/1 162/3/1
f 170/3/1 163/3/1 169/3/1
f 172/4/1 167/4/1 166/4/1
f 173/4/1 167/4/1 172/4/1
f 174/3/1 171/3/1 170/3/1
f 175/3/1 171/3/1 174/3/1
f 177/3/1 176/3/1 175/3/1
f 178/3/1 176/3/1 177/3/1
f 181/3/1 180/3/1 179/3/1
f 182/3/1 180/3/1 181/3/1
f 185/4/1 184/4/1 183/4/1
f 186/4/1 184/4/1 185/4/1
f 189/4/1 188/4/1 187/4/1
f 190/4/1 188/4/1 189/4/1
f 196/3/1 192/3/1 191/3/1
f 197/3/1 192/3/1 196/3/1
f 198/4/1 194/4/1 193/4/1
f 198/4/1 195/4/1 194/4/1
f 199/4/1 195/4/1 198/4/1
f 202/4/1 201/4/1 200/4/1
f 203/4/1 201/4/1 202/4/1
f 206/4/1 205/4/1 204/4/1
f 207/4/1 205/4/1 206/4/1
f 212/4/1 209/4/1 208/4/1
f 213/4/1 209/4/1 212/4/1
f 214/4/1 211/4/1 210/4/1
f 215/4/1 211/4/1 214/4/1
f 220/5/1 217/5/1 216/5/1
f 221/5/1 217/5/1 220/5/1
f 222/4/1 219/4/1 218/4/1
f 223/4/1 219/4/1 222/4/1
f 226/4/1 225/4/1 224/4/1
f 227/4/1 225/4/1 226/4/1
f 230/4/1 229/4/1 228/4/1
f 231/4/1 229/4/1 230/4/1
f 234/4/1 233/4/1 232/4/1
f 235/4/1 233/4/1 234/4/1
f 240/4/1 237/4/1 236/4/1
f 241/4/1 237/4/1 240/4/1
f 242/3/1 239/3/1 238/3/1
f 243/4/1 240/4/1 239/4/1
f 243/3/1 239/3/1 242/3/1
f 244/4/1 240/4/1 243/4/1
f 247/4/1 246/4/1 245/4/1
f 248/4/1 247/4/1 245/4/1
f 249/4/1 247/4/1 248/4/1
f 252/4/1 251/4/1 250/4/1
f 253/4/1 251/4/1 252/4/1
f 256/3/1 255/3/1 254/3/1
f 257/3/1 255/3/1 256/3/1
f 260/4/1 259/4/1 258/4/1
f 261/4/1 259/4/1 260/4/1
f 264/4/1 263/4/1 262/4/1
f 265/4/1 263/4/1 264/4/1
f 268/3/1 267/3/1 266/3/1
f 269/3/1 267/3/1 268/3/1
f 272/4/1 271/4/1 270/4/1
f 273/4/1 271/4/1 272/4/1
f 276/3/1 275/3/1 274/3/1
f 277/3/1 275/3/1 276/3/1
f 278/3/2 279/3/2 280/3/2
f 280/3/2 279/3/2 281/3/2
f 282/4/2 283/4/2 284/4/2
f 284/4/2 283/4/2 285/4/2
f 286/4/2 287/4/2 288/4/2
f 288/4/2 287/4/2 289/4/2
f 290/3/2 291/3/2 292/3/2
f 292/3/2 291/3/2 293/3/2
f 294/4/2 295/4/2 296/4/2
f 296/4/2 295/4/2 297/4/2
f 298/3/2 299/3/2 300/3/2
f 300/3/2 299/3/2 301/3/2
f 302/3/2 303/3/2 304/3/2
f 304/3/2 303/3/2 305/3/2
f 306/4/2 307/4/2 310/4/2
f 310/4/2 307/4/2 311/4/2
f 308/4/2 309/4/2 312/4/2
f 312/4/2 309/4/2 313/4/2
f 314/3/2 315/3/2 318/3/2
f 318/3/2 315/3/2 319/3/2
f 316/3/2 317/3/2 322/3/2
f 322/3/2 317/3/2 323/3/2
f 320/3/2 321/3/2 324/3/2
f 319/3/2 320/3/2 324/3/2
f 324/3/2 321/3/2 325/3/2
f 326/4/2 327/4/2 328/4/2
f 328/4/2 327/4/2 329/4/2
f 330/3/2 331/3/2 334/3/2
f 334/3/2 331/3/2 335/3/2
f 332/3/2 333/3/2 336/3/2
f 336/3/2 333/3/2 337/3/2
f 338/4/2 339/4/2 340/4/2
f 340/4/2 339/4/2 341/4/2
f 342/4/2 343/4/2 346/4/2
f 346/4/2 343/4/2 347/4/2
f 344/4/2 345/4/2 350/4/2
f 350/4/2 345/4/2 351/4/2
f 348/4/2 349/4/2 352/4/2
f 352/4/2 349/4/2 353/4/2
f 352/3/2 353/3/2 354/3/2
f 354/3/2 353/3/2 355/3/2
f 356/2/2 357/2/2 358/2/2
f 358/2/2 357/2/2 359/2/2
f 358/1/2 359/1/2 360/1/2
f 360/1/2 359/1/2 361/1/2
f 360/2/2 361/2/2 362/2/2
f 362/2/2 361/2/2 363/2/2
f 364/4/2 365/4/2 369/4/2
f 366/4/2 367/4/2 370/4/2
f 370/4/2 367/4/2 371/4/2
f 368/4/2 369/4/2 376/4/2
f 369/4/2 365/4/2 377/4/2
f 376/4/2 369/4/2 377/4/2
f 375/4/2 376/4/2 379/4/2
f 379/4/2 376/4/2 380/4/2
f 371/4/2 372/4/2 381/4/2
f 381/4/2 372/4/2 382/4/2
f 373/4/2 374/4/2 384/4/2
f 384/4/2 374/4/2 385/4/2
f 378/4/2 379/4/2 387/4/2
f 387/4/2 379/4/2 388/4/2
f 382/4/2 383/4/2 391/4/2
f 391/4/2 383/4/2 392/4/2
f 386/4/2 387/4/2 395/4/2
f 395/4/2 387/4/2 396/4/2
f 389/4/2 390/4/2 398/4/2
f 398/4/2 390/4/2 399/4/2
f 392/4/2 393/4/2 401/4/2
f 401/4/2 393/4/2 402/4/2
f 394/4/2 395/4/2 403/4/2
f 397/4/2 398/4/2 405/4/2
f 405/4/2 398/4/2 406/4/2
f 400/4/2 401/4/2 408/4/2
f 408/4/2 401/4/2 409/4/2
f 401/3/2 402/3/2 410/3/2
f 409/4/2 401/4/2 410/4/2
f 402/4/2 403/4/2 411/4/2
f 410/3/2 402/3/2 411/3/2
f 403/4/2 395/4/2 412/4/2
f 411/4/2 403/4/2 412/4/2
f 412/4/2 395/4/2 413/4/2
f 404/3/2 405/3/2 416/3/2
f 416/3/2 405/3/2 417/3/2
f 407/4/2 408/4/2 419/4/2
f 419/4/2 408/4/2 420/4/2
f 413/4/2 414/4/2 421/4/2
f 421/4/2 414/4/2 422/4/2
f 415/3/2 416/3/2 423/3/2
f 423/3/2 416/3/2 424/3/2
f 418/4/2 419/4/2 426/4/2
f 426/4/2 419/4/2 427/4/2
f 422/3/2 423/3/2 428/3/2
f 428/3/2 423/3/2 429/3/2
f 425/4/2 426/4/2 431/4/2
f 431/4/2 426/4/2 432/4/2
f 429/3/2 430/3/2 433/3/2
f 433/3/2 430/3/2 434/3/2
f 434/3/2 435/3/2 438/3/2
f 438/3/2 435/3/2 439/3/2
f 436/3/2 437/3/2 440/3/2
f 440/3/2 437/3/2 441/3/2
f 442/2/2 443/2/2 444/2/2
f 444/2/2 443/2/2 445/2/2
f 444/1/2 445/1/2 446/1/2
f 446/1/2 445/1/2 447/1/2
f 446/2/2 447/2/2 448/2/2
f 448/2/2 447/2/2 449/2/2
f 448/1/2 449/1/2 450/1/2
f 450/1/2 449/1/2 451/1/2
f 450/2/2 451/2/2 452/2/2
f 452/2/2 451/2/2 453/2/2
f 454/4/2 455/4/2 456/4/2
f 456/4/2 455/4/2 457/4/2
f 457/4/2 455/4/2 458/4/2
f 459/4/2 460/4/2 461/4/2
f 461/4/2 460/4/2 462/4/2
f 463/4/2 464/4/2 465/4/2
f 465/4/2 464/4/2 466/4/2
f 467/4/2 468/4/2 469/4/2
f 469/4/2 468/4/2 470/4/2
f 471/3/2 472/3/2 473/3/2
f 473/3/2 472/3/2 474/3/2
f 475/4/2 476/4/2 477/4/2
f 477/4/2 476/4/2 478/4/2
f 479/4/2 480/4/2 481/4/2
f 481/4/2 480/4/2 482/4/2
f 483/4/2 484/4/2 485/4/2
f 485/4/2 484/4/2 486/4/2
f 487/3/2 488/3/2 489/3/2
f 489/3/2 488/3/2 490/3/2
f 491/4/2 492/4/2 493/4/2
f 493/4/2 492/4/2 494/4/2
f 495/4/2 496/4/2 497/4/2
f 497/4/2 496/4/2 498/4/2
f 499/4/2 500/4/2 503/4/2
f 503/4/2 500/4/2 504/4/2
f 501/4/2 502/4/2 505/4/2
f 505/4/2 502/4/2 506/4/2
f 507/4/2 508/4/2 509/4/2
f 509/4/2 508/4/2 510/4/2
f 511/4/2 512/4/2 515/4/2
f 515/4/2 512/4/2 516/4/2
f 513/3/2 514/3/2 517/3/2
f 517/3/2 514/3/2 518/3/2
f 519/4/2 520/4/2 521/4/2
f 521/4/2 520/4/2 522/4/2
f 523/4/2 524/4/2 525/4/2
f 525/4/2 524/4/2 526/4/2
f 526/4/2 527/4/2 528/4/2
f 528/4/2 527/4/2 529/4/2
f 530/4/2 531/4/2 532/4/2
f 532/4/2 531/4/2 533/4/2
f 534/4/2 535/4/2 536/4/2
f 536/4/2 535/4/2 537/4/2
f 538/4/2 539/4/2 540/4/2
f 540/4/2 539/4/2 541/4/2
f 542/4/2 543/4/2 544/4/2
f 544/4/2 543/4/2 545/4/2
f 546/3/2 547/3/2 548/3/2
f 548/3/2 547/3/2 549/3/2
f 550/3/2 551/3/2 552/3/2
f 552/3/2 551/3/2 553/3/2
f 554/4/2 555/4/2 556/4/2
f 556/4/2 555/4/2 557/4/2
f 558/3/2 559/3/2 560/3/2
f 560/3/2 559/3/2 561/3/2
f 562/3/2 563/3/2 564/3/2
f 564/3/2 563/3/2 565/3/2
f 568/4/3 567/4/3 566/4/3
f 569/4/3 567/4/3 568/4/3
f 572/4/3 571/4/3 570/4/3
f 573/4/3 571/4/3 572/4/3
f 578/4/3 575/4/3 574/4/3
f 579/4/3 575/4/3 578/4/3
f 580/3/3 577/3/3 576/3/3
f 581/3/3 577/3/3 580/3/3
f 586/4/3 583/4/3 582/4/3
f 587/4/3 583/4/3 586/4/3
f 588/4/3 585/4/3 584/4/3
f 589/4/3 585/4/3 588/4/3
f 594/4/3 591/4/3 590/4/3
f 595/4/3 591/4/3 594/4/3
f 596/4/3 593/4/3 592/4/3
f 597/4/3 593/4/3 596/4/3
f 602/4/3 599/4/3 598/4/3
f 603/4/3 599/4/3 602/4/3
f 604/4/3 601/4/3 600/4/3
f 605/4/3 601/4/3 604/4/3
f 612/4/3 607/4/3 606/4/3
f 613/4/3 607/4/3 612/4/3
f 614/4/3 609/4/3 608/4/3
f 615/4/3 609/4/3 614/4/3
f 616/4/3 611/4/3 610/4/3
f 617/4/3 611/4/3 616/4/3
f 622/4/3 619/4/3 618/4/3
f 623/4/3 619/4/3 622/4/3
f 624/4/3 621/4/3 620/4/3
f 625/4/3 621/4/3 624/4/3
f 630/4/3 627/4/3 626/4/3
f 631/4/3 627/4/3 630/4/3
f 635/4/3 629/4/3 628/4/3
f 636/4/3 629/4/3 635/4/3
f 637/3/3 632/3/3 631/3/3
f 638/3/3 632/3/3 637/3/3
f 639/4/3 634/4/3 633/4/3
f 640/4/3 634/4/3 639/4/3
f 647/4/3 642/4/3 641/4/3
f 648/4/3 642/4/3 647/4/3
f 649/4/3 644/4/3 643/4/3
f 650/4/3 644/4/3 649/4/3
f 651/4/3 646/4/3 645/4/3
f 652/4/3 646/4/3 651/4/3
f 656/4/3 654/4/3 653/4/3
f 657/4/3 654/4/3 656/4/3
f 660/4/3 656/4/3 655/4/3
f 661/4/3 656/4/3 660/4/3
f 662/4/3 659/4/3 658/4/3
f 663/4/3 659/4/3 662/4/3
f 666/3/3 665/3/3 664/3/3
f 667/3/3 665/3/3 666/3/3
f 671/4/3 668/4/3 667/4/3
f 672/4/3 668/4/3 671/4/3
f 676/4/3 673/4/3 672/4/3
f 677/4/3 673/4/3 676/4/3
f 680/3/3 670/3/3 669/3/3
f 681/3/3 670/3/3 680/3/3
f 682/4/3 678/4/3 677/4/3
f 684/3/3 675/3/3 674/3/3
f 685/3/3 675/3/3 684/3/3
f 686/3/3 680/3/3 679/3/3
f 687/3/3 680/3/3 686/3/3
f 688/4/3 682/4/3 677/4/3
f 689/3/3 683/3/3 682/3/3
f 689/4/3 682/4/3 688/4/3
f 690/3/3 686/3/3 685/3/3
f 691/3/3 686/3/3 690/3/3
f 692/3/3 683/3/3 689/3/3
f 693/3/3 683/3/3 692/3/3
f 695/3/3 690/3/3 685/3/3
f 696/3/3 690/3/3 695/3/3
f 702/4/3 693/4/3 692/4/3
f 703/5/3 694/5/3 693/5/3
f 703/4/3 693/4/3 702/4/3
f 704/3/3 695/3/3 694/3/3
f 704/5/3 694/5/3 703/5/3
f 705/3/3 695/3/3 704/3/3
f 707/2/3 698/2/3 697/2/3
f 707/1/3 699/1/3 698/1/3
f 708/1/3 699/1/3 707/1/3
f 709/1/3 699/1/3 708/1/3
f 710/2/3 700/2/3 699/2/3
f 710/1/3 699/1/3 709/1/3
f 711/2/3 700/2/3 710/2/3
f 715/4/3 702/4/3 701/4/3
f 716/4/3 702/4/3 715/4/3
f 717/3/3 704/3/3 703/3/3
f 718/4/3 705/4/3 704/4/3
f 718/3/3 704/3/3 717/3/3
f 719/3/3 706/3/3 705/3/3
f 719/4/3 705/4/3 718/4/3
f 720/3/3 706/3/3 719/3/3
f 721/3/3 706/3/3 720/3/3
f 723/2/3 707/2/3 697/2/3
f 723/2/3 708/2/3 707/2/3
f 724/1/3 709/1/3 708/1/3
f 724/2/3 708/2/3 723/2/3
f 725/2/3 710/2/3 709/2/3
f 725/1/3 709/1/3 724/1/3
f 725/2/3 711/2/3 710/2/3
f 726/2/3 711/2/3 725/2/3
f 727/1/3 712/1/3 711/1/3
f 728/2/3 713/2/3 712/2/3
f 728/1/3 712/1/3 727/1/3
f 729/2/3 713/2/3 728/2/3
f 730/1/3 714/1/3 713/1/3
f 730/2/3 713/2/3 729/2/3
f 731/1/3 714/1/3 730/1/3
f 732/4/3 715/4/3 714/4/3
f 732/1/3 714/1/3 731/1/3
f 733/2/3 716/2/3 715/2/3
f 733/4/3 715/4/3 732/4/3
f 734/2/3 716/2/3 733/2/3
f 736/3/3 721/3/3 720/3/3
f 736/3/3 722/3/3 721/3/3
f 737/3/3 722/3/3 736/3/3
f 738/2/3 711/2/3 726/2/3
f 739/1/3 727/1/3 711/1/3
f 739/2/3 711/2/3 738/2/3
f 740/2/3 729/2/3 728/2/3
f 740/1/3 727/1/3 739/1/3
f 740/2/3 728/2/3 727/2/3
f 741/1/3 731/1/3 730/1/3
f 741/2/3 729/2/3 740/2/3
f 741/1/3 730/1/3 729/1/3
f 742/2/3 732/2/3 731/2/3
f 742/1/3 731/1/3 741/1/3
f 743/2/3 732/2/3 742/2/3
f 744/4/3 735/4/3 734/4/3
f 747/4/3 735/4/3 744/4/3
f 748/4/3 735/4/3 747/4/3
f 749/4/3 746/4/3 745/4/3
f 750/4/3 746/4/3 749/4/3
f 752/4/3 749/4/3 748/4/3
f 752/3/3 750/3/3 749/3/3
f 753/5/3 751/5/3 750/5/3
f 753/3/3 750/3/3 752/3/3
f 754/5/3 751/5/3 753/5/3
f 755/4/3 754/4/3 753/4/3
f 758/4/3 752/4/3 748/4/3
f 759/4/3 752/4/3 758/4/3
f 760/4/3 755/4/3 753/4/3
f 761/3/3 756/3/3 755/3/3
f 761/4/3 755/4/3 760/4/3
f 763/4/3 758/4/3 757/4/3
f 764/4/3 758/4/3 763/4/3
f 765/3/3 756/3/3 761/3/3
f 766/3/3 756/3/3 765/3/3
f 768/4/3 763/4/3 762/4/3
f 769/4/3 763/4/3 768/4/3
f 771/3/3 769/3/3 768/3/3
f 772/3/3 769/3/3 771/3/3
f 773/4/3 771/4/3 770/4/3
f 774/4/3 771/4/3 773/4/3
f 775/3/3 767/3/3 766/3/3
f 776/3/3 767/3/3 775/3/3
f 778/3/3 777/3/3 776/3/3
f 779/3/3 777/3/3 778/3/3
f 782/4/3 781/4/3 780/4/3
f 783/4/3 781/4/3 782/4/3
f 788/4/3 785/4/3 784/4/3
f 789/4/3 785/4/3 788/4/3
f 790/4/3 787/4/3 786/4/3
f 791/4/3 787/4/3 790/4/3
f 796/4/3 793/4/3 792/4/3
f 797/4/3 793/4/3 796/4/3
f 798/3/3 795/3/3 794/3/3
f 799/3/3 795/3/3 798/3/3
f 804/4/3 801/4/3 800/4/3
f 805/4/3 801/4/3 804/4/3
f 806/3/3 803/3/3 802/3/3
f 807/3/3 803/3/3 806/3/3
f 812/4/3 811/4/3 810/4/3
f 813/4/3 811/4/3 812/4/3
f 814/4/3 809/4/3 808/4/3
f 815/4/3 809/4/3 814/4/3
f 816/3/3 813/3/3 812/3/3
f 819/3/3 816/3/3 812/3/3
f 820/3/3 816/3/3 819/3/3
f 821/3/3 818/3/3 817/3/3
f 822/3/3 818/3/3 821/3/3
f 827/4/3 824/4/3 823/4/3
f 828/4/3 824/4/3 827/4/3
f 829/3/3 826/3/3 825/3/3
f 833/3/3 826/3/3 829/3/3
f 834/3/3 826/3/3 833/3/3
f 835/4/3 831/4/3 830/4/3
f 836/4/3 831/4/3 835/4/3
f 837/3/3 833/3/3 832/3/3
f 838/3/3 833/3/3 837/3/3
f 841/4/3 840/4/3 839/4/3
f 842/4/3 840/4/3 841/4/3
f 847/4/3 844/4/3 843/4/3
f 848/4/3 844/4/3 847/4/3
f 849/3/3 846/3/3 845/3/3
f 850/3/3 846/3/3 849/3/3
f 857/4/3 852/4/3 851/4/3
f 858/4/3 852/4/3 857/4/3
f 859/4/3 854/4/3 853/4/3
f 860/4/3 854/4/3 859/4/3
f 861/3/3 856/3/3 855/3/3
f 862/3/3 856/3/3 861/3/3
f 865/4/3 864/4/3 863/4/3
f 866/4/3 864/4/3 865/4/3
f 867/4/4 868/4/4 871/4/4
f 871/4/4 868/4/4 872/4/4
f 869/4/4 870/4/4 873/4/4
f 873/4/4 870/4/4 874/4/4
f 875/4/4 876/4/4 879/4/4
f 879/4/4 876/4/4 880/4/4
f 877/4/4 878/4/4 881/4/4
f 881/4/4 878/4/4 882/4/4
f 883/4/4 884/4/4 885/4/4
f 885/4/4 884/4/4 886/4/4
f 887/4/4 888/4/4 889/4/4
f 889/4/4 888/4/4 890/4/4
f 891/4/4 892/4/4 897/4/4
f 897/4/4 892/4/4 898/4/4
f 893/4/4 894/4/4 901/4/4
f 901/4/4 894/4/4 902/4/4
f 895/4/4 896/4/4 903/4/4
f 903/4/4 896/4/4 904/4/4
f 899/4/4 900/4/4 909/4/4
f 909/4/4 900/4/4 910/4/4
f 904/4/4 905/4/4 912/4/4
f 907/4/4 908/4/4 913/4/4
f 906/4/4 907/4/4 913/4/4
f 913/4/4 908/4/4 914/4/4
f 910/4/4 911/4/4 915/4/4
f 915/4/4 911/4/4 916/4/4
f 912/4/4 905/4/4 917/4/4
f 917/4/4 905/4/4 918/4/4
f 919/4/4 920/4/4 925/4/4
f 925/4/4 920/4/4 926/4/4
f 921/3/4 922/3/4 927/3/4
f 927/3/4 922/3/4 928/3/4
f 923/4/4 924/4/4 929/4/4
f 929/4/4 924/4/4 930/4/4
f 931/4/4 932/4/4 937/4/4
f 937/4/4 932/4/4 938/4/4
f 933/4/4 934/4/4 939/4/4
f 939/4/4 934/4/4 940/4/4
f 935/4/4 936/4/4 941/4/4
f 941/4/4 936/4/4 942/4/4
f 943/4/4 944/4/4 945/4/4
f 945/4/4 944/4/4 946/4/4
f 947/3/4 948/3/4 949/3/4
f 949/3/4 948/3/4 950/3/4
f 950/4/4 951/4/4 954/4/4
f 954/4/4 951/4/4 955/4/4
f 955/4/4 956/4/4 959/4/4
f 959/4/4 956/4/4 960/4/4
f 952/3/4 953/3/4 963/3/4
f 963/3/4 953/3/4 964/3/4
f 960/4/4 961/4/4 965/4/4
f 957/3/4 958/3/4 967/3/4
f 967/3/4 958/3/4 968/3/4
f 962/3/4 963/3/4 969/3/4
f 969/3/4 963/3/4 970/3/4
f 960/4/4 965/4/4 971/4/4
f 965/3/4 966/3/4 972/3/4
f 971/4/4 965/4/4 972/4/4
f 968/3/4 969/3/4 973/3/4
f 973/3/4 969/3/4 974/3/4
f 972/3/4 966/3/4 975/3/4
f 975/3/4 966/3/4 976/3/4
f 968/3/4 973/3/4 978/3/4
f 978/3/4 973/3/4 979/3/4
f 975/4/4 976/4/4 985/4/4
f 976/5/4 977/5/4 986/5/4
f 985/4/4 976/4/4 986/4/4
f 977/3/4 978/3/4 987/3/4
f 986/5/4 977/5/4 987/5/4
f 987/3/4 978/3/4 988/3/4
f 981/1/4 982/1/4 990/1/4
f 980/2/4 981/2/4 990/2/4
f 990/1/4 982/1/4 991/1/4
f 991/1/4 982/1/4 992/1/4
f 982/2/4 983/2/4 993/2/4
f 992/1/4 982/1/4 993/1/4
f 993/2/4 983/2/4 994/2/4
f 984/4/4 985/4/4 998/4/4
f 998/4/4 985/4/4 999/4/4
f 987/4/4 988/4/4 1000/4/4
f 988/3/4 989/3/4 1001/3/4
f 1000/4/4 988/4/4 1001/4/4
f 1001/3/4 989/3/4 1002/3/4
f 1002/3/4 989/3/4 1003/3/4
f 980/2/4 990/2/4 1005/2/4
f 990/2/4 991/2/4 1005/2/4
f 991/1/4 992/1/4 1006/1/4
f 1005/2/4 991/2/4 1006/2/4
f 992/2/4 993/2/4 1007/2/4
f 1006/1/4 992/1/4 1007/1/4
f 993/2/4 994/2/4 1007/2/4
f 1007/2/4 994/2/4 1008/2/4
f 994/1/4 995/1/4 1009/1/4
f 995/2/4 996/2/4 1010/2/4
f 1009/1/4 995/1/4 1010/1/4
f 1010/2/4 996/2/4 1011/2/4
f 996/1/4 997/1/4 1012/1/4
f 1011/2/4 996/2/4 1012/2/4
f 1012/1/4 997/1/4 1013/1/4
f 997/4/4 998/4/4 1014/4/4
f 1013/1/4 997/1/4 1014/1/4
f 998/2/4 999/2/4 1015/2/4
f 1014/4/4 998/4/4 1015/4/4
f 1015/2/4 999/2/4 1016/2/4
f 1002/3/4 1003/3/4 1020/3/4
f 1003/3/4 1004/3/4 1020/3/4
f 1020/3/4 1004/3/4 1021/3/4
f 1008/2/4 994/2/4 1022/2/4
f 994/1/4 1009/1/4 1023/1/4
f 1022/2/4 994/2/4 1023/2/4
f 1010/2/4 1011/2/4 1024/2/4
f 1023/1/4 1009/1/4 1024/1/4
f 1009/2/4 1010/2/4 1024/2/4
f 1012/1/4 1013/1/4 1025/1/4
f 1024/2/4 1011/2/4 1025/2/4
f 1011/1/4 1012/1/4 1025/1/4
f 1013/2/4 1014/2/4 1026/2/4
f 1025/1/4 1013/1/4 1026/1/4
f 1026/2/4 1014/2/4 1027/2/4
f 1016/4/4 1017/4/4 1028/4/4
f 1015/4/4 1016/4/4 1028/4/4
f 1028/4/4 1017/4/4 1029/4/4
f 1029/4/4 1017/4/4 1030/4/4
f 1030/4/4 1017/4/4 1031/4/4
f 1018/4/4 1019/4/4 1032/4/4
f 1032/4/4 1019/4/4 1033/4/4
f 1031/4/4 1032/4/4 1035/4/4
f 1032/3/4 1033/3/4 1035/3/4
f 1033/5/4 1034/5/4 1036/5/4
f 1035/3/4 1033/3/4 1036/3/4
f 1036/5/4 1034/5/4 1037/5/4
f 1036/4/4 1037/4/4 1038/4/4
f 1031/4/4 1035/4/4 1041/4/4
f 1041/4/4 1035/4/4 1042/4/4
f 1036/4/4 1038/4/4 1043/4/4
f 1038/3/4 1039/3/4 1044/3/4
f 1043/4/4 1038/4/4 1044/4/4
f 1040/4/4 1041/4/4 1046/4/4
f 1046/4/4 1041/4/4 1047/4/4
f 1044/3/4 1039/3/4 1048/3/4
f 1048/3/4 1039/3/4 1049/3/4
f 1045/4/4 1046/4/4 1051/4/4
f 1051/4/4 1046/4/4 1052/4/4
f 1051/3/4 1052/3/4 1054/3/4
f 1054/3/4 1052/3/4 1055/3/4
f 1053/4/4 1054/4/4 1056/4/4
f 1056/4/4 1054/4/4 1057/4/4
f 1049/3/4 1050/3/4 1058/3/4
f 1058/3/4 1050/3/4 1059/3/4
f 1059/3/4 1060/3/4 1061/3/4
f 1061/3/4 1060/3/4 1062/3/4
f 1063/4/4 1064/4/4 1065/4/4
f 1065/4/4 1064/4/4 1066/4/4
f 1067/4/4 1068/4/4 1070/4/4
f 1070/4/4 1068/4/4 1071/4/4
f 1069/4/4 1070/4/4 1073/4/4
f 1073/4/4 1070/4/4 1074/4/4
f 1071/4/4 1072/4/4 1075/4/4
f 1075/4/4 1072/4/4 1076/4/4
f 1077/3/4 1078/3/4 1079/3/4
f 1079/3/4 1078/3/4 1080/3/4
f 1081/4/4 1082/4/4 1085/4/4
f 1085/4/4 1082/4/4 1086/4/4
f 1083/3/4 1084/3/4 1087/3/4
f 1087/3/4 1084/3/4 1088/3/4
f 1091/4/4 1092/4/4 1093/4/4
f 1093/4/4 1092/4/4 1094/4/4
f 1089/4/4 1090/4/4 1096/4/4
f 1096/4/4 1090/4/4 1097/4/4
f 1093/3/4 1094/3/4 1098/3/4
f 1098/3/4 1094/3/4 1099/3/4
f 1095/4/4 1096/4/4 1100/4/4
f 1100/4/4 1096/4/4 1101/4/4
f 1102/4/4 1103/4/4 1104/4/4
f 1104/4/4 1103/4/4 1105/4/4
f 1106/4/4 1107/4/4 1110/4/4
f 1110/4/4 1107/4/4 1111/4/4
f 1108/3/4 1109/3/4 1112/3/4
f 1112/3/4 1109/3/4 1113/3/4
f 1114/4/4 1115/4/4 1118/4/4
f 1118/4/4 1115/4/4 1119/4/4
f 1116/3/4 1117/3/4 1120/3/4
f 1120/3/4 1117/3/4 1121/3/4
f 1122/3/4 1123/3/4 1124/3/4
f 1124/3/4 1123/3/4 1125/3/4
f 1126/3/4 1127/3/4 1130/3/4
f 1130/3/4 1127/3/4 1131/3/4
f 1128/3/4 1129/3/4 1132/3/4
f 1132/3/4 1129/3/4 1133/3/4
f 1134/3/4 1135/3/4 1136/3/4
f 1136/3/4 1135/3/4 1137/3/4
f 1138/4/4 1139/4/4 1142/4/4
f 1142/4/4 1139/4/4 1143/4/4
f 1140/4/4 1141/4/4 1144/4/4
f 1144/4/4 1141/4/4 1145/4/4
f 1146/4/4 1147/4/4 1148/4/4
f 1148/4/4 1147/4/4 1149/4/4
f 1150/3/4 1151/3/4 1152/3/4
f 1152/3/4 1151/3/4 1153/3/4
f 1156/2/5 1155/2/5 1154/2/5
f 1157/2/5 1155/2/5 1156/2/5
f 1160/2/5 1159/2/5 1158/2/5
f 1161/2/5 1159/2/5 1160/2/5
f 1164/4/5 1163/4/5 1162/4/5
f 1165/4/5 1163/4/5 1164/4/5
f 1168/4/5 1167/4/5 1166/4/5
f 1169/4/5 1167/4/5 1168/4/5
f 1172/4/5 1171/4/5 1170/4/5
f 1173/4/5 1171/4/5 1172/4/5
f 1176/4/5 1175/4/5 1174/4/5
f 1177/4/5 1175/4/5 1176/4/5
f 1179/4/5 1178/4/5 1177/4/5
f 1180/4/5 1178/4/5 1179/4/5
f 1183/3/5 1182/3/5 1181/3/5
f 1184/3/5 1182/3/5 1183/3/5
f 1187/4/5 1186/4/5 1185/4/5
f 1188/4/5 1186/4/5 1187/4/5
f 1191/4/5 1190/4/5 1189/4/5
f 1192/4/5 1190/4/5 1191/4/5
f 1195/4/5 1194/4/5 1193/4/5
f 1196/4/5 1194/4/5 1195/4/5
f 1199/4/5 1198/4/5 1197/4/5
f 1200/4/5 1198/4/5 1199/4/5
f 1203/4/5 1202/4/5 1201/4/5
f 1204/4/5 1202/4/5 1203/4/5
f 1207/4/5 1206/4/5 1205/4/5
f 1208/4/5 1206/4/5 1207/4/5
f 1212/4/5 1209/4/5 1208/4/5
f 1213/4/5 1209/4/5 1212/4/5
f 1214/4/5 1211/4/5 1210/4/5
f 1215/4/5 1211/4/5 1214/4/5
f 1220/4/5 1217/4/5 1216/4/5
f 1221/4/5 1217/4/5 1220/4/5
f 1222/4/5 1219/4/5 1218/4/5
f 1223/4/5 1219/4/5 1222/4/5
f 1226/4/5 1225/4/5 1224/4/5
f 1227/4/5 1225/4/5 1226/4/5
f 1230/4/5 1229/4/5 1228/4/5
f 1234/4/5 1230/4/5 1228/4/5
f 1234/4/5 1231/4/5 1230/4/5
f 1235/4/5 1231/4/5 1234/4/5
f 1236/4/5 1234/4/5 1228/4/5
f 1237/4/5 1234/4/5 1236/4/5
f 1238/4/5 1233/4/5 1232/4/5
f 1239/4/5 1233/4/5 1238/4/5
f 1245/4/5 1240/4/5 1239/4/5
f 1249/4/5 1242/4/5 1241/4/5
f 1250/4/5 1242/4/5 1249/4/5
f 1251/4/5 1244/4/5 1243/4/5
f 1252/4/5 1244/4/5 1251/4/5
f 1253/4/5 1240/4/5 1245/4/5
f 1254/4/5 1240/4/5 1253/4/5
f 1255/4/5 1247/4/5 1246/4/5
f 1256/3/5 1248/3/5 1247/3/5
f 1256/4/5 1247/4/5 1255/4/5
f 1257/3/5 1248/3/5 1256/3/5
f 1260/4/5 1259/4/5 1258/4/5
f 1261/4/5 1259/4/5 1260/4/5
f 1264/4/5 1263/4/5 1262/4/5
f 1265/4/5 1263/4/5 1264/4/5
f 1268/4/5 1267/4/5 1266/4/5
f 1269/4/5 1267/4/5 1268/4/5
f 1272/4/5 1271/4/5 1270/4/5
f 1273/4/5 1271/4/5 1272/4/5
f 1279/4/5 1275/4/5 1274/4/5
f 1280/4/5 1275/4/5 1279/4/5
f 1285/3/5 1277/3/5 1276/3/5
f 1286/4/5 1278/4/5 1277/4/5
f 1286/3/5 1277/3/5 1285/3/5
f 1287/4/5 1278/4/5 1286/4/5
f 1290/4/5 1282/4/5 1281/4/5
f 1291/4/5 1282/4/5 1290/4/5
f 1292/4/5 1284/4/5 1283/4/5
f 1293/4/5 1284/4/5 1292/4/5
f 1294/4/5 1289/4/5 1288/4/5
f 1294/4/5 1288/4/5 1287/4/5
f 1295/4/5 1289/4/5 1294/4/5
f 1296/4/5 1294/4/5 1287/4/5
f 1297/4/5 1294/4/5 1296/4/5
f 1300/4/5 1299/4/5 1298/4/5
f 1301/4/5 1299/4/5 1300/4/5
f 1306/4/5 1303/4/5 1302/4/5
f 1307/4/5 1303/4/5 1306/4/5
f 1309/4/5 1308/4/5 1307/4/5
f 1310/4/5 1308/4/5 1309/4/5
f 1311/4/5 1305/4/5 1304/4/5
f 1312/4/5 1305/4/5 1311/4/5
f 1317/3/5 1314/3/5 1313/3/5
f 1318/3/5 1314/3/5 1317/3/5
f 1319/4/5 1316/4/5 1315/4/5
f 1320/4/5 1316/4/5 1319/4/5
f 1323/3/5 1322/3/5 1321/3/5
f 1324/3/5 1322/3/5 1323/3/5
f 1327/4/5 1326/4/5 1325/4/5
f 1328/4/5 1326/4/5 1327/4/5
f 1330/3/5 1329/3/5 1328/3/5
f 1331/3/5 1329/3/5 1330/3/5
f 1336/4/5 1333/4/5 1332/4/5
f 1337/4/5 1333/4/5 1336/4/5
f 1339/3/5 1335/3/5 1334/3/5
f 1340/3/5 1335/3/5 1339/3/5
f 1341/4/5 1338/4/5 1337/4/5
f 1341/4/5 1337/4/5 1336/4/5
f 1342/4/5 1338/4/5 1341/4/5
f 1345/4/5 1344/4/5 1343/4/5
f 1346/4/5 1344/4/5 1345/4/5
f 1350/4/5 1348/4/5 1347/4/5
f 1351/3/5 1349/3/5 1348/3/5
f 1351/4/5 1348/4/5 1350/4/5
f 1352/3/5 1349/3/5 1351/3/5
f 1353/3/5 1349/3/5 1352/3/5
f 1354/3/5 1349/3/5 1353/3/5
f 1357/4/5 1356/4/5 1355/4/5
f 1358/4/5 1356/4/5 1357/4/5
f 1363/3/5 1360/3/5 1359/3/5
f 1364/3/5 1360/3/5 1363/3/5
f 1365/4/5 1362/4/5 1361/4/5
f 1366/4/5 1362/4/5 1365/4/5
f 1371/3/5 1368/3/5 1367/3/5
f 1372/3/5 1368/3/5 1371/3/5
f 1373/3/5 1370/3/5 1369/3/5
f 1374/3/5 1370/3/5 1373/3/5
f 1376/3/5 1375/3/5 1374/3/5
f 1377/3/5 1375/3/5 1376/3/5
f 1380/4/5 1379/4/5 1378/4/5
f 1381/4/5 1379/4/5 1380/4/5
f 1385/4/5 1383/4/5 1382/4/5
f 1386/4/5 1383/4/5 1385/4/5
f 1388/4/5 1385/4/5 1384/4/5
f 1389/4/5 1385/4/5 1388/4/5
f 1390/4/5 1387/4/5 1386/4/5
f 1391/4/5 1387/4/5 1390/4/5
f 1394/3/5 1393/3/5 1392/3/5
f 1395/3/5 1393/3/5 1394/3/5
f 1401/3/5 1399/3/5 1398/3/5
f 1401/3/5 1400/3/5 1399/3/5
f 1402/3/5 1401/3/5 1398/3/5
f 1403/3/5 1401/3/5 1402/3/5
f 1404/3/5 1397/3/5 1396/3/5
f 1405/3/5 1397/3/5 1404/3/5
f 1406/3/5 1401/3/5 1403/3/5
f 1407/3/5 1401/3/5 1406/3/5
f 1410/3/5 1409/3/5 1408/3/5
f 1412/3/5 1410/3/5 1408/3/5
f 1413/4/5 1411/4/5 1410/4/5
f 1413/3/5 1410/3/5 1412/3/5
f 1414/4/5 1413/4/5 1412/4/5
f 1415/4/5 1411/4/5 1413/4/5
f 1415/4/5 1413/4/5 1414/4/5
f 1416/4/5 1411/4/5 1415/4/5
f 1421/3/5 1418/3/5 1417/3/5
f 1422/3/5 1418/3/5 1421/3/5
f 1423/3/5 1420/3/5 1419/3/5
f 1424/3/5 1420/3/5 1423/3/5
f 1427/3/5 1426/3/5 1425/3/5
f 1428/3/5 1426/3/5 1427/3/5
f 1435/3/5 1430/3/5 1429/3/5
f 1436/3/5 1430/3/5 1435/3/5
f 1437/3/5 1432/3/5 1431/3/5
f 1438/3/5 1432/3/5 1437/3/5
f 1439/3/5 1434/3/5 1433/3/5
f 1440/3/5 1434/3/5 1439/3/5
f 1441/2/6 1442/2/6 1443/2/6
f 1443/2/6 1442/2/6 1444/2/6
f 1445/4/6 1446/4/6 1447/4/6
f 1447/4/6 1446/4/6 1448/4/6
f 1449/4/6 1450/4/6 1453/4/6
f 1453/4/6 1450/4/6 1454/4/6
f 1451/4/6 1452/4/6 1455/4/6
f 1455/4/6 1452/4/6 1456/4/6
f 1454/4/6 1455/4/6 1457/4/6
f 1457/4/6 1455/4/6 1458/4/6
f 1459/3/6 1460/3/6 1463/3/6
f 1463/3/6 1460/3/6 1464/3/6
f 1461/2/6 1462/2/6 1465/2/6
f 1465/2/6 1462/2/6 1466/2/6
f 1467/4/6 1468/4/6 1469/4/6
f 1469/4/6 1468/4/6 1470/4/6
f 1471/4/6 1472/4/6 1473/4/6
f 1473/4/6 1472/4/6 1474/4/6
f 1475/4/6 1476/4/6 1477/4/6
f 1477/4/6 1476/4/6 1478/4/6
f 1479/4/6 1480/4/6 1481/4/6
f 1481/4/6 1480/4/6 1482/4/6
f 1483/4/6 1484/4/6 1485/4/6
f 1485/4/6 1484/4/6 1486/4/6
f 1487/4/6 1488/4/6 1489/4/6
f 1489/4/6 1488/4/6 1490/4/6
f 1491/4/6 1492/4/6 1495/4/6
f 1495/4/6 1492/4/6 1496/4/6
f 1493/4/6 1494/4/6 1497/4/6
f 1497/4/6 1494/4/6 1498/4/6
f 1499/4/6 1500/4/6 1503/4/6
f 1501/4/6 1502/4/6 1504/4/6
f 1504/4/6 1502/4/6 1505/4/6
f 1503/4/6 1500/4/6 1507/4/6
f 1507/4/6 1500/4/6 1508/4/6
f 1505/4/6 1506/4/6 1509/4/6
f 1509/4/6 1506/4/6 1510/4/6
f 1511/4/6 1512/4/6 1513/4/6
f 1511/4/6 1513/4/6 1517/4/6
f 1513/4/6 1514/4/6 1517/4/6
f 1517/4/6 1514/4/6 1518/4/6
f 1511/4/6 1517/4/6 1519/4/6
f 1519/4/6 1517/4/6 1520/4/6
f 1515/4/6 1516/4/6 1521/4/6
f 1521/4/6 1516/4/6 1522/4/6
f 1522/4/6 1523/4/6 1528/4/6
f 1528/4/6 1523/4/6 1529/4/6
f 1524/4/6 1525/4/6 1533/4/6
f 1533/4/6 1525/4/6 1534/4/6
f 1526/4/6 1527/4/6 1535/4/6
f 1535/4/6 1527/4/6 1536/4/6
f 1530/4/6 1531/4/6 1537/4/6
f 1531/3/6 1532/3/6 1538/3/6
f 1537/4/6 1531/4/6 1538/4/6
f 1538/3/6 1532/3/6 1539/3/6
f 1540/4/6 1541/4/6 1542/4/6
f 1542/4/6 1541/4/6 1543/4/6
f 1544/4/6 1545/4/6 1546/4/6
f 1546/4/6 1545/4/6 1547/4/6
f 1548/4/6 1549/4/6 1550/4/6
f 1550/4/6 1549/4/6 1551/4/6
f 1552/4/6 1553/4/6 1554/4/6
f 1554/4/6 1553/4/6 1555/4/6
f 1556/3/6 1557/3/6 1562/3/6
f 1562/3/6 1557/3/6 1563/3/6
f 1558/4/6 1559/4/6 1564/4/6
f 1564/4/6 1559/4/6 1565/4/6
f 1560/4/6 1561/4/6 1566/4/6
f 1566/4/6 1561/4/6 1567/4/6
f 1568/4/6 1569/4/6 1570/4/6
f 1570/4/6 1569/4/6 1571/4/6
f 1572/4/6 1573/4/6 1576/4/6
f 1576/4/6 1573/4/6 1577/4/6
f 1574/4/6 1575/4/6 1579/4/6
f 1577/4/6 1578/4/6 1580/4/6
f 1580/4/6 1578/4/6 1581/4/6
f 1574/4/6 1579/4/6 1582/4/6
f 1582/4/6 1579/4/6 1583/4/6
f 1582/3/6 1583/3/6 1584/3/6
f 1584/3/6 1583/3/6 1585/3/6
f 1584/4/6 1585/4/6 1589/4/6
f 1589/4/6 1585/4/6 1590/4/6
f 1586/4/6 1587/4/6 1591/4/6
f 1591/4/6 1587/4/6 1592/4/6
f 1589/4/6 1590/4/6 1593/4/6
f 1588/4/6 1589/4/6 1593/4/6
f 1593/4/6 1590/4/6 1594/4/6
f 1588/4/6 1593/4/6 1595/4/6
f 1595/4/6 1593/4/6 1596/4/6
f 1597/3/6 1598/3/6 1599/3/6
f 1599/3/6 1598/3/6 1600/3/6
f 1601/4/6 1602/4/6 1603/4/6
f 1603/4/6 1602/4/6 1604/4/6
f 1604/3/6 1605/3/6 1606/3/6
f 1606/3/6 1605/3/6 1607/3/6
f 1608/4/6 1609/4/6 1614/4/6
f 1610/3/6 1611/3/6 1616/3/6
f 1616/3/6 1611/3/6 1617/3/6
f 1612/3/6 1613/3/6 1618/3/6
f 1618/3/6 1613/3/6 1619/3/6
f 1614/4/6 1615/4/6 1620/4/6
f 1608/4/6 1614/4/6 1620/4/6
f 1620/4/6 1615/4/6 1621/4/6
f 1622/4/6 1623/4/6 1624/4/6
f 1624/4/6 1623/4/6 1625/4/6
f 1626/4/6 1627/4/6 1630/4/6
f 1628/3/6 1629/3/6 1631/3/6
f 1630/4/6 1627/4/6 1631/4/6
f 1627/3/6 1628/3/6 1631/3/6
f 1631/3/6 1629/3/6 1632/3/6
f 1632/3/6 1629/3/6 1633/3/6
f 1633/3/6 1629/3/6 1634/3/6
f 1635/4/6 1636/4/6 1637/4/6
f 1637/4/6 1636/4/6 1638/4/6
f 1639/3/6 1640/3/6 1644/3/6
f 1644/3/6 1640/3/6 1645/3/6
f 1641/5/6 1642/5/6 1646/5/6
f 1642/4/6 1643/4/6 1647/4/6
f 1646/5/6 1642/5/6 1647/5/6
f 1647/4/6 1643/4/6 1648/4/6
f 1649/3/6 1650/3/6 1653/3/6
f 1653/3/6 1650/3/6 1654/3/6
f 1651/3/6 1652/3/6 1655/3/6
f 1655/3/6 1652/3/6 1656/3/6
f 1656/3/6 1657/3/6 1658/3/6
f 1658/3/6 1657/3/6 1659/3/6
f 1660/4/6 1661/4/6 1662/4/6
f 1662/4/6 1661/4/6 1663/4/6
f 1664/4/6 1665/4/6 1667/4/6
f 1667/4/6 1665/4/6 1668/4/6
f 1666/4/6 1667/4/6 1670/4/6
f 1670/4/6 1667/4/6 1671/4/6
f 1668/4/6 1669/4/6 1672/4/6
f 1672/4/6 1669/4/6 1673/4/6
f 1674/3/6 1675/3/6 1678/3/6
f 1678/3/6 1675/3/6 1679/3/6
f 1676/3/6 1677/3/6 1680/3/6
f 1680/3/6 1677/3/6 1681/3/6
f 1684/3/6 1685/3/6 1686/3/6
f 1686/3/6 1685/3/6 1687/3/6
f 1682/3/6 1683/3/6 1688/3/6
f 1688/3/6 1683/3/6 1689/3/6
f 1687/3/6 1685/3/6 1690/3/6
f 1690/3/6 1685/3/6 1691/3/6
f 1692/3/6 1693/3/6 1694/3/6
f 1692/3/6 1694/3/6 1696/3/6
f 1694/4/6 1695/4/6 1697/4/6
f 1696/3/6 1694/3/6 1697/3/6
f 1696/4/6 1697/4/6 1698/4/6
f 1697/4/6 1695/4/6 1699/4/6
f 1698/4/6 1697/4/6 1699/4/6
f 1700/3/6 1701/3/6 1704/3/6
f 1704/3/6 1701/3/6 1705/3/6
f 1702/3/6 1703/3/6 1706/3/6
f 1706/3/6 1703/3/6 1707/3/6
f 1708/3/6 1709/3/6 1710/3/6
f 1710/3/6 1709/3/6 1711/3/6
f 1712/3/6 1713/3/6 1718/3/6
f 1718/3/6 1713/3/6 1719/3/6
f 1714/3/6 1715/3/6 1720/3/6
f 1720/3/6 1715/3/6 1721/3/6
f 1716/3/6 1717/3/6 1722/3/6
f 1722/3/6 1717/3/6 1723/3/6
f 1724/3/6 1725/3/6 1726/3/6
f 1726/3/6 1725/3/6 1727/3/6
