# MagicaVoxel @ Ephtracy

# group
o 

# material
mtllib Playa-Alterna-4.mtl
usemtl palette

# normals
vn -1 0 0
vn 1 0 0
vn 0 0 1
vn 0 0 -1
vn 0 -1 0
vn 0 1 0

# texcoords
vt 0.0566406 0.5
vt 0.0605469 0.5
vt 0.130859 0.5
vt 0.134766 0.5
vt 0.138672 0.5

# verts
v -5.1 5.7 -5.7
v -5.1 5.7 -5.8
v -5.1 5.8 -5.7
v -5.1 5.8 -5.8
v -5 5.8 -5.7
v -5 5.8 -5.8
v -5 5.9 -5.7
v -5 5.9 -5.8
v -5 6.7 -5.7
v -5 6.7 -5.8
v -5 6.8 -5.7
v -5 6.8 -5.8
v -4.9 5.9 -5.7
v -4.9 5.9 -5.8
v -4.9 6 -5.7
v -4.9 6 -5.8
v -4.9 6.3 -5.7
v -4.9 6.3 -5.8
v -4.9 6.4 -5.7
v -4.9 6.4 -5.8
v -4.8 5.7 -6.2
v -4.8 5.7 -6.3
v -4.8 5.8 -6.2
v -4.8 5.8 -6.3
v -4.8 6 -5.7
v -4.8 6 -5.8
v -4.8 6.1 -5.7
v -4.8 6.1 -5.8
v -4.8 6.5 -6.2
v -4.8 6.5 -6.4
v -4.8 6.6 -5.7
v -4.8 6.6 -5.8
v -4.8 6.6 -6.2
v -4.8 6.6 -6.4
v -4.8 6.7 -5.7
v -4.8 6.7 -5.8
v -4.7 5.8 -6.1
v -4.7 5.8 -6.2
v -4.7 6 -6.1
v -4.7 6 -6.2
v -4.7 6.1 -5.7
v -4.7 6.1 -5.8
v -4.7 6.2 -5.7
v -4.7 6.2 -5.8
v -4.7 6.4 -5.7
v -4.7 6.4 -5.8
v -4.7 6.4 -6.1
v -4.7 6.4 -6.2
v -4.7 6.5 -5.7
v -4.7 6.5 -5.8
v -4.7 6.5 -6.1
v -4.7 6.5 -6.2
v -4.7 6.5 -6.4
v -4.7 6.5 -6.5
v -4.7 6.6 -5.7
v -4.7 6.6 -5.8
v -4.7 6.6 -6.4
v -4.7 6.6 -6.5
v -4.6 5.8 -6.2
v -4.6 5.8 -6.3
v -4.6 6 -6.2
v -4.6 6 -6.3
v -4.6 6.4 -6.2
v -4.6 6.4 -6.3
v -4.6 6.5 -6.2
v -4.6 6.5 -6.3
v -4.5 6 -6.1
v -4.5 6 -6.2
v -4.5 6.1 -6.1
v -4.5 6.1 -6.2
v -4.5 6.2 -5.7
v -4.5 6.2 -5.8
v -4.5 6.3 -5.7
v -4.5 6.3 -5.8
v -4.5 6.3 -6.1
v -4.5 6.3 -6.2
v -4.5 6.4 -5.7
v -4.5 6.4 -5.8
v -4.5 6.4 -6.1
v -4.5 6.4 -6.2
v -4.4 4.4 -5.7
v -4.4 4.4 -5.8
v -4.4 4.5 -5.7
v -4.4 4.5 -5.8
v -4.4 4.9 -5.7
v -4.4 4.9 -5.8
v -4.4 5.1 -5.7
v -4.4 5.1 -5.8
v -4.4 6 -5.7
v -4.4 6 -5.8
v -4.4 6.1 -5.7
v -4.4 6.1 -5.8
v -4.4 6.1 -5.9
v -4.4 6.1 -6
v -4.4 6.2 -5.8
v -4.4 6.2 -5.9
v -4.4 6.3 -5.8
v -4.4 6.3 -6
v -4.4 6.4 -5.7
v -4.4 6.4 -5.8
v -4.4 6.8 -5.7
v -4.4 6.8 -5.8
v -4.3 5.1 -5.7
v -4.3 5.1 -5.8
v -4.3 5.3 -5.7
v -4.3 5.3 -5.8
v -4.3 5.6 -5.7
v -4.3 5.6 -5.8
v -4.3 5.6 -6.4
v -4.3 5.6 -6.5
v -4.3 5.7 -5.1
v -4.3 5.7 -5.2
v -4.3 5.7 -5.7
v -4.3 5.7 -5.8
v -4.3 5.7 -6.3
v -4.3 5.7 -6.4
v -4.3 5.8 -5.1
v -4.3 5.8 -5.2
v -4.3 5.8 -5.3
v -4.3 5.8 -5.7
v -4.3 5.8 -5.8
v -4.3 5.8 -6.2
v -4.3 5.8 -6.3
v -4.3 5.8 -6.5
v -4.3 5.9 -6
v -4.3 5.9 -6.2
v -4.3 5.9 -6.3
v -4.3 6 -5.2
v -4.3 6 -5.3
v -4.3 6 -5.4
v -4.3 6 -5.6
v -4.3 6 -5.7
v -4.3 6 -5.8
v -4.3 6 -5.9
v -4.3 6 -6
v -4.3 6 -6.1
v -4.3 6 -6.2
v -4.3 6 -6.5
v -4.3 6 -6.6
v -4.3 6.1 -5.3
v -4.3 6.1 -5.4
v -4.3 6.1 -5.6
v -4.3 6.1 -5.7
v -4.3 6.1 -5.8
v -4.3 6.1 -5.9
v -4.3 6.1 -6
v -4.3 6.1 -6.4
v -4.3 6.1 -6.5
v -4.3 6.1 -6.6
v -4.3 6.2 -5.4
v -4.3 6.2 -5.5
v -4.3 6.2 -5.6
v -4.3 6.2 -5.7
v -4.3 6.2 -5.8
v -4.3 6.2 -6.3
v -4.3 6.2 -6.4
v -4.3 6.2 -6.5
v -4.3 6.3 -5.3
v -4.3 6.3 -5.4
v -4.3 6.3 -5.5
v -4.3 6.3 -5.7
v -4.3 6.3 -5.9
v -4.3 6.3 -6
v -4.3 6.3 -6.2
v -4.3 6.3 -6.3
v -4.3 6.3 -6.4
v -4.3 6.4 -5.2
v -4.3 6.4 -5.3
v -4.3 6.4 -5.4
v -4.3 6.4 -5.9
v -4.3 6.4 -6
v -4.3 6.4 -6.1
v -4.3 6.4 -6.2
v -4.3 6.4 -6.3
v -4.3 6.5 -4.9
v -4.3 6.5 -5.2
v -4.3 6.5 -5.3
v -4.3 6.5 -6
v -4.3 6.5 -6.1
v -4.3 6.5 -6.4
v -4.3 6.6 -4.9
v -4.3 6.6 -5.2
v -4.3 6.6 -6.1
v -4.3 6.6 -6.4
v -4.3 6.6 -6.7
v -4.3 6.7 -6.4
v -4.3 6.7 -6.7
v -4.3 6.8 -5.7
v -4.3 6.8 -5.8
v -4.3 6.9 -5.7
v -4.3 6.9 -5.8
v -4.2 5.8 -5.4
v -4.2 5.8 -5.5
v -4.2 5.9 -5.4
v -4.2 5.9 -5.5
v -4.2 6 -5.6
v -4.2 6 -5.7
v -4.2 6.1 -5.6
v -4.2 6.1 -5.7
v -4.2 6.3 -5.4
v -4.2 6.3 -5.5
v -4.2 6.3 -5.6
v -4.2 6.3 -5.8
v -4.2 6.4 -5.4
v -4.2 6.4 -5.5
v -4.2 6.4 -5.6
v -4.2 6.4 -5.8
v -4.2 6.5 -5.4
v -4.2 6.5 -5.5
v -4.2 6.6 -5.4
v -4.2 6.6 -5.5
v -4 5.7 -5.3
v -4 5.7 -5.4
v -4 5.8 -5.3
v -4 5.8 -5.4
v -4 6.2 -5.3
v -4 6.2 -5.4
v -4 6.2 -5.7
v -4 6.2 -5.8
v -4 6.3 -5.3
v -4 6.3 -5.4
v -4 6.3 -5.7
v -4 6.3 -5.8
v -4 6.4 -5.7
v -4 6.4 -5.8
v -4 6.5 -5.3
v -4 6.5 -5.4
v -4 6.5 -5.7
v -4 6.5 -5.8
v -4 6.6 -5.3
v -4 6.6 -5.4
v -3.9 5.7 -5.4
v -3.9 5.7 -5.5
v -3.9 5.8 -5.4
v -3.9 5.8 -5.5
v -3.9 6 -5.1
v -3.9 6 -5.2
v -3.9 6 -5.4
v -3.9 6.1 -5.1
v -3.9 6.1 -5.2
v -3.9 6.1 -5.4
v -3.9 6.2 -5.4
v -3.9 6.2 -5.5
v -3.9 6.3 -5.4
v -3.9 6.3 -5.5
v -3.9 6.5 -5.4
v -3.9 6.5 -5.5
v -3.9 6.6 -5.1
v -3.9 6.6 -5.3
v -3.9 6.6 -5.4
v -3.9 6.6 -5.5
v -3.9 6.7 -5.1
v -3.9 6.7 -5.4
v -3.8 5.6 -5.3
v -3.8 5.6 -5.4
v -3.8 5.7 -5.4
v -3.8 5.8 -5.3
v -3.8 5.8 -5.4
v -3.8 6.1 -5.3
v -3.8 6.1 -5.4
v -3.8 6.2 -5.3
v -3.8 6.2 -5.4
v -3.8 6.5 -5.7
v -3.8 6.5 -5.8
v -3.8 6.6 -5.7
v -3.8 6.6 -5.8
v -3.7 6.1 -5.7
v -3.7 6.1 -5.8
v -3.7 6.2 -5.7
v -3.7 6.2 -5.8
v -3.6 6 -5.7
v -3.6 6 -5.8
v -3.6 6.1 -5.7
v -3.6 6.1 -5.8
v -3.6 6.6 -5.7
v -3.6 6.6 -5.8
v -3.6 6.7 -5.7
v -3.6 6.7 -5.8
v -3.4 5.9 -5.7
v -3.4 5.9 -5.8
v -3.4 6 -5.7
v -3.4 6 -5.8
v -3.3 6.7 -5.7
v -3.3 6.7 -5.8
v -3.3 6.8 -5.7
v -3.3 6.8 -5.8
v -5 5.7 -5.7
v -5 5.7 -5.8
v -5 5.8 -5.7
v -5 5.8 -5.8
v -4.9 5.8 -5.7
v -4.9 5.8 -5.8
v -4.9 5.9 -5.7
v -4.9 5.9 -5.8
v -4.8 5.9 -5.7
v -4.8 5.9 -5.8
v -4.8 6 -5.7
v -4.8 6 -5.8
v -4.8 6.7 -5.7
v -4.8 6.7 -5.8
v -4.8 6.8 -5.7
v -4.8 6.8 -5.8
v -4.7 5.7 -6.2
v -4.7 5.7 -6.3
v -4.7 5.8 -6.2
v -4.7 5.8 -6.3
v -4.7 6.3 -5.7
v -4.7 6.3 -5.8
v -4.7 6.4 -5.7
v -4.7 6.4 -5.8
v -4.7 6.6 -5.7
v -4.7 6.6 -5.8
v -4.7 6.7 -5.7
v -4.7 6.7 -5.8
v -4.6 5.8 -6.1
v -4.6 5.8 -6.2
v -4.6 6 -5.7
v -4.6 6 -5.8
v -4.6 6 -6.1
v -4.6 6 -6.2
v -4.6 6.1 -5.7
v -4.6 6.1 -5.8
v -4.6 6.4 -6.1
v -4.6 6.4 -6.2
v -4.6 6.5 -5.7
v -4.6 6.5 -5.8
v -4.6 6.5 -6.1
v -4.6 6.5 -6.2
v -4.6 6.5 -6.3
v -4.6 6.5 -6.5
v -4.6 6.6 -5.7
v -4.6 6.6 -5.8
v -4.6 6.6 -6.2
v -4.6 6.6 -6.5
v -4.5 5.8 -6.2
v -4.5 5.8 -6.3
v -4.5 6 -6.2
v -4.5 6 -6.3
v -4.5 6.4 -5.7
v -4.5 6.4 -5.8
v -4.5 6.4 -6.2
v -4.5 6.4 -6.3
v -4.5 6.5 -5.7
v -4.5 6.5 -5.8
v -4.5 6.5 -6.2
v -4.5 6.5 -6.3
v -4.4 6.1 -5.7
v -4.4 6.1 -5.8
v -4.4 6.2 -5.7
v -4.4 6.2 -5.8
v -4.3 6 -6.1
v -4.3 6 -6.2
v -4.3 6.1 -5.9
v -4.3 6.1 -6
v -4.3 6.1 -6.1
v -4.3 6.1 -6.2
v -4.3 6.3 -5.7
v -4.3 6.3 -5.8
v -4.3 6.3 -5.9
v -4.3 6.3 -6
v -4.3 6.4 -5.7
v -4.3 6.4 -5.8
v -4.3 6.7 -5.7
v -4.3 6.7 -5.8
v -4.2 4.4 -5.7
v -4.2 4.4 -5.8
v -4.2 4.6 -5.7
v -4.2 4.6 -5.8
v -4.2 4.8 -5.7
v -4.2 4.8 -5.8
v -4.2 4.9 -5.7
v -4.2 4.9 -5.8
v -4.2 5.6 -6.4
v -4.2 5.6 -6.5
v -4.2 5.7 -5.1
v -4.2 5.7 -5.2
v -4.2 5.7 -6.3
v -4.2 5.7 -6.4
v -4.2 5.8 -5.1
v -4.2 5.8 -5.2
v -4.2 5.8 -5.3
v -4.2 5.8 -5.7
v -4.2 5.8 -5.8
v -4.2 5.8 -6.2
v -4.2 5.8 -6.3
v -4.2 5.8 -6.5
v -4.2 5.9 -6
v -4.2 5.9 -6.2
v -4.2 5.9 -6.3
v -4.2 6 -5.2
v -4.2 6 -5.3
v -4.2 6 -5.4
v -4.2 6 -5.6
v -4.2 6 -5.7
v -4.2 6 -5.8
v -4.2 6 -5.9
v -4.2 6 -6
v -4.2 6 -6.2
v -4.2 6 -6.5
v -4.2 6 -6.6
v -4.2 6.1 -5.3
v -4.2 6.1 -5.4
v -4.2 6.1 -5.6
v -4.2 6.1 -5.7
v -4.2 6.1 -5.8
v -4.2 6.1 -5.9
v -4.2 6.1 -6
v -4.2 6.1 -6.4
v -4.2 6.1 -6.5
v -4.2 6.1 -6.6
v -4.2 6.2 -5.4
v -4.2 6.2 -5.5
v -4.2 6.2 -5.6
v -4.2 6.2 -5.7
v -4.2 6.2 -5.8
v -4.2 6.2 -6.3
v -4.2 6.2 -6.4
v -4.2 6.2 -6.5
v -4.2 6.3 -5.3
v -4.2 6.3 -5.4
v -4.2 6.3 -5.5
v -4.2 6.3 -5.6
v -4.2 6.3 -5.8
v -4.2 6.3 -5.9
v -4.2 6.3 -6
v -4.2 6.3 -6.1
v -4.2 6.3 -6.3
v -4.2 6.3 -6.4
v -4.2 6.4 -5.2
v -4.2 6.4 -5.3
v -4.2 6.4 -5.4
v -4.2 6.4 -5.9
v -4.2 6.4 -6
v -4.2 6.4 -6.1
v -4.2 6.4 -6.3
v -4.2 6.5 -4.9
v -4.2 6.5 -5.2
v -4.2 6.5 -5.3
v -4.2 6.5 -6
v -4.2 6.5 -6.1
v -4.2 6.5 -6.4
v -4.2 6.6 -4.9
v -4.2 6.6 -5.2
v -4.2 6.6 -6.1
v -4.2 6.6 -6.4
v -4.2 6.6 -6.7
v -4.2 6.7 -5.7
v -4.2 6.7 -5.8
v -4.2 6.7 -6.4
v -4.2 6.7 -6.7
v -4.2 6.9 -5.7
v -4.2 6.9 -5.8
v -4.1 4.9 -5.7
v -4.1 4.9 -5.8
v -4.1 5.1 -5.7
v -4.1 5.1 -5.8
v -4.1 5.2 -5.7
v -4.1 5.2 -5.8
v -4.1 5.5 -5.7
v -4.1 5.5 -5.8
v -4.1 5.7 -5.7
v -4.1 5.7 -5.8
v -4.1 5.8 -5.7
v -4.1 5.8 -5.8
v -4.1 6 -5.6
v -4.1 6 -5.7
v -4.1 6 -5.8
v -4.1 6.1 -5.6
v -4.1 6.1 -5.7
v -4.1 6.1 -5.8
v -4.1 6.3 -5.6
v -4.1 6.3 -5.7
v -4.1 6.4 -5.6
v -4.1 6.4 -5.7
v -4 5.8 -5.4
v -4 5.8 -5.5
v -4 5.9 -5.4
v -4 5.9 -5.5
v -4 6.1 -5.7
v -4 6.1 -5.8
v -4 6.2 -5.7
v -4 6.2 -5.8
v -4 6.3 -5.4
v -4 6.3 -5.5
v -4 6.4 -5.4
v -4 6.4 -5.5
v -4 6.5 -5.4
v -4 6.5 -5.5
v -4 6.6 -5.4
v -4 6.6 -5.5
v -3.9 5.7 -5.3
v -3.9 5.7 -5.4
v -3.9 5.8 -5.3
v -3.9 5.8 -5.4
v -3.9 6.2 -5.3
v -3.9 6.2 -5.4
v -3.9 6.3 -5.3
v -3.9 6.3 -5.4
v -3.9 6.3 -5.7
v -3.9 6.3 -5.8
v -3.9 6.4 -5.7
v -3.9 6.4 -5.8
v -3.9 6.5 -5.3
v -3.9 6.5 -5.4
v -3.9 6.6 -5.3
v -3.9 6.6 -5.4
v -3.8 5.7 -5.4
v -3.8 5.7 -5.5
v -3.8 5.8 -5.4
v -3.8 5.8 -5.5
v -3.8 6 -5.1
v -3.8 6 -5.2
v -3.8 6 -5.3
v -3.8 6 -5.4
v -3.8 6.1 -5.1
v -3.8 6.1 -5.2
v -3.8 6.1 -5.3
v -3.8 6.1 -5.4
v -3.8 6.2 -5.4
v -3.8 6.2 -5.5
v -3.8 6.3 -5.4
v -3.8 6.3 -5.5
v -3.8 6.5 -5.4
v -3.8 6.5 -5.5
v -3.8 6.6 -5.1
v -3.8 6.6 -5.2
v -3.8 6.6 -5.4
v -3.8 6.6 -5.5
v -3.8 6.7 -5.1
v -3.8 6.7 -5.2
v -3.7 5.6 -5.3
v -3.7 5.6 -5.4
v -3.7 5.8 -5.3
v -3.7 5.8 -5.4
v -3.7 6 -5.2
v -3.7 6 -5.3
v -3.7 6.1 -5.2
v -3.7 6.1 -5.3
v -3.7 6.1 -5.4
v -3.7 6.2 -5.3
v -3.7 6.2 -5.4
v -3.7 6.2 -5.7
v -3.7 6.2 -5.8
v -3.7 6.3 -5.7
v -3.7 6.3 -5.8
v -3.7 6.4 -5.7
v -3.7 6.4 -5.8
v -3.7 6.5 -5.7
v -3.7 6.5 -5.8
v -3.7 6.6 -5.2
v -3.7 6.6 -5.4
v -3.7 6.7 -5.2
v -3.7 6.7 -5.4
v -3.6 6.1 -5.7
v -3.6 6.1 -5.8
v -3.6 6.2 -5.7
v -3.6 6.2 -5.8
v -3.6 6.5 -5.7
v -3.6 6.5 -5.8
v -3.6 6.6 -5.7
v -3.6 6.6 -5.8
v -3.4 6 -5.7
v -3.4 6 -5.8
v -3.4 6.1 -5.7
v -3.4 6.1 -5.8
v -3.3 5.9 -5.7
v -3.3 5.9 -5.8
v -3.3 6 -5.7
v -3.3 6 -5.8
v -3.3 6.6 -5.7
v -3.3 6.6 -5.8
v -3.3 6.7 -5.7
v -3.3 6.7 -5.8
v -3.2 6.7 -5.7
v -3.2 6.7 -5.8
v -3.2 6.8 -5.7
v -3.2 6.8 -5.8
v -4.3 6.5 -4.9
v -4.3 6.6 -4.9
v -4.2 6.5 -4.9
v -4.2 6.6 -4.9
v -4.3 5.7 -5.1
v -4.3 5.8 -5.1
v -4.2 5.7 -5.1
v -4.2 5.8 -5.1
v -3.9 6 -5.1
v -3.9 6.1 -5.1
v -3.9 6.6 -5.1
v -3.9 6.7 -5.1
v -3.8 6 -5.1
v -3.8 6.1 -5.1
v -3.8 6.6 -5.1
v -3.8 6.7 -5.1
v -4.3 5.8 -5.2
v -4.3 6 -5.2
v -4.3 6.4 -5.2
v -4.3 6.5 -5.2
v -4.2 5.8 -5.2
v -4.2 6 -5.2
v -4.2 6.4 -5.2
v -4.2 6.5 -5.2
v -3.8 6 -5.2
v -3.8 6.1 -5.2
v -3.8 6.6 -5.2
v -3.8 6.7 -5.2
v -3.7 6 -5.2
v -3.7 6.1 -5.2
v -3.7 6.6 -5.2
v -3.7 6.7 -5.2
v -4.3 6 -5.3
v -4.3 6.1 -5.3
v -4.3 6.3 -5.3
v -4.3 6.4 -5.3
v -4.2 6 -5.3
v -4.2 6.1 -5.3
v -4.2 6.3 -5.3
v -4.2 6.4 -5.3
v -4 5.7 -5.3
v -4 5.8 -5.3
v -4 6.2 -5.3
v -4 6.3 -5.3
v -4 6.5 -5.3
v -4 6.6 -5.3
v -3.9 5.7 -5.3
v -3.9 5.8 -5.3
v -3.9 6.2 -5.3
v -3.9 6.3 -5.3
v -3.9 6.5 -5.3
v -3.9 6.6 -5.3
v -3.8 5.6 -5.3
v -3.8 5.8 -5.3
v -3.8 6.1 -5.3
v -3.8 6.2 -5.3
v -3.7 5.6 -5.3
v -3.7 5.8 -5.3
v -3.7 6.1 -5.3
v -3.7 6.2 -5.3
v -4.3 6.2 -5.4
v -4.3 6.3 -5.4
v -4.2 5.8 -5.4
v -4.2 5.9 -5.4
v -4.2 6.2 -5.4
v -4.2 6.3 -5.4
v -4.2 6.4 -5.4
v -4.2 6.5 -5.4
v -4.2 6.6 -5.4
v -4 5.8 -5.4
v -4 5.9 -5.4
v -4 6.3 -5.4
v -4 6.4 -5.4
v -4 6.5 -5.4
v -4 6.6 -5.4
v -3.9 5.7 -5.4
v -3.9 5.8 -5.4
v -3.9 6.2 -5.4
v -3.9 6.3 -5.4
v -3.9 6.5 -5.4
v -3.9 6.6 -5.4
v -3.8 5.7 -5.4
v -3.8 5.8 -5.4
v -3.8 6.2 -5.4
v -3.8 6.3 -5.4
v -3.8 6.5 -5.4
v -3.8 6.6 -5.4
v -4.3 6.1 -5.6
v -4.3 6.2 -5.6
v -4.2 6 -5.6
v -4.2 6.1 -5.6
v -4.2 6.2 -5.6
v -4.2 6.3 -5.6
v -4.2 6.4 -5.6
v -4.1 6 -5.6
v -4.1 6.1 -5.6
v -4.1 6.3 -5.6
v -4.1 6.4 -5.6
v -5.1 5.7 -5.7
v -5.1 5.8 -5.7
v -5 5.7 -5.7
v -5 5.8 -5.7
v -5 5.9 -5.7
v -5 6.7 -5.7
v -5 6.8 -5.7
v -4.9 5.8 -5.7
v -4.9 5.9 -5.7
v -4.9 6 -5.7
v -4.9 6.3 -5.7
v -4.9 6.4 -5.7
v -4.8 5.9 -5.7
v -4.8 6 -5.7
v -4.8 6.1 -5.7
v -4.8 6.6 -5.7
v -4.8 6.7 -5.7
v -4.8 6.8 -5.7
v -4.7 6 -5.7
v -4.7 6.1 -5.7
v -4.7 6.2 -5.7
v -4.7 6.3 -5.7
v -4.7 6.4 -5.7
v -4.7 6.5 -5.7
v -4.7 6.6 -5.7
v -4.7 6.7 -5.7
v -4.6 6 -5.7
v -4.6 6.1 -5.7
v -4.6 6.5 -5.7
v -4.6 6.6 -5.7
v -4.5 6.1 -5.7
v -4.5 6.2 -5.7
v -4.5 6.3 -5.7
v -4.5 6.4 -5.7
v -4.5 6.5 -5.7
v -4.4 4.4 -5.7
v -4.4 4.5 -5.7
v -4.4 4.9 -5.7
v -4.4 5.1 -5.7
v -4.4 6 -5.7
v -4.4 6.1 -5.7
v -4.4 6.2 -5.7
v -4.4 6.3 -5.7
v -4.4 6.4 -5.7
v -4.4 6.8 -5.7
v -4.3 4.5 -5.7
v -4.3 4.6 -5.7
v -4.3 4.8 -5.7
v -4.3 4.9 -5.7
v -4.3 5.1 -5.7
v -4.3 5.3 -5.7
v -4.3 5.6 -5.7
v -4.3 5.7 -5.7
v -4.3 5.8 -5.7
v -4.3 6 -5.7
v -4.3 6.1 -5.7
v -4.3 6.2 -5.7
v -4.3 6.3 -5.7
v -4.3 6.4 -5.7
v -4.3 6.7 -5.7
v -4.3 6.8 -5.7
v -4.3 6.9 -5.7
v -4.2 4.4 -5.7
v -4.2 4.6 -5.7
v -4.2 4.8 -5.7
v -4.2 4.9 -5.7
v -4.2 5.2 -5.7
v -4.2 5.3 -5.7
v -4.2 5.5 -5.7
v -4.2 5.6 -5.7
v -4.2 5.7 -5.7
v -4.2 5.8 -5.7
v -4.2 6 -5.7
v -4.2 6.1 -5.7
v -4.2 6.2 -5.7
v -4.2 6.7 -5.7
v -4.2 6.9 -5.7
v -4.1 4.9 -5.7
v -4.1 5.1 -5.7
v -4.1 5.2 -5.7
v -4.1 5.5 -5.7
v -4.1 5.7 -5.7
v -4.1 5.8 -5.7
v -4.1 6.1 -5.7
v -4.1 6.2 -5.7
v -4.1 6.3 -5.7
v -4.1 6.4 -5.7
v -4 6.1 -5.7
v -4 6.2 -5.7
v -4 6.3 -5.7
v -4 6.4 -5.7
v -4 6.5 -5.7
v -3.9 6.3 -5.7
v -3.9 6.4 -5.7
v -3.8 6.2 -5.7
v -3.8 6.3 -5.7
v -3.8 6.4 -5.7
v -3.8 6.5 -5.7
v -3.8 6.6 -5.7
v -3.7 6.1 -5.7
v -3.7 6.2 -5.7
v -3.7 6.3 -5.7
v -3.7 6.4 -5.7
v -3.7 6.5 -5.7
v -3.7 6.6 -5.7
v -3.6 6 -5.7
v -3.6 6.1 -5.7
v -3.6 6.2 -5.7
v -3.6 6.5 -5.7
v -3.6 6.6 -5.7
v -3.6 6.7 -5.7
v -3.4 5.9 -5.7
v -3.4 6 -5.7
v -3.4 6.1 -5.7
v -3.3 5.9 -5.7
v -3.3 6 -5.7
v -3.3 6.6 -5.7
v -3.3 6.7 -5.7
v -3.3 6.8 -5.7
v -3.2 6.7 -5.7
v -3.2 6.8 -5.7
v -4.4 6.1 -5.8
v -4.4 6.2 -5.8
v -4.3 6.1 -5.8
v -4.3 6.2 -5.8
v -4.3 6 -5.9
v -4.3 6.1 -5.9
v -4.3 6.3 -5.9
v -4.3 6.4 -5.9
v -4.2 6 -5.9
v -4.2 6.1 -5.9
v -4.2 6.3 -5.9
v -4.2 6.4 -5.9
v -4.3 5.9 -6
v -4.3 6 -6
v -4.3 6.4 -6
v -4.3 6.5 -6
v -4.2 5.9 -6
v -4.2 6 -6
v -4.2 6.4 -6
v -4.2 6.5 -6
v -4.7 5.8 -6.1
v -4.7 6 -6.1
v -4.7 6.4 -6.1
v -4.7 6.5 -6.1
v -4.6 5.8 -6.1
v -4.6 6 -6.1
v -4.6 6.4 -6.1
v -4.6 6.5 -6.1
v -4.5 6 -6.1
v -4.5 6.1 -6.1
v -4.5 6.3 -6.1
v -4.5 6.4 -6.1
v -4.4 6 -6.1
v -4.4 6.1 -6.1
v -4.3 6 -6.1
v -4.3 6.1 -6.1
v -4.3 6.4 -6.1
v -4.3 6.5 -6.1
v -4.3 6.6 -6.1
v -4.2 6.3 -6.1
v -4.2 6.4 -6.1
v -4.2 6.5 -6.1
v -4.2 6.6 -6.1
v -4.8 5.7 -6.2
v -4.8 5.8 -6.2
v -4.8 6.5 -6.2
v -4.8 6.6 -6.2
v -4.7 5.7 -6.2
v -4.7 5.8 -6.2
v -4.7 6.5 -6.2
v -4.6 5.8 -6.2
v -4.6 6 -6.2
v -4.6 6.4 -6.2
v -4.6 6.5 -6.2
v -4.6 6.6 -6.2
v -4.5 5.8 -6.2
v -4.5 6 -6.2
v -4.5 6.4 -6.2
v -4.5 6.5 -6.2
v -4.3 5.8 -6.2
v -4.3 5.9 -6.2
v -4.2 5.8 -6.2
v -4.2 5.9 -6.2
v -4.3 5.7 -6.3
v -4.3 5.8 -6.3
v -4.3 6.2 -6.3
v -4.3 6.3 -6.3
v -4.2 5.7 -6.3
v -4.2 5.8 -6.3
v -4.2 6.2 -6.3
v -4.2 6.3 -6.3
v -4.3 5.6 -6.4
v -4.3 5.7 -6.4
v -4.3 6.1 -6.4
v -4.3 6.2 -6.4
v -4.3 6.6 -6.4
v -4.3 6.7 -6.4
v -4.2 5.6 -6.4
v -4.2 5.7 -6.4
v -4.2 6.1 -6.4
v -4.2 6.2 -6.4
v -4.2 6.6 -6.4
v -4.2 6.7 -6.4
v -4.3 6 -6.5
v -4.3 6.1 -6.5
v -4.2 6 -6.5
v -4.2 6.1 -6.5
v -4.3 5.7 -5.2
v -4.3 5.8 -5.2
v -4.3 6.5 -5.2
v -4.3 6.6 -5.2
v -4.2 5.7 -5.2
v -4.2 5.8 -5.2
v -4.2 6.5 -5.2
v -4.2 6.6 -5.2
v -4.3 5.8 -5.3
v -4.3 6 -5.3
v -4.3 6.4 -5.3
v -4.3 6.5 -5.3
v -4.2 5.8 -5.3
v -4.2 6 -5.3
v -4.2 6.4 -5.3
v -4.2 6.5 -5.3
v -3.8 6 -5.3
v -3.8 6.1 -5.3
v -3.7 6 -5.3
v -3.7 6.1 -5.3
v -4.3 6.3 -5.4
v -4.3 6.4 -5.4
v -4.2 6.3 -5.4
v -4.2 6.4 -5.4
v -4 5.7 -5.4
v -4 5.8 -5.4
v -4 6.2 -5.4
v -4 6.3 -5.4
v -4 6.5 -5.4
v -4 6.6 -5.4
v -3.9 5.7 -5.4
v -3.9 5.8 -5.4
v -3.9 6 -5.4
v -3.9 6.1 -5.4
v -3.9 6.2 -5.4
v -3.9 6.3 -5.4
v -3.9 6.5 -5.4
v -3.9 6.6 -5.4
v -3.9 6.7 -5.4
v -3.8 5.6 -5.4
v -3.8 5.7 -5.4
v -3.8 5.8 -5.4
v -3.8 6 -5.4
v -3.8 6.1 -5.4
v -3.8 6.2 -5.4
v -3.8 6.6 -5.4
v -3.7 5.6 -5.4
v -3.7 5.8 -5.4
v -3.7 6.1 -5.4
v -3.7 6.2 -5.4
v -3.7 6.6 -5.4
v -3.7 6.7 -5.4
v -4.2 5.8 -5.5
v -4.2 5.9 -5.5
v -4.2 6.3 -5.5
v -4.2 6.4 -5.5
v -4.2 6.5 -5.5
v -4.2 6.6 -5.5
v -4 5.8 -5.5
v -4 5.9 -5.5
v -4 6.3 -5.5
v -4 6.4 -5.5
v -4 6.5 -5.5
v -4 6.6 -5.5
v -3.9 5.7 -5.5
v -3.9 5.8 -5.5
v -3.9 6.2 -5.5
v -3.9 6.3 -5.5
v -3.9 6.5 -5.5
v -3.9 6.6 -5.5
v -3.8 5.7 -5.5
v -3.8 5.8 -5.5
v -3.8 6.2 -5.5
v -3.8 6.3 -5.5
v -3.8 6.5 -5.5
v -3.8 6.6 -5.5
v -4.3 6 -5.6
v -4.3 6.1 -5.6
v -4.2 6 -5.6
v -4.2 6.1 -5.6
v -5.1 5.7 -5.8
v -5.1 5.8 -5.8
v -5 5.7 -5.8
v -5 5.8 -5.8
v -5 5.9 -5.8
v -5 6.7 -5.8
v -5 6.8 -5.8
v -4.9 5.8 -5.8
v -4.9 5.9 -5.8
v -4.9 6 -5.8
v -4.9 6.3 -5.8
v -4.9 6.4 -5.8
v -4.8 5.9 -5.8
v -4.8 6 -5.8
v -4.8 6.1 -5.8
v -4.8 6.6 -5.8
v -4.8 6.7 -5.8
v -4.8 6.8 -5.8
v -4.7 6 -5.8
v -4.7 6.1 -5.8
v -4.7 6.2 -5.8
v -4.7 6.3 -5.8
v -4.7 6.4 -5.8
v -4.7 6.5 -5.8
v -4.7 6.6 -5.8
v -4.7 6.7 -5.8
v -4.6 6 -5.8
v -4.6 6.1 -5.8
v -4.6 6.5 -5.8
v -4.6 6.6 -5.8
v -4.5 6.1 -5.8
v -4.5 6.2 -5.8
v -4.5 6.3 -5.8
v -4.5 6.4 -5.8
v -4.5 6.5 -5.8
v -4.4 4.4 -5.8
v -4.4 4.5 -5.8
v -4.4 4.9 -5.8
v -4.4 5.1 -5.8
v -4.4 6 -5.8
v -4.4 6.1 -5.8
v -4.4 6.2 -5.8
v -4.4 6.3 -5.8
v -4.4 6.4 -5.8
v -4.4 6.8 -5.8
v -4.3 4.5 -5.8
v -4.3 4.6 -5.8
v -4.3 4.8 -5.8
v -4.3 4.9 -5.8
v -4.3 5.1 -5.8
v -4.3 5.3 -5.8
v -4.3 5.6 -5.8
v -4.3 5.7 -5.8
v -4.3 5.8 -5.8
v -4.3 6 -5.8
v -4.3 6.1 -5.8
v -4.3 6.3 -5.8
v -4.3 6.4 -5.8
v -4.3 6.7 -5.8
v -4.3 6.8 -5.8
v -4.3 6.9 -5.8
v -4.2 4.4 -5.8
v -4.2 4.6 -5.8
v -4.2 4.8 -5.8
v -4.2 4.9 -5.8
v -4.2 5.2 -5.8
v -4.2 5.3 -5.8
v -4.2 5.5 -5.8
v -4.2 5.6 -5.8
v -4.2 5.7 -5.8
v -4.2 5.8 -5.8
v -4.2 6 -5.8
v -4.2 6.1 -5.8
v -4.2 6.2 -5.8
v -4.2 6.3 -5.8
v -4.2 6.4 -5.8
v -4.2 6.7 -5.8
v -4.2 6.9 -5.8
v -4.1 4.9 -5.8
v -4.1 5.1 -5.8
v -4.1 5.2 -5.8
v -4.1 5.5 -5.8
v -4.1 5.7 -5.8
v -4.1 5.8 -5.8
v -4.1 6 -5.8
v -4.1 6.1 -5.8
v -4.1 6.2 -5.8
v -4.1 6.3 -5.8
v -4.1 6.4 -5.8
v -4 6.1 -5.8
v -4 6.2 -5.8
v -4 6.3 -5.8
v -4 6.4 -5.8
v -4 6.5 -5.8
v -3.9 6.3 -5.8
v -3.9 6.4 -5.8
v -3.8 6.2 -5.8
v -3.8 6.3 -5.8
v -3.8 6.4 -5.8
v -3.8 6.5 -5.8
v -3.8 6.6 -5.8
v -3.7 6.1 -5.8
v -3.7 6.2 -5.8
v -3.7 6.3 -5.8
v -3.7 6.4 -5.8
v -3.7 6.5 -5.8
v -3.7 6.6 -5.8
v -3.6 6 -5.8
v -3.6 6.1 -5.8
v -3.6 6.2 -5.8
v -3.6 6.5 -5.8
v -3.6 6.6 -5.8
v -3.6 6.7 -5.8
v -3.4 5.9 -5.8
v -3.4 6 -5.8
v -3.4 6.1 -5.8
v -3.3 5.9 -5.8
v -3.3 6 -5.8
v -3.3 6.6 -5.8
v -3.3 6.7 -5.8
v -3.3 6.8 -5.8
v -3.2 6.7 -5.8
v -3.2 6.8 -5.8
v -4.3 6.1 -5.9
v -4.3 6.3 -5.9
v -4.2 6.1 -5.9
v -4.2 6.3 -5.9
v -4.4 6.1 -6
v -4.4 6.3 -6
v -4.3 6 -6
v -4.3 6.1 -6
v -4.3 6.3 -6
v -4.3 6.4 -6
v -4.2 6 -6
v -4.2 6.1 -6
v -4.2 6.3 -6
v -4.2 6.4 -6
v -4.3 6.4 -6.1
v -4.3 6.5 -6.1
v -4.2 6.4 -6.1
v -4.2 6.5 -6.1
v -4.7 5.8 -6.2
v -4.7 6 -6.2
v -4.7 6.4 -6.2
v -4.7 6.5 -6.2
v -4.6 5.8 -6.2
v -4.6 6 -6.2
v -4.6 6.4 -6.2
v -4.6 6.5 -6.2
v -4.5 6 -6.2
v -4.5 6.1 -6.2
v -4.5 6.3 -6.2
v -4.5 6.4 -6.2
v -4.4 6 -6.2
v -4.4 6.1 -6.2
v -4.3 5.9 -6.2
v -4.3 6 -6.2
v -4.3 6.1 -6.2
v -4.3 6.3 -6.2
v -4.3 6.4 -6.2
v -4.2 5.9 -6.2
v -4.2 6 -6.2
v -4.8 5.7 -6.3
v -4.8 5.8 -6.3
v -4.7 5.7 -6.3
v -4.7 5.8 -6.3
v -4.6 5.8 -6.3
v -4.6 6 -6.3
v -4.6 6.4 -6.3
v -4.6 6.5 -6.3
v -4.5 5.8 -6.3
v -4.5 6 -6.3
v -4.5 6.4 -6.3
v -4.5 6.5 -6.3
v -4.3 5.8 -6.3
v -4.3 5.9 -6.3
v -4.3 6.3 -6.3
v -4.3 6.4 -6.3
v -4.2 5.8 -6.3
v -4.2 5.9 -6.3
v -4.2 6.3 -6.3
v -4.2 6.4 -6.3
v -4.8 6.5 -6.4
v -4.8 6.6 -6.4
v -4.7 6.5 -6.4
v -4.7 6.6 -6.4
v -4.3 6.2 -6.4
v -4.3 6.3 -6.4
v -4.3 6.5 -6.4
v -4.3 6.6 -6.4
v -4.2 6.2 -6.4
v -4.2 6.3 -6.4
v -4.2 6.5 -6.4
v -4.2 6.6 -6.4
v -4.7 6.5 -6.5
v -4.7 6.6 -6.5
v -4.6 6.5 -6.5
v -4.6 6.6 -6.5
v -4.3 5.6 -6.5
v -4.3 5.8 -6.5
v -4.3 6.1 -6.5
v -4.3 6.2 -6.5
v -4.2 5.6 -6.5
v -4.2 5.8 -6.5
v -4.2 6.1 -6.5
v -4.2 6.2 -6.5
v -4.3 6 -6.6
v -4.3 6.1 -6.6
v -4.2 6 -6.6
v -4.2 6.1 -6.6
v -4.3 6.6 -6.7
v -4.3 6.7 -6.7
v -4.2 6.6 -6.7
v -4.2 6.7 -6.7
v -4.4 4.4 -5.7
v -4.2 4.4 -5.7
v -4.4 4.4 -5.8
v -4.2 4.4 -5.8
v -4.2 4.9 -5.7
v -4.1 4.9 -5.7
v -4.2 4.9 -5.8
v -4.1 4.9 -5.8
v -3.8 5.6 -5.3
v -3.7 5.6 -5.3
v -3.8 5.6 -5.4
v -3.7 5.6 -5.4
v -4.3 5.6 -6.4
v -4.2 5.6 -6.4
v -4.3 5.6 -6.5
v -4.2 5.6 -6.5
v -4.3 5.7 -5.1
v -4.2 5.7 -5.1
v -4.3 5.7 -5.2
v -4.2 5.7 -5.2
v -4 5.7 -5.3
v -3.9 5.7 -5.3
v -4 5.7 -5.4
v -3.9 5.7 -5.4
v -3.8 5.7 -5.4
v -3.9 5.7 -5.5
v -3.8 5.7 -5.5
v -5.1 5.7 -5.7
v -5 5.7 -5.7
v -5.1 5.7 -5.8
v -5 5.7 -5.8
v -4.8 5.7 -6.2
v -4.7 5.7 -6.2
v -4.8 5.7 -6.3
v -4.7 5.7 -6.3
v -4.3 5.7 -6.3
v -4.2 5.7 -6.3
v -4.3 5.7 -6.4
v -4.2 5.7 -6.4
v -4.3 5.8 -5.2
v -4.2 5.8 -5.2
v -4.3 5.8 -5.3
v -4.2 5.8 -5.3
v -4.2 5.8 -5.4
v -4 5.8 -5.4
v -4.2 5.8 -5.5
v -4 5.8 -5.5
v -5 5.8 -5.7
v -4.9 5.8 -5.7
v -5 5.8 -5.8
v -4.9 5.8 -5.8
v -4.7 5.8 -6.1
v -4.6 5.8 -6.1
v -4.7 5.8 -6.2
v -4.6 5.8 -6.2
v -4.5 5.8 -6.2
v -4.3 5.8 -6.2
v -4.2 5.8 -6.2
v -4.6 5.8 -6.3
v -4.5 5.8 -6.3
v -4.3 5.8 -6.3
v -4.2 5.8 -6.3
v -4.9 5.9 -5.7
v -4.8 5.9 -5.7
v -3.4 5.9 -5.7
v -3.3 5.9 -5.7
v -4.9 5.9 -5.8
v -4.8 5.9 -5.8
v -3.4 5.9 -5.8
v -3.3 5.9 -5.8
v -4.3 5.9 -6
v -4.2 5.9 -6
v -4.3 5.9 -6.2
v -4.2 5.9 -6.2
v -3.9 6 -5.1
v -3.8 6 -5.1
v -3.9 6 -5.2
v -3.8 6 -5.2
v -3.7 6 -5.2
v -4.3 6 -5.3
v -4.2 6 -5.3
v -3.8 6 -5.3
v -3.7 6 -5.3
v -4.3 6 -5.4
v -4.2 6 -5.4
v -3.9 6 -5.4
v -3.8 6 -5.4
v -4.3 6 -5.6
v -4.2 6 -5.6
v -4.1 6 -5.6
v -4.8 6 -5.7
v -4.7 6 -5.7
v -4.6 6 -5.7
v -4.4 6 -5.7
v -4.3 6 -5.7
v -4.2 6 -5.7
v -4.1 6 -5.7
v -3.6 6 -5.7
v -3.4 6 -5.7
v -4.8 6 -5.8
v -4.7 6 -5.8
v -4.6 6 -5.8
v -4.4 6 -5.8
v -4.3 6 -5.8
v -4.2 6 -5.8
v -4.1 6 -5.8
v -3.6 6 -5.8
v -3.4 6 -5.8
v -4.3 6 -5.9
v -4.2 6 -5.9
v -4.3 6 -6
v -4.2 6 -6
v -4.5 6 -6.1
v -4.4 6 -6.1
v -4.3 6 -6.1
v -4.5 6 -6.2
v -4.4 6 -6.2
v -4.3 6 -6.2
v -4.3 6 -6.5
v -4.2 6 -6.5
v -4.3 6 -6.6
v -4.2 6 -6.6
v -3.8 6.1 -5.3
v -3.7 6.1 -5.3
v -3.8 6.1 -5.4
v -3.7 6.1 -5.4
v -4.3 6.1 -5.6
v -4.2 6.1 -5.6
v -4.6 6.1 -5.7
v -4.5 6.1 -5.7
v -4.4 6.1 -5.7
v -4.3 6.1 -5.7
v -4.2 6.1 -5.7
v -4.1 6.1 -5.7
v -4 6.1 -5.7
v -3.7 6.1 -5.7
v -3.6 6.1 -5.7
v -4.6 6.1 -5.8
v -4.5 6.1 -5.8
v -4.4 6.1 -5.8
v -4.3 6.1 -5.8
v -4.2 6.1 -5.8
v -4.1 6.1 -5.8
v -4 6.1 -5.8
v -3.7 6.1 -5.8
v -3.6 6.1 -5.8
v -4.4 6.1 -5.9
v -4.3 6.1 -5.9
v -4.2 6.1 -5.9
v -4.4 6.1 -6
v -4.3 6.1 -6
v -4.3 6.1 -6.4
v -4.2 6.1 -6.4
v -4.3 6.1 -6.5
v -4.2 6.1 -6.5
v -4 6.2 -5.3
v -3.9 6.2 -5.3
v -4.3 6.2 -5.4
v -4.2 6.2 -5.4
v -4 6.2 -5.4
v -3.9 6.2 -5.4
v -3.8 6.2 -5.4
v -4.3 6.2 -5.5
v -4.2 6.2 -5.5
v -3.9 6.2 -5.5
v -3.8 6.2 -5.5
v -4.3 6.2 -5.6
v -4.2 6.2 -5.6
v -4.4 6.2 -5.7
v -4.3 6.2 -5.7
v -4 6.2 -5.7
v -3.8 6.2 -5.7
v -3.7 6.2 -5.7
v -4.4 6.2 -5.8
v -4.3 6.2 -5.8
v -4 6.2 -5.8
v -3.8 6.2 -5.8
v -3.7 6.2 -5.8
v -4.3 6.2 -6.3
v -4.2 6.2 -6.3
v -4.3 6.2 -6.4
v -4.2 6.2 -6.4
v -4.3 6.3 -5.3
v -4.2 6.3 -5.3
v -4.3 6.3 -5.4
v -4.2 6.3 -5.4
v -4 6.3 -5.4
v -4.2 6.3 -5.5
v -4 6.3 -5.5
v -4.2 6.3 -5.6
v -4.1 6.3 -5.6
v -4.9 6.3 -5.7
v -4.7 6.3 -5.7
v -4.1 6.3 -5.7
v -4 6.3 -5.7
v -4.9 6.3 -5.8
v -4.7 6.3 -5.8
v -4.2 6.3 -5.8
v -4.1 6.3 -5.8
v -4 6.3 -5.8
v -4.3 6.3 -5.9
v -4.2 6.3 -5.9
v -4.3 6.3 -6
v -4.2 6.3 -6
v -4.5 6.3 -6.1
v -4.2 6.3 -6.1
v -4.5 6.3 -6.2
v -4.3 6.3 -6.2
v -4.3 6.3 -6.3
v -4.2 6.3 -6.3
v -4.3 6.4 -5.2
v -4.2 6.4 -5.2
v -4.3 6.4 -5.3
v -4.2 6.4 -5.3
v -4.7 6.4 -5.7
v -4.5 6.4 -5.7
v -3.9 6.4 -5.7
v -3.8 6.4 -5.7
v -3.7 6.4 -5.7
v -4.7 6.4 -5.8
v -4.5 6.4 -5.8
v -3.9 6.4 -5.8
v -3.8 6.4 -5.8
v -3.7 6.4 -5.8
v -4.3 6.4 -6
v -4.2 6.4 -6
v -4.7 6.4 -6.1
v -4.6 6.4 -6.1
v -4.3 6.4 -6.1
v -4.2 6.4 -6.1
v -4.7 6.4 -6.2
v -4.6 6.4 -6.2
v -4.5 6.4 -6.2
v -4.6 6.4 -6.3
v -4.5 6.4 -6.3
v -4.3 6.5 -4.9
v -4.2 6.5 -4.9
v -4.3 6.5 -5.2
v -4.2 6.5 -5.2
v -4 6.5 -5.3
v -3.9 6.5 -5.3
v -4.2 6.5 -5.4
v -4 6.5 -5.4
v -3.9 6.5 -5.4
v -3.8 6.5 -5.4
v -4.2 6.5 -5.5
v -4 6.5 -5.5
v -3.9 6.5 -5.5
v -3.8 6.5 -5.5
v -3.7 6.5 -5.7
v -3.6 6.5 -5.7
v -3.7 6.5 -5.8
v -3.6 6.5 -5.8
v -4.3 6.5 -6.1
v -4.2 6.5 -6.1
v -4.8 6.5 -6.2
v -4.7 6.5 -6.2
v -4.6 6.5 -6.2
v -4.6 6.5 -6.3
v -4.8 6.5 -6.4
v -4.7 6.5 -6.4
v -4.3 6.5 -6.4
v -4.2 6.5 -6.4
v -4.7 6.5 -6.5
v -4.6 6.5 -6.5
v -3.9 6.6 -5.1
v -3.8 6.6 -5.1
v -3.8 6.6 -5.2
v -3.7 6.6 -5.2
v -3.9 6.6 -5.3
v -3.9 6.6 -5.4
v -3.8 6.6 -5.4
v -3.7 6.6 -5.4
v -4.8 6.6 -5.7
v -4.7 6.6 -5.7
v -3.6 6.6 -5.7
v -3.3 6.6 -5.7
v -4.8 6.6 -5.8
v -4.7 6.6 -5.8
v -3.6 6.6 -5.8
v -3.3 6.6 -5.8
v -4.3 6.6 -6.4
v -4.2 6.6 -6.4
v -4.3 6.6 -6.7
v -4.2 6.6 -6.7
v -5 6.7 -5.7
v -4.8 6.7 -5.7
v -4.3 6.7 -5.7
v -4.2 6.7 -5.7
v -3.3 6.7 -5.7
v -3.2 6.7 -5.7
v -5 6.7 -5.8
v -4.8 6.7 -5.8
v -4.3 6.7 -5.8
v -4.2 6.7 -5.8
v -3.3 6.7 -5.8
v -3.2 6.7 -5.8
v -4.4 5.1 -5.7
v -4.3 5.1 -5.7
v -4.4 5.1 -5.8
v -4.3 5.1 -5.8
v -4.3 5.8 -5.1
v -4.2 5.8 -5.1
v -4.3 5.8 -5.2
v -4.2 5.8 -5.2
v -4 5.8 -5.3
v -3.9 5.8 -5.3
v -3.8 5.8 -5.3
v -3.7 5.8 -5.3
v -4 5.8 -5.4
v -3.9 5.8 -5.4
v -3.8 5.8 -5.4
v -3.7 5.8 -5.4
v -3.9 5.8 -5.5
v -3.8 5.8 -5.5
v -5.1 5.8 -5.7
v -5 5.8 -5.7
v -4.2 5.8 -5.7
v -4.1 5.8 -5.7
v -5.1 5.8 -5.8
v -5 5.8 -5.8
v -4.2 5.8 -5.8
v -4.1 5.8 -5.8
v -4.8 5.8 -6.2
v -4.7 5.8 -6.2
v -4.8 5.8 -6.3
v -4.7 5.8 -6.3
v -4.3 5.8 -6.3
v -4.2 5.8 -6.3
v -4.3 5.8 -6.5
v -4.2 5.8 -6.5
v -4.2 5.9 -5.4
v -4 5.9 -5.4
v -4.2 5.9 -5.5
v -4 5.9 -5.5
v -5 5.9 -5.7
v -4.9 5.9 -5.7
v -5 5.9 -5.8
v -4.9 5.9 -5.8
v -4.3 5.9 -6.2
v -4.2 5.9 -6.2
v -4.3 5.9 -6.3
v -4.2 5.9 -6.3
v -4.3 6 -5.2
v -4.2 6 -5.2
v -4.3 6 -5.3
v -4.2 6 -5.3
v -4.9 6 -5.7
v -4.8 6 -5.7
v -3.4 6 -5.7
v -3.3 6 -5.7
v -4.9 6 -5.8
v -4.8 6 -5.8
v -3.4 6 -5.8
v -3.3 6 -5.8
v -4.3 6 -6
v -4.2 6 -6
v -4.7 6 -6.1
v -4.6 6 -6.1
v -4.3 6 -6.1
v -4.7 6 -6.2
v -4.6 6 -6.2
v -4.5 6 -6.2
v -4.3 6 -6.2
v -4.2 6 -6.2
v -4.6 6 -6.3
v -4.5 6 -6.3
v -3.9 6.1 -5.1
v -3.8 6.1 -5.1
v -3.9 6.1 -5.2
v -3.8 6.1 -5.2
v -3.7 6.1 -5.2
v -4.3 6.1 -5.3
v -4.2 6.1 -5.3
v -3.8 6.1 -5.3
v -3.7 6.1 -5.3
v -4.3 6.1 -5.4
v -4.2 6.1 -5.4
v -3.9 6.1 -5.4
v -3.8 6.1 -5.4
v -4.3 6.1 -5.6
v -4.2 6.1 -5.6
v -4.1 6.1 -5.6
v -4.8 6.1 -5.7
v -4.7 6.1 -5.7
v -4.4 6.1 -5.7
v -4.3 6.1 -5.7
v -4.2 6.1 -5.7
v -4.1 6.1 -5.7
v -3.6 6.1 -5.7
v -3.4 6.1 -5.7
v -4.8 6.1 -5.8
v -4.7 6.1 -5.8
v -4.4 6.1 -5.8
v -4.3 6.1 -5.8
v -3.6 6.1 -5.8
v -3.4 6.1 -5.8
v -4.3 6.1 -5.9
v -4.2 6.1 -5.9
v -4.3 6.1 -6
v -4.2 6.1 -6
v -4.5 6.1 -6.1
v -4.4 6.1 -6.1
v -4.3 6.1 -6.1
v -4.5 6.1 -6.2
v -4.4 6.1 -6.2
v -4.3 6.1 -6.2
v -4.3 6.1 -6.5
v -4.2 6.1 -6.5
v -4.3 6.1 -6.6
v -4.2 6.1 -6.6
v -3.8 6.2 -5.3
v -3.7 6.2 -5.3
v -3.8 6.2 -5.4
v -3.7 6.2 -5.4
v -4.7 6.2 -5.7
v -4.5 6.2 -5.7
v -4.2 6.2 -5.7
v -4.1 6.2 -5.7
v -4 6.2 -5.7
v -3.7 6.2 -5.7
v -3.6 6.2 -5.7
v -4.7 6.2 -5.8
v -4.5 6.2 -5.8
v -4.2 6.2 -5.8
v -4.1 6.2 -5.8
v -4 6.2 -5.8
v -3.7 6.2 -5.8
v -3.6 6.2 -5.8
v -4.3 6.2 -6.4
v -4.2 6.2 -6.4
v -4.3 6.2 -6.5
v -4.2 6.2 -6.5
v -4 6.3 -5.3
v -3.9 6.3 -5.3
v -4.3 6.3 -5.4
v -4.2 6.3 -5.4
v -4 6.3 -5.4
v -3.9 6.3 -5.4
v -3.8 6.3 -5.4
v -4.3 6.3 -5.5
v -4.2 6.3 -5.5
v -3.9 6.3 -5.5
v -3.8 6.3 -5.5
v -4.2 6.3 -5.6
v -4.3 6.3 -5.7
v -3.9 6.3 -5.7
v -3.8 6.3 -5.7
v -3.7 6.3 -5.7
v -4.4 6.3 -5.8
v -4.3 6.3 -5.8
v -4.2 6.3 -5.8
v -3.9 6.3 -5.8
v -3.8 6.3 -5.8
v -3.7 6.3 -5.8
v -4.3 6.3 -5.9
v -4.2 6.3 -5.9
v -4.4 6.3 -6
v -4.3 6.3 -6
v -4.3 6.3 -6.3
v -4.2 6.3 -6.3
v -4.3 6.3 -6.4
v -4.2 6.3 -6.4
v -4.3 6.4 -5.3
v -4.2 6.4 -5.3
v -4.3 6.4 -5.4
v -4.2 6.4 -5.4
v -4 6.4 -5.4
v -4.2 6.4 -5.5
v -4 6.4 -5.5
v -4.2 6.4 -5.6
v -4.1 6.4 -5.6
v -4.9 6.4 -5.7
v -4.7 6.4 -5.7
v -4.5 6.4 -5.7
v -4.4 6.4 -5.7
v -4.1 6.4 -5.7
v -4 6.4 -5.7
v -4.9 6.4 -5.8
v -4.7 6.4 -5.8
v -4.5 6.4 -5.8
v -4.4 6.4 -5.8
v -4.2 6.4 -5.8
v -4.1 6.4 -5.8
v -4 6.4 -5.8
v -4.3 6.4 -5.9
v -4.2 6.4 -5.9
v -4.3 6.4 -6
v -4.2 6.4 -6
v -4.5 6.4 -6.1
v -4.3 6.4 -6.1
v -4.2 6.4 -6.1
v -4.5 6.4 -6.2
v -4.3 6.4 -6.2
v -4.3 6.4 -6.3
v -4.2 6.4 -6.3
v -4.3 6.5 -5.2
v -4.2 6.5 -5.2
v -4.3 6.5 -5.3
v -4.2 6.5 -5.3
v -4.6 6.5 -5.7
v -4.5 6.5 -5.7
v -4 6.5 -5.7
v -3.8 6.5 -5.7
v -4.6 6.5 -5.8
v -4.5 6.5 -5.8
v -4 6.5 -5.8
v -3.8 6.5 -5.8
v -4.3 6.5 -6
v -4.2 6.5 -6
v -4.7 6.5 -6.1
v -4.6 6.5 -6.1
v -4.3 6.5 -6.1
v -4.2 6.5 -6.1
v -4.7 6.5 -6.2
v -4.6 6.5 -6.2
v -4.5 6.5 -6.2
v -4.6 6.5 -6.3
v -4.5 6.5 -6.3
v -4.3 6.6 -4.9
v -4.2 6.6 -4.9
v -4.3 6.6 -5.2
v -4.2 6.6 -5.2
v -4 6.6 -5.3
v -3.9 6.6 -5.3
v -4.2 6.6 -5.4
v -4 6.6 -5.4
v -3.9 6.6 -5.4
v -3.8 6.6 -5.4
v -4.2 6.6 -5.5
v -4 6.6 -5.5
v -3.9 6.6 -5.5
v -3.8 6.6 -5.5
v -4.7 6.6 -5.7
v -4.6 6.6 -5.7
v -3.8 6.6 -5.7
v -3.7 6.6 -5.7
v -3.6 6.6 -5.7
v -4.7 6.6 -5.8
v -4.6 6.6 -5.8
v -3.8 6.6 -5.8
v -3.7 6.6 -5.8
v -3.6 6.6 -5.8
v -4.3 6.6 -6.1
v -4.2 6.6 -6.1
v -4.8 6.6 -6.2
v -4.6 6.6 -6.2
v -4.8 6.6 -6.4
v -4.7 6.6 -6.4
v -4.3 6.6 -6.4
v -4.2 6.6 -6.4
v -4.7 6.6 -6.5
v -4.6 6.6 -6.5
v -3.9 6.7 -5.1
v -3.8 6.7 -5.1
v -3.8 6.7 -5.2
v -3.7 6.7 -5.2
v -3.9 6.7 -5.4
v -3.7 6.7 -5.4
v -4.8 6.7 -5.7
v -4.7 6.7 -5.7
v -3.6 6.7 -5.7
v -3.3 6.7 -5.7
v -4.8 6.7 -5.8
v -4.7 6.7 -5.8
v -3.6 6.7 -5.8
v -3.3 6.7 -5.8
v -4.3 6.7 -6.4
v -4.2 6.7 -6.4
v -4.3 6.7 -6.7
v -4.2 6.7 -6.7
v -5 6.8 -5.7
v -4.8 6.8 -5.7
v -4.4 6.8 -5.7
v -4.3 6.8 -5.7
v -3.3 6.8 -5.7
v -3.2 6.8 -5.7
v -5 6.8 -5.8
v -4.8 6.8 -5.8
v -4.4 6.8 -5.8
v -4.3 6.8 -5.8
v -3.3 6.8 -5.8
v -3.2 6.8 -5.8
v -4.3 6.9 -5.7
v -4.2 6.9 -5.7
v -4.3 6.9 -5.8
v -4.2 6.9 -5.8

# faces
f 3/5/1 2/5/1 1/5/1
f 4/5/1 2/5/1 3/5/1
f 7/5/1 6/5/1 5/5/1
f 8/5/1 6/5/1 7/5/1
f 11/3/1 10/3/1 9/3/1
f 12/3/1 10/3/1 11/3/1
f 15/5/1 14/5/1 13/5/1
f 16/5/1 14/5/1 15/5/1
f 19/4/1 18/4/1 17/4/1
f 20/4/1 18/4/1 19/4/1
f 23/5/1 22/5/1 21/5/1
f 24/5/1 22/5/1 23/5/1
f 27/4/1 26/4/1 25/4/1
f 28/4/1 26/4/1 27/4/1
f 33/3/1 30/3/1 29/3/1
f 34/3/1 30/3/1 33/3/1
f 35/3/1 32/3/1 31/3/1
f 36/3/1 32/3/1 35/3/1
f 39/5/1 38/5/1 37/5/1
f 40/5/1 38/5/1 39/5/1
f 43/5/1 42/5/1 41/5/1
f 44/5/1 42/5/1 43/5/1
f 49/3/1 46/3/1 45/3/1
f 50/3/1 46/3/1 49/3/1
f 51/3/1 48/3/1 47/3/1
f 52/3/1 48/3/1 51/3/1
f 55/4/1 50/4/1 49/4/1
f 56/4/1 50/4/1 55/4/1
f 57/3/1 54/3/1 53/3/1
f 58/3/1 54/3/1 57/3/1
f 61/5/1 60/5/1 59/5/1
f 62/5/1 60/5/1 61/5/1
f 65/3/1 64/3/1 63/3/1
f 66/3/1 64/3/1 65/3/1
f 69/5/1 68/5/1 67/5/1
f 70/5/1 68/5/1 69/5/1
f 73/5/1 72/5/1 71/5/1
f 74/5/1 72/5/1 73/5/1
f 77/3/1 74/3/1 73/3/1
f 78/3/1 74/3/1 77/3/1
f 79/3/1 76/3/1 75/3/1
f 80/3/1 76/3/1 79/3/1
f 83/2/1 82/2/1 81/2/1
f 84/2/1 82/2/1 83/2/1
f 85/1/1 84/1/1 83/1/1
f 86/1/1 84/1/1 85/1/1
f 87/2/1 86/2/1 85/2/1
f 88/2/1 86/2/1 87/2/1
f 91/5/1 90/5/1 89/5/1
f 92/5/1 90/5/1 91/5/1
f 95/4/1 93/4/1 92/4/1
f 96/3/1 94/3/1 93/3/1
f 96/4/1 93/4/1 95/4/1
f 97/3/1 96/3/1 95/3/1
f 98/3/1 94/3/1 96/3/1
f 98/3/1 96/3/1 97/3/1
f 101/3/1 100/3/1 99/3/1
f 102/3/1 100/3/1 101/3/1
f 105/1/1 104/1/1 103/1/1
f 106/1/1 104/1/1 105/1/1
f 107/2/1 106/2/1 105/2/1
f 108/2/1 106/2/1 107/2/1
f 113/5/1 108/5/1 107/5/1
f 114/5/1 108/5/1 113/5/1
f 116/3/1 110/3/1 109/3/1
f 117/5/1 112/5/1 111/5/1
f 118/5/1 112/5/1 117/5/1
f 120/1/1 114/1/1 113/1/1
f 121/1/1 114/1/1 120/1/1
f 123/3/1 116/3/1 115/3/1
f 124/3/1 110/3/1 116/3/1
f 124/3/1 116/3/1 123/3/1
f 126/3/1 123/3/1 122/3/1
f 127/3/1 123/3/1 126/3/1
f 128/5/1 119/5/1 118/5/1
f 129/5/1 119/5/1 128/5/1
f 132/4/1 121/4/1 120/4/1
f 133/4/1 121/4/1 132/4/1
f 135/3/1 126/3/1 125/3/1
f 136/3/1 126/3/1 135/3/1
f 137/3/1 126/3/1 136/3/1
f 140/5/1 130/5/1 129/5/1
f 141/3/1 131/3/1 130/3/1
f 141/5/1 130/5/1 140/5/1
f 142/3/1 131/3/1 141/3/1
f 145/3/1 135/3/1 134/3/1
f 146/3/1 135/3/1 145/3/1
f 148/3/1 139/3/1 138/3/1
f 149/3/1 139/3/1 148/3/1
f 152/5/1 143/5/1 142/5/1
f 153/3/1 144/3/1 143/3/1
f 153/5/1 143/5/1 152/5/1
f 154/3/1 144/3/1 153/3/1
f 156/3/1 148/3/1 147/3/1
f 157/3/1 148/3/1 156/3/1
f 159/4/1 151/4/1 150/4/1
f 160/3/1 152/3/1 151/3/1
f 160/3/1 153/3/1 152/3/1
f 160/4/1 151/4/1 159/4/1
f 161/3/1 153/3/1 160/3/1
f 165/3/1 156/3/1 155/3/1
f 166/3/1 156/3/1 165/3/1
f 168/5/1 159/5/1 158/5/1
f 169/5/1 159/5/1 168/5/1
f 170/3/1 163/3/1 162/3/1
f 171/3/1 163/3/1 170/3/1
f 173/3/1 165/3/1 164/3/1
f 174/3/1 165/3/1 173/3/1
f 176/3/1 168/3/1 167/3/1
f 177/3/1 168/3/1 176/3/1
f 178/3/1 172/3/1 171/3/1
f 179/3/1 172/3/1 178/3/1
f 181/3/1 176/3/1 175/3/1
f 182/3/1 176/3/1 181/3/1
f 183/3/1 180/3/1 179/3/1
f 184/3/1 180/3/1 183/3/1
f 186/3/1 185/3/1 184/3/1
f 187/3/1 185/3/1 186/3/1
f 190/3/1 189/3/1 188/3/1
f 191/3/1 189/3/1 190/3/1
f 194/5/1 193/5/1 192/5/1
f 195/5/1 193/5/1 194/5/1
f 198/5/1 197/5/1 196/5/1
f 199/5/1 197/5/1 198/5/1
f 204/3/1 201/3/1 200/3/1
f 205/3/1 201/3/1 204/3/1
f 206/3/1 203/3/1 202/3/1
f 207/3/1 203/3/1 206/3/1
f 210/4/1 209/4/1 208/4/1
f 211/4/1 209/4/1 210/4/1
f 214/5/1 213/5/1 212/5/1
f 215/5/1 213/5/1 214/5/1
f 220/5/1 217/5/1 216/5/1
f 221/5/1 217/5/1 220/5/1
f 222/3/1 219/3/1 218/3/1
f 223/3/1 219/3/1 222/3/1
f 228/5/1 225/5/1 224/5/1
f 229/5/1 225/5/1 228/5/1
f 230/3/1 227/3/1 226/3/1
f 231/3/1 227/3/1 230/3/1
f 234/5/1 233/5/1 232/5/1
f 235/5/1 233/5/1 234/5/1
f 239/5/1 237/5/1 236/5/1
f 240/3/1 238/3/1 237/3/1
f 240/5/1 237/5/1 239/5/1
f 241/3/1 238/3/1 240/3/1
f 244/5/1 243/5/1 242/5/1
f 245/5/1 243/5/1 244/5/1
f 250/3/1 247/3/1 246/3/1
f 251/3/1 247/3/1 250/3/1
f 252/3/1 249/3/1 248/3/1
f 252/3/1 250/3/1 249/3/1
f 253/3/1 250/3/1 252/3/1
f 256/5/1 255/5/1 254/5/1
f 257/5/1 256/5/1 254/5/1
f 258/5/1 256/5/1 257/5/1
f 261/5/1 260/5/1 259/5/1
f 262/5/1 260/5/1 261/5/1
f 265/3/1 264/3/1 263/3/1
f 266/3/1 264/3/1 265/3/1
f 269/5/1 268/5/1 267/5/1
f 270/5/1 268/5/1 269/5/1
f 273/5/1 272/5/1 271/5/1
f 274/5/1 272/5/1 273/5/1
f 277/3/1 276/3/1 275/3/1
f 278/3/1 276/3/1 277/3/1
f 281/5/1 280/5/1 279/5/1
f 282/5/1 280/5/1 281/5/1
f 285/4/1 284/4/1 283/4/1
f 286/4/1 284/4/1 285/4/1
f 287/5/2 288/5/2 289/5/2
f 289/5/2 288/5/2 290/5/2
f 291/5/2 292/5/2 293/5/2
f 293/5/2 292/5/2 294/5/2
f 295/5/2 296/5/2 297/5/2
f 297/5/2 296/5/2 298/5/2
f 299/3/2 300/3/2 301/3/2
f 301/3/2 300/3/2 302/3/2
f 303/5/2 304/5/2 305/5/2
f 305/5/2 304/5/2 306/5/2
f 307/4/2 308/4/2 309/4/2
f 309/4/2 308/4/2 310/4/2
f 311/3/2 312/3/2 313/3/2
f 313/3/2 312/3/2 314/3/2
f 315/5/2 316/5/2 319/5/2
f 319/5/2 316/5/2 320/5/2
f 317/5/2 318/5/2 321/5/2
f 321/5/2 318/5/2 322/5/2
f 323/3/2 324/3/2 327/3/2
f 327/3/2 324/3/2 328/3/2
f 325/4/2 326/4/2 331/4/2
f 331/4/2 326/4/2 332/4/2
f 329/3/2 330/3/2 333/3/2
f 328/3/2 329/3/2 333/3/2
f 333/3/2 330/3/2 334/3/2
f 335/5/2 336/5/2 337/5/2
f 337/5/2 336/5/2 338/5/2
f 339/3/2 340/3/2 343/3/2
f 343/3/2 340/3/2 344/3/2
f 341/3/2 342/3/2 345/3/2
f 345/3/2 342/3/2 346/3/2
f 347/4/2 348/4/2 349/4/2
f 349/4/2 348/4/2 350/4/2
f 351/3/2 352/3/2 355/3/2
f 355/3/2 352/3/2 356/3/2
f 353/3/2 354/3/2 359/3/2
f 359/3/2 354/3/2 360/3/2
f 357/5/2 358/5/2 361/5/2
f 361/5/2 358/5/2 362/5/2
f 361/3/2 362/3/2 363/3/2
f 363/3/2 362/3/2 364/3/2
f 365/2/2 366/2/2 367/2/2
f 367/2/2 366/2/2 368/2/2
f 367/1/2 368/1/2 369/1/2
f 369/1/2 368/1/2 370/1/2
f 369/2/2 370/2/2 371/2/2
f 371/2/2 370/2/2 372/2/2
f 373/3/2 374/3/2 378/3/2
f 375/5/2 376/5/2 379/5/2
f 379/5/2 376/5/2 380/5/2
f 377/3/2 378/3/2 385/3/2
f 378/3/2 374/3/2 386/3/2
f 385/3/2 378/3/2 386/3/2
f 384/3/2 385/3/2 388/3/2
f 388/3/2 385/3/2 389/3/2
f 380/5/2 381/5/2 390/5/2
f 390/5/2 381/5/2 391/5/2
f 382/4/2 383/4/2 394/4/2
f 394/4/2 383/4/2 395/4/2
f 387/3/2 388/3/2 397/3/2
f 397/3/2 388/3/2 398/3/2
f 391/5/2 392/5/2 401/5/2
f 392/3/2 393/3/2 402/3/2
f 401/5/2 392/5/2 402/5/2
f 402/3/2 393/3/2 403/3/2
f 396/3/2 397/3/2 406/3/2
f 406/3/2 397/3/2 407/3/2
f 399/3/2 400/3/2 409/3/2
f 409/3/2 400/3/2 410/3/2
f 403/5/2 404/5/2 413/5/2
f 413/5/2 404/5/2 414/5/2
f 405/3/2 406/3/2 415/3/2
f 408/3/2 409/3/2 417/3/2
f 417/3/2 409/3/2 418/3/2
f 411/4/2 412/4/2 420/4/2
f 414/3/2 415/3/2 421/3/2
f 413/3/2 414/3/2 421/3/2
f 420/4/2 412/4/2 421/4/2
f 412/3/2 413/3/2 421/3/2
f 421/3/2 415/3/2 422/3/2
f 415/3/2 406/3/2 423/3/2
f 422/3/2 415/3/2 423/3/2
f 423/3/2 406/3/2 424/3/2
f 416/3/2 417/3/2 427/3/2
f 427/3/2 417/3/2 428/3/2
f 419/5/2 420/5/2 430/5/2
f 430/5/2 420/5/2 431/5/2
f 424/3/2 425/3/2 432/3/2
f 432/3/2 425/3/2 433/3/2
f 426/3/2 427/3/2 434/3/2
f 434/3/2 427/3/2 435/3/2
f 429/3/2 430/3/2 437/3/2
f 437/3/2 430/3/2 438/3/2
f 433/3/2 434/3/2 439/3/2
f 439/3/2 434/3/2 440/3/2
f 436/3/2 437/3/2 442/3/2
f 442/3/2 437/3/2 443/3/2
f 440/3/2 441/3/2 444/3/2
f 444/3/2 441/3/2 445/3/2
f 445/3/2 446/3/2 449/3/2
f 449/3/2 446/3/2 450/3/2
f 447/3/2 448/3/2 451/3/2
f 451/3/2 448/3/2 452/3/2
f 453/2/2 454/2/2 455/2/2
f 455/2/2 454/2/2 456/2/2
f 455/1/2 456/1/2 457/1/2
f 457/1/2 456/1/2 458/1/2
f 457/2/2 458/2/2 459/2/2
f 459/2/2 458/2/2 460/2/2
f 459/1/2 460/1/2 461/1/2
f 461/1/2 460/1/2 462/1/2
f 461/5/2 462/5/2 463/5/2
f 463/5/2 462/5/2 464/5/2
f 465/5/2 466/5/2 468/5/2
f 466/3/2 467/3/2 469/3/2
f 468/5/2 466/5/2 469/5/2
f 469/3/2 467/3/2 470/3/2
f 471/3/2 472/3/2 473/3/2
f 473/3/2 472/3/2 474/3/2
f 475/5/2 476/5/2 477/5/2
f 477/5/2 476/5/2 478/5/2
f 479/5/2 480/5/2 481/5/2
f 481/5/2 480/5/2 482/5/2
f 483/3/2 484/3/2 485/3/2
f 485/3/2 484/3/2 486/3/2
f 487/4/2 488/4/2 489/4/2
f 489/4/2 488/4/2 490/4/2
f 491/5/2 492/5/2 493/5/2
f 493/5/2 492/5/2 494/5/2
f 495/5/2 496/5/2 497/5/2
f 497/5/2 496/5/2 498/5/2
f 499/3/2 500/3/2 501/3/2
f 501/3/2 500/3/2 502/3/2
f 503/3/2 504/3/2 505/3/2
f 505/3/2 504/3/2 506/3/2
f 507/5/2 508/5/2 509/5/2
f 509/5/2 508/5/2 510/5/2
f 511/5/2 512/5/2 515/5/2
f 515/5/2 512/5/2 516/5/2
f 513/3/2 514/3/2 517/3/2
f 517/3/2 514/3/2 518/3/2
f 519/5/2 520/5/2 521/5/2
f 521/5/2 520/5/2 522/5/2
f 523/3/2 524/3/2 527/3/2
f 527/3/2 524/3/2 528/3/2
f 525/3/2 526/3/2 529/3/2
f 529/3/2 526/3/2 530/3/2
f 531/5/2 532/5/2 533/5/2
f 533/5/2 532/5/2 534/5/2
f 535/4/2 536/4/2 537/4/2
f 537/4/2 536/4/2 538/4/2
f 538/5/2 539/5/2 540/5/2
f 540/5/2 539/5/2 541/5/2
f 542/5/2 543/5/2 544/5/2
f 544/5/2 543/5/2 545/5/2
f 546/3/2 547/3/2 548/3/2
f 548/3/2 547/3/2 549/3/2
f 550/3/2 551/3/2 552/3/2
f 552/3/2 551/3/2 553/3/2
f 554/5/2 555/5/2 556/5/2
f 556/5/2 555/5/2 557/5/2
f 558/4/2 559/4/2 560/4/2
f 560/4/2 559/4/2 561/4/2
f 562/5/2 563/5/2 564/5/2
f 564/5/2 563/5/2 565/5/2
f 566/5/2 567/5/2 568/5/2
f 568/5/2 567/5/2 569/5/2
f 570/3/2 571/3/2 572/3/2
f 572/3/2 571/3/2 573/3/2
f 574/4/2 575/4/2 576/4/2
f 576/4/2 575/4/2 577/4/2
f 580/3/3 579/3/3 578/3/3
f 581/3/3 579/3/3 580/3/3
f 584/5/3 583/5/3 582/5/3
f 585/5/3 583/5/3 584/5/3
f 590/5/3 587/5/3 586/5/3
f 591/5/3 587/5/3 590/5/3
f 592/3/3 589/3/3 588/3/3
f 593/3/3 589/3/3 592/3/3
f 598/5/3 595/5/3 594/5/3
f 599/5/3 595/5/3 598/5/3
f 600/3/3 597/3/3 596/3/3
f 601/3/3 597/3/3 600/3/3
f 606/4/3 603/4/3 602/4/3
f 607/4/3 603/4/3 606/4/3
f 608/3/3 605/3/3 604/3/3
f 609/3/3 605/3/3 608/3/3
f 614/5/3 611/5/3 610/5/3
f 615/5/3 611/5/3 614/5/3
f 616/5/3 613/5/3 612/5/3
f 617/5/3 613/5/3 616/5/3
f 624/5/3 619/5/3 618/5/3
f 625/5/3 619/5/3 624/5/3
f 626/5/3 621/5/3 620/5/3
f 627/5/3 621/5/3 626/5/3
f 628/3/3 623/3/3 622/3/3
f 629/3/3 623/3/3 628/3/3
f 634/5/3 631/5/3 630/5/3
f 635/5/3 631/5/3 634/5/3
f 636/5/3 633/5/3 632/5/3
f 637/5/3 633/5/3 636/5/3
f 642/4/3 639/4/3 638/4/3
f 643/4/3 639/4/3 642/4/3
f 647/5/3 641/5/3 640/5/3
f 648/5/3 641/5/3 647/5/3
f 649/3/3 644/3/3 643/3/3
f 650/3/3 644/3/3 649/3/3
f 651/4/3 646/4/3 645/4/3
f 652/4/3 646/4/3 651/4/3
f 659/5/3 654/5/3 653/5/3
f 660/5/3 654/5/3 659/5/3
f 661/5/3 656/5/3 655/5/3
f 662/5/3 656/5/3 661/5/3
f 663/3/3 658/3/3 657/3/3
f 664/3/3 658/3/3 663/3/3
f 668/5/3 666/5/3 665/5/3
f 669/5/3 666/5/3 668/5/3
f 672/5/3 668/5/3 667/5/3
f 673/5/3 668/5/3 672/5/3
f 674/3/3 671/3/3 670/3/3
f 675/3/3 671/3/3 674/3/3
f 678/5/3 677/5/3 676/5/3
f 679/5/3 677/5/3 678/5/3
f 683/5/3 680/5/3 679/5/3
f 684/5/3 680/5/3 683/5/3
f 688/5/3 685/5/3 684/5/3
f 689/5/3 685/5/3 688/5/3
f 692/3/3 682/3/3 681/3/3
f 693/3/3 682/3/3 692/3/3
f 694/4/3 690/4/3 689/4/3
f 695/4/3 690/4/3 694/4/3
f 697/4/3 687/4/3 686/4/3
f 698/4/3 687/4/3 697/4/3
f 700/3/3 692/3/3 691/3/3
f 701/3/3 692/3/3 700/3/3
f 702/5/3 696/5/3 695/5/3
f 702/5/3 695/5/3 694/5/3
f 703/5/3 696/5/3 702/5/3
f 704/3/3 699/3/3 698/3/3
f 704/4/3 700/4/3 699/4/3
f 705/4/3 700/4/3 704/4/3
f 706/5/3 696/5/3 703/5/3
f 707/5/3 696/5/3 706/5/3
f 709/3/3 704/3/3 698/3/3
f 710/3/3 704/3/3 709/3/3
f 716/4/3 707/4/3 706/4/3
f 717/5/3 708/5/3 707/5/3
f 717/4/3 707/4/3 716/4/3
f 718/3/3 709/3/3 708/3/3
f 718/5/3 708/5/3 717/5/3
f 719/3/3 709/3/3 718/3/3
f 721/2/3 712/2/3 711/2/3
f 721/1/3 713/1/3 712/1/3
f 722/1/3 713/1/3 721/1/3
f 723/1/3 713/1/3 722/1/3
f 724/2/3 714/2/3 713/2/3
f 724/1/3 713/1/3 723/1/3
f 725/2/3 714/2/3 724/2/3
f 730/5/3 716/5/3 715/5/3
f 731/5/3 716/5/3 730/5/3
f 732/5/3 719/5/3 718/5/3
f 732/5/3 718/5/3 717/5/3
f 733/5/3 719/5/3 732/5/3
f 734/3/3 720/3/3 719/3/3
f 734/5/3 719/5/3 733/5/3
f 735/3/3 720/3/3 734/3/3
f 736/3/3 720/3/3 735/3/3
f 738/2/3 721/2/3 711/2/3
f 738/2/3 722/2/3 721/2/3
f 739/1/3 723/1/3 722/1/3
f 739/2/3 722/2/3 738/2/3
f 740/2/3 724/2/3 723/2/3
f 740/1/3 723/1/3 739/1/3
f 740/2/3 725/2/3 724/2/3
f 741/2/3 725/2/3 740/2/3
f 742/1/3 726/1/3 725/1/3
f 743/2/3 727/2/3 726/2/3
f 743/1/3 726/1/3 742/1/3
f 744/2/3 727/2/3 743/2/3
f 745/5/3 728/5/3 727/5/3
f 745/2/3 727/2/3 744/2/3
f 746/1/3 729/1/3 728/1/3
f 746/5/3 728/5/3 745/5/3
f 747/4/3 730/4/3 729/4/3
f 747/1/3 729/1/3 746/1/3
f 748/2/3 731/2/3 730/2/3
f 748/4/3 730/4/3 747/4/3
f 749/2/3 731/2/3 748/2/3
f 751/3/3 736/3/3 735/3/3
f 751/3/3 737/3/3 736/3/3
f 752/3/3 737/3/3 751/3/3
f 753/2/3 725/2/3 741/2/3
f 754/1/3 742/1/3 725/1/3
f 754/2/3 725/2/3 753/2/3
f 755/2/3 744/2/3 743/2/3
f 755/1/3 742/1/3 754/1/3
f 755/2/3 743/2/3 742/2/3
f 756/1/3 746/1/3 745/1/3
f 756/2/3 744/2/3 755/2/3
f 756/1/3 745/1/3 744/1/3
f 757/5/3 747/5/3 746/5/3
f 757/1/3 746/1/3 756/1/3
f 758/5/3 747/5/3 757/5/3
f 759/4/3 750/4/3 749/4/3
f 760/4/3 750/4/3 759/4/3
f 763/5/3 760/5/3 759/5/3
f 764/5/3 760/5/3 763/5/3
f 765/4/3 762/4/3 761/4/3
f 766/4/3 762/4/3 765/4/3
f 768/3/3 765/3/3 764/3/3
f 768/3/3 766/3/3 765/3/3
f 769/5/3 767/5/3 766/5/3
f 769/3/3 766/3/3 768/3/3
f 770/3/3 768/3/3 764/3/3
f 771/3/3 768/3/3 770/3/3
f 772/5/3 767/5/3 769/5/3
f 773/5/3 767/5/3 772/5/3
f 776/5/3 771/5/3 770/5/3
f 777/5/3 771/5/3 776/5/3
f 778/3/3 774/3/3 773/3/3
f 778/3/3 773/3/3 772/3/3
f 779/3/3 774/3/3 778/3/3
f 780/3/3 774/3/3 779/3/3
f 782/5/3 776/5/3 775/5/3
f 783/5/3 776/5/3 782/5/3
f 784/4/3 780/4/3 779/4/3
f 785/4/3 780/4/3 784/4/3
f 788/5/3 782/5/3 781/5/3
f 789/5/3 782/5/3 788/5/3
f 790/5/3 788/5/3 787/5/3
f 791/5/3 788/5/3 790/5/3
f 792/3/3 786/3/3 785/3/3
f 793/3/3 786/3/3 792/3/3
f 795/4/3 794/4/3 793/4/3
f 796/4/3 794/4/3 795/4/3
f 799/4/3 798/4/3 797/4/3
f 800/4/3 798/4/3 799/4/3
f 805/3/3 802/3/3 801/3/3
f 806/3/3 802/3/3 805/3/3
f 807/3/3 804/3/3 803/3/3
f 808/3/3 804/3/3 807/3/3
f 813/3/3 810/3/3 809/3/3
f 814/3/3 810/3/3 813/3/3
f 815/3/3 812/3/3 811/3/3
f 816/3/3 812/3/3 815/3/3
f 821/5/3 818/5/3 817/5/3
f 822/5/3 818/5/3 821/5/3
f 823/3/3 820/3/3 819/3/3
f 824/3/3 820/3/3 823/3/3
f 829/5/3 826/5/3 825/5/3
f 830/5/3 826/5/3 829/5/3
f 831/3/3 830/3/3 829/3/3
f 832/3/3 830/3/3 831/3/3
f 833/3/3 828/3/3 827/3/3
f 836/3/3 833/3/3 827/3/3
f 837/3/3 833/3/3 836/3/3
f 838/3/3 835/3/3 834/3/3
f 839/3/3 835/3/3 838/3/3
f 844/5/3 841/5/3 840/5/3
f 845/5/3 841/5/3 844/5/3
f 846/3/3 843/3/3 842/3/3
f 850/3/3 843/3/3 846/3/3
f 851/3/3 843/3/3 850/3/3
f 852/5/3 848/5/3 847/5/3
f 853/5/3 848/5/3 852/5/3
f 854/3/3 850/3/3 849/3/3
f 855/3/3 850/3/3 854/3/3
f 858/3/3 857/3/3 856/3/3
f 859/3/3 857/3/3 858/3/3
f 864/3/3 861/3/3 860/3/3
f 865/3/3 861/3/3 864/3/3
f 866/3/3 863/3/3 862/3/3
f 867/3/3 863/3/3 866/3/3
f 874/3/3 869/3/3 868/3/3
f 875/3/3 869/3/3 874/3/3
f 876/3/3 871/3/3 870/3/3
f 877/3/3 871/3/3 876/3/3
f 878/3/3 873/3/3 872/3/3
f 879/3/3 873/3/3 878/3/3
f 882/3/3 881/3/3 880/3/3
f 883/3/3 881/3/3 882/3/3
f 884/5/4 885/5/4 888/5/4
f 888/5/4 885/5/4 889/5/4
f 886/3/4 887/3/4 890/3/4
f 890/3/4 887/3/4 891/3/4
f 892/5/4 893/5/4 896/5/4
f 896/5/4 893/5/4 897/5/4
f 894/3/4 895/3/4 898/3/4
f 898/3/4 895/3/4 899/3/4
f 900/4/4 901/4/4 902/4/4
f 902/4/4 901/4/4 903/4/4
f 904/5/4 905/5/4 906/5/4
f 906/5/4 905/5/4 907/5/4
f 908/5/4 909/5/4 914/5/4
f 914/5/4 909/5/4 915/5/4
f 910/5/4 911/5/4 918/5/4
f 918/5/4 911/5/4 919/5/4
f 912/3/4 913/3/4 920/3/4
f 920/3/4 913/3/4 921/3/4
f 916/3/4 917/3/4 926/3/4
f 926/3/4 917/3/4 927/3/4
f 921/3/4 922/3/4 929/3/4
f 924/5/4 925/5/4 930/5/4
f 923/5/4 924/5/4 930/5/4
f 930/5/4 925/5/4 931/5/4
f 927/5/4 928/5/4 932/5/4
f 932/5/4 928/5/4 933/5/4
f 929/3/4 922/3/4 934/3/4
f 934/3/4 922/3/4 935/3/4
f 936/5/4 937/5/4 942/5/4
f 942/5/4 937/5/4 943/5/4
f 938/3/4 939/3/4 944/3/4
f 944/3/4 939/3/4 945/3/4
f 940/4/4 941/4/4 946/4/4
f 946/4/4 941/4/4 947/4/4
f 948/5/4 949/5/4 954/5/4
f 954/5/4 949/5/4 955/5/4
f 950/5/4 951/5/4 956/5/4
f 956/5/4 951/5/4 957/5/4
f 952/3/4 953/3/4 958/3/4
f 958/3/4 953/3/4 959/3/4
f 960/3/4 961/3/4 962/3/4
f 962/3/4 961/3/4 963/3/4
f 964/5/4 965/5/4 966/5/4
f 966/5/4 965/5/4 967/5/4
f 967/5/4 968/5/4 971/5/4
f 971/5/4 968/5/4 972/5/4
f 972/5/4 973/5/4 976/5/4
f 976/5/4 973/5/4 977/5/4
f 969/3/4 970/3/4 980/3/4
f 980/3/4 970/3/4 981/3/4
f 977/4/4 978/4/4 982/4/4
f 982/4/4 978/4/4 983/4/4
f 974/4/4 975/4/4 985/4/4
f 985/4/4 975/4/4 986/4/4
f 979/3/4 980/3/4 988/3/4
f 988/3/4 980/3/4 989/3/4
f 983/5/4 984/5/4 990/5/4
f 982/5/4 983/5/4 990/5/4
f 990/5/4 984/5/4 991/5/4
f 986/3/4 987/3/4 992/3/4
f 987/4/4 988/4/4 992/4/4
f 992/4/4 988/4/4 993/4/4
f 991/5/4 984/5/4 994/5/4
f 994/5/4 984/5/4 995/5/4
f 986/3/4 992/3/4 997/3/4
f 997/3/4 992/3/4 998/3/4
f 994/4/4 995/4/4 1004/4/4
f 995/5/4 996/5/4 1005/5/4
f 1004/4/4 995/4/4 1005/4/4
f 996/3/4 997/3/4 1006/3/4
f 1005/5/4 996/5/4 1006/5/4
f 1006/3/4 997/3/4 1007/3/4
f 1000/1/4 1001/1/4 1009/1/4
f 999/2/4 1000/2/4 1009/2/4
f 1009/1/4 1001/1/4 1010/1/4
f 1010/1/4 1001/1/4 1011/1/4
f 1001/2/4 1002/2/4 1012/2/4
f 1011/1/4 1001/1/4 1012/1/4
f 1012/2/4 1002/2/4 1013/2/4
f 1003/5/4 1004/5/4 1018/5/4
f 1018/5/4 1004/5/4 1019/5/4
f 1006/5/4 1007/5/4 1020/5/4
f 1007/3/4 1008/3/4 1021/3/4
f 1020/5/4 1007/5/4 1021/5/4
f 1021/3/4 1008/3/4 1022/3/4
f 1022/3/4 1008/3/4 1023/3/4
f 999/2/4 1009/2/4 1025/2/4
f 1009/2/4 1010/2/4 1025/2/4
f 1010/1/4 1011/1/4 1026/1/4
f 1025/2/4 1010/2/4 1026/2/4
f 1011/2/4 1012/2/4 1027/2/4
f 1026/1/4 1011/1/4 1027/1/4
f 1012/2/4 1013/2/4 1027/2/4
f 1027/2/4 1013/2/4 1028/2/4
f 1013/1/4 1014/1/4 1029/1/4
f 1014/2/4 1015/2/4 1030/2/4
f 1029/1/4 1014/1/4 1030/1/4
f 1030/2/4 1015/2/4 1031/2/4
f 1015/5/4 1016/5/4 1032/5/4
f 1031/2/4 1015/2/4 1032/2/4
f 1016/1/4 1017/1/4 1033/1/4
f 1032/5/4 1016/5/4 1033/5/4
f 1017/4/4 1018/4/4 1034/4/4
f 1033/1/4 1017/1/4 1034/1/4
f 1018/2/4 1019/2/4 1035/2/4
f 1034/4/4 1018/4/4 1035/4/4
f 1035/2/4 1019/2/4 1036/2/4
f 1022/3/4 1023/3/4 1040/3/4
f 1023/3/4 1024/3/4 1040/3/4
f 1040/3/4 1024/3/4 1041/3/4
f 1028/2/4 1013/2/4 1042/2/4
f 1013/1/4 1029/1/4 1043/1/4
f 1042/2/4 1013/2/4 1043/2/4
f 1030/2/4 1031/2/4 1044/2/4
f 1043/1/4 1029/1/4 1044/1/4
f 1029/2/4 1030/2/4 1044/2/4
f 1031/1/4 1032/1/4 1045/1/4
f 1044/2/4 1031/2/4 1045/2/4
f 1032/1/4 1033/1/4 1045/1/4
f 1033/5/4 1034/5/4 1046/5/4
f 1045/1/4 1033/1/4 1046/1/4
f 1046/5/4 1034/5/4 1047/5/4
f 1035/3/4 1036/3/4 1048/3/4
f 1036/4/4 1037/4/4 1049/4/4
f 1048/3/4 1036/3/4 1049/3/4
f 1049/4/4 1037/4/4 1050/4/4
f 1038/3/4 1039/3/4 1051/3/4
f 1051/3/4 1039/3/4 1052/3/4
f 1049/5/4 1050/5/4 1053/5/4
f 1053/5/4 1050/5/4 1054/5/4
f 1051/4/4 1052/4/4 1055/4/4
f 1055/4/4 1052/4/4 1056/4/4
f 1055/3/4 1056/3/4 1058/3/4
f 1054/3/4 1055/3/4 1058/3/4
f 1056/5/4 1057/5/4 1059/5/4
f 1058/3/4 1056/3/4 1059/3/4
f 1054/3/4 1058/3/4 1060/3/4
f 1060/3/4 1058/3/4 1061/3/4
f 1059/5/4 1057/5/4 1062/5/4
f 1062/5/4 1057/5/4 1063/5/4
f 1060/5/4 1061/5/4 1066/5/4
f 1066/5/4 1061/5/4 1067/5/4
f 1063/3/4 1064/3/4 1068/3/4
f 1062/3/4 1063/3/4 1068/3/4
f 1068/3/4 1064/3/4 1069/3/4
f 1069/3/4 1064/3/4 1070/3/4
f 1065/5/4 1066/5/4 1072/5/4
f 1072/5/4 1066/5/4 1073/5/4
f 1069/4/4 1070/4/4 1074/4/4
f 1074/4/4 1070/4/4 1075/4/4
f 1071/5/4 1072/5/4 1078/5/4
f 1078/5/4 1072/5/4 1079/5/4
f 1077/5/4 1078/5/4 1080/5/4
f 1080/5/4 1078/5/4 1081/5/4
f 1075/3/4 1076/3/4 1082/3/4
f 1082/3/4 1076/3/4 1083/3/4
f 1083/4/4 1084/4/4 1085/4/4
f 1085/4/4 1084/4/4 1086/4/4
f 1087/3/4 1088/3/4 1089/3/4
f 1089/3/4 1088/3/4 1090/3/4
f 1091/3/4 1092/3/4 1094/3/4
f 1094/3/4 1092/3/4 1095/3/4
f 1093/3/4 1094/3/4 1097/3/4
f 1097/3/4 1094/3/4 1098/3/4
f 1095/3/4 1096/3/4 1099/3/4
f 1099/3/4 1096/3/4 1100/3/4
f 1101/3/4 1102/3/4 1103/3/4
f 1103/3/4 1102/3/4 1104/3/4
f 1105/5/4 1106/5/4 1109/5/4
f 1109/5/4 1106/5/4 1110/5/4
f 1107/3/4 1108/3/4 1111/3/4
f 1111/3/4 1108/3/4 1112/3/4
f 1113/5/4 1114/5/4 1117/5/4
f 1117/5/4 1114/5/4 1118/5/4
f 1117/3/4 1118/3/4 1120/3/4
f 1120/3/4 1118/3/4 1121/3/4
f 1115/3/4 1116/3/4 1122/3/4
f 1122/3/4 1116/3/4 1123/3/4
f 1119/3/4 1120/3/4 1124/3/4
f 1124/3/4 1120/3/4 1125/3/4
f 1126/5/4 1127/5/4 1128/5/4
f 1128/5/4 1127/5/4 1129/5/4
f 1130/5/4 1131/5/4 1134/5/4
f 1134/5/4 1131/5/4 1135/5/4
f 1132/3/4 1133/3/4 1136/3/4
f 1136/3/4 1133/3/4 1137/3/4
f 1138/3/4 1139/3/4 1142/3/4
f 1142/3/4 1139/3/4 1143/3/4
f 1140/3/4 1141/3/4 1144/3/4
f 1144/3/4 1141/3/4 1145/3/4
f 1146/3/4 1147/3/4 1148/3/4
f 1148/3/4 1147/3/4 1149/3/4
f 1150/3/4 1151/3/4 1154/3/4
f 1154/3/4 1151/3/4 1155/3/4
f 1152/3/4 1153/3/4 1156/3/4
f 1156/3/4 1153/3/4 1157/3/4
f 1158/3/4 1159/3/4 1160/3/4
f 1160/3/4 1159/3/4 1161/3/4
f 1162/3/4 1163/3/4 1166/3/4
f 1166/3/4 1163/3/4 1167/3/4
f 1164/3/4 1165/3/4 1168/3/4
f 1168/3/4 1165/3/4 1169/3/4
f 1170/3/4 1171/3/4 1172/3/4
f 1172/3/4 1171/3/4 1173/3/4
f 1174/3/4 1175/3/4 1176/3/4
f 1176/3/4 1175/3/4 1177/3/4
f 1180/2/5 1179/2/5 1178/2/5
f 1181/2/5 1179/2/5 1180/2/5
f 1184/2/5 1183/2/5 1182/2/5
f 1185/2/5 1183/2/5 1184/2/5
f 1188/5/5 1187/5/5 1186/5/5
f 1189/5/5 1187/5/5 1188/5/5
f 1192/3/5 1191/3/5 1190/3/5
f 1193/3/5 1191/3/5 1192/3/5
f 1196/5/5 1195/5/5 1194/5/5
f 1197/5/5 1195/5/5 1196/5/5
f 1200/5/5 1199/5/5 1198/5/5
f 1201/5/5 1199/5/5 1200/5/5
f 1203/5/5 1202/5/5 1201/5/5
f 1204/5/5 1202/5/5 1203/5/5
f 1207/5/5 1206/5/5 1205/5/5
f 1208/5/5 1206/5/5 1207/5/5
f 1211/5/5 1210/5/5 1209/5/5
f 1212/5/5 1210/5/5 1211/5/5
f 1215/3/5 1214/3/5 1213/3/5
f 1216/3/5 1214/3/5 1215/3/5
f 1219/5/5 1218/5/5 1217/5/5
f 1220/5/5 1218/5/5 1219/5/5
f 1223/5/5 1222/5/5 1221/5/5
f 1224/5/5 1222/5/5 1223/5/5
f 1227/5/5 1226/5/5 1225/5/5
f 1228/5/5 1226/5/5 1227/5/5
f 1231/5/5 1230/5/5 1229/5/5
f 1232/5/5 1230/5/5 1231/5/5
f 1236/5/5 1233/5/5 1232/5/5
f 1237/5/5 1233/5/5 1236/5/5
f 1238/3/5 1235/3/5 1234/3/5
f 1239/3/5 1235/3/5 1238/3/5
f 1244/5/5 1241/5/5 1240/5/5
f 1245/5/5 1241/5/5 1244/5/5
f 1246/5/5 1243/5/5 1242/5/5
f 1247/5/5 1243/5/5 1246/5/5
f 1250/3/5 1249/3/5 1248/3/5
f 1251/3/5 1249/3/5 1250/3/5
f 1254/5/5 1253/5/5 1252/5/5
f 1255/5/5 1253/5/5 1254/5/5
f 1259/3/5 1255/3/5 1254/3/5
f 1259/4/5 1256/4/5 1255/4/5
f 1260/4/5 1256/4/5 1259/4/5
f 1261/5/5 1258/5/5 1257/5/5
f 1262/5/5 1258/5/5 1261/5/5
f 1263/3/5 1259/3/5 1254/3/5
f 1264/3/5 1259/3/5 1263/3/5
f 1265/3/5 1262/3/5 1261/3/5
f 1266/3/5 1262/3/5 1265/3/5
f 1273/5/5 1267/5/5 1266/5/5
f 1274/5/5 1267/5/5 1273/5/5
f 1277/4/5 1269/4/5 1268/4/5
f 1278/5/5 1270/5/5 1269/5/5
f 1278/4/5 1269/4/5 1277/4/5
f 1279/5/5 1270/5/5 1278/5/5
f 1280/5/5 1272/5/5 1271/5/5
f 1281/5/5 1272/5/5 1280/5/5
f 1282/3/5 1274/3/5 1273/3/5
f 1283/3/5 1274/3/5 1282/3/5
f 1284/5/5 1276/5/5 1275/5/5
f 1285/5/5 1276/5/5 1284/5/5
f 1288/3/5 1287/3/5 1286/3/5
f 1289/3/5 1287/3/5 1288/3/5
f 1293/5/5 1291/5/5 1290/5/5
f 1294/3/5 1292/3/5 1291/3/5
f 1294/5/5 1291/5/5 1293/5/5
f 1295/3/5 1292/3/5 1294/3/5
f 1298/3/5 1297/3/5 1296/3/5
f 1299/3/5 1297/3/5 1298/3/5
f 1302/5/5 1301/5/5 1300/5/5
f 1303/5/5 1301/5/5 1302/5/5
f 1309/5/5 1305/5/5 1304/5/5
f 1310/5/5 1305/5/5 1309/5/5
f 1315/5/5 1307/5/5 1306/5/5
f 1316/4/5 1308/4/5 1307/4/5
f 1316/5/5 1307/5/5 1315/5/5
f 1317/4/5 1308/4/5 1316/4/5
f 1320/5/5 1312/5/5 1311/5/5
f 1321/5/5 1312/5/5 1320/5/5
f 1322/5/5 1314/5/5 1313/5/5
f 1323/5/5 1314/5/5 1322/5/5
f 1324/4/5 1318/4/5 1317/4/5
f 1325/3/5 1319/3/5 1318/3/5
f 1325/4/5 1318/4/5 1324/4/5
f 1326/3/5 1319/3/5 1325/3/5
f 1327/3/5 1325/3/5 1324/3/5
f 1328/3/5 1325/3/5 1327/3/5
f 1331/3/5 1330/3/5 1329/3/5
f 1332/3/5 1330/3/5 1331/3/5
f 1337/5/5 1334/5/5 1333/5/5
f 1338/5/5 1334/5/5 1337/5/5
f 1340/4/5 1336/4/5 1335/4/5
f 1341/4/5 1336/4/5 1340/4/5
f 1342/5/5 1339/5/5 1338/5/5
f 1343/5/5 1339/5/5 1342/5/5
f 1344/3/5 1341/3/5 1340/3/5
f 1345/3/5 1341/3/5 1344/3/5
f 1351/5/5 1347/5/5 1346/5/5
f 1352/5/5 1347/5/5 1351/5/5
f 1353/3/5 1349/3/5 1348/3/5
f 1354/5/5 1350/5/5 1349/5/5
f 1354/3/5 1349/3/5 1353/3/5
f 1355/5/5 1350/5/5 1354/5/5
f 1358/3/5 1357/3/5 1356/3/5
f 1359/3/5 1357/3/5 1358/3/5
f 1362/5/5 1361/5/5 1360/5/5
f 1363/5/5 1361/5/5 1362/5/5
f 1365/3/5 1364/3/5 1363/3/5
f 1366/3/5 1364/3/5 1365/3/5
f 1371/3/5 1368/3/5 1367/3/5
f 1373/4/5 1370/4/5 1369/4/5
f 1374/4/5 1370/4/5 1373/4/5
f 1375/3/5 1371/3/5 1367/3/5
f 1376/4/5 1372/4/5 1371/4/5
f 1376/3/5 1371/3/5 1375/3/5
f 1377/4/5 1372/4/5 1376/4/5
f 1380/3/5 1379/3/5 1378/3/5
f 1381/3/5 1379/3/5 1380/3/5
f 1384/3/5 1383/3/5 1382/3/5
f 1385/3/5 1383/3/5 1384/3/5
f 1386/3/5 1383/3/5 1385/3/5
f 1387/3/5 1383/3/5 1386/3/5
f 1390/3/5 1389/3/5 1388/3/5
f 1391/3/5 1389/3/5 1390/3/5
f 1397/3/5 1393/3/5 1392/3/5
f 1398/3/5 1393/3/5 1397/3/5
f 1399/5/5 1395/5/5 1394/5/5
f 1400/3/5 1396/3/5 1395/3/5
f 1400/5/5 1395/5/5 1399/5/5
f 1401/3/5 1396/3/5 1400/3/5
f 1406/3/5 1403/3/5 1402/3/5
f 1407/3/5 1403/3/5 1406/3/5
f 1408/3/5 1405/3/5 1404/3/5
f 1409/3/5 1405/3/5 1408/3/5
f 1411/3/5 1410/3/5 1409/3/5
f 1412/3/5 1410/3/5 1411/3/5
f 1415/3/5 1414/3/5 1413/3/5
f 1416/3/5 1414/3/5 1415/3/5
f 1420/3/5 1418/3/5 1417/3/5
f 1421/3/5 1418/3/5 1420/3/5
f 1423/4/5 1420/4/5 1419/4/5
f 1424/4/5 1420/4/5 1423/4/5
f 1425/3/5 1422/3/5 1421/3/5
f 1426/3/5 1422/3/5 1425/3/5
f 1429/4/5 1428/4/5 1427/4/5
f 1430/4/5 1428/4/5 1429/4/5
f 1436/3/5 1434/3/5 1433/3/5
f 1436/3/5 1435/3/5 1434/3/5
f 1437/3/5 1436/3/5 1433/3/5
f 1438/3/5 1436/3/5 1437/3/5
f 1439/3/5 1432/3/5 1431/3/5
f 1440/3/5 1432/3/5 1439/3/5
f 1441/3/5 1436/3/5 1438/3/5
f 1442/3/5 1436/3/5 1441/3/5
f 1445/3/5 1444/3/5 1443/3/5
f 1447/3/5 1445/3/5 1443/3/5
f 1447/3/5 1446/3/5 1445/3/5
f 1448/3/5 1446/3/5 1447/3/5
f 1449/3/5 1446/3/5 1448/3/5
f 1450/3/5 1446/3/5 1449/3/5
f 1455/3/5 1452/3/5 1451/3/5
f 1456/3/5 1452/3/5 1455/3/5
f 1457/3/5 1454/3/5 1453/3/5
f 1458/3/5 1454/3/5 1457/3/5
f 1461/3/5 1460/3/5 1459/3/5
f 1462/3/5 1460/3/5 1461/3/5
f 1469/3/5 1464/3/5 1463/3/5
f 1470/3/5 1464/3/5 1469/3/5
f 1471/3/5 1466/3/5 1465/3/5
f 1472/3/5 1466/3/5 1471/3/5
f 1473/4/5 1468/4/5 1467/4/5
f 1474/4/5 1468/4/5 1473/4/5
f 1475/2/6 1476/2/6 1477/2/6
f 1477/2/6 1476/2/6 1478/2/6
f 1479/5/6 1480/5/6 1481/5/6
f 1481/5/6 1480/5/6 1482/5/6
f 1483/5/6 1484/5/6 1487/5/6
f 1487/5/6 1484/5/6 1488/5/6
f 1485/5/6 1486/5/6 1489/5/6
f 1489/5/6 1486/5/6 1490/5/6
f 1488/5/6 1489/5/6 1491/5/6
f 1491/5/6 1489/5/6 1492/5/6
f 1493/5/6 1494/5/6 1497/5/6
f 1497/5/6 1494/5/6 1498/5/6
f 1495/5/6 1496/5/6 1499/5/6
f 1499/5/6 1496/5/6 1500/5/6
f 1501/5/6 1502/5/6 1503/5/6
f 1503/5/6 1502/5/6 1504/5/6
f 1505/3/6 1506/3/6 1507/3/6
f 1507/3/6 1506/3/6 1508/3/6
f 1509/5/6 1510/5/6 1511/5/6
f 1511/5/6 1510/5/6 1512/5/6
f 1513/5/6 1514/5/6 1515/5/6
f 1515/5/6 1514/5/6 1516/5/6
f 1517/3/6 1518/3/6 1519/3/6
f 1519/3/6 1518/3/6 1520/3/6
f 1521/5/6 1522/5/6 1523/5/6
f 1523/5/6 1522/5/6 1524/5/6
f 1525/5/6 1526/5/6 1529/5/6
f 1529/5/6 1526/5/6 1530/5/6
f 1527/5/6 1528/5/6 1531/5/6
f 1531/5/6 1528/5/6 1532/5/6
f 1533/3/6 1534/3/6 1537/3/6
f 1535/5/6 1536/5/6 1538/5/6
f 1538/5/6 1536/5/6 1539/5/6
f 1537/3/6 1534/3/6 1541/3/6
f 1541/3/6 1534/3/6 1542/3/6
f 1539/5/6 1540/5/6 1543/5/6
f 1543/5/6 1540/5/6 1544/5/6
f 1545/5/6 1546/5/6 1547/5/6
f 1547/5/6 1546/5/6 1548/5/6
f 1547/3/6 1548/3/6 1552/3/6
f 1548/4/6 1549/4/6 1552/4/6
f 1552/4/6 1549/4/6 1553/4/6
f 1550/5/6 1551/5/6 1554/5/6
f 1554/5/6 1551/5/6 1555/5/6
f 1547/3/6 1552/3/6 1556/3/6
f 1556/3/6 1552/3/6 1557/3/6
f 1554/3/6 1555/3/6 1558/3/6
f 1558/3/6 1555/3/6 1559/3/6
f 1559/5/6 1560/5/6 1565/5/6
f 1565/5/6 1560/5/6 1566/5/6
f 1561/4/6 1562/4/6 1569/4/6
f 1569/4/6 1562/4/6 1570/4/6
f 1563/5/6 1564/5/6 1571/5/6
f 1571/5/6 1564/5/6 1572/5/6
f 1567/5/6 1568/5/6 1573/5/6
f 1573/5/6 1568/5/6 1574/5/6
f 1575/3/6 1576/3/6 1577/3/6
f 1577/3/6 1576/3/6 1578/3/6
f 1579/5/6 1580/5/6 1582/5/6
f 1580/3/6 1581/3/6 1583/3/6
f 1582/5/6 1580/5/6 1583/5/6
f 1583/3/6 1581/3/6 1584/3/6
f 1585/3/6 1586/3/6 1587/3/6
f 1587/3/6 1586/3/6 1588/3/6
f 1589/5/6 1590/5/6 1591/5/6
f 1591/5/6 1590/5/6 1592/5/6
f 1593/5/6 1594/5/6 1600/5/6
f 1600/5/6 1594/5/6 1601/5/6
f 1595/4/6 1596/4/6 1602/4/6
f 1596/5/6 1597/5/6 1603/5/6
f 1602/4/6 1596/4/6 1603/4/6
f 1603/5/6 1597/5/6 1604/5/6
f 1598/5/6 1599/5/6 1605/5/6
f 1605/5/6 1599/5/6 1606/5/6
f 1607/3/6 1608/3/6 1609/3/6
f 1609/3/6 1608/3/6 1610/3/6
f 1611/5/6 1612/5/6 1615/5/6
f 1615/5/6 1612/5/6 1616/5/6
f 1613/4/6 1614/4/6 1618/4/6
f 1618/4/6 1614/4/6 1619/4/6
f 1616/5/6 1617/5/6 1620/5/6
f 1620/5/6 1617/5/6 1621/5/6
f 1618/3/6 1619/3/6 1622/3/6
f 1618/3/6 1622/3/6 1623/3/6
f 1623/3/6 1622/3/6 1628/3/6
f 1628/3/6 1622/3/6 1629/3/6
f 1624/3/6 1625/3/6 1630/3/6
f 1625/5/6 1626/5/6 1631/5/6
f 1630/3/6 1625/3/6 1631/3/6
f 1631/5/6 1626/5/6 1632/5/6
f 1628/3/6 1629/3/6 1633/3/6
f 1627/3/6 1628/3/6 1633/3/6
f 1633/3/6 1629/3/6 1634/3/6
f 1627/3/6 1633/3/6 1635/3/6
f 1635/3/6 1633/3/6 1636/3/6
f 1637/3/6 1638/3/6 1639/3/6
f 1639/3/6 1638/3/6 1640/3/6
f 1641/5/6 1642/5/6 1643/5/6
f 1643/5/6 1642/5/6 1644/5/6
f 1644/3/6 1645/3/6 1646/3/6
f 1646/3/6 1645/3/6 1647/3/6
f 1648/3/6 1649/3/6 1654/3/6
f 1650/4/6 1651/4/6 1656/4/6
f 1656/4/6 1651/4/6 1657/4/6
f 1652/3/6 1653/3/6 1658/3/6
f 1658/3/6 1653/3/6 1659/3/6
f 1648/3/6 1654/3/6 1660/3/6
f 1654/4/6 1655/4/6 1661/4/6
f 1660/3/6 1654/3/6 1661/3/6
f 1661/4/6 1655/4/6 1662/4/6
f 1663/3/6 1664/3/6 1665/3/6
f 1665/3/6 1664/3/6 1666/3/6
f 1667/3/6 1668/3/6 1670/3/6
f 1668/3/6 1669/3/6 1670/3/6
f 1670/3/6 1669/3/6 1671/3/6
f 1671/3/6 1669/3/6 1672/3/6
f 1672/3/6 1669/3/6 1673/3/6
f 1674/3/6 1675/3/6 1676/3/6
f 1676/3/6 1675/3/6 1677/3/6
f 1678/3/6 1679/3/6 1682/3/6
f 1682/3/6 1679/3/6 1683/3/6
f 1680/5/6 1681/5/6 1684/5/6
f 1684/5/6 1681/5/6 1685/5/6
f 1686/3/6 1687/3/6 1690/3/6
f 1690/3/6 1687/3/6 1691/3/6
f 1688/3/6 1689/3/6 1692/3/6
f 1692/3/6 1689/3/6 1693/3/6
f 1693/3/6 1694/3/6 1695/3/6
f 1695/3/6 1694/3/6 1696/3/6
f 1697/3/6 1698/3/6 1699/3/6
f 1699/3/6 1698/3/6 1700/3/6
f 1701/3/6 1702/3/6 1704/3/6
f 1704/3/6 1702/3/6 1705/3/6
f 1703/4/6 1704/4/6 1707/4/6
f 1707/4/6 1704/4/6 1708/4/6
f 1705/3/6 1706/3/6 1709/3/6
f 1709/3/6 1706/3/6 1710/3/6
f 1711/4/6 1712/4/6 1716/4/6
f 1716/4/6 1712/4/6 1717/4/6
f 1713/3/6 1714/3/6 1718/3/6
f 1714/4/6 1715/4/6 1719/4/6
f 1718/3/6 1714/3/6 1719/3/6
f 1719/4/6 1715/4/6 1720/4/6
f 1723/3/6 1724/3/6 1725/3/6
f 1725/3/6 1724/3/6 1726/3/6
f 1721/3/6 1722/3/6 1727/3/6
f 1727/3/6 1722/3/6 1728/3/6
f 1726/3/6 1724/3/6 1729/3/6
f 1729/3/6 1724/3/6 1730/3/6
f 1731/3/6 1732/3/6 1733/3/6
f 1731/3/6 1733/3/6 1735/3/6
f 1733/3/6 1734/3/6 1735/3/6
f 1735/3/6 1734/3/6 1736/3/6
f 1737/3/6 1738/3/6 1741/3/6
f 1741/3/6 1738/3/6 1742/3/6
f 1739/3/6 1740/3/6 1743/3/6
f 1743/3/6 1740/3/6 1744/3/6
f 1745/3/6 1746/3/6 1747/3/6
f 1747/3/6 1746/3/6 1748/3/6
f 1749/3/6 1750/3/6 1755/3/6
f 1755/3/6 1750/3/6 1756/3/6
f 1751/3/6 1752/3/6 1757/3/6
f 1757/3/6 1752/3/6 1758/3/6
f 1753/4/6 1754/4/6 1759/4/6
f 1759/4/6 1754/4/6 1760/4/6
f 1761/3/6 1762/3/6 1763/3/6
f 1763/3/6 1762/3/6 1764/3/6
