# MagicaVoxel @ Ephtracy

# group
o 

# material
mtllib Playa-Alterna-3.mtl
usemtl palette

# normals
vn -1 0 0
vn 1 0 0
vn 0 0 1
vn 0 0 -1
vn 0 -1 0
vn 0 1 0

# texcoords
vt 0.0566406 0.5
vt 0.0605469 0.5
vt 0.130859 0.5
vt 0.134766 0.5

# verts
v -5.8 4.2 5.5
v -5.8 4.2 5.4
v -5.8 4.3 5.5
v -5.8 4.3 5.4
v -5.7 4.3 5.5
v -5.7 4.3 5.4
v -5.7 4.4 5.5
v -5.7 4.4 5.4
v -5.7 5.2 5.5
v -5.7 5.2 5.4
v -5.7 5.3 5.5
v -5.7 5.3 5.4
v -5.6 4.4 5.5
v -5.6 4.4 5.4
v -5.6 4.5 5.5
v -5.6 4.5 5.4
v -5.6 4.8 5.5
v -5.6 4.8 5.4
v -5.6 4.9 5.5
v -5.6 4.9 5.4
v -5.5 4.2 5
v -5.5 4.2 4.9
v -5.5 4.3 5
v -5.5 4.3 4.9
v -5.5 4.5 5.5
v -5.5 4.5 5.4
v -5.5 4.6 5.5
v -5.5 4.6 5.4
v -5.5 5 5
v -5.5 5 4.8
v -5.5 5.1 5.5
v -5.5 5.1 5.4
v -5.5 5.1 5
v -5.5 5.1 4.8
v -5.5 5.2 5.5
v -5.5 5.2 5.4
v -5.4 4.3 5.1
v -5.4 4.3 5
v -5.4 4.5 5.1
v -5.4 4.5 5
v -5.4 4.6 5.5
v -5.4 4.6 5.4
v -5.4 4.7 5.5
v -5.4 4.7 5.4
v -5.4 4.9 5.5
v -5.4 4.9 5.4
v -5.4 4.9 5.1
v -5.4 4.9 5
v -5.4 5 5.1
v -5.4 5 5
v -5.4 5 4.8
v -5.4 5 4.7
v -5.4 5.1 5.5
v -5.4 5.1 5.4
v -5.4 5.1 4.8
v -5.4 5.1 4.7
v -5.3 4.3 5
v -5.3 4.3 4.9
v -5.3 4.5 5
v -5.3 4.5 4.9
v -5.3 4.9 5
v -5.3 4.9 4.9
v -5.3 5 5
v -5.3 5 4.9
v -5.2 4.5 5.1
v -5.2 4.5 5
v -5.2 4.6 5.1
v -5.2 4.6 5
v -5.2 4.7 5.5
v -5.2 4.7 5.4
v -5.2 4.8 5.5
v -5.2 4.8 5.4
v -5.2 4.8 5.1
v -5.2 4.8 5
v -5.2 4.9 5.5
v -5.2 4.9 5.4
v -5.2 4.9 5.1
v -5.2 4.9 5
v -5.1 2.9 5.5
v -5.1 2.9 5.4
v -5.1 3 5.5
v -5.1 3 5.4
v -5.1 3.4 5.5
v -5.1 3.4 5.4
v -5.1 3.6 5.5
v -5.1 3.6 5.4
v -5.1 4.5 5.5
v -5.1 4.5 5.4
v -5.1 4.6 5.5
v -5.1 4.6 5.4
v -5.1 4.6 5.2
v -5.1 4.7 5.4
v -5.1 4.8 5.4
v -5.1 4.8 5.2
v -5.1 4.9 5.5
v -5.1 4.9 5.4
v -5.1 5 5.5
v -5.1 5 5.4
v -5.1 5.1 5.5
v -5.1 5.1 5.4
v -5.1 5.3 5.5
v -5.1 5.3 5.4
v -5 3.6 5.5
v -5 3.6 5.4
v -5 3.8 5.5
v -5 3.8 5.4
v -5 4.1 5.5
v -5 4.1 5.4
v -5 4.1 4.8
v -5 4.1 4.7
v -5 4.2 6.1
v -5 4.2 6
v -5 4.2 4.9
v -5 4.2 4.8
v -5 4.3 6.1
v -5 4.3 6
v -5 4.3 5.9
v -5 4.3 5.5
v -5 4.3 5.4
v -5 4.3 5
v -5 4.3 4.9
v -5 4.3 4.7
v -5 4.4 5.2
v -5 4.4 5
v -5 4.4 4.9
v -5 4.5 6
v -5 4.5 5.9
v -5 4.5 5.6
v -5 4.5 5.5
v -5 4.5 5.4
v -5 4.5 5.3
v -5 4.5 5.2
v -5 4.5 5.1
v -5 4.5 5
v -5 4.5 4.7
v -5 4.5 4.6
v -5 4.6 5.9
v -5 4.6 5.6
v -5 4.6 5.5
v -5 4.6 5.4
v -5 4.6 5.3
v -5 4.6 5.2
v -5 4.6 4.8
v -5 4.6 4.7
v -5 4.6 4.6
v -5 4.7 5.8
v -5 4.7 5.6
v -5 4.7 5.5
v -5 4.7 5.4
v -5 4.7 4.9
v -5 4.7 4.8
v -5 4.7 4.7
v -5 4.8 5.9
v -5 4.8 5.8
v -5 4.8 5.5
v -5 4.8 5.3
v -5 4.8 5.2
v -5 4.8 5
v -5 4.8 4.9
v -5 4.8 4.8
v -5 4.9 6
v -5 4.9 5.9
v -5 4.9 5.8
v -5 4.9 5.3
v -5 4.9 5.2
v -5 4.9 5.1
v -5 4.9 5
v -5 4.9 4.9
v -5 5 6.3
v -5 5 6
v -5 5 5.9
v -5 5 5.2
v -5 5 5.1
v -5 5 4.8
v -5 5.1 6.3
v -5 5.1 6
v -5 5.1 5.1
v -5 5.1 4.8
v -5 5.1 4.5
v -5 5.2 4.8
v -5 5.2 4.5
v -5 5.3 5.5
v -5 5.3 5.4
v -5 5.4 5.5
v -5 5.4 5.4
v -4.9 4.3 5.8
v -4.9 4.3 5.7
v -4.9 4.4 5.8
v -4.9 4.4 5.7
v -4.9 4.5 5.6
v -4.9 4.5 5.5
v -4.9 4.6 5.6
v -4.9 4.6 5.5
v -4.9 4.8 5.8
v -4.9 4.8 5.7
v -4.9 4.8 5.6
v -4.9 4.8 5.4
v -4.9 4.9 5.8
v -4.9 4.9 5.7
v -4.9 4.9 5.6
v -4.9 4.9 5.4
v -4.9 5 5.8
v -4.9 5 5.7
v -4.9 5.1 5.8
v -4.9 5.1 5.7
v -4.7 4.2 5.9
v -4.7 4.2 5.8
v -4.7 4.3 5.9
v -4.7 4.3 5.8
v -4.7 4.7 5.9
v -4.7 4.7 5.8
v -4.7 4.7 5.5
v -4.7 4.7 5.4
v -4.7 4.8 5.9
v -4.7 4.8 5.8
v -4.7 4.8 5.5
v -4.7 4.8 5.4
v -4.7 4.9 5.5
v -4.7 4.9 5.4
v -4.7 5 5.9
v -4.7 5 5.8
v -4.7 5 5.5
v -4.7 5 5.4
v -4.7 5.1 5.9
v -4.7 5.1 5.8
v -4.6 4.2 5.8
v -4.6 4.2 5.7
v -4.6 4.3 5.8
v -4.6 4.3 5.7
v -4.6 4.5 6.1
v -4.6 4.5 5.8
v -4.6 4.6 6.1
v -4.6 4.6 5.8
v -4.6 4.7 5.8
v -4.6 4.7 5.7
v -4.6 4.8 5.8
v -4.6 4.8 5.7
v -4.6 5 5.8
v -4.6 5 5.7
v -4.6 5.1 6.1
v -4.6 5.1 5.9
v -4.6 5.1 5.8
v -4.6 5.1 5.7
v -4.6 5.2 6.1
v -4.6 5.2 5.8
v -4.5 4.1 5.9
v -4.5 4.1 5.8
v -4.5 4.2 5.8
v -4.5 4.3 5.9
v -4.5 4.3 5.8
v -4.5 4.6 5.9
v -4.5 4.6 5.8
v -4.5 4.7 5.9
v -4.5 4.7 5.8
v -4.5 5 5.5
v -4.5 5 5.4
v -4.5 5.1 5.5
v -4.5 5.1 5.4
v -4.4 4.6 5.5
v -4.4 4.6 5.4
v -4.4 4.7 5.5
v -4.4 4.7 5.4
v -4.3 4.5 5.5
v -4.3 4.5 5.4
v -4.3 4.6 5.5
v -4.3 4.6 5.4
v -4.3 5.1 5.5
v -4.3 5.1 5.4
v -4.3 5.2 5.5
v -4.3 5.2 5.4
v -4.1 4.4 5.5
v -4.1 4.4 5.4
v -4.1 4.5 5.5
v -4.1 4.5 5.4
v -4 5.2 5.5
v -4 5.2 5.4
v -4 5.3 5.5
v -4 5.3 5.4
v -5.7 4.2 5.5
v -5.7 4.2 5.4
v -5.7 4.3 5.5
v -5.7 4.3 5.4
v -5.6 4.3 5.5
v -5.6 4.3 5.4
v -5.6 4.4 5.5
v -5.6 4.4 5.4
v -5.5 4.4 5.5
v -5.5 4.4 5.4
v -5.5 4.5 5.5
v -5.5 4.5 5.4
v -5.5 5.2 5.5
v -5.5 5.2 5.4
v -5.5 5.3 5.5
v -5.5 5.3 5.4
v -5.4 4.2 5
v -5.4 4.2 4.9
v -5.4 4.3 5
v -5.4 4.3 4.9
v -5.4 4.8 5.5
v -5.4 4.8 5.4
v -5.4 4.9 5.5
v -5.4 4.9 5.4
v -5.4 5.1 5.5
v -5.4 5.1 5.4
v -5.4 5.2 5.5
v -5.4 5.2 5.4
v -5.3 4.3 5.1
v -5.3 4.3 5
v -5.3 4.5 5.5
v -5.3 4.5 5.4
v -5.3 4.5 5.1
v -5.3 4.5 5
v -5.3 4.6 5.5
v -5.3 4.6 5.4
v -5.3 4.9 5.1
v -5.3 4.9 5
v -5.3 5 5.5
v -5.3 5 5.4
v -5.3 5 5.1
v -5.3 5 5
v -5.3 5 4.9
v -5.3 5 4.7
v -5.3 5.1 5.5
v -5.3 5.1 5.4
v -5.3 5.1 5
v -5.3 5.1 4.7
v -5.2 4.3 5
v -5.2 4.3 4.9
v -5.2 4.5 5
v -5.2 4.5 4.9
v -5.2 4.9 5.5
v -5.2 4.9 5.4
v -5.2 4.9 5
v -5.2 4.9 4.9
v -5.2 5 5.5
v -5.2 5 5.4
v -5.2 5 5
v -5.2 5 4.9
v -5.1 4.6 5.5
v -5.1 4.6 5.4
v -5.1 4.7 5.5
v -5.1 4.7 5.4
v -5 4.5 5.1
v -5 4.5 5
v -5 4.6 5.3
v -5 4.6 5.2
v -5 4.6 5.1
v -5 4.6 5
v -5 4.8 5.5
v -5 4.8 5.4
v -5 4.8 5.3
v -5 4.8 5.2
v -5 4.9 5.5
v -5 4.9 5.4
v -5 5 5.5
v -5 5 5.4
v -5 5.1 5.5
v -5 5.1 5.4
v -5 5.2 5.5
v -5 5.2 5.4
v -4.9 2.9 5.5
v -4.9 2.9 5.4
v -4.9 3.1 5.5
v -4.9 3.1 5.4
v -4.9 3.3 5.5
v -4.9 3.3 5.4
v -4.9 3.4 5.5
v -4.9 3.4 5.4
v -4.9 4.1 4.8
v -4.9 4.1 4.7
v -4.9 4.2 6.1
v -4.9 4.2 6
v -4.9 4.2 4.9
v -4.9 4.2 4.8
v -4.9 4.3 6.1
v -4.9 4.3 6
v -4.9 4.3 5.9
v -4.9 4.3 5.5
v -4.9 4.3 5.4
v -4.9 4.3 5
v -4.9 4.3 4.9
v -4.9 4.3 4.7
v -4.9 4.4 5.2
v -4.9 4.4 5
v -4.9 4.4 4.9
v -4.9 4.5 6
v -4.9 4.5 5.9
v -4.9 4.5 5.6
v -4.9 4.5 5.5
v -4.9 4.5 5.4
v -4.9 4.5 5.3
v -4.9 4.5 5.2
v -4.9 4.5 5
v -4.9 4.5 4.7
v -4.9 4.5 4.6
v -4.9 4.6 5.9
v -4.9 4.6 5.6
v -4.9 4.6 5.5
v -4.9 4.6 5.4
v -4.9 4.6 5.3
v -4.9 4.6 5.2
v -4.9 4.6 4.8
v -4.9 4.6 4.7
v -4.9 4.6 4.6
v -4.9 4.7 5.8
v -4.9 4.7 5.6
v -4.9 4.7 5.5
v -4.9 4.7 5.4
v -4.9 4.7 4.9
v -4.9 4.7 4.8
v -4.9 4.7 4.7
v -4.9 4.8 5.9
v -4.9 4.8 5.8
v -4.9 4.8 5.7
v -4.9 4.8 5.6
v -4.9 4.8 5.4
v -4.9 4.8 5.3
v -4.9 4.8 5.2
v -4.9 4.8 5.1
v -4.9 4.8 4.9
v -4.9 4.8 4.8
v -4.9 4.9 6
v -4.9 4.9 5.9
v -4.9 4.9 5.8
v -4.9 4.9 5.3
v -4.9 4.9 5.2
v -4.9 4.9 5.1
v -4.9 4.9 4.9
v -4.9 5 6.3
v -4.9 5 6
v -4.9 5 5.9
v -4.9 5 5.2
v -4.9 5 5.1
v -4.9 5 4.8
v -4.9 5.1 6.3
v -4.9 5.1 6
v -4.9 5.1 5.1
v -4.9 5.1 4.8
v -4.9 5.1 4.5
v -4.9 5.2 5.5
v -4.9 5.2 5.4
v -4.9 5.2 4.8
v -4.9 5.2 4.5
v -4.9 5.4 5.5
v -4.9 5.4 5.4
v -4.8 3.4 5.5
v -4.8 3.4 5.4
v -4.8 3.6 5.5
v -4.8 3.6 5.4
v -4.8 3.7 5.5
v -4.8 3.7 5.4
v -4.8 4 5.5
v -4.8 4 5.4
v -4.8 4.2 5.5
v -4.8 4.2 5.4
v -4.8 4.3 5.5
v -4.8 4.3 5.4
v -4.8 4.5 5.6
v -4.8 4.5 5.4
v -4.8 4.6 5.6
v -4.8 4.6 5.5
v -4.8 4.6 5.4
v -4.8 4.8 5.6
v -4.8 4.8 5.5
v -4.8 4.9 5.6
v -4.8 4.9 5.5
v -4.7 4.3 5.8
v -4.7 4.3 5.7
v -4.7 4.4 5.8
v -4.7 4.4 5.7
v -4.7 4.6 5.5
v -4.7 4.6 5.4
v -4.7 4.7 5.5
v -4.7 4.7 5.4
v -4.7 4.8 5.8
v -4.7 4.8 5.7
v -4.7 4.9 5.8
v -4.7 4.9 5.7
v -4.7 5 5.8
v -4.7 5 5.7
v -4.7 5.1 5.8
v -4.7 5.1 5.7
v -4.6 4.2 5.9
v -4.6 4.2 5.8
v -4.6 4.3 5.9
v -4.6 4.3 5.8
v -4.6 4.7 5.9
v -4.6 4.7 5.8
v -4.6 4.8 5.9
v -4.6 4.8 5.8
v -4.6 4.8 5.5
v -4.6 4.8 5.4
v -4.6 4.9 5.5
v -4.6 4.9 5.4
v -4.6 5 5.9
v -4.6 5 5.8
v -4.6 5.1 5.9
v -4.6 5.1 5.8
v -4.5 4.2 5.8
v -4.5 4.2 5.7
v -4.5 4.3 5.8
v -4.5 4.3 5.7
v -4.5 4.5 6.1
v -4.5 4.5 6
v -4.5 4.5 5.9
v -4.5 4.5 5.8
v -4.5 4.6 6.1
v -4.5 4.6 6
v -4.5 4.6 5.9
v -4.5 4.6 5.8
v -4.5 4.7 5.8
v -4.5 4.7 5.7
v -4.5 4.8 5.8
v -4.5 4.8 5.7
v -4.5 5 5.8
v -4.5 5 5.7
v -4.5 5.1 6.1
v -4.5 5.1 6
v -4.5 5.1 5.8
v -4.5 5.1 5.7
v -4.5 5.2 6.1
v -4.5 5.2 6
v -4.4 4.1 5.9
v -4.4 4.1 5.8
v -4.4 4.3 5.9
v -4.4 4.3 5.8
v -4.4 4.5 6
v -4.4 4.5 5.9
v -4.4 4.6 6
v -4.4 4.6 5.9
v -4.4 4.6 5.8
v -4.4 4.7 5.9
v -4.4 4.7 5.8
v -4.4 4.7 5.5
v -4.4 4.7 5.4
v -4.4 4.8 5.5
v -4.4 4.8 5.4
v -4.4 4.9 5.5
v -4.4 4.9 5.4
v -4.4 5 5.5
v -4.4 5 5.4
v -4.4 5.1 6
v -4.4 5.1 5.8
v -4.4 5.2 6
v -4.4 5.2 5.8
v -4.3 4.6 5.5
v -4.3 4.6 5.4
v -4.3 4.7 5.5
v -4.3 4.7 5.4
v -4.3 5 5.5
v -4.3 5 5.4
v -4.3 5.1 5.5
v -4.3 5.1 5.4
v -4.1 4.5 5.5
v -4.1 4.5 5.4
v -4.1 4.6 5.5
v -4.1 4.6 5.4
v -4 4.4 5.5
v -4 4.4 5.4
v -4 4.5 5.5
v -4 4.5 5.4
v -4 5.1 5.5
v -4 5.1 5.4
v -4 5.2 5.5
v -4 5.2 5.4
v -3.9 5.2 5.5
v -3.9 5.2 5.4
v -3.9 5.3 5.5
v -3.9 5.3 5.4
v -5 5 6.3
v -5 5.1 6.3
v -4.9 5 6.3
v -4.9 5.1 6.3
v -5 4.2 6.1
v -5 4.3 6.1
v -4.9 4.2 6.1
v -4.9 4.3 6.1
v -4.6 4.5 6.1
v -4.6 4.6 6.1
v -4.6 5.1 6.1
v -4.6 5.2 6.1
v -4.5 4.5 6.1
v -4.5 4.6 6.1
v -4.5 5.1 6.1
v -4.5 5.2 6.1
v -5 4.3 6
v -5 4.5 6
v -5 4.9 6
v -5 5 6
v -4.9 4.3 6
v -4.9 4.5 6
v -4.9 4.9 6
v -4.9 5 6
v -4.5 4.5 6
v -4.5 4.6 6
v -4.5 5.1 6
v -4.5 5.2 6
v -4.4 4.5 6
v -4.4 4.6 6
v -4.4 5.1 6
v -4.4 5.2 6
v -5 4.5 5.9
v -5 4.6 5.9
v -5 4.8 5.9
v -5 4.9 5.9
v -4.9 4.5 5.9
v -4.9 4.6 5.9
v -4.9 4.8 5.9
v -4.9 4.9 5.9
v -4.7 4.2 5.9
v -4.7 4.3 5.9
v -4.7 4.7 5.9
v -4.7 4.8 5.9
v -4.7 5 5.9
v -4.7 5.1 5.9
v -4.6 4.2 5.9
v -4.6 4.3 5.9
v -4.6 4.7 5.9
v -4.6 4.8 5.9
v -4.6 5 5.9
v -4.6 5.1 5.9
v -4.5 4.1 5.9
v -4.5 4.3 5.9
v -4.5 4.6 5.9
v -4.5 4.7 5.9
v -4.4 4.1 5.9
v -4.4 4.3 5.9
v -4.4 4.6 5.9
v -4.4 4.7 5.9
v -5 4.7 5.8
v -5 4.8 5.8
v -4.9 4.3 5.8
v -4.9 4.4 5.8
v -4.9 4.7 5.8
v -4.9 4.8 5.8
v -4.9 4.9 5.8
v -4.9 5 5.8
v -4.9 5.1 5.8
v -4.7 4.3 5.8
v -4.7 4.4 5.8
v -4.7 4.8 5.8
v -4.7 4.9 5.8
v -4.7 5 5.8
v -4.7 5.1 5.8
v -4.6 4.2 5.8
v -4.6 4.3 5.8
v -4.6 4.7 5.8
v -4.6 4.8 5.8
v -4.6 5 5.8
v -4.6 5.1 5.8
v -4.5 4.2 5.8
v -4.5 4.3 5.8
v -4.5 4.7 5.8
v -4.5 4.8 5.8
v -4.5 5 5.8
v -4.5 5.1 5.8
v -5 4.6 5.6
v -5 4.7 5.6
v -4.9 4.5 5.6
v -4.9 4.6 5.6
v -4.9 4.7 5.6
v -4.9 4.8 5.6
v -4.9 4.9 5.6
v -4.8 4.5 5.6
v -4.8 4.6 5.6
v -4.8 4.8 5.6
v -4.8 4.9 5.6
v -5.8 4.2 5.5
v -5.8 4.3 5.5
v -5.7 4.2 5.5
v -5.7 4.3 5.5
v -5.7 4.4 5.5
v -5.7 5.2 5.5
v -5.7 5.3 5.5
v -5.6 4.3 5.5
v -5.6 4.4 5.5
v -5.6 4.5 5.5
v -5.6 4.8 5.5
v -5.6 4.9 5.5
v -5.5 4.4 5.5
v -5.5 4.5 5.5
v -5.5 4.6 5.5
v -5.5 5.1 5.5
v -5.5 5.2 5.5
v -5.5 5.3 5.5
v -5.4 4.5 5.5
v -5.4 4.6 5.5
v -5.4 4.7 5.5
v -5.4 4.8 5.5
v -5.4 4.9 5.5
v -5.4 5.1 5.5
v -5.4 5.2 5.5
v -5.3 4.5 5.5
v -5.3 4.6 5.5
v -5.3 4.7 5.5
v -5.3 5 5.5
v -5.3 5.1 5.5
v -5.2 4.7 5.5
v -5.2 4.8 5.5
v -5.2 4.9 5.5
v -5.2 5 5.5
v -5.1 2.9 5.5
v -5.1 3 5.5
v -5.1 3.4 5.5
v -5.1 3.6 5.5
v -5.1 4.5 5.5
v -5.1 4.6 5.5
v -5.1 4.7 5.5
v -5.1 4.8 5.5
v -5.1 4.9 5.5
v -5.1 5 5.5
v -5.1 5.1 5.5
v -5.1 5.3 5.5
v -5 3 5.5
v -5 3.1 5.5
v -5 3.3 5.5
v -5 3.4 5.5
v -5 3.6 5.5
v -5 3.8 5.5
v -5 4.1 5.5
v -5 4.3 5.5
v -5 4.5 5.5
v -5 4.6 5.5
v -5 4.7 5.5
v -5 4.8 5.5
v -5 4.9 5.5
v -5 5 5.5
v -5 5.1 5.5
v -5 5.2 5.5
v -5 5.3 5.5
v -5 5.4 5.5
v -4.9 2.9 5.5
v -4.9 3.1 5.5
v -4.9 3.3 5.5
v -4.9 3.4 5.5
v -4.9 3.7 5.5
v -4.9 3.8 5.5
v -4.9 4 5.5
v -4.9 4.1 5.5
v -4.9 4.2 5.5
v -4.9 4.3 5.5
v -4.9 4.5 5.5
v -4.9 4.6 5.5
v -4.9 4.7 5.5
v -4.9 5.2 5.5
v -4.9 5.4 5.5
v -4.8 3.4 5.5
v -4.8 3.6 5.5
v -4.8 3.7 5.5
v -4.8 4 5.5
v -4.8 4.2 5.5
v -4.8 4.3 5.5
v -4.8 4.6 5.5
v -4.8 4.7 5.5
v -4.8 4.8 5.5
v -4.8 4.9 5.5
v -4.7 4.6 5.5
v -4.7 4.7 5.5
v -4.7 4.8 5.5
v -4.7 4.9 5.5
v -4.7 5 5.5
v -4.6 4.8 5.5
v -4.6 4.9 5.5
v -4.6 5 5.5
v -4.5 5 5.5
v -4.5 5.1 5.5
v -4.4 4.6 5.5
v -4.4 4.7 5.5
v -4.4 4.8 5.5
v -4.4 4.9 5.5
v -4.4 5 5.5
v -4.3 4.5 5.5
v -4.3 4.6 5.5
v -4.3 4.7 5.5
v -4.3 5 5.5
v -4.3 5.1 5.5
v -4.3 5.2 5.5
v -4.2 4.5 5.5
v -4.2 4.6 5.5
v -4.1 4.4 5.5
v -4.1 4.5 5.5
v -4.1 4.6 5.5
v -4 4.4 5.5
v -4 4.5 5.5
v -4 5.1 5.5
v -4 5.2 5.5
v -4 5.3 5.5
v -3.9 5.2 5.5
v -3.9 5.3 5.5
v -5.1 4.6 5.4
v -5.1 4.7 5.4
v -5 4.6 5.4
v -5 4.7 5.4
v -5 4.5 5.3
v -5 4.6 5.3
v -5 4.8 5.3
v -5 4.9 5.3
v -4.9 4.5 5.3
v -4.9 4.6 5.3
v -4.9 4.8 5.3
v -4.9 4.9 5.3
v -5 4.4 5.2
v -5 4.5 5.2
v -5 4.9 5.2
v -5 5 5.2
v -4.9 4.4 5.2
v -4.9 4.5 5.2
v -4.9 4.9 5.2
v -4.9 5 5.2
v -5.4 4.3 5.1
v -5.4 4.5 5.1
v -5.4 4.9 5.1
v -5.4 5 5.1
v -5.3 4.3 5.1
v -5.3 4.5 5.1
v -5.3 4.9 5.1
v -5.3 5 5.1
v -5.2 4.5 5.1
v -5.2 4.6 5.1
v -5.2 4.8 5.1
v -5.2 4.9 5.1
v -5 4.5 5.1
v -5 4.6 5.1
v -5 4.9 5.1
v -5 5 5.1
v -5 5.1 5.1
v -4.9 4.8 5.1
v -4.9 4.9 5.1
v -4.9 5 5.1
v -4.9 5.1 5.1
v -5.5 4.2 5
v -5.5 4.3 5
v -5.5 5 5
v -5.5 5.1 5
v -5.4 4.2 5
v -5.4 4.3 5
v -5.4 5 5
v -5.3 4.3 5
v -5.3 4.5 5
v -5.3 4.9 5
v -5.3 5 5
v -5.3 5.1 5
v -5.2 4.3 5
v -5.2 4.5 5
v -5.2 4.9 5
v -5.2 5 5
v -5 4.3 5
v -5 4.4 5
v -4.9 4.3 5
v -4.9 4.4 5
v -5 4.2 4.9
v -5 4.3 4.9
v -5 4.7 4.9
v -5 4.8 4.9
v -4.9 4.2 4.9
v -4.9 4.3 4.9
v -4.9 4.7 4.9
v -4.9 4.8 4.9
v -5 4.1 4.8
v -5 4.2 4.8
v -5 4.6 4.8
v -5 4.7 4.8
v -5 5.1 4.8
v -5 5.2 4.8
v -4.9 4.1 4.8
v -4.9 4.2 4.8
v -4.9 4.6 4.8
v -4.9 4.7 4.8
v -4.9 5.1 4.8
v -4.9 5.2 4.8
v -5 4.5 4.7
v -5 4.6 4.7
v -4.9 4.5 4.7
v -4.9 4.6 4.7
v -5 4.2 6
v -5 4.3 6
v -5 5 6
v -5 5.1 6
v -4.9 4.2 6
v -4.9 4.3 6
v -4.9 5 6
v -4.9 5.1 6
v -5 4.3 5.9
v -5 4.5 5.9
v -5 4.9 5.9
v -5 5 5.9
v -4.9 4.3 5.9
v -4.9 4.5 5.9
v -4.9 4.9 5.9
v -4.9 5 5.9
v -4.5 4.5 5.9
v -4.5 4.6 5.9
v -4.4 4.5 5.9
v -4.4 4.6 5.9
v -5 4.8 5.8
v -5 4.9 5.8
v -4.9 4.8 5.8
v -4.9 4.9 5.8
v -4.7 4.2 5.8
v -4.7 4.3 5.8
v -4.7 4.7 5.8
v -4.7 4.8 5.8
v -4.7 5 5.8
v -4.7 5.1 5.8
v -4.6 4.2 5.8
v -4.6 4.3 5.8
v -4.6 4.5 5.8
v -4.6 4.6 5.8
v -4.6 4.7 5.8
v -4.6 4.8 5.8
v -4.6 5 5.8
v -4.6 5.1 5.8
v -4.6 5.2 5.8
v -4.5 4.1 5.8
v -4.5 4.2 5.8
v -4.5 4.3 5.8
v -4.5 4.5 5.8
v -4.5 4.6 5.8
v -4.5 4.7 5.8
v -4.5 5.1 5.8
v -4.4 4.1 5.8
v -4.4 4.3 5.8
v -4.4 4.6 5.8
v -4.4 4.7 5.8
v -4.4 5.1 5.8
v -4.4 5.2 5.8
v -4.9 4.3 5.7
v -4.9 4.4 5.7
v -4.9 4.8 5.7
v -4.9 4.9 5.7
v -4.9 5 5.7
v -4.9 5.1 5.7
v -4.7 4.3 5.7
v -4.7 4.4 5.7
v -4.7 4.8 5.7
v -4.7 4.9 5.7
v -4.7 5 5.7
v -4.7 5.1 5.7
v -4.6 4.2 5.7
v -4.6 4.3 5.7
v -4.6 4.7 5.7
v -4.6 4.8 5.7
v -4.6 5 5.7
v -4.6 5.1 5.7
v -4.5 4.2 5.7
v -4.5 4.3 5.7
v -4.5 4.7 5.7
v -4.5 4.8 5.7
v -4.5 5 5.7
v -4.5 5.1 5.7
v -5 4.5 5.6
v -5 4.6 5.6
v -4.9 4.5 5.6
v -4.9 4.6 5.6
v -5.8 4.2 5.4
v -5.8 4.3 5.4
v -5.7 4.2 5.4
v -5.7 4.3 5.4
v -5.7 4.4 5.4
v -5.7 5.2 5.4
v -5.7 5.3 5.4
v -5.6 4.3 5.4
v -5.6 4.4 5.4
v -5.6 4.5 5.4
v -5.6 4.8 5.4
v -5.6 4.9 5.4
v -5.5 4.4 5.4
v -5.5 4.5 5.4
v -5.5 4.6 5.4
v -5.5 5.1 5.4
v -5.5 5.2 5.4
v -5.5 5.3 5.4
v -5.4 4.5 5.4
v -5.4 4.6 5.4
v -5.4 4.7 5.4
v -5.4 4.8 5.4
v -5.4 4.9 5.4
v -5.4 5.1 5.4
v -5.4 5.2 5.4
v -5.3 4.5 5.4
v -5.3 4.6 5.4
v -5.3 4.7 5.4
v -5.3 5 5.4
v -5.3 5.1 5.4
v -5.2 4.7 5.4
v -5.2 4.8 5.4
v -5.2 4.9 5.4
v -5.2 5 5.4
v -5.1 2.9 5.4
v -5.1 3 5.4
v -5.1 3.4 5.4
v -5.1 3.6 5.4
v -5.1 4.5 5.4
v -5.1 4.6 5.4
v -5.1 4.7 5.4
v -5.1 4.8 5.4
v -5.1 4.9 5.4
v -5.1 5 5.4
v -5.1 5.1 5.4
v -5.1 5.3 5.4
v -5 3 5.4
v -5 3.1 5.4
v -5 3.3 5.4
v -5 3.4 5.4
v -5 3.6 5.4
v -5 3.8 5.4
v -5 4.1 5.4
v -5 4.3 5.4
v -5 4.5 5.4
v -5 4.6 5.4
v -5 4.8 5.4
v -5 4.9 5.4
v -5 5 5.4
v -5 5.1 5.4
v -5 5.2 5.4
v -5 5.3 5.4
v -5 5.4 5.4
v -4.9 2.9 5.4
v -4.9 3.1 5.4
v -4.9 3.3 5.4
v -4.9 3.4 5.4
v -4.9 3.7 5.4
v -4.9 3.8 5.4
v -4.9 4 5.4
v -4.9 4.1 5.4
v -4.9 4.2 5.4
v -4.9 4.3 5.4
v -4.9 4.5 5.4
v -4.9 4.6 5.4
v -4.9 4.7 5.4
v -4.9 4.8 5.4
v -4.9 4.9 5.4
v -4.9 5.2 5.4
v -4.9 5.4 5.4
v -4.8 3.4 5.4
v -4.8 3.6 5.4
v -4.8 3.7 5.4
v -4.8 4 5.4
v -4.8 4.2 5.4
v -4.8 4.3 5.4
v -4.8 4.5 5.4
v -4.8 4.6 5.4
v -4.8 4.7 5.4
v -4.8 4.8 5.4
v -4.8 4.9 5.4
v -4.7 4.6 5.4
v -4.7 4.7 5.4
v -4.7 4.8 5.4
v -4.7 4.9 5.4
v -4.7 5 5.4
v -4.6 4.8 5.4
v -4.6 4.9 5.4
v -4.6 5 5.4
v -4.5 5 5.4
v -4.5 5.1 5.4
v -4.4 4.6 5.4
v -4.4 4.7 5.4
v -4.4 4.8 5.4
v -4.4 4.9 5.4
v -4.4 5 5.4
v -4.3 4.5 5.4
v -4.3 4.6 5.4
v -4.3 4.7 5.4
v -4.3 5 5.4
v -4.3 5.1 5.4
v -4.3 5.2 5.4
v -4.2 4.5 5.4
v -4.2 4.6 5.4
v -4.1 4.4 5.4
v -4.1 4.5 5.4
v -4.1 4.6 5.4
v -4 4.4 5.4
v -4 4.5 5.4
v -4 5.1 5.4
v -4 5.2 5.4
v -4 5.3 5.4
v -3.9 5.2 5.4
v -3.9 5.3 5.4
v -5 4.6 5.3
v -5 4.8 5.3
v -4.9 4.6 5.3
v -4.9 4.8 5.3
v -5.1 4.6 5.2
v -5.1 4.8 5.2
v -5 4.5 5.2
v -5 4.6 5.2
v -5 4.8 5.2
v -5 4.9 5.2
v -4.9 4.5 5.2
v -4.9 4.6 5.2
v -4.9 4.8 5.2
v -4.9 4.9 5.2
v -5 4.9 5.1
v -5 5 5.1
v -4.9 4.9 5.1
v -4.9 5 5.1
v -5.4 4.3 5
v -5.4 4.5 5
v -5.4 4.9 5
v -5.4 5 5
v -5.3 4.3 5
v -5.3 4.5 5
v -5.3 4.9 5
v -5.3 5 5
v -5.2 4.5 5
v -5.2 4.6 5
v -5.2 4.8 5
v -5.2 4.9 5
v -5 4.4 5
v -5 4.5 5
v -5 4.6 5
v -5 4.8 5
v -5 4.9 5
v -4.9 4.4 5
v -4.9 4.5 5
v -5.5 4.2 4.9
v -5.5 4.3 4.9
v -5.4 4.2 4.9
v -5.4 4.3 4.9
v -5.3 4.3 4.9
v -5.3 4.5 4.9
v -5.3 4.9 4.9
v -5.3 5 4.9
v -5.2 4.3 4.9
v -5.2 4.5 4.9
v -5.2 4.9 4.9
v -5.2 5 4.9
v -5 4.3 4.9
v -5 4.4 4.9
v -5 4.8 4.9
v -5 4.9 4.9
v -4.9 4.3 4.9
v -4.9 4.4 4.9
v -4.9 4.8 4.9
v -4.9 4.9 4.9
v -5.5 5 4.8
v -5.5 5.1 4.8
v -5.4 5 4.8
v -5.4 5.1 4.8
v -5 4.7 4.8
v -5 4.8 4.8
v -5 5 4.8
v -5 5.1 4.8
v -4.9 4.7 4.8
v -4.9 4.8 4.8
v -4.9 5 4.8
v -4.9 5.1 4.8
v -5.4 5 4.7
v -5.4 5.1 4.7
v -5.3 5 4.7
v -5.3 5.1 4.7
v -5 4.1 4.7
v -5 4.3 4.7
v -5 4.6 4.7
v -5 4.7 4.7
v -4.9 4.1 4.7
v -4.9 4.3 4.7
v -4.9 4.6 4.7
v -4.9 4.7 4.7
v -5 4.5 4.6
v -5 4.6 4.6
v -4.9 4.5 4.6
v -4.9 4.6 4.6
v -5 5.1 4.5
v -5 5.2 4.5
v -4.9 5.1 4.5
v -4.9 5.2 4.5
v -5.1 2.9 5.5
v -4.9 2.9 5.5
v -5.1 2.9 5.4
v -4.9 2.9 5.4
v -4.9 3.4 5.5
v -4.8 3.4 5.5
v -4.9 3.4 5.4
v -4.8 3.4 5.4
v -4.5 4.1 5.9
v -4.4 4.1 5.9
v -4.5 4.1 5.8
v -4.4 4.1 5.8
v -5 4.1 4.8
v -4.9 4.1 4.8
v -5 4.1 4.7
v -4.9 4.1 4.7
v -5 4.2 6.1
v -4.9 4.2 6.1
v -5 4.2 6
v -4.9 4.2 6
v -4.7 4.2 5.9
v -4.6 4.2 5.9
v -4.7 4.2 5.8
v -4.6 4.2 5.8
v -4.5 4.2 5.8
v -4.6 4.2 5.7
v -4.5 4.2 5.7
v -5.8 4.2 5.5
v -5.7 4.2 5.5
v -5.8 4.2 5.4
v -5.7 4.2 5.4
v -5.5 4.2 5
v -5.4 4.2 5
v -5.5 4.2 4.9
v -5.4 4.2 4.9
v -5 4.2 4.9
v -4.9 4.2 4.9
v -5 4.2 4.8
v -4.9 4.2 4.8
v -5 4.3 6
v -4.9 4.3 6
v -5 4.3 5.9
v -4.9 4.3 5.9
v -4.9 4.3 5.8
v -4.7 4.3 5.8
v -4.9 4.3 5.7
v -4.7 4.3 5.7
v -5.7 4.3 5.5
v -5.6 4.3 5.5
v -5.7 4.3 5.4
v -5.6 4.3 5.4
v -5.4 4.3 5.1
v -5.3 4.3 5.1
v -5.4 4.3 5
v -5.3 4.3 5
v -5.2 4.3 5
v -5 4.3 5
v -4.9 4.3 5
v -5.3 4.3 4.9
v -5.2 4.3 4.9
v -5 4.3 4.9
v -4.9 4.3 4.9
v -5.6 4.4 5.5
v -5.5 4.4 5.5
v -4.1 4.4 5.5
v -4 4.4 5.5
v -5.6 4.4 5.4
v -5.5 4.4 5.4
v -4.1 4.4 5.4
v -4 4.4 5.4
v -5 4.4 5.2
v -4.9 4.4 5.2
v -5 4.4 5
v -4.9 4.4 5
v -4.6 4.5 6.1
v -4.5 4.5 6.1
v -4.5 4.5 6
v -4.4 4.5 6
v -5 4.5 5.9
v -4.9 4.5 5.9
v -4.5 4.5 5.9
v -4.4 4.5 5.9
v -4.6 4.5 5.8
v -4.5 4.5 5.8
v -5 4.5 5.6
v -4.9 4.5 5.6
v -4.8 4.5 5.6
v -5.5 4.5 5.5
v -5.4 4.5 5.5
v -5.3 4.5 5.5
v -5.1 4.5 5.5
v -5 4.5 5.5
v -4.9 4.5 5.5
v -4.3 4.5 5.5
v -4.2 4.5 5.5
v -4.1 4.5 5.5
v -5.5 4.5 5.4
v -5.4 4.5 5.4
v -5.3 4.5 5.4
v -5.1 4.5 5.4
v -5 4.5 5.4
v -4.9 4.5 5.4
v -4.8 4.5 5.4
v -4.3 4.5 5.4
v -4.2 4.5 5.4
v -4.1 4.5 5.4
v -5 4.5 5.3
v -4.9 4.5 5.3
v -5 4.5 5.2
v -4.9 4.5 5.2
v -5.2 4.5 5.1
v -5 4.5 5.1
v -5.2 4.5 5
v -5 4.5 5
v -5 4.5 4.7
v -4.9 4.5 4.7
v -5 4.5 4.6
v -4.9 4.5 4.6
v -4.5 4.6 5.9
v -4.4 4.6 5.9
v -4.5 4.6 5.8
v -4.4 4.6 5.8
v -5 4.6 5.6
v -4.9 4.6 5.6
v -5.3 4.6 5.5
v -5.1 4.6 5.5
v -5 4.6 5.5
v -4.9 4.6 5.5
v -4.8 4.6 5.5
v -4.7 4.6 5.5
v -4.4 4.6 5.5
v -4.3 4.6 5.5
v -5.3 4.6 5.4
v -5.1 4.6 5.4
v -5 4.6 5.4
v -4.9 4.6 5.4
v -4.8 4.6 5.4
v -4.7 4.6 5.4
v -4.4 4.6 5.4
v -4.3 4.6 5.4
v -5 4.6 5.3
v -4.9 4.6 5.3
v -5.1 4.6 5.2
v -5 4.6 5.2
v -5 4.6 4.8
v -4.9 4.6 4.8
v -5 4.6 4.7
v -4.9 4.6 4.7
v -4.7 4.7 5.9
v -4.6 4.7 5.9
v -5 4.7 5.8
v -4.9 4.7 5.8
v -4.7 4.7 5.8
v -4.6 4.7 5.8
v -4.5 4.7 5.8
v -4.6 4.7 5.7
v -4.5 4.7 5.7
v -5 4.7 5.6
v -4.9 4.7 5.6
v -5.1 4.7 5.5
v -5 4.7 5.5
v -4.7 4.7 5.5
v -4.4 4.7 5.5
v -5.1 4.7 5.4
v -5 4.7 5.4
v -4.7 4.7 5.4
v -4.4 4.7 5.4
v -5 4.7 4.9
v -4.9 4.7 4.9
v -5 4.7 4.8
v -4.9 4.7 4.8
v -5 4.8 5.9
v -4.9 4.8 5.9
v -5 4.8 5.8
v -4.9 4.8 5.8
v -4.7 4.8 5.8
v -4.9 4.8 5.7
v -4.7 4.8 5.7
v -4.9 4.8 5.6
v -4.8 4.8 5.6
v -5.6 4.8 5.5
v -5.4 4.8 5.5
v -4.8 4.8 5.5
v -4.7 4.8 5.5
v -5.6 4.8 5.4
v -5.4 4.8 5.4
v -4.9 4.8 5.4
v -4.8 4.8 5.4
v -4.7 4.8 5.4
v -5 4.8 5.3
v -4.9 4.8 5.3
v -5 4.8 5.2
v -4.9 4.8 5.2
v -5.2 4.8 5.1
v -4.9 4.8 5.1
v -5.2 4.8 5
v -5 4.8 5
v -5 4.8 4.9
v -4.9 4.8 4.9
v -5 4.9 6
v -4.9 4.9 6
v -5 4.9 5.9
v -4.9 4.9 5.9
v -5.4 4.9 5.5
v -5.2 4.9 5.5
v -4.6 4.9 5.5
v -4.4 4.9 5.5
v -5.4 4.9 5.4
v -5.2 4.9 5.4
v -4.6 4.9 5.4
v -4.4 4.9 5.4
v -5 4.9 5.2
v -4.9 4.9 5.2
v -5.4 4.9 5.1
v -5.3 4.9 5.1
v -5 4.9 5.1
v -4.9 4.9 5.1
v -5.4 4.9 5
v -5.3 4.9 5
v -5.2 4.9 5
v -5.3 4.9 4.9
v -5.2 4.9 4.9
v -5 5 6.3
v -4.9 5 6.3
v -5 5 6
v -4.9 5 6
v -4.7 5 5.9
v -4.6 5 5.9
v -4.9 5 5.8
v -4.7 5 5.8
v -4.6 5 5.8
v -4.5 5 5.8
v -4.9 5 5.7
v -4.7 5 5.7
v -4.6 5 5.7
v -4.5 5 5.7
v -4.4 5 5.5
v -4.3 5 5.5
v -4.4 5 5.4
v -4.3 5 5.4
v -5 5 5.1
v -4.9 5 5.1
v -5.5 5 5
v -5.4 5 5
v -5.3 5 5
v -5.3 5 4.9
v -5.5 5 4.8
v -5.4 5 4.8
v -5 5 4.8
v -4.9 5 4.8
v -5.4 5 4.7
v -5.3 5 4.7
v -4.6 5.1 6.1
v -4.5 5.1 6.1
v -4.5 5.1 6
v -4.4 5.1 6
v -4.6 5.1 5.9
v -4.6 5.1 5.8
v -4.5 5.1 5.8
v -4.4 5.1 5.8
v -5.5 5.1 5.5
v -5.4 5.1 5.5
v -4.3 5.1 5.5
v -4 5.1 5.5
v -5.5 5.1 5.4
v -5.4 5.1 5.4
v -4.3 5.1 5.4
v -4 5.1 5.4
v -5 5.1 4.8
v -4.9 5.1 4.8
v -5 5.1 4.5
v -4.9 5.1 4.5
v -5.7 5.2 5.5
v -5.5 5.2 5.5
v -5 5.2 5.5
v -4.9 5.2 5.5
v -4 5.2 5.5
v -3.9 5.2 5.5
v -5.7 5.2 5.4
v -5.5 5.2 5.4
v -5 5.2 5.4
v -4.9 5.2 5.4
v -4 5.2 5.4
v -3.9 5.2 5.4
v -5.1 3.6 5.5
v -5 3.6 5.5
v -5.1 3.6 5.4
v -5 3.6 5.4
v -5 4.3 6.1
v -4.9 4.3 6.1
v -5 4.3 6
v -4.9 4.3 6
v -4.7 4.3 5.9
v -4.6 4.3 5.9
v -4.5 4.3 5.9
v -4.4 4.3 5.9
v -4.7 4.3 5.8
v -4.6 4.3 5.8
v -4.5 4.3 5.8
v -4.4 4.3 5.8
v -4.6 4.3 5.7
v -4.5 4.3 5.7
v -5.8 4.3 5.5
v -5.7 4.3 5.5
v -4.9 4.3 5.5
v -4.8 4.3 5.5
v -5.8 4.3 5.4
v -5.7 4.3 5.4
v -4.9 4.3 5.4
v -4.8 4.3 5.4
v -5.5 4.3 5
v -5.4 4.3 5
v -5.5 4.3 4.9
v -5.4 4.3 4.9
v -5 4.3 4.9
v -4.9 4.3 4.9
v -5 4.3 4.7
v -4.9 4.3 4.7
v -4.9 4.4 5.8
v -4.7 4.4 5.8
v -4.9 4.4 5.7
v -4.7 4.4 5.7
v -5.7 4.4 5.5
v -5.6 4.4 5.5
v -5.7 4.4 5.4
v -5.6 4.4 5.4
v -5 4.4 5
v -4.9 4.4 5
v -5 4.4 4.9
v -4.9 4.4 4.9
v -5 4.5 6
v -4.9 4.5 6
v -5 4.5 5.9
v -4.9 4.5 5.9
v -5.6 4.5 5.5
v -5.5 4.5 5.5
v -4.1 4.5 5.5
v -4 4.5 5.5
v -5.6 4.5 5.4
v -5.5 4.5 5.4
v -4.1 4.5 5.4
v -4 4.5 5.4
v -5 4.5 5.2
v -4.9 4.5 5.2
v -5.4 4.5 5.1
v -5.3 4.5 5.1
v -5 4.5 5.1
v -5.4 4.5 5
v -5.3 4.5 5
v -5.2 4.5 5
v -5 4.5 5
v -4.9 4.5 5
v -5.3 4.5 4.9
v -5.2 4.5 4.9
v -4.6 4.6 6.1
v -4.5 4.6 6.1
v -4.5 4.6 6
v -4.4 4.6 6
v -5 4.6 5.9
v -4.9 4.6 5.9
v -4.5 4.6 5.9
v -4.4 4.6 5.9
v -4.6 4.6 5.8
v -4.5 4.6 5.8
v -5 4.6 5.6
v -4.9 4.6 5.6
v -4.8 4.6 5.6
v -5.5 4.6 5.5
v -5.4 4.6 5.5
v -5.1 4.6 5.5
v -5 4.6 5.5
v -4.9 4.6 5.5
v -4.8 4.6 5.5
v -4.3 4.6 5.5
v -4.2 4.6 5.5
v -4.1 4.6 5.5
v -5.5 4.6 5.4
v -5.4 4.6 5.4
v -5.1 4.6 5.4
v -5 4.6 5.4
v -4.3 4.6 5.4
v -4.2 4.6 5.4
v -4.1 4.6 5.4
v -5 4.6 5.3
v -4.9 4.6 5.3
v -5 4.6 5.2
v -4.9 4.6 5.2
v -5.2 4.6 5.1
v -5 4.6 5.1
v -5.2 4.6 5
v -5 4.6 5
v -5 4.6 4.7
v -4.9 4.6 4.7
v -5 4.6 4.6
v -4.9 4.6 4.6
v -4.5 4.7 5.9
v -4.4 4.7 5.9
v -4.5 4.7 5.8
v -4.4 4.7 5.8
v -5.4 4.7 5.5
v -5.3 4.7 5.5
v -5.2 4.7 5.5
v -4.9 4.7 5.5
v -4.8 4.7 5.5
v -4.7 4.7 5.5
v -4.4 4.7 5.5
v -4.3 4.7 5.5
v -5.4 4.7 5.4
v -5.3 4.7 5.4
v -5.2 4.7 5.4
v -4.9 4.7 5.4
v -4.8 4.7 5.4
v -4.7 4.7 5.4
v -4.4 4.7 5.4
v -4.3 4.7 5.4
v -5 4.7 4.8
v -4.9 4.7 4.8
v -5 4.7 4.7
v -4.9 4.7 4.7
v -4.7 4.8 5.9
v -4.6 4.8 5.9
v -5 4.8 5.8
v -4.9 4.8 5.8
v -4.7 4.8 5.8
v -4.6 4.8 5.8
v -4.5 4.8 5.8
v -4.9 4.8 5.7
v -4.6 4.8 5.7
v -4.5 4.8 5.7
v -4.9 4.8 5.6
v -5 4.8 5.5
v -4.6 4.8 5.5
v -4.4 4.8 5.5
v -5.1 4.8 5.4
v -5 4.8 5.4
v -4.9 4.8 5.4
v -4.6 4.8 5.4
v -4.4 4.8 5.4
v -5 4.8 5.3
v -4.9 4.8 5.3
v -5.1 4.8 5.2
v -5 4.8 5.2
v -5 4.8 4.9
v -4.9 4.8 4.9
v -5 4.8 4.8
v -4.9 4.8 4.8
v -5 4.9 5.9
v -4.9 4.9 5.9
v -5 4.9 5.8
v -4.9 4.9 5.8
v -4.7 4.9 5.8
v -4.9 4.9 5.7
v -4.7 4.9 5.7
v -4.9 4.9 5.6
v -4.8 4.9 5.6
v -5.6 4.9 5.5
v -5.4 4.9 5.5
v -5.2 4.9 5.5
v -5.1 4.9 5.5
v -4.8 4.9 5.5
v -4.7 4.9 5.5
v -5.6 4.9 5.4
v -5.4 4.9 5.4
v -5.2 4.9 5.4
v -5.1 4.9 5.4
v -4.9 4.9 5.4
v -4.8 4.9 5.4
v -4.7 4.9 5.4
v -5 4.9 5.3
v -4.9 4.9 5.3
v -5 4.9 5.2
v -4.9 4.9 5.2
v -5.2 4.9 5.1
v -5 4.9 5.1
v -4.9 4.9 5.1
v -5.2 4.9 5
v -5 4.9 5
v -5 4.9 4.9
v -4.9 4.9 4.9
v -5 5 6
v -4.9 5 6
v -5 5 5.9
v -4.9 5 5.9
v -5.3 5 5.5
v -5.2 5 5.5
v -4.7 5 5.5
v -4.6 5 5.5
v -4.5 5 5.5
v -5.3 5 5.4
v -5.2 5 5.4
v -4.7 5 5.4
v -4.6 5 5.4
v -4.5 5 5.4
v -5 5 5.2
v -4.9 5 5.2
v -5.4 5 5.1
v -5.3 5 5.1
v -5 5 5.1
v -4.9 5 5.1
v -5.4 5 5
v -5.3 5 5
v -5.2 5 5
v -5.3 5 4.9
v -5.2 5 4.9
v -5 5.1 6.3
v -4.9 5.1 6.3
v -5 5.1 6
v -4.9 5.1 6
v -4.7 5.1 5.9
v -4.6 5.1 5.9
v -4.9 5.1 5.8
v -4.7 5.1 5.8
v -4.6 5.1 5.8
v -4.5 5.1 5.8
v -4.9 5.1 5.7
v -4.7 5.1 5.7
v -4.6 5.1 5.7
v -4.5 5.1 5.7
v -5.4 5.1 5.5
v -5.3 5.1 5.5
v -4.5 5.1 5.5
v -4.3 5.1 5.5
v -5.4 5.1 5.4
v -5.3 5.1 5.4
v -4.5 5.1 5.4
v -4.3 5.1 5.4
v -5 5.1 5.1
v -4.9 5.1 5.1
v -5.5 5.1 5
v -5.3 5.1 5
v -5.5 5.1 4.8
v -5.4 5.1 4.8
v -5 5.1 4.8
v -4.9 5.1 4.8
v -5.4 5.1 4.7
v -5.3 5.1 4.7
v -4.6 5.2 6.1
v -4.5 5.2 6.1
v -4.5 5.2 6
v -4.4 5.2 6
v -4.6 5.2 5.8
v -4.4 5.2 5.8
v -5.5 5.2 5.5
v -5.4 5.2 5.5
v -4.3 5.2 5.5
v -4 5.2 5.5
v -5.5 5.2 5.4
v -5.4 5.2 5.4
v -4.3 5.2 5.4
v -4 5.2 5.4
v -5 5.2 4.8
v -4.9 5.2 4.8
v -5 5.2 4.5
v -4.9 5.2 4.5
v -5.7 5.3 5.5
v -5.5 5.3 5.5
v -5.1 5.3 5.5
v -5 5.3 5.5
v -4 5.3 5.5
v -3.9 5.3 5.5
v -5.7 5.3 5.4
v -5.5 5.3 5.4
v -5.1 5.3 5.4
v -5 5.3 5.4
v -4 5.3 5.4
v -3.9 5.3 5.4
v -5 5.4 5.5
v -4.9 5.4 5.5
v -5 5.4 5.4
v -4.9 5.4 5.4

# faces
f 3/3/1 2/3/1 1/3/1
f 4/3/1 2/3/1 3/3/1
f 7/3/1 6/3/1 5/3/1
f 8/3/1 6/3/1 7/3/1
f 11/3/1 10/3/1 9/3/1
f 12/3/1 10/3/1 11/3/1
f 15/4/1 14/4/1 13/4/1
f 16/4/1 14/4/1 15/4/1
f 19/4/1 18/4/1 17/4/1
f 20/4/1 18/4/1 19/4/1
f 23/3/1 22/3/1 21/3/1
f 24/3/1 22/3/1 23/3/1
f 27/4/1 26/4/1 25/4/1
f 28/4/1 26/4/1 27/4/1
f 33/3/1 30/3/1 29/3/1
f 34/3/1 30/3/1 33/3/1
f 35/3/1 32/3/1 31/3/1
f 36/3/1 32/3/1 35/3/1
f 39/3/1 38/3/1 37/3/1
f 40/3/1 38/3/1 39/3/1
f 43/4/1 42/4/1 41/4/1
f 44/4/1 42/4/1 43/4/1
f 49/3/1 48/3/1 47/3/1
f 50/3/1 48/3/1 49/3/1
f 53/4/1 46/4/1 45/4/1
f 54/4/1 46/4/1 53/4/1
f 55/3/1 52/3/1 51/3/1
f 56/3/1 52/3/1 55/3/1
f 59/3/1 58/3/1 57/3/1
f 60/3/1 58/3/1 59/3/1
f 63/3/1 62/3/1 61/3/1
f 64/3/1 62/3/1 63/3/1
f 67/3/1 66/3/1 65/3/1
f 68/3/1 66/3/1 67/3/1
f 71/4/1 70/4/1 69/4/1
f 72/4/1 70/4/1 71/4/1
f 75/3/1 72/3/1 71/3/1
f 76/3/1 72/3/1 75/3/1
f 77/3/1 74/3/1 73/3/1
f 78/3/1 74/3/1 77/3/1
f 81/2/1 80/2/1 79/2/1
f 82/2/1 80/2/1 81/2/1
f 83/1/1 82/1/1 81/1/1
f 84/1/1 82/1/1 83/1/1
f 85/2/1 84/2/1 83/2/1
f 86/2/1 84/2/1 85/2/1
f 89/3/1 88/3/1 87/3/1
f 90/3/1 88/3/1 89/3/1
f 92/3/1 91/3/1 90/3/1
f 93/3/1 91/3/1 92/3/1
f 94/3/1 91/3/1 93/3/1
f 97/3/1 96/3/1 95/3/1
f 98/3/1 96/3/1 97/3/1
f 99/4/1 98/4/1 97/4/1
f 100/4/1 98/4/1 99/4/1
f 101/3/1 100/3/1 99/3/1
f 102/3/1 100/3/1 101/3/1
f 105/1/1 104/1/1 103/1/1
f 106/1/1 104/1/1 105/1/1
f 107/2/1 106/2/1 105/2/1
f 108/2/1 106/2/1 107/2/1
f 114/3/1 110/3/1 109/3/1
f 115/3/1 112/3/1 111/3/1
f 116/3/1 112/3/1 115/3/1
f 118/1/1 108/1/1 107/1/1
f 119/1/1 108/1/1 118/1/1
f 121/3/1 114/3/1 113/3/1
f 122/3/1 110/3/1 114/3/1
f 122/3/1 114/3/1 121/3/1
f 124/3/1 121/3/1 120/3/1
f 125/3/1 121/3/1 124/3/1
f 126/3/1 117/3/1 116/3/1
f 127/3/1 117/3/1 126/3/1
f 129/4/1 119/4/1 118/4/1
f 130/4/1 119/4/1 129/4/1
f 132/3/1 124/3/1 123/3/1
f 133/3/1 124/3/1 132/3/1
f 134/3/1 124/3/1 133/3/1
f 137/3/1 128/3/1 127/3/1
f 138/3/1 128/3/1 137/3/1
f 141/3/1 132/3/1 131/3/1
f 142/3/1 132/3/1 141/3/1
f 144/3/1 136/3/1 135/3/1
f 145/3/1 136/3/1 144/3/1
f 147/3/1 140/3/1 139/3/1
f 147/3/1 139/3/1 138/3/1
f 148/3/1 140/3/1 147/3/1
f 149/3/1 140/3/1 148/3/1
f 151/3/1 144/3/1 143/3/1
f 152/3/1 144/3/1 151/3/1
f 154/3/1 147/3/1 146/3/1
f 154/3/1 148/3/1 147/3/1
f 155/3/1 148/3/1 154/3/1
f 159/3/1 151/3/1 150/3/1
f 160/3/1 151/3/1 159/3/1
f 162/3/1 154/3/1 153/3/1
f 163/3/1 154/3/1 162/3/1
f 164/3/1 157/3/1 156/3/1
f 165/3/1 157/3/1 164/3/1
f 167/3/1 159/3/1 158/3/1
f 168/3/1 159/3/1 167/3/1
f 170/3/1 162/3/1 161/3/1
f 171/3/1 162/3/1 170/3/1
f 172/3/1 166/3/1 165/3/1
f 173/3/1 166/3/1 172/3/1
f 175/3/1 170/3/1 169/3/1
f 176/3/1 170/3/1 175/3/1
f 177/3/1 174/3/1 173/3/1
f 178/3/1 174/3/1 177/3/1
f 180/3/1 179/3/1 178/3/1
f 181/3/1 179/3/1 180/3/1
f 184/3/1 183/3/1 182/3/1
f 185/3/1 183/3/1 184/3/1
f 188/3/1 187/3/1 186/3/1
f 189/3/1 187/3/1 188/3/1
f 192/3/1 191/3/1 190/3/1
f 193/3/1 191/3/1 192/3/1
f 198/3/1 195/3/1 194/3/1
f 199/3/1 195/3/1 198/3/1
f 200/3/1 197/3/1 196/3/1
f 201/3/1 197/3/1 200/3/1
f 204/3/1 203/3/1 202/3/1
f 205/3/1 203/3/1 204/3/1
f 208/3/1 207/3/1 206/3/1
f 209/3/1 207/3/1 208/3/1
f 214/3/1 211/3/1 210/3/1
f 215/3/1 211/3/1 214/3/1
f 216/3/1 213/3/1 212/3/1
f 217/3/1 213/3/1 216/3/1
f 222/4/1 219/4/1 218/4/1
f 223/4/1 219/4/1 222/4/1
f 224/3/1 221/3/1 220/3/1
f 225/3/1 221/3/1 224/3/1
f 228/3/1 227/3/1 226/3/1
f 229/3/1 227/3/1 228/3/1
f 232/3/1 231/3/1 230/3/1
f 233/3/1 231/3/1 232/3/1
f 236/3/1 235/3/1 234/3/1
f 237/3/1 235/3/1 236/3/1
f 242/3/1 239/3/1 238/3/1
f 243/3/1 239/3/1 242/3/1
f 244/3/1 241/3/1 240/3/1
f 244/3/1 242/3/1 241/3/1
f 245/3/1 242/3/1 244/3/1
f 248/3/1 247/3/1 246/3/1
f 249/3/1 248/3/1 246/3/1
f 250/3/1 248/3/1 249/3/1
f 253/3/1 252/3/1 251/3/1
f 254/3/1 252/3/1 253/3/1
f 257/3/1 256/3/1 255/3/1
f 258/3/1 256/3/1 257/3/1
f 261/3/1 260/3/1 259/3/1
f 262/3/1 260/3/1 261/3/1
f 265/4/1 264/4/1 263/4/1
f 266/4/1 264/4/1 265/4/1
f 269/3/1 268/3/1 267/3/1
f 270/3/1 268/3/1 269/3/1
f 273/3/1 272/3/1 271/3/1
f 274/3/1 272/3/1 273/3/1
f 277/4/1 276/4/1 275/4/1
f 278/4/1 276/4/1 277/4/1
f 279/3/2 280/3/2 281/3/2
f 281/3/2 280/3/2 282/3/2
f 283/3/2 284/3/2 285/3/2
f 285/3/2 284/3/2 286/3/2
f 287/4/2 288/4/2 289/4/2
f 289/4/2 288/4/2 290/4/2
f 291/3/2 292/3/2 293/3/2
f 293/3/2 292/3/2 294/3/2
f 295/3/2 296/3/2 297/3/2
f 297/3/2 296/3/2 298/3/2
f 299/4/2 300/4/2 301/4/2
f 301/4/2 300/4/2 302/4/2
f 303/3/2 304/3/2 305/3/2
f 305/3/2 304/3/2 306/3/2
f 307/3/2 308/3/2 311/3/2
f 311/3/2 308/3/2 312/3/2
f 309/3/2 310/3/2 313/3/2
f 313/3/2 310/3/2 314/3/2
f 315/3/2 316/3/2 319/3/2
f 319/3/2 316/3/2 320/3/2
f 317/4/2 318/4/2 323/4/2
f 323/4/2 318/4/2 324/4/2
f 321/3/2 322/3/2 325/3/2
f 320/3/2 321/3/2 325/3/2
f 325/3/2 322/3/2 326/3/2
f 327/3/2 328/3/2 329/3/2
f 329/3/2 328/3/2 330/3/2
f 331/4/2 332/4/2 335/4/2
f 335/4/2 332/4/2 336/4/2
f 333/3/2 334/3/2 337/3/2
f 337/3/2 334/3/2 338/3/2
f 339/3/2 340/3/2 341/3/2
f 341/3/2 340/3/2 342/3/2
f 343/3/2 344/3/2 347/3/2
f 347/3/2 344/3/2 348/3/2
f 345/3/2 346/3/2 351/3/2
f 351/3/2 346/3/2 352/3/2
f 349/4/2 350/4/2 353/4/2
f 353/4/2 350/4/2 354/4/2
f 353/3/2 354/3/2 355/3/2
f 355/3/2 354/3/2 356/3/2
f 355/4/2 356/4/2 357/4/2
f 357/4/2 356/4/2 358/4/2
f 357/3/2 358/3/2 359/3/2
f 359/3/2 358/3/2 360/3/2
f 361/2/2 362/2/2 363/2/2
f 363/2/2 362/2/2 364/2/2
f 363/1/2 364/1/2 365/1/2
f 365/1/2 364/1/2 366/1/2
f 365/2/2 366/2/2 367/2/2
f 367/2/2 366/2/2 368/2/2
f 369/3/2 370/3/2 374/3/2
f 371/3/2 372/3/2 375/3/2
f 375/3/2 372/3/2 376/3/2
f 373/3/2 374/3/2 381/3/2
f 374/3/2 370/3/2 382/3/2
f 381/3/2 374/3/2 382/3/2
f 380/3/2 381/3/2 384/3/2
f 384/3/2 381/3/2 385/3/2
f 376/3/2 377/3/2 386/3/2
f 386/3/2 377/3/2 387/3/2
f 378/4/2 379/4/2 389/4/2
f 389/4/2 379/4/2 390/4/2
f 383/3/2 384/3/2 392/3/2
f 392/3/2 384/3/2 393/3/2
f 387/3/2 388/3/2 396/3/2
f 396/3/2 388/3/2 397/3/2
f 391/3/2 392/3/2 400/3/2
f 400/3/2 392/3/2 401/3/2
f 394/3/2 395/3/2 403/3/2
f 403/3/2 395/3/2 404/3/2
f 397/3/2 398/3/2 406/3/2
f 406/3/2 398/3/2 407/3/2
f 399/3/2 400/3/2 408/3/2
f 402/3/2 403/3/2 410/3/2
f 410/3/2 403/3/2 411/3/2
f 407/3/2 408/3/2 413/3/2
f 406/3/2 407/3/2 413/3/2
f 405/3/2 406/3/2 413/3/2
f 413/3/2 408/3/2 414/3/2
f 414/3/2 408/3/2 415/3/2
f 408/3/2 400/3/2 416/3/2
f 415/3/2 408/3/2 416/3/2
f 416/3/2 400/3/2 417/3/2
f 409/3/2 410/3/2 420/3/2
f 420/3/2 410/3/2 421/3/2
f 412/3/2 413/3/2 423/3/2
f 423/3/2 413/3/2 424/3/2
f 417/3/2 418/3/2 425/3/2
f 425/3/2 418/3/2 426/3/2
f 419/3/2 420/3/2 427/3/2
f 427/3/2 420/3/2 428/3/2
f 422/3/2 423/3/2 430/3/2
f 430/3/2 423/3/2 431/3/2
f 426/3/2 427/3/2 432/3/2
f 432/3/2 427/3/2 433/3/2
f 429/3/2 430/3/2 435/3/2
f 435/3/2 430/3/2 436/3/2
f 433/3/2 434/3/2 437/3/2
f 437/3/2 434/3/2 438/3/2
f 438/3/2 439/3/2 442/3/2
f 442/3/2 439/3/2 443/3/2
f 440/3/2 441/3/2 444/3/2
f 444/3/2 441/3/2 445/3/2
f 446/2/2 447/2/2 448/2/2
f 448/2/2 447/2/2 449/2/2
f 448/1/2 449/1/2 450/1/2
f 450/1/2 449/1/2 451/1/2
f 450/2/2 451/2/2 452/2/2
f 452/2/2 451/2/2 453/2/2
f 452/1/2 453/1/2 454/1/2
f 454/1/2 453/1/2 455/1/2
f 454/2/2 455/2/2 456/2/2
f 456/2/2 455/2/2 457/2/2
f 458/3/2 459/3/2 460/3/2
f 460/3/2 459/3/2 461/3/2
f 461/3/2 459/3/2 462/3/2
f 463/3/2 464/3/2 465/3/2
f 465/3/2 464/3/2 466/3/2
f 467/3/2 468/3/2 469/3/2
f 469/3/2 468/3/2 470/3/2
f 471/4/2 472/4/2 473/4/2
f 473/4/2 472/4/2 474/4/2
f 475/3/2 476/3/2 477/3/2
f 477/3/2 476/3/2 478/3/2
f 479/3/2 480/3/2 481/3/2
f 481/3/2 480/3/2 482/3/2
f 483/3/2 484/3/2 485/3/2
f 485/3/2 484/3/2 486/3/2
f 487/3/2 488/3/2 489/3/2
f 489/3/2 488/3/2 490/3/2
f 491/3/2 492/3/2 493/3/2
f 493/3/2 492/3/2 494/3/2
f 495/3/2 496/3/2 497/3/2
f 497/3/2 496/3/2 498/3/2
f 499/3/2 500/3/2 501/3/2
f 501/3/2 500/3/2 502/3/2
f 503/3/2 504/3/2 507/3/2
f 507/3/2 504/3/2 508/3/2
f 505/3/2 506/3/2 509/3/2
f 509/3/2 506/3/2 510/3/2
f 511/3/2 512/3/2 513/3/2
f 513/3/2 512/3/2 514/3/2
f 515/3/2 516/3/2 519/3/2
f 519/3/2 516/3/2 520/3/2
f 517/3/2 518/3/2 521/3/2
f 521/3/2 518/3/2 522/3/2
f 523/3/2 524/3/2 525/3/2
f 525/3/2 524/3/2 526/3/2
f 527/3/2 528/3/2 529/3/2
f 529/3/2 528/3/2 530/3/2
f 530/3/2 531/3/2 532/3/2
f 532/3/2 531/3/2 533/3/2
f 534/3/2 535/3/2 536/3/2
f 536/3/2 535/3/2 537/3/2
f 538/3/2 539/3/2 540/3/2
f 540/3/2 539/3/2 541/3/2
f 542/3/2 543/3/2 544/3/2
f 544/3/2 543/3/2 545/3/2
f 546/3/2 547/3/2 548/3/2
f 548/3/2 547/3/2 549/3/2
f 550/3/2 551/3/2 552/3/2
f 552/3/2 551/3/2 553/3/2
f 554/3/2 555/3/2 556/3/2
f 556/3/2 555/3/2 557/3/2
f 558/3/2 559/3/2 560/3/2
f 560/3/2 559/3/2 561/3/2
f 562/3/2 563/3/2 564/3/2
f 564/3/2 563/3/2 565/3/2
f 566/4/2 567/4/2 568/4/2
f 568/4/2 567/4/2 569/4/2
f 572/3/3 571/3/3 570/3/3
f 573/3/3 571/3/3 572/3/3
f 576/3/3 575/3/3 574/3/3
f 577/3/3 575/3/3 576/3/3
f 582/3/3 579/3/3 578/3/3
f 583/3/3 579/3/3 582/3/3
f 584/3/3 581/3/3 580/3/3
f 585/3/3 581/3/3 584/3/3
f 590/3/3 587/3/3 586/3/3
f 591/3/3 587/3/3 590/3/3
f 592/3/3 589/3/3 588/3/3
f 593/3/3 589/3/3 592/3/3
f 598/3/3 595/3/3 594/3/3
f 599/3/3 595/3/3 598/3/3
f 600/3/3 597/3/3 596/3/3
f 601/3/3 597/3/3 600/3/3
f 606/3/3 603/3/3 602/3/3
f 607/3/3 603/3/3 606/3/3
f 608/3/3 605/3/3 604/3/3
f 609/3/3 605/3/3 608/3/3
f 616/3/3 611/3/3 610/3/3
f 617/3/3 611/3/3 616/3/3
f 618/3/3 613/3/3 612/3/3
f 619/3/3 613/3/3 618/3/3
f 620/3/3 615/3/3 614/3/3
f 621/3/3 615/3/3 620/3/3
f 626/3/3 623/3/3 622/3/3
f 627/3/3 623/3/3 626/3/3
f 628/3/3 625/3/3 624/3/3
f 629/3/3 625/3/3 628/3/3
f 634/3/3 631/3/3 630/3/3
f 635/3/3 631/3/3 634/3/3
f 639/3/3 633/3/3 632/3/3
f 640/3/3 633/3/3 639/3/3
f 641/3/3 636/3/3 635/3/3
f 642/3/3 636/3/3 641/3/3
f 643/3/3 638/3/3 637/3/3
f 644/3/3 638/3/3 643/3/3
f 651/3/3 646/3/3 645/3/3
f 652/3/3 646/3/3 651/3/3
f 653/3/3 648/3/3 647/3/3
f 654/3/3 648/3/3 653/3/3
f 655/3/3 650/3/3 649/3/3
f 656/3/3 650/3/3 655/3/3
f 660/3/3 658/3/3 657/3/3
f 661/3/3 658/3/3 660/3/3
f 664/3/3 660/3/3 659/3/3
f 665/3/3 660/3/3 664/3/3
f 666/3/3 663/3/3 662/3/3
f 667/3/3 663/3/3 666/3/3
f 670/3/3 669/3/3 668/3/3
f 671/3/3 669/3/3 670/3/3
f 675/3/3 672/3/3 671/3/3
f 676/3/3 672/3/3 675/3/3
f 680/4/3 677/4/3 676/4/3
f 681/4/3 677/4/3 680/4/3
f 684/3/3 674/3/3 673/3/3
f 685/3/3 674/3/3 684/3/3
f 686/4/3 682/4/3 681/4/3
f 687/4/3 682/4/3 686/4/3
f 689/4/3 679/4/3 678/4/3
f 690/4/3 679/4/3 689/4/3
f 691/3/3 684/3/3 683/3/3
f 692/3/3 684/3/3 691/3/3
f 693/3/3 687/3/3 686/3/3
f 694/4/3 688/4/3 687/4/3
f 694/3/3 687/3/3 693/3/3
f 695/4/3 688/4/3 694/4/3
f 696/4/3 691/4/3 690/4/3
f 697/4/3 691/4/3 696/4/3
f 698/3/3 695/3/3 694/3/3
f 700/4/3 696/4/3 690/4/3
f 701/4/3 696/4/3 700/4/3
f 707/3/3 698/3/3 694/3/3
f 708/4/3 699/4/3 698/4/3
f 708/3/3 698/3/3 707/3/3
f 709/3/3 700/3/3 699/3/3
f 709/4/3 699/4/3 708/4/3
f 710/3/3 700/3/3 709/3/3
f 714/2/3 703/2/3 702/2/3
f 714/1/3 704/1/3 703/1/3
f 715/1/3 704/1/3 714/1/3
f 716/1/3 704/1/3 715/1/3
f 717/2/3 705/2/3 704/2/3
f 717/1/3 704/1/3 716/1/3
f 718/2/3 705/2/3 717/2/3
f 722/3/3 707/3/3 706/3/3
f 723/3/3 707/3/3 722/3/3
f 724/3/3 709/3/3 708/3/3
f 725/4/3 710/4/3 709/4/3
f 725/3/3 709/3/3 724/3/3
f 726/3/3 711/3/3 710/3/3
f 726/4/3 710/4/3 725/4/3
f 727/4/3 712/4/3 711/4/3
f 727/3/3 711/3/3 726/3/3
f 728/3/3 713/3/3 712/3/3
f 728/4/3 712/4/3 727/4/3
f 729/3/3 713/3/3 728/3/3
f 730/3/3 713/3/3 729/3/3
f 732/2/3 714/2/3 702/2/3
f 732/2/3 715/2/3 714/2/3
f 733/1/3 716/1/3 715/1/3
f 733/2/3 715/2/3 732/2/3
f 734/2/3 717/2/3 716/2/3
f 734/1/3 716/1/3 733/1/3
f 734/2/3 718/2/3 717/2/3
f 735/2/3 718/2/3 734/2/3
f 736/1/3 719/1/3 718/1/3
f 737/2/3 720/2/3 719/2/3
f 737/1/3 719/1/3 736/1/3
f 738/2/3 720/2/3 737/2/3
f 739/1/3 721/1/3 720/1/3
f 739/2/3 720/2/3 738/2/3
f 740/1/3 721/1/3 739/1/3
f 741/4/3 722/4/3 721/4/3
f 741/1/3 721/1/3 740/1/3
f 742/2/3 723/2/3 722/2/3
f 742/4/3 722/4/3 741/4/3
f 743/2/3 723/2/3 742/2/3
f 745/3/3 730/3/3 729/3/3
f 745/3/3 731/3/3 730/3/3
f 746/3/3 731/3/3 745/3/3
f 747/2/3 718/2/3 735/2/3
f 748/1/3 736/1/3 718/1/3
f 748/2/3 718/2/3 747/2/3
f 749/2/3 738/2/3 737/2/3
f 749/1/3 736/1/3 748/1/3
f 749/2/3 737/2/3 736/2/3
f 750/1/3 740/1/3 739/1/3
f 750/2/3 738/2/3 749/2/3
f 750/1/3 739/1/3 738/1/3
f 751/2/3 741/2/3 740/2/3
f 751/1/3 740/1/3 750/1/3
f 752/2/3 741/2/3 751/2/3
f 753/3/3 744/3/3 743/3/3
f 754/3/3 744/3/3 753/3/3
f 757/4/3 754/4/3 753/4/3
f 758/4/3 754/4/3 757/4/3
f 759/4/3 756/4/3 755/4/3
f 760/4/3 756/4/3 759/4/3
f 762/3/3 759/3/3 758/3/3
f 762/3/3 760/3/3 759/3/3
f 763/4/3 761/4/3 760/4/3
f 763/3/3 760/3/3 762/3/3
f 764/4/3 761/4/3 763/4/3
f 765/3/3 764/3/3 763/3/3
f 768/3/3 762/3/3 758/3/3
f 769/3/3 762/3/3 768/3/3
f 770/3/3 766/3/3 765/3/3
f 770/3/3 765/3/3 763/3/3
f 771/3/3 766/3/3 770/3/3
f 773/3/3 768/3/3 767/3/3
f 774/3/3 768/3/3 773/3/3
f 775/3/3 766/3/3 771/3/3
f 776/3/3 766/3/3 775/3/3
f 778/4/3 773/4/3 772/4/3
f 779/4/3 773/4/3 778/4/3
f 781/3/3 779/3/3 778/3/3
f 782/3/3 779/3/3 781/3/3
f 783/3/3 781/3/3 780/3/3
f 784/3/3 781/3/3 783/3/3
f 785/3/3 777/3/3 776/3/3
f 786/3/3 777/3/3 785/3/3
f 788/4/3 787/4/3 786/4/3
f 789/4/3 787/4/3 788/4/3
f 792/3/3 791/3/3 790/3/3
f 793/3/3 791/3/3 792/3/3
f 798/3/3 795/3/3 794/3/3
f 799/3/3 795/3/3 798/3/3
f 800/3/3 797/3/3 796/3/3
f 801/3/3 797/3/3 800/3/3
f 806/3/3 803/3/3 802/3/3
f 807/3/3 803/3/3 806/3/3
f 808/3/3 805/3/3 804/3/3
f 809/3/3 805/3/3 808/3/3
f 814/3/3 811/3/3 810/3/3
f 815/3/3 811/3/3 814/3/3
f 816/3/3 813/3/3 812/3/3
f 817/3/3 813/3/3 816/3/3
f 822/3/3 819/3/3 818/3/3
f 823/3/3 819/3/3 822/3/3
f 824/3/3 821/3/3 820/3/3
f 827/3/3 824/3/3 820/3/3
f 828/3/3 824/3/3 827/3/3
f 829/3/3 826/3/3 825/3/3
f 830/3/3 826/3/3 829/3/3
f 835/3/3 832/3/3 831/3/3
f 836/3/3 832/3/3 835/3/3
f 837/3/3 834/3/3 833/3/3
f 841/3/3 834/3/3 837/3/3
f 842/3/3 834/3/3 841/3/3
f 843/3/3 839/3/3 838/3/3
f 844/3/3 839/3/3 843/3/3
f 845/3/3 841/3/3 840/3/3
f 846/3/3 841/3/3 845/3/3
f 849/3/3 848/3/3 847/3/3
f 850/3/3 848/3/3 849/3/3
f 855/3/3 852/3/3 851/3/3
f 856/3/3 852/3/3 855/3/3
f 857/3/3 854/3/3 853/3/3
f 858/3/3 854/3/3 857/3/3
f 865/3/3 860/3/3 859/3/3
f 866/3/3 860/3/3 865/3/3
f 867/3/3 862/3/3 861/3/3
f 868/3/3 862/3/3 867/3/3
f 869/3/3 864/3/3 863/3/3
f 870/3/3 864/3/3 869/3/3
f 873/3/3 872/3/3 871/3/3
f 874/3/3 872/3/3 873/3/3
f 875/3/4 876/3/4 879/3/4
f 879/3/4 876/3/4 880/3/4
f 877/3/4 878/3/4 881/3/4
f 881/3/4 878/3/4 882/3/4
f 883/3/4 884/3/4 887/3/4
f 887/3/4 884/3/4 888/3/4
f 885/3/4 886/3/4 889/3/4
f 889/3/4 886/3/4 890/3/4
f 891/3/4 892/3/4 893/3/4
f 893/3/4 892/3/4 894/3/4
f 895/3/4 896/3/4 897/3/4
f 897/3/4 896/3/4 898/3/4
f 899/3/4 900/3/4 905/3/4
f 905/3/4 900/3/4 906/3/4
f 901/3/4 902/3/4 909/3/4
f 909/3/4 902/3/4 910/3/4
f 903/3/4 904/3/4 911/3/4
f 911/3/4 904/3/4 912/3/4
f 907/3/4 908/3/4 917/3/4
f 917/3/4 908/3/4 918/3/4
f 912/3/4 913/3/4 920/3/4
f 915/3/4 916/3/4 921/3/4
f 914/3/4 915/3/4 921/3/4
f 921/3/4 916/3/4 922/3/4
f 918/3/4 919/3/4 923/3/4
f 923/3/4 919/3/4 924/3/4
f 920/3/4 913/3/4 925/3/4
f 925/3/4 913/3/4 926/3/4
f 927/3/4 928/3/4 933/3/4
f 933/3/4 928/3/4 934/3/4
f 929/3/4 930/3/4 935/3/4
f 935/3/4 930/3/4 936/3/4
f 931/3/4 932/3/4 937/3/4
f 937/3/4 932/3/4 938/3/4
f 939/3/4 940/3/4 945/3/4
f 945/3/4 940/3/4 946/3/4
f 941/3/4 942/3/4 947/3/4
f 947/3/4 942/3/4 948/3/4
f 943/3/4 944/3/4 949/3/4
f 949/3/4 944/3/4 950/3/4
f 951/3/4 952/3/4 953/3/4
f 953/3/4 952/3/4 954/3/4
f 955/3/4 956/3/4 957/3/4
f 957/3/4 956/3/4 958/3/4
f 958/3/4 959/3/4 962/3/4
f 962/3/4 959/3/4 963/3/4
f 963/4/4 964/4/4 967/4/4
f 967/4/4 964/4/4 968/4/4
f 960/3/4 961/3/4 971/3/4
f 971/3/4 961/3/4 972/3/4
f 968/4/4 969/4/4 973/4/4
f 973/4/4 969/4/4 974/4/4
f 965/4/4 966/4/4 976/4/4
f 976/4/4 966/4/4 977/4/4
f 970/3/4 971/3/4 978/3/4
f 978/3/4 971/3/4 979/3/4
f 973/3/4 974/3/4 980/3/4
f 974/4/4 975/4/4 981/4/4
f 980/3/4 974/3/4 981/3/4
f 981/4/4 975/4/4 982/4/4
f 977/4/4 978/4/4 983/4/4
f 983/4/4 978/4/4 984/4/4
f 981/3/4 982/3/4 985/3/4
f 977/4/4 983/4/4 987/4/4
f 987/4/4 983/4/4 988/4/4
f 981/3/4 985/3/4 994/3/4
f 985/4/4 986/4/4 995/4/4
f 994/3/4 985/3/4 995/3/4
f 986/3/4 987/3/4 996/3/4
f 995/4/4 986/4/4 996/4/4
f 996/3/4 987/3/4 997/3/4
f 989/2/4 990/2/4 1001/2/4
f 990/1/4 991/1/4 1001/1/4
f 1001/1/4 991/1/4 1002/1/4
f 1002/1/4 991/1/4 1003/1/4
f 991/2/4 992/2/4 1004/2/4
f 1003/1/4 991/1/4 1004/1/4
f 1004/2/4 992/2/4 1005/2/4
f 993/3/4 994/3/4 1009/3/4
f 1009/3/4 994/3/4 1010/3/4
f 996/4/4 997/4/4 1011/4/4
f 997/3/4 998/3/4 1012/3/4
f 1011/4/4 997/4/4 1012/4/4
f 998/4/4 999/4/4 1013/4/4
f 1012/3/4 998/3/4 1013/3/4
f 999/3/4 1000/3/4 1014/3/4
f 1013/4/4 999/4/4 1014/4/4
f 1014/3/4 1000/3/4 1015/3/4
f 1015/3/4 1000/3/4 1016/3/4
f 989/2/4 1001/2/4 1018/2/4
f 1001/2/4 1002/2/4 1018/2/4
f 1002/1/4 1003/1/4 1019/1/4
f 1018/2/4 1002/2/4 1019/2/4
f 1003/2/4 1004/2/4 1020/2/4
f 1019/1/4 1003/1/4 1020/1/4
f 1004/2/4 1005/2/4 1020/2/4
f 1020/2/4 1005/2/4 1021/2/4
f 1005/1/4 1006/1/4 1022/1/4
f 1006/2/4 1007/2/4 1023/2/4
f 1022/1/4 1006/1/4 1023/1/4
f 1023/2/4 1007/2/4 1024/2/4
f 1007/1/4 1008/1/4 1025/1/4
f 1024/2/4 1007/2/4 1025/2/4
f 1025/1/4 1008/1/4 1026/1/4
f 1008/4/4 1009/4/4 1027/4/4
f 1026/1/4 1008/1/4 1027/1/4
f 1009/2/4 1010/2/4 1028/2/4
f 1027/4/4 1009/4/4 1028/4/4
f 1028/2/4 1010/2/4 1029/2/4
f 1015/3/4 1016/3/4 1033/3/4
f 1016/3/4 1017/3/4 1033/3/4
f 1033/3/4 1017/3/4 1034/3/4
f 1021/2/4 1005/2/4 1035/2/4
f 1005/1/4 1022/1/4 1036/1/4
f 1035/2/4 1005/2/4 1036/2/4
f 1023/2/4 1024/2/4 1037/2/4
f 1036/1/4 1022/1/4 1037/1/4
f 1022/2/4 1023/2/4 1037/2/4
f 1025/1/4 1026/1/4 1038/1/4
f 1037/2/4 1024/2/4 1038/2/4
f 1024/1/4 1025/1/4 1038/1/4
f 1026/2/4 1027/2/4 1039/2/4
f 1038/1/4 1026/1/4 1039/1/4
f 1039/2/4 1027/2/4 1040/2/4
f 1029/3/4 1030/3/4 1041/3/4
f 1028/3/4 1029/3/4 1041/3/4
f 1041/3/4 1030/3/4 1042/3/4
f 1042/3/4 1030/3/4 1043/3/4
f 1031/3/4 1032/3/4 1044/3/4
f 1044/3/4 1032/3/4 1045/3/4
f 1042/4/4 1043/4/4 1046/4/4
f 1046/4/4 1043/4/4 1047/4/4
f 1044/4/4 1045/4/4 1048/4/4
f 1048/4/4 1045/4/4 1049/4/4
f 1048/3/4 1049/3/4 1051/3/4
f 1047/3/4 1048/3/4 1051/3/4
f 1049/4/4 1050/4/4 1052/4/4
f 1051/3/4 1049/3/4 1052/3/4
f 1052/4/4 1050/4/4 1053/4/4
f 1052/3/4 1053/3/4 1054/3/4
f 1047/3/4 1051/3/4 1057/3/4
f 1057/3/4 1051/3/4 1058/3/4
f 1054/3/4 1055/3/4 1059/3/4
f 1052/3/4 1054/3/4 1059/3/4
f 1059/3/4 1055/3/4 1060/3/4
f 1056/3/4 1057/3/4 1062/3/4
f 1062/3/4 1057/3/4 1063/3/4
f 1060/3/4 1055/3/4 1064/3/4
f 1064/3/4 1055/3/4 1065/3/4
f 1061/4/4 1062/4/4 1067/4/4
f 1067/4/4 1062/4/4 1068/4/4
f 1067/3/4 1068/3/4 1070/3/4
f 1070/3/4 1068/3/4 1071/3/4
f 1069/3/4 1070/3/4 1072/3/4
f 1072/3/4 1070/3/4 1073/3/4
f 1065/3/4 1066/3/4 1074/3/4
f 1074/3/4 1066/3/4 1075/3/4
f 1075/4/4 1076/4/4 1077/4/4
f 1077/4/4 1076/4/4 1078/4/4
f 1079/3/4 1080/3/4 1081/3/4
f 1081/3/4 1080/3/4 1082/3/4
f 1083/3/4 1084/3/4 1086/3/4
f 1086/3/4 1084/3/4 1087/3/4
f 1085/3/4 1086/3/4 1089/3/4
f 1089/3/4 1086/3/4 1090/3/4
f 1087/3/4 1088/3/4 1091/3/4
f 1091/3/4 1088/3/4 1092/3/4
f 1093/3/4 1094/3/4 1095/3/4
f 1095/3/4 1094/3/4 1096/3/4
f 1097/3/4 1098/3/4 1101/3/4
f 1101/3/4 1098/3/4 1102/3/4
f 1099/3/4 1100/3/4 1103/3/4
f 1103/3/4 1100/3/4 1104/3/4
f 1105/3/4 1106/3/4 1110/3/4
f 1110/3/4 1106/3/4 1111/3/4
f 1107/3/4 1108/3/4 1112/3/4
f 1112/3/4 1108/3/4 1113/3/4
f 1109/3/4 1110/3/4 1114/3/4
f 1114/3/4 1110/3/4 1115/3/4
f 1116/3/4 1117/3/4 1118/3/4
f 1118/3/4 1117/3/4 1119/3/4
f 1120/3/4 1121/3/4 1124/3/4
f 1124/3/4 1121/3/4 1125/3/4
f 1122/3/4 1123/3/4 1126/3/4
f 1126/3/4 1123/3/4 1127/3/4
f 1128/3/4 1129/3/4 1132/3/4
f 1132/3/4 1129/3/4 1133/3/4
f 1130/3/4 1131/3/4 1134/3/4
f 1134/3/4 1131/3/4 1135/3/4
f 1136/3/4 1137/3/4 1138/3/4
f 1138/3/4 1137/3/4 1139/3/4
f 1140/3/4 1141/3/4 1144/3/4
f 1144/3/4 1141/3/4 1145/3/4
f 1142/3/4 1143/3/4 1146/3/4
f 1146/3/4 1143/3/4 1147/3/4
f 1148/3/4 1149/3/4 1150/3/4
f 1150/3/4 1149/3/4 1151/3/4
f 1152/3/4 1153/3/4 1156/3/4
f 1156/3/4 1153/3/4 1157/3/4
f 1154/3/4 1155/3/4 1158/3/4
f 1158/3/4 1155/3/4 1159/3/4
f 1160/3/4 1161/3/4 1162/3/4
f 1162/3/4 1161/3/4 1163/3/4
f 1164/3/4 1165/3/4 1166/3/4
f 1166/3/4 1165/3/4 1167/3/4
f 1170/2/5 1169/2/5 1168/2/5
f 1171/2/5 1169/2/5 1170/2/5
f 1174/2/5 1173/2/5 1172/2/5
f 1175/2/5 1173/2/5 1174/2/5
f 1178/3/5 1177/3/5 1176/3/5
f 1179/3/5 1177/3/5 1178/3/5
f 1182/3/5 1181/3/5 1180/3/5
f 1183/3/5 1181/3/5 1182/3/5
f 1186/3/5 1185/3/5 1184/3/5
f 1187/3/5 1185/3/5 1186/3/5
f 1190/3/5 1189/3/5 1188/3/5
f 1191/3/5 1189/3/5 1190/3/5
f 1193/3/5 1192/3/5 1191/3/5
f 1194/3/5 1192/3/5 1193/3/5
f 1197/3/5 1196/3/5 1195/3/5
f 1198/3/5 1196/3/5 1197/3/5
f 1201/3/5 1200/3/5 1199/3/5
f 1202/3/5 1200/3/5 1201/3/5
f 1205/3/5 1204/3/5 1203/3/5
f 1206/3/5 1204/3/5 1205/3/5
f 1209/3/5 1208/3/5 1207/3/5
f 1210/3/5 1208/3/5 1209/3/5
f 1213/3/5 1212/3/5 1211/3/5
f 1214/3/5 1212/3/5 1213/3/5
f 1217/3/5 1216/3/5 1215/3/5
f 1218/3/5 1216/3/5 1217/3/5
f 1221/3/5 1220/3/5 1219/3/5
f 1222/3/5 1220/3/5 1221/3/5
f 1226/3/5 1223/3/5 1222/3/5
f 1227/3/5 1223/3/5 1226/3/5
f 1228/3/5 1225/3/5 1224/3/5
f 1229/3/5 1225/3/5 1228/3/5
f 1234/4/5 1231/4/5 1230/4/5
f 1235/4/5 1231/4/5 1234/4/5
f 1236/3/5 1233/3/5 1232/3/5
f 1237/3/5 1233/3/5 1236/3/5
f 1240/3/5 1239/3/5 1238/3/5
f 1241/3/5 1239/3/5 1240/3/5
f 1244/3/5 1243/3/5 1242/3/5
f 1248/3/5 1244/3/5 1242/3/5
f 1248/3/5 1245/3/5 1244/3/5
f 1249/3/5 1245/3/5 1248/3/5
f 1250/3/5 1248/3/5 1242/3/5
f 1251/3/5 1248/3/5 1250/3/5
f 1252/3/5 1247/3/5 1246/3/5
f 1253/3/5 1247/3/5 1252/3/5
f 1260/3/5 1254/3/5 1253/3/5
f 1264/4/5 1256/4/5 1255/4/5
f 1265/3/5 1257/3/5 1256/3/5
f 1265/4/5 1256/4/5 1264/4/5
f 1266/3/5 1257/3/5 1265/3/5
f 1267/3/5 1259/3/5 1258/3/5
f 1268/3/5 1259/3/5 1267/3/5
f 1269/3/5 1254/3/5 1260/3/5
f 1270/3/5 1254/3/5 1269/3/5
f 1271/4/5 1262/4/5 1261/4/5
f 1272/3/5 1263/3/5 1262/3/5
f 1272/4/5 1262/4/5 1271/4/5
f 1273/3/5 1263/3/5 1272/3/5
f 1276/3/5 1275/3/5 1274/3/5
f 1277/3/5 1275/3/5 1276/3/5
f 1280/3/5 1279/3/5 1278/3/5
f 1281/3/5 1279/3/5 1280/3/5
f 1284/3/5 1283/3/5 1282/3/5
f 1285/3/5 1283/3/5 1284/3/5
f 1288/3/5 1287/3/5 1286/3/5
f 1289/3/5 1287/3/5 1288/3/5
f 1294/3/5 1291/3/5 1290/3/5
f 1295/3/5 1291/3/5 1294/3/5
f 1300/3/5 1293/3/5 1292/3/5
f 1301/3/5 1293/3/5 1300/3/5
f 1304/4/5 1297/4/5 1296/4/5
f 1305/4/5 1297/4/5 1304/4/5
f 1306/3/5 1299/3/5 1298/3/5
f 1307/3/5 1299/3/5 1306/3/5
f 1308/3/5 1303/3/5 1302/3/5
f 1308/3/5 1302/3/5 1301/3/5
f 1309/3/5 1303/3/5 1308/3/5
f 1310/3/5 1308/3/5 1301/3/5
f 1311/3/5 1308/3/5 1310/3/5
f 1314/3/5 1313/3/5 1312/3/5
f 1315/3/5 1313/3/5 1314/3/5
f 1320/3/5 1317/3/5 1316/3/5
f 1321/3/5 1317/3/5 1320/3/5
f 1323/3/5 1322/3/5 1321/3/5
f 1324/3/5 1322/3/5 1323/3/5
f 1325/3/5 1319/3/5 1318/3/5
f 1326/3/5 1319/3/5 1325/3/5
f 1331/3/5 1328/3/5 1327/3/5
f 1332/3/5 1328/3/5 1331/3/5
f 1333/3/5 1330/3/5 1329/3/5
f 1334/3/5 1330/3/5 1333/3/5
f 1337/3/5 1336/3/5 1335/3/5
f 1338/3/5 1336/3/5 1337/3/5
f 1341/3/5 1340/3/5 1339/3/5
f 1342/3/5 1340/3/5 1341/3/5
f 1344/3/5 1343/3/5 1342/3/5
f 1345/3/5 1343/3/5 1344/3/5
f 1350/3/5 1347/3/5 1346/3/5
f 1352/4/5 1349/4/5 1348/4/5
f 1353/4/5 1349/4/5 1352/4/5
f 1354/3/5 1350/3/5 1346/3/5
f 1355/4/5 1351/4/5 1350/4/5
f 1355/3/5 1350/3/5 1354/3/5
f 1356/4/5 1351/4/5 1355/4/5
f 1359/3/5 1358/3/5 1357/3/5
f 1360/3/5 1358/3/5 1359/3/5
f 1363/3/5 1362/3/5 1361/3/5
f 1364/3/5 1362/3/5 1363/3/5
f 1365/3/5 1362/3/5 1364/3/5
f 1366/3/5 1362/3/5 1365/3/5
f 1369/3/5 1368/3/5 1367/3/5
f 1370/3/5 1368/3/5 1369/3/5
f 1375/4/5 1372/4/5 1371/4/5
f 1376/4/5 1372/4/5 1375/4/5
f 1377/3/5 1374/3/5 1373/3/5
f 1378/3/5 1374/3/5 1377/3/5
f 1383/3/5 1380/3/5 1379/3/5
f 1384/3/5 1380/3/5 1383/3/5
f 1385/3/5 1382/3/5 1381/3/5
f 1386/3/5 1382/3/5 1385/3/5
f 1388/3/5 1387/3/5 1386/3/5
f 1389/3/5 1387/3/5 1388/3/5
f 1392/3/5 1391/3/5 1390/3/5
f 1393/3/5 1391/3/5 1392/3/5
f 1397/3/5 1395/3/5 1394/3/5
f 1398/3/5 1395/3/5 1397/3/5
f 1400/3/5 1397/3/5 1396/3/5
f 1401/3/5 1397/3/5 1400/3/5
f 1402/3/5 1399/3/5 1398/3/5
f 1403/3/5 1399/3/5 1402/3/5
f 1406/3/5 1405/3/5 1404/3/5
f 1407/3/5 1405/3/5 1406/3/5
f 1413/3/5 1411/3/5 1410/3/5
f 1413/3/5 1412/3/5 1411/3/5
f 1414/3/5 1413/3/5 1410/3/5
f 1415/3/5 1413/3/5 1414/3/5
f 1416/3/5 1409/3/5 1408/3/5
f 1417/3/5 1409/3/5 1416/3/5
f 1418/3/5 1413/3/5 1415/3/5
f 1419/3/5 1413/3/5 1418/3/5
f 1422/3/5 1421/3/5 1420/3/5
f 1424/3/5 1422/3/5 1420/3/5
f 1424/3/5 1423/3/5 1422/3/5
f 1425/3/5 1423/3/5 1424/3/5
f 1426/3/5 1423/3/5 1425/3/5
f 1427/3/5 1423/3/5 1426/3/5
f 1432/3/5 1429/3/5 1428/3/5
f 1433/3/5 1429/3/5 1432/3/5
f 1434/3/5 1431/3/5 1430/3/5
f 1435/3/5 1431/3/5 1434/3/5
f 1438/3/5 1437/3/5 1436/3/5
f 1439/3/5 1437/3/5 1438/3/5
f 1446/3/5 1441/3/5 1440/3/5
f 1447/3/5 1441/3/5 1446/3/5
f 1448/3/5 1443/3/5 1442/3/5
f 1449/3/5 1443/3/5 1448/3/5
f 1450/4/5 1445/4/5 1444/4/5
f 1451/4/5 1445/4/5 1450/4/5
f 1452/2/6 1453/2/6 1454/2/6
f 1454/2/6 1453/2/6 1455/2/6
f 1456/3/6 1457/3/6 1458/3/6
f 1458/3/6 1457/3/6 1459/3/6
f 1460/3/6 1461/3/6 1464/3/6
f 1464/3/6 1461/3/6 1465/3/6
f 1462/3/6 1463/3/6 1466/3/6
f 1466/3/6 1463/3/6 1467/3/6
f 1465/3/6 1466/3/6 1468/3/6
f 1468/3/6 1466/3/6 1469/3/6
f 1470/3/6 1471/3/6 1474/3/6
f 1474/3/6 1471/3/6 1475/3/6
f 1472/2/6 1473/2/6 1476/2/6
f 1476/2/6 1473/2/6 1477/2/6
f 1478/3/6 1479/3/6 1480/3/6
f 1480/3/6 1479/3/6 1481/3/6
f 1482/3/6 1483/3/6 1484/3/6
f 1484/3/6 1483/3/6 1485/3/6
f 1486/3/6 1487/3/6 1488/3/6
f 1488/3/6 1487/3/6 1489/3/6
f 1490/3/6 1491/3/6 1492/3/6
f 1492/3/6 1491/3/6 1493/3/6
f 1494/3/6 1495/3/6 1496/3/6
f 1496/3/6 1495/3/6 1497/3/6
f 1498/3/6 1499/3/6 1500/3/6
f 1500/3/6 1499/3/6 1501/3/6
f 1502/4/6 1503/4/6 1506/4/6
f 1506/4/6 1503/4/6 1507/4/6
f 1504/3/6 1505/3/6 1508/3/6
f 1508/3/6 1505/3/6 1509/3/6
f 1510/3/6 1511/3/6 1514/3/6
f 1512/3/6 1513/3/6 1515/3/6
f 1515/3/6 1513/3/6 1516/3/6
f 1514/3/6 1511/3/6 1518/3/6
f 1518/3/6 1511/3/6 1519/3/6
f 1516/3/6 1517/3/6 1520/3/6
f 1520/3/6 1517/3/6 1521/3/6
f 1522/3/6 1523/3/6 1524/3/6
f 1522/3/6 1524/3/6 1528/3/6
f 1524/3/6 1525/3/6 1528/3/6
f 1528/3/6 1525/3/6 1529/3/6
f 1522/3/6 1528/3/6 1530/3/6
f 1530/3/6 1528/3/6 1531/3/6
f 1526/3/6 1527/3/6 1532/3/6
f 1532/3/6 1527/3/6 1533/3/6
f 1533/3/6 1534/3/6 1539/3/6
f 1539/3/6 1534/3/6 1540/3/6
f 1535/4/6 1536/4/6 1544/4/6
f 1544/4/6 1536/4/6 1545/4/6
f 1537/3/6 1538/3/6 1546/3/6
f 1546/3/6 1538/3/6 1547/3/6
f 1541/4/6 1542/4/6 1548/4/6
f 1542/3/6 1543/3/6 1549/3/6
f 1548/4/6 1542/4/6 1549/4/6
f 1549/3/6 1543/3/6 1550/3/6
f 1551/3/6 1552/3/6 1553/3/6
f 1553/3/6 1552/3/6 1554/3/6
f 1555/3/6 1556/3/6 1557/3/6
f 1557/3/6 1556/3/6 1558/3/6
f 1559/3/6 1560/3/6 1561/3/6
f 1561/3/6 1560/3/6 1562/3/6
f 1563/3/6 1564/3/6 1565/3/6
f 1565/3/6 1564/3/6 1566/3/6
f 1567/4/6 1568/4/6 1575/4/6
f 1568/3/6 1569/3/6 1576/3/6
f 1575/4/6 1568/4/6 1576/4/6
f 1576/3/6 1569/3/6 1577/3/6
f 1570/3/6 1571/3/6 1578/3/6
f 1571/4/6 1572/4/6 1579/4/6
f 1578/3/6 1571/3/6 1579/3/6
f 1579/4/6 1572/4/6 1580/4/6
f 1573/3/6 1574/3/6 1581/3/6
f 1581/3/6 1574/3/6 1582/3/6
f 1583/3/6 1584/3/6 1585/3/6
f 1585/3/6 1584/3/6 1586/3/6
f 1587/3/6 1588/3/6 1591/3/6
f 1591/3/6 1588/3/6 1592/3/6
f 1589/3/6 1590/3/6 1594/3/6
f 1592/3/6 1593/3/6 1595/3/6
f 1595/3/6 1593/3/6 1596/3/6
f 1589/3/6 1594/3/6 1597/3/6
f 1589/3/6 1597/3/6 1598/3/6
f 1598/3/6 1597/3/6 1602/3/6
f 1602/3/6 1597/3/6 1603/3/6
f 1599/3/6 1600/3/6 1604/3/6
f 1604/3/6 1600/3/6 1605/3/6
f 1602/3/6 1603/3/6 1606/3/6
f 1601/3/6 1602/3/6 1606/3/6
f 1606/3/6 1603/3/6 1607/3/6
f 1601/3/6 1606/3/6 1608/3/6
f 1608/3/6 1606/3/6 1609/3/6
f 1610/3/6 1611/3/6 1612/3/6
f 1612/3/6 1611/3/6 1613/3/6
f 1614/3/6 1615/3/6 1616/3/6
f 1616/3/6 1615/3/6 1617/3/6
f 1617/3/6 1618/3/6 1619/3/6
f 1619/3/6 1618/3/6 1620/3/6
f 1621/3/6 1622/3/6 1627/3/6
f 1623/4/6 1624/4/6 1629/4/6
f 1629/4/6 1624/4/6 1630/4/6
f 1625/3/6 1626/3/6 1631/3/6
f 1631/3/6 1626/3/6 1632/3/6
f 1621/3/6 1627/3/6 1633/3/6
f 1627/4/6 1628/4/6 1634/4/6
f 1633/3/6 1627/3/6 1634/3/6
f 1634/4/6 1628/4/6 1635/4/6
f 1636/3/6 1637/3/6 1638/3/6
f 1638/3/6 1637/3/6 1639/3/6
f 1640/3/6 1641/3/6 1643/3/6
f 1641/3/6 1642/3/6 1643/3/6
f 1643/3/6 1642/3/6 1644/3/6
f 1644/3/6 1642/3/6 1645/3/6
f 1645/3/6 1642/3/6 1646/3/6
f 1647/3/6 1648/3/6 1649/3/6
f 1649/3/6 1648/3/6 1650/3/6
f 1651/4/6 1652/4/6 1656/4/6
f 1656/4/6 1652/4/6 1657/4/6
f 1653/4/6 1654/4/6 1658/4/6
f 1654/3/6 1655/3/6 1659/3/6
f 1658/4/6 1654/4/6 1659/4/6
f 1659/3/6 1655/3/6 1660/3/6
f 1661/3/6 1662/3/6 1665/3/6
f 1665/3/6 1662/3/6 1666/3/6
f 1663/3/6 1664/3/6 1667/3/6
f 1667/3/6 1664/3/6 1668/3/6
f 1668/3/6 1669/3/6 1670/3/6
f 1670/3/6 1669/3/6 1671/3/6
f 1672/3/6 1673/3/6 1674/3/6
f 1674/3/6 1673/3/6 1675/3/6
f 1676/3/6 1677/3/6 1679/3/6
f 1679/3/6 1677/3/6 1680/3/6
f 1678/3/6 1679/3/6 1682/3/6
f 1682/3/6 1679/3/6 1683/3/6
f 1680/3/6 1681/3/6 1684/3/6
f 1684/3/6 1681/3/6 1685/3/6
f 1686/4/6 1687/4/6 1690/4/6
f 1690/4/6 1687/4/6 1691/4/6
f 1688/3/6 1689/3/6 1692/3/6
f 1692/3/6 1689/3/6 1693/3/6
f 1696/3/6 1697/3/6 1698/3/6
f 1698/3/6 1697/3/6 1699/3/6
f 1694/3/6 1695/3/6 1700/3/6
f 1700/3/6 1695/3/6 1701/3/6
f 1699/3/6 1697/3/6 1702/3/6
f 1702/3/6 1697/3/6 1703/3/6
f 1704/3/6 1705/3/6 1706/3/6
f 1704/3/6 1706/3/6 1708/3/6
f 1706/3/6 1707/3/6 1708/3/6
f 1708/3/6 1707/3/6 1709/3/6
f 1710/3/6 1711/3/6 1714/3/6
f 1714/3/6 1711/3/6 1715/3/6
f 1712/3/6 1713/3/6 1716/3/6
f 1716/3/6 1713/3/6 1717/3/6
f 1718/3/6 1719/3/6 1720/3/6
f 1720/3/6 1719/3/6 1721/3/6
f 1722/3/6 1723/3/6 1728/3/6
f 1728/3/6 1723/3/6 1729/3/6
f 1724/3/6 1725/3/6 1730/3/6
f 1730/3/6 1725/3/6 1731/3/6
f 1726/4/6 1727/4/6 1732/4/6
f 1732/4/6 1727/4/6 1733/4/6
f 1734/3/6 1735/3/6 1736/3/6
f 1736/3/6 1735/3/6 1737/3/6
